<svg id="Capa_1" data-name="Capa 1" xmlns="http://www.w3.org/2000/svg" viewBox="0 0 298.52 352.88"><defs><style>.cls-1,.cls-3{fill:#fff;}.cls-1{stroke:#fff;stroke-miterlimit:10;stroke-width:8px;}.cls-2{fill:#080808;}.cls-4{fill:#fefefe;}.cls-5{fill:#141414;}.cls-6{fill:#333;}.cls-7{fill:#8e8e8e;}.cls-8{fill:#d1d1d1;}.cls-9{fill:#a8a8a8;}.cls-10{fill:#9d9d9d;}.cls-11{fill:#555;}.cls-12{fill:#090909;}.cls-13{fill:#0a0a0a;}.cls-14{fill:#454545;}.cls-15{fill:#cdcdcd;}.cls-16{fill:#eaeaea;}.cls-17{fill:#1f1f1f;}.cls-18{fill:#202020;}</style></defs><path class="cls-1" d="M338.29,321.79c-4.9-3.55-10.15-5.44-15.12.19-4.62,5.22-2.26,9.35,2,13.19,2.77,2.47,3.51,4.87.46,7.89-2.62,2.61-5.09,4.69-8.72,2.06-4.53-3.28-7.88-7-8.09-13.3-.33-10.2,5.52-18.25,8.83-27.07,5.42-14.47,13.31-28.05,18.38-42.62,12.84-36.94,26.63-73.78,21.55-114.24-3.8-30.29-25.58-56-57.9-55.28-4.07.09-7.62-.52-10.71-3.42-5.11-4.81-10.22-9.63-15.63-14.09-21.47-17.68-46.95-25.56-73.92-29.27-16.69-2.3-32,3.68-47.43,9C92,75.64,61,126.84,69.61,188.22A286.74,286.74,0,0,0,93.1,268.35c9.1,19.75,15.41,40.45,22.77,60.79,1.34,3.7,1.55,8.52-1.58,11.94s-7.12,5.87-11.41,1.82c-3.67-3.48-3.48-7.7.49-10.7,3.8-2.88,5.11-6,2.25-9.72s-6.62-5.55-11.54-3.37c-9.06,4-13.76,14.81-11.3,24.5,2.93,11.53,10.47,18.92,21.34,21.16,13,2.68,24.42-2.49,33.08-12.61,7-8.23,6.3-7.85,14.11-.23,6.93,6.78,10.79,16.2,18.7,21.75,10,7,20.44,13.42,32.49,16.51h20.36c3.3.13,5.83-1.85,8.62-2.54,19.62-4.9,31.85-19.6,44.86-33.12,8.88-9.23,8.48-9.61,17.83-.3,12.09,12,25.23,14.16,39.26,6.34C348.64,352.09,351.33,331.22,338.29,321.79Z" transform="translate(-64.18 -41.32)"/><path class="cls-2" d="M202.5,390.19c-12.05-3.09-22.52-9.5-32.49-16.51-7.91-5.55-11.77-15-18.7-21.75-7.81-7.62-7.07-8-14.11.22-8.66,10.13-20.07,15.3-33.08,12.62-10.87-2.24-18.41-9.63-21.34-21.16-2.46-9.69,2.24-20.51,11.3-24.5,4.92-2.18,8.72-.32,11.54,3.37s1.55,6.84-2.25,9.72c-4,3-4.16,7.22-.49,10.7,4.29,4.05,8.28,1.58,11.41-1.82s2.92-8.24,1.58-11.94c-7.36-20.34-13.67-41-22.77-60.79a286.74,286.74,0,0,1-23.49-80.13C61,126.84,92,75.64,152,54.86c15.45-5.35,30.74-11.33,47.43-9,27,3.71,52.45,11.59,73.92,29.27,5.41,4.46,10.52,9.28,15.63,14.09,3.09,2.9,6.64,3.51,10.71,3.42,32.32-.69,54.1,25,57.9,55.28,5.08,40.46-8.71,77.3-21.55,114.24-5.07,14.57-13,28.15-18.38,42.62-3.31,8.82-9.16,16.87-8.83,27.07.21,6.29,3.56,10,8.09,13.3,3.63,2.63,6.1.55,8.72-2.06,3.05-3,2.31-5.42-.46-7.89-4.3-3.84-6.66-8-2-13.19,5-5.63,10.22-3.74,15.12-.19,13,9.43,10.35,30.3-4.86,38.78-14,7.82-27.17,5.7-39.26-6.34-9.35-9.31-8.95-8.93-17.83.3-13,13.52-25.24,28.22-44.86,33.12-2.79.69-4.6,2.31-8.62,2.54Z" transform="translate(-64.18 -41.32)"/><path class="cls-3" d="M305.73,178.84c4.37,18.72,7.29,37.57,3.23,56.72-4.79,22.57-7.2,45.73-15.72,67.4-10,25.41-25.78,46.54-48.42,62.06-21.37,14.65-54.57,9.35-73.77-8.45-26.13-24.22-40-54.61-46.8-88.84-3.76-18.88-9.22-37.48-9.55-57-.09-5.06,1.61-9.71,2-14.61,4.18-5.62,4.53-12.45,6-18.92,9.07-25.49,26.39-43.52,51.36-53.13,43.11-16.6,83-7.11,120.27,17.58,7.41,4.91,11.23,12,10.28,21.13C305.4,168.12,302.61,173.69,305.73,178.84Z" transform="translate(-64.18 -41.32)"/><path class="cls-4" d="M91,236.93c.43-7.13-1.57-12.09,2.77-16.36,5.43-5.33,8.4-5.2,10.9,2.07,2.75,8,4.89,16.24,7,24.46,2.41,9.48,4.4,19,6.7,28.56,1.06,4.39-.95,6.64-4.74,8.36-4.57,2.08-5.38-1.56-6.71-4.11C99.49,265.56,91.57,251.36,91,236.93Z" transform="translate(-64.18 -41.32)"/><path class="cls-4" d="M333.83,244.64a271.72,271.72,0,0,1-15.07,35.51c-1.31,2.6-3.06,4.3-6.17,3.07-2.7-1.07-4.39-3.06-3.65-6.06,4.36-17.49,4.66-35.7,9.4-53.11a13.28,13.28,0,0,0,1.93-3.32c3.27-6.35,6.13-7.11,11.75-2.78a16.61,16.61,0,0,1,2.92,2.27c2.69,5.41,1.08,11,.51,16.48C334.63,239.29,333.33,241.78,333.83,244.64Z" transform="translate(-64.18 -41.32)"/><path class="cls-5" d="M318.46,125.6c-3-.94-20.8-12.75-22.57-12.41a13.83,13.83,0,0,1-12.22-3c-6.15-5.16-14.46-11.83-19.5-16.74-1-1-2.52-2.35-1.37-4.14.91-1.42,2.37-.47,3.76,0,1.65.55,19.79,15.21,21.06,16.37,2.26,2.07,6.77,1.32,10.91,1.32,3.19,0,16,10.5,20.68,15.8C320.93,124.73,319.59,125,318.46,125.6Z" transform="translate(-64.18 -41.32)"/><path class="cls-6" d="M333.93,221.15c-6.32-5.08-13.14-1.83-16,4.59a23,23,0,0,1,1.63-10c2.35-5.2,5-6.48,10.35-2.65,3.69,2.64,12.56,5.34,9,16.06C337.22,224.89,336.52,223.34,333.93,221.15Z" transform="translate(-64.18 -41.32)"/><path class="cls-7" d="M333.93,221.15c3.27.78,3.32,4.12,4.93,6.22a28.77,28.77,0,0,1-3.29,12.48c-1.48.3-2.3,0-1.68-1.75C335.67,232.37,336.52,225.88,333.93,221.15Z" transform="translate(-64.18 -41.32)"/><path class="cls-8" d="M141.59,145.34c-11.94,13.55-18.37,42.55-20.31,48.34-.64,1.89-2.68,5.8-5.22,6.74C116.06,193.86,126.08,159.64,141.59,145.34Z" transform="translate(-64.18 -41.32)"/><path class="cls-9" d="M308.12,189.35c-6.3-13.07-6.21-20.12-3.52-26.54C306,169.79,308,184,308.12,189.35Z" transform="translate(-64.18 -41.32)"/><path class="cls-10" d="M333.89,238.1c1.07-3.76,2.63-3.21,3.19-2.63.43,2-5.7,16.54-6.49,18.06C329.07,251.33,331.44,244.78,333.89,238.1Z" transform="translate(-64.18 -41.32)"/><path class="cls-11" d="M98.1,212c-9.07-.66-11.78,6.08-12.19,6.26a7.38,7.38,0,0,1,3.63-5.61C91.59,211.48,94.1,211.17,98.1,212Z" transform="translate(-64.18 -41.32)"/><path class="cls-12" d="M230.58,277.47c.18,3,2.18,4.67,4.47,6,1.64.93,3.8,1.86,3.06,3.78-.5,1.28-2.74,2.32-4.37,2.65-6.08,1.23-11.19,4.53-15.49,8.46-4.1,3.73-7.35,3.18-10.9.31-4.86-3.91-9.59-7.73-16-9.16-3.52-.78-3.76-3.48-.76-5.54,5.82-4,5.74-9.76,5.67-15.9-.17-16.12-.51-32.07-4.47-48-3.46-13.88-16.51-19.51-28.5-17.38-12.54,2.23-24.5,5.7-35,13.28-1.41,1-3.3,2.78-4.84,1.53-2-1.62-.24-3.72.53-5.62,4.29-10.67,14.19-14.72,23.46-18.76,11.24-4.88,23-9,35.72-5,3.94,1.26,6.79,3.35,8.41,7.29,4.93,11.94,7.69,24.32,9.54,37.14,2.21,15.29.54,30.64,2.21,45.93.76,7,3.57,8.55,9.84,8.55,6.78,0,9.42-3.08,9.45-9.36.07-13-.21-26.09.3-39.11.56-14.47,3.27-28.58,9.47-41.85,2.84-6.07,7.3-8.7,14.13-8.73,17.76-.07,34.39,3.13,48.49,14.77a43.41,43.41,0,0,1,4.28,4.5c2.56,2.82,5.33,6.88,2.75,9.63s-4.69-2.36-7.14-3.67c-12-6.4-24.13-11-38.25-9.86-13.81,1.13-23.72,11.48-26,27.18-2.09,14.5-1.72,29.06-1.33,43.63A3.87,3.87,0,0,1,230.58,277.47Z" transform="translate(-64.18 -41.32)"/><path class="cls-12" d="M190.09,318.12c-4.06-3.51-8.91-4.66-14.13-4.67-2.25,0-4.63-.49-4.35-3.16s2.91-1.47,4.49-1.47c11.05,0,22.18-.93,32.87,3.26,3.83,1.5,7.68.59,11.45-1.32,8.7-4.42,17.83-4.56,27.18-2.15,2.11.54,4.63.71,4.54,3.18s-2.78,1.36-4.37,1.67c-5.27,1-10.76,1.35-15.26,4.82-1.48,5.75-7.6,3.7-10.85,6.44a6,6,0,0,1-.81.35,6.33,6.33,0,0,0,1.75-1,20,20,0,0,1,3-1c2.08,0,4.08-1.05,6.21-.53a7.25,7.25,0,0,1,2.45,2c-4.86,10.82-13.58,13.35-24.73,12.78-11.85-.6-16.91-8.09-20.9-17.46C188.77,319,189.89,319,190.09,318.12Z" transform="translate(-64.18 -41.32)"/><path class="cls-13" d="M283.88,227.75c-.47,6.67-11.59,15.13-19.08,15.17-6.94,0-16.61-9-16.56-15.65a8.21,8.21,0,0,1,1-2.67,16.08,16.08,0,0,1,2.62,1.23c12.74,9.1,12.74,9.1,26.61,0,1.25-.82,2.57-2.25,4.07-.84A7.57,7.57,0,0,1,283.88,227.75Z" transform="translate(-64.18 -41.32)"/><path class="cls-12" d="M160.93,243c-6.07-.14-17.77-9.16-19.24-15a9.85,9.85,0,0,1,.21-3,10.66,10.66,0,0,1,2.63.75A61.74,61.74,0,0,1,150.9,230c6.68,5.21,13,5.15,19.31-.72,1.59-1.47,3.65-4.53,6.36-1.92,2.47,2.38.18,5.08-1.1,6.94C172,239.29,167.54,243.05,160.93,243Z" transform="translate(-64.18 -41.32)"/><path class="cls-14" d="M234.21,324.47l-3.54,0c-1.6.22-3.11-1.18-4.75-.26l-3.08.35a.92.92,0,0,1-1.58-.19,33.92,33.92,0,0,1,11.25-6.14C232.28,320.56,235.75,321.83,234.21,324.47Z" transform="translate(-64.18 -41.32)"/><path class="cls-15" d="M232.56,281.6c-5.07-5.08-4.93-16.37-2.63-46.14-.45-21.62,16.18-30.17,22.38-31.3-23.41,15.8-16.52,18.72-20.87,39.63C229.32,254,229.46,272.57,232.56,281.6Z" transform="translate(-64.18 -41.32)"/><path class="cls-15" d="M193.4,281.41c5.08-5.08,3.83-18.15,1.53-47.92.44-21.63-14.34-29.75-21.25-30.74,23.41,15.8,15.38,18.15,19.74,39.07C195.54,252,196.5,272.38,193.4,281.41Z" transform="translate(-64.18 -41.32)"/><path class="cls-16" d="M190.09,318.12c1.87,0,4.49,1.37,3.84,2.36-1.35,2-3.35-1.35-5.35-.69C188.3,318.53,189.12,318.26,190.09,318.12Z" transform="translate(-64.18 -41.32)"/><path class="cls-17" d="M221.26,324.42l1.58.19c-4.25,1.73-8.6,2.79-13.32.86Z" transform="translate(-64.18 -41.32)"/><path class="cls-18" d="M225.92,324.26a3.58,3.58,0,0,1,4.75.26C229,325.58,227.46,325.14,225.92,324.26Z" transform="translate(-64.18 -41.32)"/><path class="cls-11" d="M92.18,219a10.41,10.41,0,0,0-4.09,4.14c4.14-4.94,11-5.41,10.78-5.45A11.36,11.36,0,0,0,92.18,219Z" transform="translate(-64.18 -41.32)"/></svg>