<?xml version="1.0" encoding="UTF-8"?>
<svg id="Layer_1" data-name="Layer 1" xmlns="http://www.w3.org/2000/svg" xmlns:xlink="http://www.w3.org/1999/xlink" viewBox="0 0 1077 1055">
  <defs>
    <style>
      .cls-1 {
        fill: #ae3847;
      }

      .cls-2 {
        fill: #68253e;
      }

      .cls-3 {
        fill: url(#linear-gradient-8);
      }

      .cls-4 {
        fill: url(#linear-gradient-7);
      }

      .cls-5 {
        fill: url(#linear-gradient-5);
      }

      .cls-6 {
        fill: url(#linear-gradient-6);
      }

      .cls-7 {
        fill: url(#linear-gradient-9);
      }

      .cls-8 {
        fill: url(#linear-gradient-4);
      }

      .cls-9 {
        fill: url(#linear-gradient-3);
      }

      .cls-10 {
        fill: url(#linear-gradient-2);
      }

      .cls-11 {
        fill: #862a37;
      }

      .cls-12 {
        fill: url(#linear-gradient);
      }

      .cls-13 {
        fill: #560927;
      }

      .cls-14 {
        fill: #832531;
      }

      .cls-15 {
        fill: url(#linear-gradient-10);
      }

      .cls-16 {
        fill: #a22946;
      }

      .cls-17 {
        fill: #a63a59;
      }

      .cls-18 {
        fill: #a72e56;
      }
    </style>
    <linearGradient id="linear-gradient" x1="321.29" y1="1156.08" x2="52.37" y2="1229.58" gradientTransform="translate(1076.95 -672.02) rotate(180) scale(1 -1)" gradientUnits="userSpaceOnUse">
      <stop offset="0" stop-color="#68253e"/>
      <stop offset=".71" stop-color="#a32b48"/>
    </linearGradient>
    <linearGradient id="linear-gradient-2" x1="27.42" y1="1208.99" x2="203.17" y2="1334.06" gradientTransform="translate(1076.95 -672.02) rotate(180) scale(1 -1)" gradientUnits="userSpaceOnUse">
      <stop offset="0" stop-color="#a53857"/>
      <stop offset="1" stop-color="#652039"/>
    </linearGradient>
    <linearGradient id="linear-gradient-3" x1="834.94" y1="1180.05" x2="965.29" y2="1204.33" gradientTransform="translate(1076.95 -672.02) rotate(180) scale(1 -1)" gradientUnits="userSpaceOnUse">
      <stop offset="0" stop-color="#88303b"/>
      <stop offset="1" stop-color="#a72e56"/>
    </linearGradient>
    <linearGradient id="linear-gradient-4" x1="786.74" y1="1197.59" x2="836.54" y2="1201.65" gradientTransform="translate(1076.95 -672.02) rotate(180) scale(1 -1)" gradientUnits="userSpaceOnUse">
      <stop offset="0" stop-color="#a53655"/>
      <stop offset="1" stop-color="#862a37"/>
    </linearGradient>
    <linearGradient id="linear-gradient-5" x1="1033.5" y1="1178.48" x2="872.07" y2="1205.83" gradientTransform="translate(1076.95 -672.02) rotate(180) scale(1 -1)" gradientUnits="userSpaceOnUse">
      <stop offset="0" stop-color="#652039"/>
      <stop offset=".52" stop-color="#88303b"/>
      <stop offset="1" stop-color="#67233c"/>
    </linearGradient>
    <linearGradient id="linear-gradient-6" x1="839.22" y1="698.35" x2="719.69" y2="1350.65" gradientTransform="translate(1076.95 -672.02) rotate(180) scale(1 -1)" gradientUnits="userSpaceOnUse">
      <stop offset="0" stop-color="#68253e"/>
      <stop offset=".41" stop-color="#862a37"/>
      <stop offset=".94" stop-color="#a6324c"/>
    </linearGradient>
    <linearGradient id="linear-gradient-7" x1="600.68" y1="823.92" x2="423.3" y2="1107.51" gradientTransform="translate(1076.95 -672.02) rotate(180) scale(1 -1)" gradientUnits="userSpaceOnUse">
      <stop offset="0" stop-color="#68253e"/>
      <stop offset="1" stop-color="#a63a59"/>
    </linearGradient>
    <linearGradient id="linear-gradient-8" x1="490.95" y1="1024.48" x2="656.3" y2="1141.01" gradientTransform="translate(1076.95 -672.02) rotate(180) scale(1 -1)" gradientUnits="userSpaceOnUse">
      <stop offset="0" stop-color="#a32b48"/>
      <stop offset="1" stop-color="#af4c69"/>
    </linearGradient>
    <linearGradient id="linear-gradient-9" x1="1306.27" y1="948.53" x2="1222.47" y2="1029.75" gradientTransform="translate(1076.95 -672.02) rotate(180) scale(1 -1)" gradientUnits="userSpaceOnUse">
      <stop offset="0" stop-color="#801e29"/>
      <stop offset="1" stop-color="#a32b48"/>
    </linearGradient>
    <linearGradient id="linear-gradient-10" x1="1094.37" y1="1050.31" x2="961.45" y2="1135.06" gradientTransform="translate(1076.95 -672.02) rotate(180) scale(1 -1)" gradientUnits="userSpaceOnUse">
      <stop offset="0" stop-color="#79111d"/>
      <stop offset="1" stop-color="#872c39"/>
    </linearGradient>
  </defs>
  <path class="cls-12" d="M898.87,0h19.36c1.98,200.53.93,401.31,2.18,601.81.9,144.64,8.6,298.14,5.4,441.64-.07,3.44-.88,4.82-1.08,7.63-8.65,6.42-14.94,4.49-23.66,0-.14-1.14-.7-1.93-1.08-3.05,2.19-.02,3.19-8.59,3.23-9.92,1.96-60.68-2.73-131.16-3.24-193.74-.13-16.82,2.29-35.33,2.15-50.34-.01-.65-3.23-3.92-3.23-4.57-.37-37.7,3.25-82.92,1.07-122.04-1.17-20.9-2.76-12.64-7.53-22.12-.04-3.72-1.08-5.79-1.08-6.1-.02-1.51.02-3.06,0-4.57-.13-9.43,1.22-20.45,1.07-30.51-.02-1.81,0-4.16,0-6.1-.14-11.24-.84-22.47-1.08-33.56.12-10.73,1.89-21.3.54-32.04-1.7,10.78-.77,21.25-.54,32.04-.12,11.24,1.04,22.61,1.08,33.56.02,2.02-.03,4.08,0,6.1.12,9.6-1.54,20.24-1.07,30.51,0,.22-.81-.52,0,4.57.41,2.58-.54,2.88,1.08,6.1,1.29,104.21,2.38,208.44,3.24,312.73l-4.3-2.29c.68,10.84.09,21.89,0,32.8l-5.38-71.7c-.81-48.3-3.27-96.69-4.31-144.92L869.82,0h26.89s1.62,44.23,1.62,44.23L898.88,0h-.01Z"/>
  <path class="cls-16" d="M1034.43,0c11.64,327.63,3.15,656.49,15.11,983.95.65,17.77,1.01,35.68,2.15,53.39l-1.08,1.52c-7.21,4.06-18.1,14.7-25.82,15.25-.28.02-3.92-1.22-5.38-1.52,1.14-16.3-4.66-31.09-5.38-47.29-1.78-40.07,1.78-88.67,1.07-130.43-.04-2.5-3.48-8.22-2.15-13.73.08-.36,3.87-2.42,4.3-4.57.66-3.32-2.21-11.5-2.15-13.73,1.71-61.33-4.75-123.04-4.31-184.59l-11.3-5.33c-.02,2.52-1.41,6.27-1.62,7.63-2.81-104-.5-208.52-.01-312.73.29-62.56.86-125.09,1.07-187.64-2.86-21.09,15.14-13.36,17.21-17.54,2.9-5.83-2.23-125.42,0-142.63,0,0,18.29,0,18.29,0Z"/>
  <path class="cls-16" d="M91.99.04h17.21c5.27,215.44,10.2,431.24,12.94,646.81-2.59-1.51-10.56,12-10.76,12.97-2.04,10.26-.32,84.07,0,100.68,0,.27,2.15,4.3,2.15,4.57.86,45.76,3.37,91.61,1.08,137.3,4.73-9.23-1.65-16.11,9.68-11.44.31,48.68-1.6,98.71,2.16,146.45-3.16.25-3.04,2.96-3.23,3.05-6.88,3.55-16.16,12.71-23.66,13.73-3.71.5-7.17-.61-10.76-1.52,4.28-13.57-5.92-20.44-6.46-23.65-1.08-6.47-3.35-48.34,4.3-47.29l-3.24-228.83c-3.39-18.14-3.85-40.24-7.53-57.97-.63-3.01-1.26-6.48-4.3-5.33,1.96-153.56,3.32-307.04,3.21-460.7,0-14.21.02-28.5,0-42.71l18.29-9.16c1.04,145.66,2.3,291.36,3.25,437.05,13.08,3.93,9.66-29.96,9.68-42.71.1-51.5-6.99-109.96-3.23-163.23-12.54-78.04,1-183.92-6.47-265.44-.3-3.29-.11-5.58-3.23-5.33-.26-45.68-2.02-91.55-1.08-137.3h0Z"/>
  <path class="cls-16" d="M438.43.02V0s19.36,0,19.36,0c3.74,70.55,3.44,141.32,4.31,212.05,1.6,129.45,1.64,259.17,8.62,388.25.25,4.61.04,23.33,4.3,22.12-1.34,138.79.93,277.67,2.17,416.47-4.18-.09-3.97,2.86-4.3,3.05-8.05,4.61-12.36,11.44-22.59,12.21-.36.03-.72,0-1.08,0-3.2-7.76.02-7.85,0-8.39-.21-5.79-2.15-7.22-2.15-7.63-.3-22.22-1.84-32.54-3.23-53.39-.16-2.4-1.05-14.65-1.08-20.6-.04-7.6-.22-13.58,5.38-16.02-2.23-9.43-2.22-26.44-4.3-34.33l-4.31-118.22c1.33-4.99,7.04,6.18,7.53-10.68,1.47-50.67-6.11-116.67-8.61-167.8-.58-11.78-.11-79.45-2.7-84.67-.48-.96-14.35-14.06-13.45-4.57-.84-85.45.26-170.76-.01-256.28.54,8.52,18.85-3.95,19.36-5.34,2.38-6.46-1.9-127.51-2.16-145.68-.58-40.13.13-80.39-1.08-120.51h.01Z"/>
  <path class="cls-16" d="M684.79.01l14.02,1034.3c-.07.49.1,1.07,0,1.52-2.03,9.12-18.42,17.77-24.74,18.3-.17.02-.25-1.38-3.23-1.52-4.35-165.59-8.91-331.05-15.08-496.55l-11.83-16.01v-57.97c0-11.9,1.06-24.45,1.07-36.61,3.24.66,2.08-4.08,2.15-6.87,1.88-78.77.25-161.18-.01-240.27v-3.05s19.36-13.73,19.36-13.73c1.16,130.46,2.76,260.9,5.4,391.29,2.27.95,9.62,7.8,10.76,1.52l-12.93-489.69-2.15-1.52c-1.28,9.26,2.71,25.73-2.15,32.8-.15-21.83,0-43.76,0-65.6V.01s19.37,0,19.37,0Z"/>
  <path class="cls-16" d="M711.68.01h24.74c-2.78,221.43-.4,443.11,3.26,664.35,7.07,6.15-2.32-33.27,4.3-38.9.53,12.38,1.51,24.39,2.15,36.61.03.5-.03,1.02,0,1.52.18,3.51-.19,7.18,0,10.68,1.27,23.12,3.16,46.3,4.31,69.41.38,7.57-3.43,27.4,4.3,28.22-.24,81.07-5.83,186.83-1.06,264.68.15,2.48.36,5.56,2.15,6.87-.41.28-1.35,7.2-6.45,9.16-4.85,1.86-19.24,1.15-24.74,0-2.07-.43-2.65-.87-4.3-1.52-2.73-37.15-5.54-74.02-7.53-111.36,3.03,2.5,2.75,2.71,3.23-2.29,2.78-28.76-1.93-89.58-2.16-122.81-.65-97.23,1.36-188.3,1.06-281.45-.04-14.47-2.09-35.27-2.15-50.34-.61-160.76,1.38-321.98-1.1-482.82h0Z"/>
  <path class="cls-16" d="M846.16.04h21.51c6.54,257.09,8.47,514.69,14.02,771.91,1.04,48.23,3.49,96.62,4.31,144.92.56,33.15-2.11,76.5,0,107.54.3,4.34,1.17,10.81,3.23,14.49-3.26.6-9.93,11.16-15.06,13.73-3.26,1.63-7.37,1.29-10.76,1.52-3.79-82.49-6.86-165.41-9.69-247.9-.06-1.71-3.11-11.81-3.23-15.25-.62-18.73,1.37-42.43,1.07-59.5-1.6-91.32-1.62-184.18-2.16-281.45,4.32.71,2.91-1.21,3.23-5.34,4.48-59.11,1.79-201.42-2.16-262.39-.27-4.17,1.04-6.04-3.23-5.33-.07-10.66.09-21.39,0-32.04,3.24.66,2.09-4.08,2.15-6.87.28-11.56.23-23.53,0-35.09-.06-2.79,1.08-7.54-2.15-6.87-.23-32.04-1.62-64.04-1.08-96.11v.03Z"/>
  <path class="cls-10" d="M1072.09,0c-.36,34.66,2.66,69.08,3.23,103.73,5.24,315.92-3.89,632.86.04,948.86l-23.67-15.25c-1.15-17.71-1.51-35.62-2.15-53.39L1053.8,0h18.29Z"/>
  <path class="cls-16" d="M521.25.02c2.43,346.7,4.33,693.66,2.2,1040.4-1.48,11.98-16.91,15.86-23.66,15.25-.36-.03-.73.06-1.08,0,1.43-16.75,2.18-34.28,2.15-51.1-.22-123.85-4.07-248.5-4.32-370.7-.35-164.37,2.99-329.56,6.43-496.55.94-45.78,1.76-91.56,3.22-137.3h15.06Z"/>
  <path class="cls-9" d="M140.4.03h21.51c7.36,347.73,17.4,695.3,16.18,1043.44-1.26.34-3.07,2.75-4.3,3.05-3.3.81-5.61,2.22-9.68,3.05-5.83-7.88-.78-16.15-1.08-28.22-.28-11.19-2-28.03-4.3-38.9,5.97-30.44-1.25-107.07-2.16-142.63-1.03-40.38-2.33-80.76-4.31-120.51-.64-12.83.16-26.8,0-39.66l-4.3,2.29c-1.19-114.86-4.86-229.91-6.47-344.76,4.04-1.68,1.77-13,2.15-17.54,6.34-76.86-2.27-202.29-4.31-282.22-.31-12.2-.55-25.37,1.07-37.38h0Z"/>
  <path class="cls-8" d="M274.88.04h10.76c.19,68.61-.24,137.32,0,205.94.61,168.89,1.17,337.19,3.25,506.47.54,44.27,3.31,90.28,4.31,131.95.01.54-2.16,2.51-2.15,3.05.01.38,3.2,4.72,3.23,6.1,1.23,49.74.27,106.82,2.16,157.12.16,4.25,3.59,27.18,3.23,30.51-1.28,11.89-8.9,12.43-11.83,2.29,0-10.94-.66-21.24-1.08-32.04-.4-12.28-.54-24.31-1.08-36.61-.3-8.65-.75-17.35-1.08-25.93-.26-6.59-.84-13.42-1.08-19.84-.61-16.24-.45-32.5-1.08-48.82-.12-3.44-1.07-5.79-1.08-6.1-.44-13.17-.67-26.49-1.08-39.66-.16-4.02.11-8.17,0-12.2-.05-1.74.07-3.85,0-6.1-.1-3.12-1.08-7.24-1.08-7.63-.3-12.15.65-24.51-.54-36.61-1.8,12.24.1,24.49.54,36.61.11,3.09,1.07,7.24,1.08,7.63.06,2.01-.06,4.08,0,6.1.11,3.75-.13,7.96,0,12.2.54,13.16.55,26.42,1.08,39.66.13,3.37,1.07,5.79,1.08,6.1.56,16.26.47,32.49,1.08,48.82.25,6.61.83,13.4,1.08,19.84.33,8.67.7,17.3,1.08,25.93.42,12.21.61,24.38,1.08,36.61.3,9.32-1.31,23.79,1.08,32.04v9.16c-6.36-.34-7.19-2.69-11.83-4.57-.23-2.52-1.73-16.88-2.15-17.54-.6-.96-5.53,4.26-7.53-4.57-1.02-4.52-5.01-47.88-5.38-54.91-4.75-90.37.08-199.3,1.06-291.37,2.41-226.54,9.94-453.16,12.88-679.62h0Z"/>
  <path class="cls-5" d="M111.35.03h25.82c4.25,112.2,2.74,224.76,4.32,337.14,1.61,114.85,5.28,229.9,6.47,344.76.09,8.82,2.51,65.16,1.08,67.88-1.96,3.69-6.32-5.11-6.45,7.63-.7,68.75,5.97,153.1,8.61,223.49-2.24.65-3.31-.56-4.3-3.05.31-4.48-.83-6.63-1.08-9.16-.31-3.2-1.06-4.33-1.08-4.57-.32-3.15-.73-6.12-1.08-9.16l-.54-16.78c-1.65,5.78-.09,11.22.54,16.78-.93,3.39.85,7.24,1.08,9.16.34,2.84.9,3.73,1.08,4.57.59,2.97-.74,4.64,1.08,9.16-.6,8.82-3.41,8.42-3.23,14.49.46,14.85,3.84,37.75,4.31,54.15-8.96-5.64-22.33-7.86-21.51-23.65.62-11.96,2.47-27.33,2.15-42.71-6.35-309.78-6.08-624.28-16.18-932.08-.54-16.44.96-31.57-1.08-48.06h0Z"/>
  <path class="cls-6" d="M305,.04h26.9c1.77,16.65,1.02,33.58,1.08,50.34.13,38.1.17,76.32,0,114.41-.34,83.2-2.64,157.53,4.31,240.27.03.32,2.77-1.38,3.23,4.57,1.57,20.24-.72,44.8,0,67.88.44,14.06,1.76,28.65,2.15,42.71,4.92,176.84,4.42,353.86,6.48,530.88v1.52c-9.5,4.46-15.96-2.86-23.67-7.63,1.07-31.09,3.16-62.59,3.22-93.82.27-136.63-3.45-273.53-4.32-409.6-.15-24.35-1.55-49.39-2.15-72.46-.25-9.25,6.32-27.59-2.15-29.74,1.85.08,4.45.55,5.38-2.29s3.23-59.82,2.15-62.55c-.3-.73-5.98-3.31-7-11.44l-2.69,3.81c1.57,23.82,2.32,48.57,2.15,72.46-.07,10.17-1.12,26.5-1.07,39.66-4.14-3.54-3.44-1.21-5.38,3.05-1.85-140.49-4.02-284.61-7.55-421.8-.51-20.05.15-40.29-1.08-60.26h0Z"/>
  <path class="cls-4" d="M688.01,0h23.66c2.48,160.84.49,322.06,1.1,482.82.06,15.07,2.11,35.87,2.15,50.34.3,93.15-1.71,184.22-1.06,281.45-4.12-4.4.04-11.23-1.08-17.54l-4.3,6.1c.15,45.66,1.87,91.11,4.31,136.54,2,37.36,4.81,74.22,7.53,111.36-7.21-2.86-13.86-8.87-20.44-13.73-.07-.05.16-1.8-1.08-1.52.1-.45-.07-1.03,0-1.52-.01-344.8-6.74-689.83-10.8-1034.29h0Z"/>
  <path class="cls-16" d="M302.85.03l16.18,1040.38c-4.35,1.42-13.46,10.88-20.44,12.21-2.95.56-7.61.17-10.76,0v-9.16c2.93,10.14,10.55,9.62,11.83-2.29.36-3.33-3.06-26.25-3.23-30.51-1.89-50.29-.93-107.38-2.16-157.12-.03-1.36-3.23-5.72-3.23-6.1-.01-.54,2.16-2.51,2.15-3.05-1-41.66-3.76-87.68-4.31-131.95,2.01,1.59,11.59-6.04,11.83-6.87,2.8-9.41-2.04-49.32-2.15-61.02-1.09-110.89-.47-227.79-3.24-332.56-.94-35.76-1.24-71.4-3.23-106.78l-6.45.76c-.25-68.61.18-137.32,0-205.94h17.21Z"/>
  <path class="cls-3" d="M331.9.02h25.82c-7.3,347.58,7.42,694.5,4.35,1041.92-3.67-.69-6.18,1.88-9.68,1.52,2.1-20.32-.99-60.11-1.08-83.14v-3.05c-.89-144.21.71-290.11-3.25-434.01-.16-6.15.77-40.15,0-41.95-.2-.48-6.2-2.49-7.53-3.81-.72-23.09,1.57-47.63,0-67.88-.46-5.95-3.2-4.25-3.23-4.57-6.94-82.73-4.66-157.06-4.31-240.27V50.37c-.06-16.76.69-33.7-1.08-50.34h0Z"/>
  <path class="cls-7" d="M12.38.04h21.51c-.22,46.21.55,92.57,0,138.82-.82,70.18-3.54,145.51-4.29,211.29-.04,3.24,2.32,14.23,2.15,22.88-.02,1.26-3.22,5.72-3.23,6.1-.44,14.54,1.4,32.59,1.08,50.34-3.21,173.3-3.77,364.56-1.05,540.8.27,17.3,3.34,41.62,3.23,60.26-.02,3.65-1.88,17.98-3.23,22.12-1.36-.24-3.09.41-4.3,0-.9-.3-6.19-5.25-7.53-6.1,3.49-8.51.09-17.9,0-26.7-.25-23.54.09-47.32,0-70.94-.63-166.29,0-337.52-.02-503.42,0-27.84,3.2-57.01,3.22-86.19,0-6.73-5.75-20.77,0-22.88l-3.23-76.28c-2.12-11.16,4.36-26.57,2.15-36.61-.97-4.39-5.16-5.3-5.38-6.1-2.48-9.24,3.52-35.79-2.15-45.01,0-6.53.02-13.35,0-19.84L12.38.04h0Z"/>
  <path class="cls-16" d="M376.01.04h6.45c1.71,39.58,1.01,79.34,1.08,118.99.03,16.76-.13,33.59,0,50.34-4.89-1.56-4.63,3.6-5.38,8.39-4.68,30.08,1.68,131.54,2.16,166.28,1.61,117.06,3.64,234.06,6.47,354.68.65,27.4-1.91,78.05,1.08,101.45.11.9,4.97,16.07,5.38,16.78,1.71,2.96,2.96,2.43,5.38,2.29.34,28.76,2.02,57.37,1.08,86.19l1.62-11.44,10.22,4.57c.56,46.76-.76,93.69,2.16,140.35-2.83.67-9.53,11.16-15.06,13.73-10.48,4.86-13.17,2.53-22.59-1.52,3.14-7.28,2.37-17.01,2.15-25.17-3.98-147.93-4.2-297.23-4.32-444.69-.13-172.03.06-346.9,2.13-520.2.24-20.31-.19-40.71,0-61.02h-.01Z"/>
  <path class="cls-1" d="M53.25.04v.02s18.29,0,18.29,0c1.53,76.22.99,152.56,1.09,228.83.22,179.66-1.66,359-4.28,538.5-1.31,89.46-4.55,178.89-3.22,268.49-1.4-.23-5.94,3.22-7.53,4.57v-85.43c3.23.66,2.08-4.08,2.15-6.87.83-34.61.18-69.86,0-104.49l2.14-359.25-5.38,1.52-1.08-11.44c-.61-70.17-1.89-140.29-2.16-210.52-.34-87.94.25-175.98-.01-263.92h0Z"/>
  <path class="cls-11" d="M42.5.03h10.76c.26,87.94-.33,175.98.01,263.91-3.23-.66-2.09,4.08-2.15,6.87-4.47,219.05,6.47,445.5,6.48,665.88-11.94-8.7-5.69-39.46-6.46-54.15-5.13-97.94-9.03-201.21-9.69-297.47-.15-23,3.4-54.08,2.15-76.28-.03-.48-3.19-6.32-3.23-8.39.56-4.52-1.51-5.9,3.23-6.87-.93-19.85.41-39.62,0-59.5-.01-.51-3.19-7.71-3.23-9.16-.02-.78,3.52-3.34,3.23-13.73-.12-4.17-4.25-16.74-4.3-18.3-.21-6.23,3.28-2.92,3.23-4.57-.11-3.65-3.09-13.09-3.23-16.78-2.77-76.41-1.48-154.62,0-231.11.9-46.69,3.83-93.52,3.22-140.35h0Z"/>
  <path class="cls-16" d="M524.48.01h21.51c-.52,74.73-1.5,149.49-1.07,224.25-3.51-2.63-5.13,6.32-5.38,8.39-.8,6.64.15,28.82,0,36.61-.01.56,2.87,7.4,2.15,10.68-.47,2.15-3.73,2.37-4.3,4.57-.28,1.05,3.68,9.92-1.08,9.92-.08-2.96.47-6.53-.54-9.16l.54,9.16c2.25,81.91-2.28,169.34-2.14,249.42.01,7.33-1.07,15.84-1.07,16.78.11,16.24.67,35.57,1.08,52.63h-2.15c-.18-4.18-1.28-8.62,0-12.97h-4.3c.8,47.05-.59,94.14-1.07,141.11L524.48.02h0Z"/>
  <path class="cls-14" d="M817.12,0V-.01s29.04,0,29.04,0c-.54,32.07.85,64.08,1.08,96.11.11,16.25-.13,32.57,0,48.82.09,10.66-.07,21.39,0,32.04.18,25.42.92,50.81,1.08,76.28-11.81-1.61-16.89,19.79-27.97,19.84-.27-64.92-1.07-130.13-2.16-194.5-.44-26.23-.25-52.37-1.08-78.56h0Z"/>
  <path class="cls-11" d="M738.58.02h21.51c-.71,10.65-.7,21.38-1.07,32.04-.02.5.02,1.01,0,1.52l-3.23,20.6c-1.07,72.24-4.6,145.69-1.07,217.38-.36,69.49.98,138.6,2.16,207.47-2.94,3.19,1.28,12.8-3.23,12.2-.84-66.68-1.28-133.7-1.08-200.61-1.68-1.46-12.61-8.22-12.91-9.16-1.21-3.78,2.52-17.09-2.15-19.07-.29-87.42-.62-175.03,1.06-262.39h0Z"/>
  <polygon class="cls-11" points="1052.73 0 1045.76 659.02 1036.58 0 1052.73 0"/>
  <path class="cls-11" d="M545.99.02h16.14c.12,96.08-.14,192.24.01,288.32-6.59.95-10.26-33.97-16.14-19.84-.15-14.8-.99-29.43-1.08-44.23-.43-74.76.55-149.52,1.07-224.25h0Z"/>
  <path class="cls-16" d="M465.31.02h22.6c-3.94,72.05-3.04,144.41-4.29,216.62-2.71-.8-15.6,1.08-16.68,0-2.42-2.42,2.3-24.43-2.7-27.46-.05-63.08-.19-126.19,1.07-189.16h0Z"/>
  <path class="cls-14" d="M589.03.03h13.98c-.76,16.84.6,33.61,1.08,50.34,1.54,52.87,2.72,105.7,3.23,158.65.09,9.64-.05,19.34,0,28.98-9.28,1.02-9.49,21.35-18.29,24.41.08-53.37,0-106.81,0-160.18V.02s0,.01,0,.01Z"/>
  <path class="cls-2" d="M164.07.04l10.78,495.04,3.23,15.25c-1.34-79.47-1.68-159.16-2.16-238.74h2.15c.26,35.07.86,70.23,1.08,105.26.38,60.66.8,124.71,1.08,180.77.79,158.42,1.55,316.69,1.1,475.19-.25,2.9-.89,6.6,0,9.16-.9.23-1.58,1.07-3.23,1.52C179.32,695.35,169.29,347.77,161.92.04h2.15Z"/>
  <path class="cls-2" d="M562.13.02h2.15s0,212.05,0,212.05c0,59.96-.37,120.05,0,180.01.43,68.2.56,136.27,2.16,204.42.89,37.62.23,75.77,4.85,112.89.89-38.09.66-76.32.54-114.41-.18-52.91-1.73-105.8-2.16-158.65,7.2,5.73,6.07,34.9,6.46,48.06,2.99,100.97-.97,211.65-2.14,313.5-.11,9.65-.97,19.56-1.07,28.98-.81,71.75-2.44,143.38-1.07,215.1-3.81,1.77-1.1,3.4-3.23,4.57-1.26-87.21,2.06-174.43,1.06-261.63-1.89-165.62-7.29-330.53-7.55-496.55-.15-96.08.1-192.24-.01-288.32h-.01Z"/>
  <path class="cls-2" d="M1045.76,659.02L1052.73,0h1.08s-4.27,983.95-4.27,983.95c-11.95-327.45-3.46-656.31-15.1-983.95h2.15s9.18,659.02,9.18,659.02Z"/>
  <path class="cls-2" d="M416.89.02h-.01s3.23,0,3.23,0c1.08,12.4-1.34,25.33-1.07,37.38.62,28.02,2.91,56.16,3.23,84.67.56,49.69-.15,99.73,0,149.5.27,85.52-.83,170.83.01,256.28.1,10.08-.14,20.24,0,30.51l-3.23,40.42c-3.35,146.65-5.31,293.3-4.28,440.11-.35,0-.74-.08-1.08,0-2.92-46.65-1.6-93.58-2.16-140.35-.44-37.62-1.6-75.3-2.16-112.89-.44-29.47-.62-59.02-1.08-88.48-1.61-102.21-2.95-204.55-4.32-306.63,1.23,69.12,4,138.37,5.39,207.47,1.28,64.03.19,128.31,3.78,192.21,1.33-64.11,2.43-128.13,3.76-192.21,3.35-161.92,4.54-322.9,2.13-485.11-.57-37.69-.81-75.31-2.16-112.89h0Z"/>
  <path class="cls-16" d="M164.07.04h10.76c-.45,90.52.53,181.05,1.09,271.54.48,79.59.83,159.28,2.16,238.74l-3.23-15.25L164.07.04h0Z"/>
  <path class="cls-11" d="M73.7.04h18.29c-.94,45.75.82,91.62,1.08,137.3.07,13.2-.09,26.46,0,39.66l-18.29,9.16c-.07-62.03.58-124.15-1.08-186.12h0Z"/>
  <path class="cls-2" d="M272.73.04h2.15c-2.94,226.47-10.47,453.08-12.88,679.62-.98,92.07-5.81,201-1.06,291.37.37,7.03,4.36,50.38,5.38,54.91,2,8.82,6.93,3.6,7.53,4.57.42.66,1.93,15.02,2.15,17.54-.58-.24-1.55.23-2.15,0-5.77-2.21-8.5-7.9-16.14-9.16.25-53.87-.34-107.84,0-161.71.33-51.84,1.48-103.78,2.14-155.6,2.7-211.99,6.06-424.24,10.73-636.14.62-28.45.34-57.07,2.15-85.43h0Z"/>
  <path class="cls-11" d="M959.12,0c.2,11.66-.27,23.44,0,35.09.69,30.58,1.17,60.89,1.08,91.53-2.89-.95-18.92,11.58-19.36,12.97-1.37,4.29,2.68,19.18-2.15,22.12.03-25.4,0-50.87,0-76.28V0s20.43,0,20.43,0Z"/>
  <path class="cls-2" d="M618.08.03h2.15c-.03,27.43.04,54.93,0,82.37-.19,139.41.37,278.6,1.09,417.99.18,34.09.86,68.12,1.08,102.21.33,51.35.88,102.7,1.08,154.07l1.09,285.27c-1.9.86-2.01,2.98-2.15,3.05-.32.15-.75-.14-1.08,0-1.67-152.66-.18-304.92-1.1-457.65-.79-132.16-4.61-264.39-4.32-396.63.06-25.85.81-51.9,1.07-77.8.39-37.63.49-75.27,1.07-112.89h0Z"/>
  <path class="cls-2" d="M487.9.02V0s2.15,0,2.15,0c-1.64,49.29-2.32,98.63-3.22,147.98-2.47,135.75-6.73,271.59-8.59,407.31-1.94,142.02,1.88,290.49.02,426.38-.26,18.41,1.5,40.12,2.15,58.74-1.31-.73-1.39-1.48-3.23-1.52-1.24-138.79-3.51-277.67-2.17-416.47.05-5.06-.05-10.19,0-15.25.35-31.63,1.64-63.08,2.15-94.58,1.61-98.64,4.72-197.3,6.44-295.95,1.26-72.21.35-144.57,4.29-216.62h0Z"/>
  <path class="cls-2" d="M359.87.03c-1.62,9.56-1,19.27-1.07,28.98-.22,32.04-.91,64.04-1.07,96.11-.37,70.58-.59,141.48,0,212.05.66,77.8,3.52,155.57,4.31,233.4,1.6,157.55,4.71,315.24,2.17,472.9-1.03-.42-1.23-1.35-2.15-1.52,3.07-347.42-11.65-694.34-4.35-1041.92,0,0,2.15,0,2.15,0Z"/>
  <path class="cls-2" d="M524.48.02l2.18,741.39c-1.02,99.67-.39,199.36-2.14,299h-1.08c2.14-346.74.24-693.7-2.2-1040.4h3.23Z"/>
  <path class="cls-11" d="M998.93.01h17.21c-2.22,17.2,2.91,136.8,0,142.63-2.07,4.17-20.07-3.55-17.21,17.54.18-53.37-.14-106.82,0-160.18h0Z"/>
  <path class="cls-2" d="M109.2.05h2.15c2.04,16.49.53,31.62,1.08,48.06,10.08,307.79,9.82,622.29,16.18,932.08.32,15.37-1.53,30.75-2.15,42.71-.82,15.78,12.55,18.01,21.51,23.65v1.52c-5.46-1.85-18.93-10.89-21.51-10.68-3.76-47.74-1.85-97.78-2.16-146.45-.51-81.28-1.13-162.8-2.16-244.08C119.4,431.27,114.47,215.48,109.2.04h0Z"/>
  <path class="cls-2" d="M918.25,0h4.3c.75,26.46-.84,52.91-1.07,79.32-1.4,156.98.22,314.4,1.1,471.38.04,7.86-.06,15.76,0,23.65v3.05c.19,23.4.86,46.74,1.08,70.18v3.05c.13,14.74-.17,29.55,0,44.23.78,65.73,1.84,146.9,2.16,210.52.23,45.98.45,92.09,2.16,138.06h-2.15c3.2-143.51-4.49-297-5.4-441.64-1.25-200.5-.19-401.28-2.18-601.81h0Z"/>
  <path class="cls-2" d="M813.89,0h3.23c.83,26.19.64,52.33,1.08,78.56,1.09,64.37,1.89,129.57,2.16,194.5.49,117.94-.5,235.99.02,353.92.6,137.61,3.15,275.2,3.24,410.36-.36.05-.78-.12-1.08,0l-3.24-202.89c-1.63-132.62-.79-265.39-1.09-398.15-.26-114.8,1.48-230.04-1.09-344.76-.68-30.45-2.21-61.09-3.23-91.53h0Z"/>
  <path class="cls-2" d="M302.85.03h2.15c1.23,19.98.57,40.21,1.08,60.26,3.53,137.19,5.7,281.3,7.55,421.8,2.46,186.77,5.11,373.17,8.63,559.86-1.25-.44-1.51-2.09-3.23-1.52L302.85.03h0Z"/>
  <path class="cls-18" d="M243.68.02h29.05c-1.81,28.37-1.52,56.98-2.15,85.43-3.32.7-23.26-5.64-24.21-4.57-1.81,2.04,1.57,10.98-2.69,10.68-.05-7.6,0-15.28,0-22.88-.03-22.85.03-45.79,0-68.64h0Z"/>
  <path class="cls-11" d="M506.18.02c-1.46,45.74-2.28,91.52-3.22,137.3l-16.13,10.68c.9-49.35,1.58-98.69,3.22-147.98h16.14Z"/>
  <path class="cls-18" d="M980.65,0h16.14c-.06,45.24.09,90.54,0,135.77-2.17,1.05-15.7-2.8-16.14-3.81-.54-1.27-.89-25.34-1.08-29.74-.38-9.05.12-18.37,0-27.46-.35-24.9-.14-49.92,1.07-74.75h0Z"/>
  <path class="cls-2" d="M688.01.01c4.05,344.45,10.79,689.48,10.8,1034.29L684.79.01h3.23Z"/>
  <path class="cls-2" d="M420.12.03h18.29c1.2,40.11.51,80.38,1.08,120.51l-17.21,1.53c-.32-28.51-2.61-56.65-3.23-84.67-.27-12.04,2.15-24.97,1.07-37.38h0Z"/>
  <path class="cls-18" d="M198.5.03c.88,30-.82,60.07-1.07,90-.03,3.54.02,7.14,0,10.68-2.61-.93-17.03,3.78-17.75,3.05-1.99-1.99,1.82-13.44-2.69-13.73-.14-29.97.1-60.03,0-90h21.52Z"/>
  <path class="cls-16" d="M416.89.02c1.34,37.58,1.59,75.21,2.16,112.89l-18.29-1.52c-.62-37.05-2.36-74.25-2.16-111.36h18.29Z"/>
  <path class="cls-16" d="M792.36,0h21.51c1.03,30.42,2.55,61.08,3.23,91.53-7.02,2.36-21.14-2.88-22.59,7.63-1-7.12-.95-14.13-1.08-21.36-.42-25.91-.7-51.89-1.08-77.8h0Z"/>
  <path class="cls-14" d="M398.61.03c-.2,37.11,1.54,74.31,2.16,111.36.1,6.07-.1,12.22,0,18.3l-17.21-10.68c-.07-39.64.63-79.4-1.08-118.99h16.14Z"/>
  <path class="cls-16" d="M760.09.01h20.44c-.76,24.38-.66,48.84-1.07,73.23-.13,8.17-.95,16.46-1.07,24.41-2.61,4.37-18.83-13.06-19.36-14.49-1.12-3.02,3.78-43.68,0-51.1.38-10.66.37-21.4,1.07-32.04h0Z"/>
  <path class="cls-16" d="M571.82.02h17.21s0,102.21,0,102.21l-18.29,1.53c.15-34.6.38-69.17,1.07-103.73h0Z"/>
  <path class="cls-2" d="M869.83,0l11.87,771.91c-5.54-257.23-7.48-514.82-14.02-771.91h2.15Z"/>
  <path class="cls-18" d="M636.37.02v94.58c-8.7-1.13-15.87,2.9-16.13-12.2.04-27.43-.03-54.94,0-82.37h16.14Z"/>
  <path class="cls-2" d="M736.43,0h2.15c-1.69,87.36-1.36,174.98-1.06,262.39.39,121.34,1.24,242.22,6.47,363.07-6.62,5.63,2.77,45.05-4.3,38.9-3.66-221.23-6.03-442.91-3.26-664.36h0Z"/>
  <path class="cls-18" d="M938.69,0v85.42c-7.66-1-12.95,3.94-17.21-6.1.23-26.4,1.82-52.85,1.07-79.32h16.14Z"/>
  <path class="cls-11" d="M603.01.02h15.06c-.58,37.62-.68,75.26-1.07,112.89-1.75-.43-6.67.96-7.53-.76-3.15-6.3-2.48-48.72-1.08-57.97l-4.3-3.81c-.48-16.73-1.84-33.5-1.08-50.34h0Z"/>
  <path class="cls-14" d="M636.37.02h2.15s0,68.64,0,68.64c0,43.26-.91,86.45-1.07,129.67-.35,94.62-.58,189.4-1.06,283.74-.14,28.09-1.59,57.58-1.07,85.43h-1.08c.46-27.12-.35-55.06,0-82.37,1.63-129.91,2.14-260.45,2.13-390.53V.02s0,0,0,0Z"/>
  <path class="cls-16" d="M218.94.03h12.91c-.72,21.3-.51,42.78-1.07,64.07-.31,11.65-.81,23.37-1.07,35.09l-7.53.76c.71-7.1-.48-13.71-1.08-20.6-2.27-26.04-1.01-53.11-2.15-79.32h0Z"/>
  <path class="cls-16" d="M42.5.04c.61,46.82-2.32,93.65-3.22,140.35l-5.38-1.52c.54-46.25-.23-92.61,0-138.82h8.61Z"/>
  <path class="cls-14" d="M665.41.01v50.34s-19.36,7.63-19.36,7.63c.12-19.36.06-38.67,1.07-57.97h18.29Z"/>
  <path class="cls-14" d="M780.53,0h11.83c.38,25.91.66,51.89,1.08,77.8l-13.98-4.57c.41-24.4.32-48.85,1.07-73.23h0Z"/>
  <path class="cls-16" d="M564.29.03h4.3c.1,51.76-.1,103.77,0,155.6.04,18.78-.08,37.65,0,56.44h-4.3s0-212.05,0-212.05h0Z"/>
  <path class="cls-11" d="M376.01.03c-.18,20.31.25,40.71,0,61.02-2.39.6-14.57-11.93-15.06-12.97-.4-.84,2.51-18.21-2.15-19.07.07-9.71-.54-19.42,1.07-28.98h16.14Z"/>
  <path class="cls-14" d="M968.81,0h11.83c-1.21,24.83-1.42,49.85-1.07,74.75l-12.91-3.05c.02-1-.02-2.05,0-3.05.51-22.79,1.3-45.86,2.15-68.64h0Z"/>
  <path class="cls-11" d="M243.68.03c.03,22.85-.03,45.79,0,68.64l-12.91-4.57c.56-21.29.36-42.77,1.07-64.07h11.83Z"/>
  <path class="cls-18" d="M137.18.05h3.23c-1.63,12-1.38,25.18-1.07,37.38,2.04,79.93,10.65,205.35,4.31,282.22-.38,4.54,1.89,15.84-2.15,17.54-1.57-112.38-.07-224.96-4.32-337.14h0Z"/>
  <path class="cls-13" d="M465.31.02c-1.26,62.98-1.12,126.09-1.07,189.16,0,7.61-.02,15.28,0,22.88h-2.15c-.87-70.73-.57-141.5-4.31-212.05h7.53Z"/>
  <path class="cls-2" d="M998.93,0c-.13,53.37.19,106.82,0,160.18-.21,62.55-.77,125.09-1.07,187.64h-2.15c.31-70.69.95-141.36,1.07-212.05.08-45.24-.07-90.55,0-135.77h2.15Z"/>
  <path class="cls-13" d="M174.83.04h2.15c.1,29.97-.14,60.03,0,90,.29,60.47.65,121,1.08,181.53h-2.15c-.56-90.49-1.53-181.02-1.09-271.54h0Z"/>
  <path class="cls-11" d="M643.9.02c.21,39.12-.26,78.34,0,117.46-3.92,0-3.53,1.6-4.3-3.81-1.96-13.79,2.32-31.07-1.08-45.01V.02s5.38,0,5.38,0Z"/>
  <path class="cls-16" d="M959.12.01h9.68c-.85,22.78-1.64,45.84-2.15,68.64-11.65,3.21-.72-27.29-7.53-33.56-.27-11.65.19-23.44,0-35.09h0Z"/>
  <path class="cls-2" d="M73.7.04c1.66,61.97,1.01,124.09,1.08,186.12.02,14.21,0,28.5,0,42.71h-2.15c-.1-76.27.44-152.6-1.09-228.83h2.15Z"/>
  <path class="cls-2" d="M643.9,0h3.23c-1.01,19.31-.95,38.61-1.07,57.97-.3,45.82.93,91.63,1.08,137.3v3.05s-2.15,0-2.15,0c-.09-26.96-.89-53.99-1.08-80.85-.27-39.12.2-78.34,0-117.46h0Z"/>
  <path class="cls-13" d="M571.82.02c-.7,34.57-.92,69.14-1.07,103.73-.07,17.26.04,34.6,0,51.87h-2.15c-.1-51.83.1-103.84,0-155.6h3.23Z"/>
  <path class="cls-2" d="M10.23.04h0s2.15,0,2.15,0l-1.07,152.55c-.06-17.78-.96-35.76-1.08-53.39-.21-33.02.15-66.14,0-99.16"/>
  <path class="cls-16" d="M1075.32,0v103.73c-.57-34.65-3.58-69.07-3.23-103.73h3.23Z"/>
  <polygon class="cls-18" points="898.88 0 898.35 44.24 896.73 0 898.88 0"/>
  <path class="cls-16" d="M895.69,958.02h0c-.87-104.29-1.96-208.52-3.24-312.73,4.76,9.49,6.36,1.22,7.53,22.12,2.18,39.13-1.44,84.35-1.07,122.04.01.65,3.23,3.92,3.23,4.57.15,15.01-2.28,33.52-2.15,50.34.5,62.58,5.2,133.05,3.24,193.74-.04,1.32-1.03,9.9-3.23,9.92-.11-.34-3.57-3.86-4.3-4.57,2.87-28.36.23-57.13,0-85.43h0Z"/>
  <path class="cls-2" d="M886.01,916.82h0l5.38,71.7c-.14,16.79-.3,33.64,1.08,50.34-.71-.26-2.38-.16-3.23,0-2.06-3.67-2.93-10.15-3.23-14.49-2.11-31.04.56-74.39,0-107.54h0Z"/>
  <path class="cls-11" d="M891.39,955.73l4.3,2.29c.24,28.3,2.87,57.08,0,85.43-1.62-1.57-3-4.49-3.23-4.57-1.37-16.7-1.22-33.55-1.08-50.34.09-10.92.68-21.96,0-32.8Z"/>
  <path class="cls-16" d="M891.91,532.4c1.35,10.74-.43,21.31-.54,32.04-.23-10.8-1.15-21.27.54-32.04Z"/>
  <path class="cls-16" d="M892.45,598h0c-.04-10.95-1.2-22.32-1.08-33.56.24,11.09.93,22.32,1.08,33.56h0Z"/>
  <path class="cls-16" d="M892.45,604.11c.14,10.06-1.21,21.08-1.07,30.51-.46-10.26,1.2-20.91,1.07-30.51Z"/>
  <path class="cls-16" d="M891.37,639.2c0,.31,1.03,2.38,1.08,6.1-1.62-3.22-.67-3.52-1.08-6.1Z"/>
  <path class="cls-16" d="M892.45,598.01c0,1.94-.02,4.28,0,6.1-.03-2.02.02-4.08,0-6.1Z"/>
  <path class="cls-16" d="M891.37,634.62c.02,1.51-.02,3.06,0,4.57-.81-5.08,0-4.34,0-4.57Z"/>
  <path class="cls-11" d="M997.88,660.54v.02c.2-1.37,1.6-5.11,1.62-7.63l11.3,5.33c-.45,61.56,6.02,123.26,4.31,184.59-.06,2.23,2.81,10.41,2.15,13.73-.43,2.15-4.21,4.21-4.3,4.57-1.33,5.51,2.11,11.23,2.15,13.73.71,41.76-2.85,90.36-1.07,130.43-2.06.53-4.38-1.91-5.38,2.29-.92,3.9,3.3,32.04,1.08,38.9-3.6-1.83-7.07-6.83-9.68-7.63-1.59-116.37-6.29-253.07-2.17-367.65.12-3.28-.42-7.86,0-10.68h-.01Z"/>
  <path class="cls-14" d="M995.72,347.8h2.15c-.49,104.21-2.8,208.73.01,312.73-.42,2.82.12,7.4,0,10.68h-2.15c-.1-25.5-2.11-50.74-2.15-76.28-.03-17.27.02-34.6,0-51.87-.08-64.91,1.86-130.23,2.14-195.26h0Z"/>
  <path class="cls-2" d="M1009.74,1046.48h0c2.22-6.86-2-35-1.08-38.9.99-4.19,3.32-1.76,5.38-2.29.72,16.21,6.52,31,5.38,47.29-6.03-1.22-6.91-4.68-9.68-6.1h0Z"/>
  <path class="cls-11" d="M71.58,689.56h0c3.04-1.15,3.68,2.33,4.3,5.33,3.68,17.74,4.14,39.84,7.53,57.97l3.24,228.83c-7.65-1.04-5.38,40.83-4.3,47.29.53,3.21,10.74,10.08,6.46,23.65-5.15-1.31-10.2-4.98-15.06-7.63-.32-.17-3.99-5.35-5.38-6.1-2.45-90.93.9-182.08,2.14-273.06.35-25.41.75-50.89,1.07-76.28h0Z"/>
  <path class="cls-18" d="M93.07,137.34h0c3.11-.25,2.93,2.05,3.23,5.33,7.46,81.52-6.08,187.4,6.47,265.44-3.76,53.27,3.33,111.74,3.23,163.23-.02,12.76,3.4,46.64-9.68,42.71-.95-145.68-2.2-291.38-3.25-437.05-.09-13.2.07-26.46,0-39.66h0Z"/>
  <path class="cls-11" d="M124.3,890.93h0c-11.33-4.66-4.95,2.22-9.68,11.44,2.29-45.69-.22-91.54-1.08-137.3,0-.27-2.15-4.3-2.15-4.57-.33-16.62-2.04-90.43,0-100.68.19-.96,8.16-14.48,10.76-12.97,1.03,81.28,1.66,162.8,2.16,244.08h0Z"/>
  <path class="cls-14" d="M72.64,228.87h2.15c.11,153.65-1.25,307.13-3.21,460.7-.33,25.38-.73,50.86-1.07,76.28l-2.15,1.52c2.61-179.49,4.5-358.84,4.28-538.5h0Z"/>
  <path class="cls-11" d="M422.29,527.84h-.01c-.9-9.49,12.97,3.61,13.45,4.57,2.6,5.22,2.12,72.89,2.7,84.67,2.5,51.13,10.09,117.13,8.61,167.8-.49,16.86-6.2,5.69-7.53,10.68l4.31,118.22c-3.24-12.29-6.37-7.15-7.53,3.05l-2.15-1.52c-.01-.24-.93-.53-1.08-4.57,3.73-5.96,2.34-23.02,2.15-31.27-.22-9.28.17-31-4.3-35.85-3.28-94.6-7.28-190.74-8.62-285.26-.14-10.27.1-20.42,0-30.51h0Z"/>
  <path class="cls-11" d="M422.28,122.08h0l17.21-1.53c.26,18.17,4.53,139.22,2.16,145.68-.5,1.38-18.82,13.85-19.36,5.34-.16-49.77.55-99.81,0-149.5h0Z"/>
  <path class="cls-2" d="M441.69,1052.63h0c-6.22-45.19-5.85-91.49-7.54-137.3l2.15,1.52c-.41,3.66.46,41.48,1.08,43.47.12.39,4.38,1.78,5.38,3.81.03,5.96.91,18.2,1.08,20.6,1.39,20.85,2.93,31.17,3.23,53.39,0,.41,1.95,1.86,2.15,7.63.02.55-3.2.63,0,8.39-1.86.02-5.43-1.02-7.53-1.52h0Z"/>
  <path class="cls-14" d="M462.09,212.07h2.15c.28,100.47,1.98,200.18,5.39,300.53.84,24.59,1.26,49.42,2.15,73.99.14,4.03.47,18.56,3.23,20.6-.05,5.06.05,10.19,0,15.25-4.26,1.19-4.06-17.51-4.3-22.12-6.98-129.07-7.02-258.8-8.62-388.25h0Z"/>
  <path class="cls-14" d="M436.3,916.84h0c1.16-10.2,4.29-15.34,7.53-3.05,2.08,7.88,2.07,24.91,4.3,34.33-5.59,2.44-5.42,8.4-5.38,16.02-.99-2.02-5.26-3.42-5.38-3.81-.61-1.99-1.49-39.81-1.08-43.47h0Z"/>
  <path class="cls-11" d="M643.92,540.04h0l11.83,16.01c6.17,165.5,10.73,330.95,15.08,496.55-4.18-.2-7.67,0-11.83-1.52-1.05-6.62,1.41-26.57,0-31.27-.31-1.02-4.49-2.03-5.38-4.57-.42-1.19.42-4.9,0-6.1-.79-2.23-3.96-2.69-4.3-4.57-.93-5.14.56-15.26,0-21.36-11.43-122.61-.6-281.05-3.24-410.36-.06-2.79,1.08-7.54-2.15-6.87v-25.93s0-.01,0-.01Z"/>
  <path class="cls-18" d="M665.42,115.95h0c4.86-7.07.87-23.56,2.15-32.8l2.15,1.52,12.93,489.69c-1.14,6.29-8.48-.57-10.76-1.52-2.64-130.4-4.23-260.85-5.4-391.29-.2-21.81-.92-43.88-1.08-65.6h0Z"/>
  <path class="cls-11" d="M646.05,58h0l19.36-7.63c0,21.83-.15,43.76,0,65.6.15,21.71.88,43.78,1.08,65.6l-19.36,13.73c-.16-45.67-1.38-91.48-1.08-137.3h0Z"/>
  <path class="cls-1" d="M637.46,198.33h0c4.66,1.1-1.09,10.09,7.53,7.63.26,79.8.08,159.7.01,239.51,0,12.16-1.07,24.71-1.07,36.61h-7.53c.49-94.34.71-189.12,1.06-283.74h0Z"/>
  <path class="cls-16" d="M636.39,482.08h7.53s0,86.96,0,86.96c-8.32-5.68-8.11,25.61-8.61-1.52-.51-27.85.93-57.34,1.07-85.43h0Z"/>
  <path class="cls-14" d="M644.99,198.34h2.15c.26,79.09,1.89,161.5.01,240.27-.06,2.8,1.09,7.53-2.15,6.87.07-79.81.25-159.71-.01-239.51v-7.63s0,0,0,0Z"/>
  <path class="cls-18" d="M739.67,281.48c.3.93,11.23,7.69,12.91,9.16-.19,66.91.24,133.94,1.08,200.61v1.52c.71,56.99,2.03,113.73,2.16,170.85l-9.68-1.52c-.65-12.22-1.62-24.23-2.15-36.61-5.23-120.86-6.08-241.73-6.47-363.07,4.67,2,.94,15.3,2.15,19.07Z"/>
  <path class="cls-2" d="M753.66,492.76h0c1.76-1.29,3.16,4.57,3.23,5.33,5.89,59.48-1.99,138.7,0,199.84,4.44,2.28,0,2.08,0,3.05v340.95c-.06.05.35.55-1.06,1.52-1.79-1.31-2-4.39-2.15-6.87-4.77-77.85.82-183.61,1.06-264.68.11-36.03,1.15-72.19,1.07-108.32-.13-57.12-1.45-113.85-2.16-170.85h0Z"/>
  <path class="cls-11" d="M746.14,662.07h0l9.68,1.52c.08,36.13-.96,72.29-1.07,108.32-7.72-.82-3.92-20.65-4.3-28.22-1.15-23.1-3.03-46.29-4.31-69.41,3.25-2.76,6.24-12.35,0-10.68-.03-.5.03-1.02,0-1.52h0Z"/>
  <path class="cls-11" d="M712.79,939.73h0c-2.44-45.44-4.16-90.89-4.31-136.54l4.3-6.1c1.12,6.3-3.04,13.13,1.08,17.54.22,33.22,4.93,94.06,2.16,122.81-.48,4.99-.19,4.78-3.23,2.29h0Z"/>
  <path class="cls-18" d="M746.14,674.28c-.19-3.51.18-7.17,0-10.68,6.24-1.66,3.25,7.92,0,10.68Z"/>
  <path class="cls-17" d="M820.35,273.08h0c11.07-.06,16.14-21.46,27.97-19.84.38,65.56.71,131.26,1.08,196.79.55,97.27.56,190.14,2.16,281.45.3,17.08-1.69,40.77-1.07,59.5.11,3.44,3.17,13.54,3.23,15.25,2.83,82.5,5.9,165.41,9.69,247.9-.12.01.5,1.66-2.15,1.52-2.72-26.49-2.77-53.43-4.31-80.09-3.65-63.26-8.06-128.26-11.84-192.21-4-67.57.38-80.68-18.29-146.45-.81-2.85-3.23-11.15-6.45-9.92-.52-117.94.47-235.98-.02-353.92h0Z"/>
  <path class="cls-1" d="M847.24,176.97h0c4.27-.7,2.96,1.15,3.23,5.33,3.96,60.98,6.65,203.29,2.16,262.39-.31,4.11,1.1,6.05-3.23,5.34-.37-65.52-.7-131.22-1.08-196.79-.15-25.46-.9-50.85-1.08-76.28h0Z"/>
  <path class="cls-1" d="M847.24,96.11h0c3.23-.66,2.09,4.08,2.15,6.87.24,11.57.28,23.53,0,35.09-.06,2.8,1.09,7.53-2.15,6.87-.13-16.25.11-32.57,0-48.82h0Z"/>
  <path class="cls-16" d="M486.83,148h0l16.13-10.68c-3.45,166.99-6.78,332.18-6.43,496.55.25,122.19,4.09,246.85,4.32,370.7.03,16.83-.72,34.36-2.15,51.1-1.82-.32-5.62-3.28-7.53-4.57,1.55-30.05,1.43-60.68,1.07-90.77-1.44-119.3-6.2-244.44-8.62-360.02-.24-11.56,1.25-40.98-5.38-45.01,1.86-135.72,6.11-271.56,8.59-407.31h0Z"/>
  <path class="cls-16" d="M147.96,681.95h0l4.3-2.29c.16,12.87-.63,26.84,0,39.66,1.98,39.75,3.28,80.13,4.31,120.51.9,35.55,8.13,112.2,2.16,142.63-.34,1.71-3.73,12.67-4.3,12.97l-3.23-3.81c-.13-3.53.13-7.16,0-10.68-2.65-70.39-9.32-154.74-8.61-223.49.13-12.76,4.5-3.94,6.45-7.63,1.43-2.71-.99-59.06-1.08-67.88h0Z"/>
  <path class="cls-16" d="M151.2,991.63h0l3.23,3.81c.57-.3,3.96-11.25,4.3-12.97,2.31,10.87,4.03,27.71,4.3,38.9.3,12.07-4.75,20.33,1.08,28.22-3.09.63-4.81,1.76-8.61,1.52-2.37-19.38-3.56-39.87-4.31-59.5h0Z"/>
  <path class="cls-2" d="M646.08,572.85c2.65,129.29-8.18,287.75,3.24,410.36.56,6.11-.93,16.22,0,21.36.34,1.89,3.51,2.34,4.3,4.57.42,1.18-.42,4.89,0,6.1.89,2.54,5.07,3.54,5.38,4.57,1.41,4.69-1.04,24.64,0,31.27-2.68-.98-6.39-4.73-9.68-6.1-.14-.06-2.01-2.99-2.15-3.05-4.47-157.42-3.27-315.29-3.25-472.9v-3.05c3.23-.66,2.09,4.08,2.15,6.87Z"/>
  <path class="cls-1" d="M285.65,205.97h0l6.45-.76c1.99,35.38,2.29,71.01,3.23,106.78,2.77,104.76,2.15,221.66,3.24,332.56.11,11.71,4.95,51.62,2.15,61.02-.25.84-9.81,8.47-11.83,6.87-2.08-169.29-2.64-337.58-3.25-506.47h0Z"/>
  <path class="cls-16" d="M282.45,880.25c.63,16.32.47,32.58,1.08,48.82-.61-16.33-.51-32.56-1.08-48.82Z"/>
  <path class="cls-16" d="M280.3,834.49c.41,13.17.64,26.49,1.08,39.66-.52-13.23-.53-26.49-1.08-39.66Z"/>
  <path class="cls-16" d="M278.68,771.94c1.2,12.1.25,24.46.54,36.61-.44-12.12-2.36-24.37-.54-36.61Z"/>
  <path class="cls-16" d="M285.68,974.83c.53,12.3.68,24.33,1.08,36.61-.47-12.23-.66-24.4-1.08-36.61Z"/>
  <path class="cls-16" d="M286.76,1011.44c.42,10.81,1.08,21.11,1.08,32.04-2.39-8.25-.78-22.73-1.08-32.04Z"/>
  <path class="cls-16" d="M284.61,948.9c.33,8.58.78,17.28,1.08,25.93-.38-8.63-.75-17.26-1.08-25.93Z"/>
  <path class="cls-16" d="M283.53,929.06c.24,6.43.82,13.25,1.08,19.84-.25-6.44-.83-13.24-1.08-19.84Z"/>
  <path class="cls-16" d="M280.3,822.28c.11,4.03-.16,8.18,0,12.2-.13-4.24.11-8.45,0-12.2Z"/>
  <path class="cls-16" d="M279.22,808.54c.01.39.97,4.51,1.08,7.63-.01-.39-.96-4.55-1.08-7.63Z"/>
  <path class="cls-16" d="M280.3,816.18c.07,2.25-.05,4.34,0,6.1-.06-2.01.06-4.08,0-6.1Z"/>
  <path class="cls-16" d="M281.37,874.15c.01.31.95,2.66,1.08,6.1-.01-.31-.94-2.72-1.08-6.1Z"/>
  <path class="cls-11" d="M147.98,1046.52h0c-.46-16.41-3.84-39.3-4.31-54.15-.19-6.07,2.62-5.67,3.23-14.49.99,2.49,2.05,3.7,4.3,3.05.13,3.53-.13,7.16,0,10.68.75,19.63,1.94,40.12,4.31,59.5-2.14-.13-4.34-.96-6.45-1.52-1.48-.39-1-1.49-1.08-1.52v-1.52s0-.01,0-.01Z"/>
  <path class="cls-11" d="M143.13,938.22l.54,16.78c-.64-5.55-2.2-11-.54-16.78Z"/>
  <path class="cls-11" d="M143.67,955c.35,3.04.76,6.02,1.08,9.16-.23-1.92-2.01-5.77-1.08-9.16Z"/>
  <path class="cls-11" d="M145.82,968.73c.25,2.53,1.38,4.67,1.08,9.16-1.81-4.51-.48-6.19-1.08-9.16Z"/>
  <path class="cls-11" d="M144.75,964.16c.02.23.77,1.37,1.08,4.57-.17-.84-.74-1.73-1.08-4.57Z"/>
  <path class="cls-11" d="M319.02,479.04c.03,9.72-1.57,55.03,0,60.26,1.25,4.16,3.16,1.79,5.38,2.29.87,136.06,4.59,272.96,4.32,409.6-.06,31.23-2.15,62.72-3.22,93.81-.41-.25-1.48.13-2.15,0-.03-1.45-1.04-1.59-1.08-3.05-3.52-186.69-6.17-373.08-8.63-559.86,1.93-4.26,1.24-6.59,5.38-3.05Z"/>
  <path class="cls-2" d="M342.68,520.23h0l5.38,3.05c3.96,143.9,2.36,289.8,3.25,434.01v3.05c.09,23.05,3.18,62.83,1.08,83.14-.1,1.03-1.61,7.57-3.23,7.63-2.06-177.02-1.55-354.04-6.48-530.88h0Z"/>
  <path class="cls-16" d="M319.02,479.04h0c-.04-13.16,1-29.49,1.07-39.66,8.47,2.15,1.91,20.5,2.15,29.74.61,23.08,2,48.12,2.15,72.46-2.22-.49-4.13,1.88-5.38-2.29-1.57-5.23.03-50.54,0-60.26h0Z"/>
  <path class="cls-16" d="M320.09,439.38h-.01c.16-23.9-.59-48.65-2.15-72.46l2.69-3.81c1.02,8.13,6.7,10.71,7,11.44,1.09,2.73-1.19,59.63-2.15,62.55s-3.52,2.37-5.38,2.29h0Z"/>
  <path class="cls-11" d="M348.06,481.33c.77,1.8-.16,35.79,0,41.95l-5.38-3.05c-.39-14.06-1.71-28.64-2.15-42.71,1.33,1.31,7.32,3.33,7.53,3.81Z"/>
  <path class="cls-18" d="M332.98,50.37v114.41c.17-38.1.13-76.32,0-114.41Z"/>
  <path class="cls-11" d="M197.42,90.04v342.48c5.61-.64,4.89,11.23,5.39,18.3,6.21,87.21,4.25,186.53,5.39,274.59.1,7.93,4.59,25.87,4.3,30.51-.4,6.4-3.23,5.39-3.23,6.1.21,28.83-3.42,88.09,1.08,112.89.46,2.57,5.58,1.24,4.3,10.68-.18,1.36-5.26,7.12-5.38,7.63-.4,1.69,2.35,21.08,2.15,25.93-.54,13.76-.87,23.52-1.07,36.61-.49,31.73-3.6,63.47-2.15,95.35-3.5-1.58-6.46-6.08-9.68-7.63-1.48-.71-1.95-2.78-3.23-3.05-1.94-17.97-1.05-36.71-1.08-54.91,4.96.52,1.45-2.35,3.77-7.63.23-.51,3.03.9,3.77-.76,3.89-8.82-3.29-126.78,1.07-146.45-4.14-53.41,2.11-112.77,0-170.85-.13-3.69-4.28-8.6-4.3-9.16-1.23-33.65-1.44-66.13-2.16-99.16-.06-2.79.94-6.84-2.15-3.81.71-148.88,2.17-297.99,3.21-446.97.02-3.54-.03-7.14,0-10.68h-.01Z"/>
  <path class="cls-1" d="M220.02,215.13h0l7.53-1.52c-.11,21.82-.18,43.78,0,65.6.64,73.97,4.59,144.7,5.39,218.91.91,83.65,1.36,176.25,3.24,263.91.23,10.62-3.41,8.35-3.23,16.78.15,7.07,2.02,14.49,2.15,22.12l-9.68-1.52c-.53-199.57-6.01-385.12-5.4-584.27h0Z"/>
  <path class="cls-16" d="M225.43,799.4h0l9.68,1.52c.22,12.29-1.66,27.82,2.15,37.38.7,1.75,3.4-.24,4.3,1.52,1.18,2.32-1.14,5.8-1.08,6.1,3.78,20.04,2.43,72.43,3.23,97.64.16,5.17-4.21,20.4,3.23,19.07-.03,25.36-1.39,51.85,1.08,76.28-7.91,4.17-5.83,11.31-22.59,13.73.14-84.53.22-168.57-.01-253.23h0Z"/>
  <path class="cls-18" d="M221.09,79.36c.59,6.89,1.78,13.5,1.08,20.6l7.53-.76c-.86,38.11-1.95,76.26-2.15,114.41l-7.53,1.52c.14-45.18.92-90.51,1.07-135.77Z"/>
  <g>
    <path class="cls-15" d="M218.94.03c1.15,26.21-.11,53.28,2.15,79.32-.15,45.27-.93,90.6-1.07,135.77-.61,199.15,4.87,384.7,5.4,584.27.23,84.67.15,168.71.01,253.23-1.44.21-1,1.52-1.08,1.52-5.21.38-11.18-.81-16.14-3.05-1.46-31.89,1.66-63.62,2.15-95.35.2-13.1.53-22.85,1.07-36.61.19-4.85-2.55-24.24-2.15-25.93.12-.51,5.19-6.27,5.38-7.63,1.28-9.44-3.84-8.11-4.3-10.68-4.5-24.8-.87-84.06-1.08-112.89-.01-.7,2.83.3,3.23-6.1.29-4.63-4.2-22.57-4.3-30.51-1.13-88.08.82-187.4-5.39-274.59-.5-7.06.21-18.93-5.38-18.3V90.04c.24-29.93,1.94-60,1.06-90,0,0,20.44,0,20.44,0Z"/>
    <g>
      <path class="cls-1" d="M213.58,494.3c.05,7.99-.12,16.61,0,24.41-.07-8.11.1-16.3,0-24.41Z"/>
      <path class="cls-1" d="M213.58,442.43c.59,8.61-.16,14.88,0,22.88v-22.88Z"/>
      <path class="cls-1" d="M209.81,419.55c-.91-2.43-.78-21.36,0-21.36.84,0,.84,21.36,0,21.36Z"/>
      <path class="cls-1" d="M212.5,425.65l1.08,16.78c-.39-5.7-.83-10.98-1.08-16.78Z"/>
      <path class="cls-1" d="M215.2,550.74c-1.25-4.86-.16-10.3-.54-15.25.39,4.76,2.38,10.12.54,15.25Z"/>
      <path class="cls-1" d="M213.58,465.32c.04,5.06-.06,10.19,0,15.25-.07-5.05.09-10.47,0-15.25Z"/>
      <path class="cls-1" d="M221.66,569.05c-.92-1.85-.77-13.73,0-13.73.84,0,.83,13.73,0,13.73Z"/>
      <path class="cls-1" d="M213.58,526.33c.01.47.89,6.77,1.08,9.16-.24-2.89-.94-5.81-1.08-9.16Z"/>
      <path class="cls-1" d="M213.58,480.56c.04,2.61-.03,5.24,0,7.63-.03-2.53.03-5.1,0-7.63Z"/>
      <path class="cls-1" d="M213.58,518.7c.07,2.53-.1,5.11,0,7.63-.03-2.57.04-5.29,0-7.63Z"/>
      <path class="cls-1" d="M213.58,488.2c.03,2.02-.02,4.08,0,6.1-.01-1.99.03-4.28,0-6.1Z"/>
      <path class="cls-1" d="M211.96,421.08l.54,4.57c-.01-.23-2.45-1.7-.54-4.57Z"/>
      <path class="cls-1" d="M218.43,553.79c-2.12.24-2.12-1.76,0-1.52h1.08s-1.08,1.52-1.08,1.52Z"/>
    </g>
  </g>
  <path class="cls-1" d="M33.9,138.86v.02s5.38,1.52,5.38,1.52c-1.47,76.5-2.76,154.7,0,231.11.13,3.68,3.11,13.13,3.23,16.78.05,1.65-3.43-1.66-3.23,4.57.05,1.55,4.18,14.13,4.3,18.3.3,10.39-3.25,12.95-3.23,13.73.04,1.45,3.22,8.64,3.23,9.16.41,19.88-.93,39.65,0,59.5-4.73.98-2.66,2.35-3.23,6.87-4.12,32.85.42,74.14,0,109.08-.29,23.66-2.58,50.51-3.22,76.28-.01.34,2.2,3.8,2.15,6.1-.03,1.38-3.17.13-3.23,1.52-.17,4.13-.42,11.46,0,15.25,3.65,32.92.83,51.35,1.08,85.43.4,56.92,4.81,113.8,4.31,170.85-1.79,7.17-8.76,3.48-12.91,5.34-2.72-176.25-2.16-367.5,1.05-540.8.33-17.75-1.52-35.8-1.08-50.34.01-.38,3.21-4.82,3.23-6.1.16-8.66-2.19-19.65-2.15-22.88.76-65.78,3.48-141.11,4.29-211.29h0Z"/>
  <path class="cls-16" d="M28.55,970.26h0c4.15-1.86,11.12,1.83,12.91-5.34.5-57.05-3.91-113.92-4.31-170.85-.25-34.08,2.57-52.52-1.08-85.43-.42-3.79-.17-11.12,0-15.25.06-1.39,3.2-.14,3.23-1.52.05-2.3-2.15-5.76-2.15-6.1.64-25.76,2.94-52.62,3.22-76.28.42-34.95-4.12-76.24,0-109.08.04,2.08,3.2,7.91,3.23,8.39,1.25,22.19-2.3,53.27-2.15,76.28.66,96.26,4.57,199.53,9.69,297.47.77,14.69-5.48,45.45,6.46,54.15v103.73c-2.54,2.18-4.78,8.77-8.6,10.68-5.34,2.66-14.66,2.55-20.44,1.53,1.34-4.15,3.21-18.47,3.23-22.12.11-18.64-2.96-42.97-3.23-60.26h0Z"/>
  <path class="cls-11" d="M10.24,344.81h0l2.16,99.92,4.3.76c.02,165.9-.61,337.14.02,503.42l-6.45.76-1.08-38.9c.54-108.34,1.38-216.66,2.14-324.94.31-43.76.89-88.21,0-131.95-.06-2.79,1.08-7.54-2.15-6.87.18-33.97.91-68.16,1.07-102.21h0Z"/>
  <path class="cls-16" d="M10.24,344.81h0c.27-57.46,1.13-114.89,1.07-172.39,5.68,9.23-.33,35.78,2.15,45.01.22.79,4.41,1.7,5.38,6.1,2.22,10.06-4.27,25.45-2.15,36.61l3.23,76.28c-5.75,2.12,0,16.16,0,22.88-.02,29.18-3.22,58.35-3.22,86.19l-4.3-.76-2.16-99.92h0Z"/>
  <path class="cls-17" d="M8.12,1038.91h0c-.33-42.73.86-85.42,1.07-128.14l1.08,38.9,6.45-.76c.09,23.62-.24,47.41,0,70.94.09,8.79,3.49,18.18,0,26.7-3.33-2.1-6.78-6.65-8.61-7.63h0Z"/>
  <path class="cls-16" d="M358.8,29.01h0c4.66.87,1.75,18.24,2.15,19.07.49,1.03,12.67,13.57,15.06,12.97-2.07,173.3-2.26,348.17-2.13,520.2l-11.83-10.68c-.79-77.83-3.65-155.6-4.31-233.4V125.12c.15-32.07.84-64.07,1.06-96.11h0Z"/>
  <path class="cls-11" d="M383.55,169.35h0c-.13-16.75.03-33.58,0-50.34l17.21,10.68c1.43,86.97,2.08,173.87,3.24,260.87,1.37,102.08,2.7,204.42,4.32,306.63-5.62.92-5.46,6.57-7.53-3.05-2.6-107.88,1.62-219.85-5.39-327.22-.45-6.97,0-17.19-5.38-19.07-.26-10.17-2.83-17.76-3.23-25.17-.22-3.93,2.64-9.07,2.15-12.2-.17-1.09-4.26-5.22-4.3-6.1-2.09-44.79-.71-90.14-1.08-135.01h0Z"/>
  <path class="cls-11" d="M362.05,570.57h0l11.83,10.68c.12,147.46.34,296.76,4.32,444.69.22,8.16.99,17.89-2.15,25.17-.57-.24-1.61.25-2.15,0-3.45-1.61-6.7-6.43-9.68-7.63,2.53-157.67-.57-315.35-2.17-472.9h0Z"/>
  <path class="cls-1" d="M386.8,698.71h0c-2.83-120.62-4.86-237.62-6.47-354.68-.48-34.74-6.84-136.2-2.16-166.28.75-4.79.48-9.96,5.38-8.39.37,44.87-1.01,90.22,1.08,135.01.04.86,4.13,4.99,4.3,6.1.49,3.14-2.37,8.27-2.15,12.2.4,7.41,2.97,15,3.23,25.17,1.44,56.95,1.13,119.78,2.16,173.15,1.23,64.16,3.88,124.11,3.24,188.4-.7-2.74-5.94-12.63-8.61-10.68h0Z"/>
  <path class="cls-16" d="M395.42,709.39h0c.64-64.29-2-124.24-3.24-188.4-1.03-53.37-.72-116.21-2.16-173.15,5.38,1.89,4.93,12.11,5.38,19.07,7.01,107.37,2.8,219.35,5.39,327.22.58,24.31,1.11,60.11,5.38,81.61.3,1.52-3.4,9.07,3.23,9.92.55,37.59,1.71,75.27,2.16,112.89l-10.22-4.57-1.62,11.44c.94-28.82-.74-57.43-1.08-86.19-.07-5.9-.98-10.8-1.08-16.02-.01-.65,3.51.2,3.23-7.63-.56-15.43-2.35-74.35-5.38-86.19h.01Z"/>
  <path class="cls-18" d="M386.8,698.7h0c2.66-1.95,7.91,7.94,8.61,10.68,3.03,11.84,4.82,70.77,5.38,86.19.29,7.84-3.24,6.98-3.23,7.63.09,5.21,1,10.11,1.08,16.02-2.42.14-3.67.67-5.38-2.29-.41-.71-5.27-15.87-5.38-16.78-2.99-23.4-.43-74.05-1.08-101.45h0Z"/>
  <path class="cls-16" d="M55.43,474.47l1.08,11.44,5.38-1.52-2.14,359.25c-.67-123.01-3.26-246.11-4.32-369.17Z"/>
  <path class="cls-2" d="M57.6,936.69h0c0-220.37-10.95-446.83-6.48-665.88.06-2.79-1.08-7.54,2.15-6.87.27,70.24,1.55,140.37,2.16,210.52,1.06,123.06,3.65,246.16,4.32,369.17.19,34.63.83,69.89,0,104.49-.06,2.8,1.09,7.53-2.15,6.87v-18.3s0-.01,0-.01Z"/>
  <path class="cls-2" d="M68.36,767.37h0l2.15-1.52c-1.24,90.98-4.59,182.13-2.14,273.06-2.75-1.44-3.03-3.02-3.23-3.05-1.34-89.6,1.91-179.03,3.22-268.49h0Z"/>
  <path class="cls-16" d="M546.01,268.51h0c5.88-14.13,9.55,20.79,16.14,19.84.26,166.02,5.65,330.92,7.55,496.55,1,87.21-2.33,174.42-1.06,261.63-.24.12-1.99,3.52-3.77,4.57-1.53.9-13.31,1.37-15.6,1.52,1.07-18.64-4.61-38.24-5.38-55.68-1.52-34.47,2.54-76.76,0-111.36-.88-12.03-5.75-24.17-6.46-35.09-2.75-42.31-3.1-87-4.31-131.19-.02-.55,2.73-.19,2.15-9.16-1.98-31.04-1.82-64.38-3.23-96.87h2.15c.33,13.74,5.31,39.78,4.3,49.58-.07.67-4.24,11.49-4.3,12.2-1.53,16.61,1.4,26.08,5.92,40.42,1.96-1.03,1.58-32.43,1.62-38.9.02-3.31-.47-4.76,0-12.2.08-1.29-1.35-11.73-1.08-12.2.47-.8,11.53-8.18,11.83-9.16,1.5-4.97-.03-66.15,0-77.8.09-31.53.92-68.93,0-102.21-.01-.51-3.19-1.51-3.23-3.05-1.76-65.38-2.54-126.57-3.24-191.45h0Z"/>
  <path class="cls-18" d="M536.33,294.45h.01c4.75,0,.8-8.87,1.08-9.92.57-2.21,3.83-2.43,4.3-4.57.72-3.28-2.16-10.13-2.15-10.68.15-7.79-.8-29.97,0-36.61.25-2.08,1.86-11.02,5.38-8.39.08,14.79.92,29.42,1.08,44.23.7,64.88,1.47,126.07,3.24,191.45.04,1.52,3.22,2.54,3.23,3.05.92,33.27.1,70.68,0,102.21-.03,11.64,1.5,72.83,0,77.8-.29.98-11.36,8.36-11.83,9.16-.28.47,1.16,10.91,1.08,12.2-.47,7.44.02,8.9,0,12.2-.05,6.47.34,37.87-1.62,38.9-4.52-14.33-7.45-23.82-5.92-40.42.06-.71,4.23-11.53,4.3-12.2,1-9.8-3.98-35.84-4.3-49.58-.41-17.06-.96-36.39-1.08-52.63-.01-.93,1.09-9.45,1.07-16.78-.14-80.09,4.39-167.51,2.14-249.42h0Z"/>
  <path class="cls-16" d="M526.66,741.41h0c.48-46.97,1.87-94.06,1.07-141.11h4.3c-1.28,4.34-.18,8.78,0,12.97,1.42,32.49,1.25,65.84,3.23,96.87.57,8.97-2.16,8.6-2.15,9.16,1.21,44.19,1.56,88.87,4.31,131.19.71,10.92,5.57,23.05,6.46,35.09,2.54,34.62-1.51,76.9,0,111.36.77,17.43,6.46,37.02,5.38,55.68-1.03.07-2.18-.57-2.15,1.52-3.27-3.48-17.96-7.11-22.59-12.2.01-.51,0-1.01,0-1.52,1.75-99.65,1.11-199.34,2.14-299h0Z"/>
  <path class="cls-1" d="M535.78,285.29c1.02,2.63.46,6.21.54,9.16l-.54-9.16Z"/>
  <path class="cls-18" d="M759.02,33.58h0c.02-.5-.02-1.01,0-1.52,3.78,7.42-1.11,48.08,0,51.1.52,1.43,16.75,18.86,19.36,14.49-4.39,278.11-8.44,556.2-10.72,834.46l-8.61-2.29c2.48-146.97,2.51-293.8-.02-440.87-.01-.6-2.15-9.4-2.15-9.92-1.18-68.85-2.52-137.98-2.16-207.47.41-79.27,1.64-158.83,4.29-237.98h0Z"/>
  <path class="cls-16" d="M753.66,491.22h0c4.5.58.29-9.02,3.23-12.2.01.52,2.14,9.32,2.15,9.92,2.53,147.08,2.5,293.92.02,440.87l8.61,2.29c-.3,36.11.04,72.24-1.07,108.32-.48-.1-9.24,1.22-9.68,1.52v-340.95c-.01-.97,4.42-.77-.01-3.05-2-61.14,5.88-140.38,0-199.84-.07-.75-1.47-6.62-3.23-5.33v-1.52s0-.01,0-.01Z"/>
  <path class="cls-2" d="M754.73,271.55h0c-3.54-71.69,0-145.14,1.07-217.38l3.23-20.6c-2.65,79.15-3.89,158.71-4.29,237.98h0Z"/>
  <path class="cls-1" d="M464.24,189.2h-.01c5.01,3.03.28,25.04,2.7,27.46,1.09,1.08,13.97-.8,16.68,0-1.71,98.65-4.83,197.31-6.44,295.95h-7.53c-3.42-100.34-5.1-200.05-5.39-300.53-.02-7.61,0-15.28,0-22.88h0Z"/>
  <path class="cls-1" d="M570.76,103.76h0l18.29-1.53c0,53.37.09,106.81,0,160.18-.06,40.13.28,80.38,0,120.51-.83,120.06-3.62,240.01-5.36,360.02-.56,38.61-.56,77.33-1.07,115.94h-6.45c0-.19-2.15-1.17-2.15-2.29-.07-10.07,3.05-20.6-1.08-29.74.1-9.42.96-19.33,1.07-28.98,4.87-7.46.85-22.9,1.07-32.8,2.61-113.33,5.86-233.78,3.21-347.05-.35-14.96,2.67-25.64-8.07-33.56-1.09,1.14-.46,13.71-.54,16.78-6.62,4.16-.28-9.06-5.38-9.16-.38-59.96,0-120.05,0-180.01h4.3c.23,56.12,1.48,112.64,1.08,168.57l2.15-1.52c-1.86-74.32-1.24-149.06-1.09-223.49.04-17.26-.07-34.61,0-51.87h.01Z"/>
  <path class="cls-16" d="M589.04,262.42h0c8.8-3.06,9-23.4,18.29-24.41,1.27,228.01-4.63,456.92-5.35,684.95-.13,43.52-1.18,87.42-1.07,131.19-.71,0-1.44.08-2.15,0-4.59-.49-5.56-2.99-8.61-4.57,1.47-60.07,3.67-121.93,2.14-182.29-.01-.41-2.08-5.65-2.15-7.63-.03-.9,3.49-2.62,3.23-7.63-.22-3.97-3.17-10.83-3.23-11.44-.71-7-1.26-14.25-1.08-21.36,2.7-2.75,1.94-2.71,2.15-6.87,5.34-105.34,1.23-217.89,1.06-324.94-.02-14.6,4.48-53.56,3.22-64.07-.06-.54-4.25-8.61-4.3-9.16-.82-9.07,2.36-24.63-2.15-31.27.27-40.13-.06-80.38,0-120.51h0Z"/>
  <path class="cls-1" d="M607.34,209h0c6.64-6.03-3.34-24.74,8.6-18.3-.29,132.24,3.53,264.47,4.32,396.63-4.75-1.66-3.23,6.87-3.23,12.2-2.57,1.08-2.26,3.95-2.15,6.87,2.73,69.01-2.3,145.27-3.22,213.57-.17,12.85,1.43,96.16-1.61,99.92-.32.39-6.4.69-8.07,3.05.72-228.04,6.62-456.94,5.35-684.95-.05-9.64.09-19.34,0-28.98h.01Z"/>
  <path class="cls-16" d="M604.09,50.36h0l4.3,3.81c-1.4,9.26-2.07,51.69,1.08,57.97.86,1.71,5.78.33,7.53.76-.27,25.9-1.01,51.95-1.07,77.8-11.95-6.44-1.97,12.26-8.6,18.3-.51-52.95-1.69-105.77-3.23-158.65h0Z"/>
  <path class="cls-1" d="M176.98,90.03h-.01c4.52.29.71,11.74,2.69,13.73.73.73,15.14-3.98,17.75-3.05-1.04,148.98-2.5,298.09-3.21,446.97-.16,35.11-.96,70.15-1.07,105.26l-9.68-2.29c1.33-89.13,2.76-180.43-1.09-268.49-.01-.35-2.1-5.49-3.23-5.33-.22-35.03-.82-70.18-1.08-105.26-.43-60.53-.79-121.05-1.08-181.53h0Z"/>
  <path class="cls-18" d="M181.33,1032.8h0c.46-158.5-.31-316.77-1.1-475.19-.28-56.05-.7-120.11-1.08-180.77,1.13-.15,3.22,4.98,3.23,5.33,3.85,88.06,2.42,179.35,1.09,268.49l9.68,2.29c-.24,75.28.7,150.55,1.09,225.78l-8.07-1.52c-5.21,50.92-.51,104.01-4.84,155.6h.01Z"/>
  <path class="cls-16" d="M181.31,1032.81h0c4.34-51.59-.37-104.67,4.84-155.6l8.07,1.52c.19,35.56-.05,71.21,0,106.78.03,18.2-.86,36.94,1.08,54.91-.77-.16-12.81,1.21-13.98,1.52-.89-2.56-.25-6.26,0-9.16h-.01Z"/>
  <path class="cls-18" d="M564.31,392.08h0c5.1.1-1.24,13.33,5.38,9.16-.1,4.03,0,8.16,0,12.2,0,7.61-.06,15.32,0,22.88.43,52.84,1.98,105.73,2.16,158.65l-5.38,1.52c-1.6-68.14-1.73-136.21-2.16-204.42h0Z"/>
  <path class="cls-16" d="M569.69,413.45h0l8.61,4.57c2.65,113.27-.6,233.71-3.21,347.05-.22,9.9,3.79,25.35-1.07,32.8,1.16-101.85,5.12-212.52,2.14-313.5-.39-13.16.75-42.33-6.46-48.06-.06-7.56,0-15.27,0-22.88h0Z"/>
  <path class="cls-16" d="M571.87,1041.95h0c-1.38-71.71.26-143.34,1.07-215.1,4.13,9.15,1,19.68,1.08,29.74.01,1.11,2.15,2.1,2.15,2.29-.02,8.44-2.15,12.22-2.15,12.97-.14,13.72-2.17,102.42,0,106.78.83,1.66,4.85.38,6.45.76-.22,20.82.17,41.73,0,62.55-1.16-.4-5.08-.26-6.45,0-.69.13-1.64-.24-2.15,0h0Z"/>
  <path class="cls-11" d="M566.47,596.49h.01s5.38-1.52,5.38-1.52c.12,38.1.35,76.33-.54,114.41-4.63-37.11-3.97-75.27-4.85-112.89h0Z"/>
  <path class="cls-1" d="M419.05,112.91c2.41,162.2,1.22,323.19-2.13,485.11h-7.53c-1.39-69.08-4.15-138.34-5.39-207.47-1.16-87-1.81-173.9-3.24-260.87-.1-6.07.1-12.22,0-18.3,0,0,18.29,1.52,18.29,1.52Z"/>
  <path class="cls-11" d="M414.79,1038.91h0c-1.03-146.81.93-293.46,4.28-440.11l3.23-40.42c1.34,94.53,5.33,190.66,8.62,285.26.78,22.32,1.34,44.79,2.15,67.12.14,4.04,1.08,4.33,1.08,4.57,1.68,45.81,1.32,92.11,7.54,137.3-5.74-1.38-10.66-5.31-16.14-7.63-3.4-1.43-6.93-6.14-10.76-6.1h0Z"/>
  <path class="cls-16" d="M416.93,598.02c-1.33,64.08-2.44,128.09-3.76,192.21-3.6-63.9-2.49-128.18-3.78-192.21h7.54Z"/>
  <path class="cls-11" d="M409.4,785.66h0c-6.63-.85-2.92-8.39-3.23-9.92-4.27-21.5-4.8-57.3-5.38-81.61,2.07,9.62,1.9,3.97,7.53,3.05.46,29.46.64,59.01,1.08,88.48h0Z"/>
  <path class="cls-1" d="M243.68,91.57h-.01c4.27.3.89-8.64,2.69-10.68.95-1.08,20.89,5.26,24.21,4.57-4.67,211.9-8.03,424.15-10.73,636.14l-8.61-1.52c1.28-48.66,6.22-72.48,0-122.81-1.83-14.86,9.82-50.75-4.31-60.26-.15-23.83-.91-47.79-1.08-71.7-.36-50.8-.8-101.71-1.08-152.55-.4-73.72-.56-147.49-1.09-221.19h0Z"/>
  <path class="cls-14" d="M249.1,855.83h0c6.44,7.3-3.86,25.08,8.61,21.36-.34,53.87.26,107.83,0,161.71-1.69-.28-7.29-.5-8.61,0,.93-60.76.07-122.17,0-183.06h0Z"/>
  <path class="cls-17" d="M251.25,720.08h0l8.61,1.52c-.66,51.82-1.82,103.76-2.14,155.6-12.47,3.72-2.16-14.07-8.61-21.36-.02-16.25.06-32.57,0-48.82,3.24.66,2.08-4.08,2.15-6.87.63-26.63-.7-53.48,0-80.09h0Z"/>
  <path class="cls-18" d="M959.14,35.09v.02c6.81,6.28-4.13,36.78,7.53,33.56-.02,1,.02,2.05,0,3.05-2.66,123.22-4.08,256.01-2.14,374.51.06,3.55,2.13,1.81,2.15,3.05.01.55-2.15,2.49-2.15,3.05.86,92.11-1.93,196.53,5.39,289.85.77,9.81-3.11,6.15-3.23,7.63-.92,11.74,2.25,22.82,2.15,30.51-.01.66-3.23,3.91-3.23,4.57-.04,3.2,2.16,10.5,2.15,12.2-.21,29.52-1.98,62.37-1.07,91.53.19,6.35-.35,14.3,0,19.84.11,1.86,5.43,13.47,4.3,17.54-1.64.34-2.92,1.04-4.3,2.29,1.21,22.18-.52,44.99,0,67.12.4,16.78-.95,43.28,6.46,54.15-5.12,3.85-10.35,5.28-16.13,4.57-1.09-23.14,1.39-46.33,1.07-69.41-1.54-113.28-2.81-220.58-2.17-333.32.41-71.95.16-143.91,1.07-215.86l-9.15-5.33-1.62,9.92c1.62-44.77-.79-89.43,0-134.25.16-9.33-.35-23.01,0-33.56.02-.69,3.21-3.88,3.23-4.57.33-12.32.19-23.14-2.15-35.09,1.05,1.59,12.58-9.66,12.91-10.68,1.37-4.35-.04-82.85,0-95.35.09-30.63-.39-60.95-1.08-91.53h.01Z"/>
  <path class="cls-1" d="M938.69,85.42c0,25.4.03,50.87,0,76.28-.04,36.57.11,73.35,0,109.84-.18,64.53-1.15,129.14-1.07,193.74.13,98.14.4,196.3,1.09,294.42l-9.68-3.05c-.65-59.88,1.36-125.88,0-182.29-.1-4.46-1.45-27.52-6.46-23.65-.88-156.98-2.49-314.4-1.1-471.38,4.26,10.04,9.55,5.08,17.21,6.1Z"/>
  <path class="cls-16" d="M938.68,161.7h0c4.84-2.94.78-17.83,2.15-22.12.44-1.38,16.47-13.92,19.36-12.97-.04,12.51,1.38,91,0,95.35-.32,1.02-11.86,12.28-12.91,10.68,2.35,11.95,2.48,22.76,2.15,35.09-.02.69-3.21,3.87-3.23,4.57-.35,10.55.16,24.25,0,33.56-.79,44.82,1.62,89.48,0,134.25l1.62-9.92,9.15,5.33c-.91,71.95-.65,143.91-1.07,215.86-10.36-3.65-4.31-20.28-7.53-30.51-.56-44.92-.24-100.2-3.23-144.16-.41-6.06-.28-14.35-5.38-13.73l-1.08-191.45c.1-36.5-.04-73.27,0-109.84h-.01Z"/>
  <path class="cls-11" d="M634.24,567.51h1.08c.49,27.14.29-4.15,8.61,1.52-.02,157.61-1.23,315.47,3.25,472.9-8.08-3.52-14.36-3.73-22.59,0l-1.09-285.27c3.62,1.78,1.97,21.14,6.45,5.33,1.83-6.48.71-122.44,1.07-139.58.39-18.31,2.93-37.65,3.22-54.92h0Z"/>
  <path class="cls-1" d="M621.33,500.37h.01c-.72-139.39-1.28-278.58-1.09-417.99.26,15.1,7.43,11.07,16.14,12.2,0,130.1-.5,260.63-2.13,390.53-4.85,2.12-.45,16.36-2.69,19.84-2.24,3.48-8.65.65-10.22-4.57h0Z"/>
  <path class="cls-16" d="M620.26,587.33c.92,152.73-.57,304.99,1.1,457.65-1.74.77-2.24,3.11-5.38,4.57-8.25-4.21-.2-19.67,0-23.65,1.68-35.04-.31-75.88,0-111.36,0-.34,2.15-5.76,2.15-6.1.02-2.27-3.23-4.25-3.23-4.57.83-97.33,1.96-200.16,2.14-304.34,0-5.34-1.53-13.87,3.23-12.2Z"/>
  <path class="cls-18" d="M621.32,500.38v.02c1.59,5.22,7.99,8.02,10.22,4.57s-2.15-17.72,2.69-19.84c-.35,27.31.46,55.25,0,82.37-.29,17.27-2.84,36.59-3.22,54.92l-6.45.76-2.15-20.6c-.22-34.09-.9-68.12-1.08-102.21h-.01Z"/>
  <path class="cls-16" d="M622.41,602.58h0l2.15,20.6,6.45-.76c-.36,17.15.76,133.11-1.07,139.58-4.49,15.81-2.84-3.55-6.45-5.33-.2-51.38-.75-102.72-1.08-154.07h0Z"/>
  <path class="cls-11" d="M478.24,555.32h0c6.63,4.03,5.13,33.45,5.38,45.01,2.41,115.58,7.18,240.72,8.62,360.02.36,30.08.47,60.71-1.07,90.77-3.65-2.48-7.28-8.72-10.76-10.68-.66-18.61-2.41-40.33-2.15-58.74,1.86-135.89-1.96-284.37-.02-426.38h0Z"/>
  <path class="cls-16" d="M469.63,512.6h7.53c-.51,31.5-1.8,62.95-2.15,94.58-2.76-2.05-3.08-16.58-3.23-20.6-.89-24.57-1.31-49.4-2.15-73.99h0Z"/>
  <path class="cls-18" d="M357.73,337.17c-.6-70.57-.37-141.48,0-212.05v212.05Z"/>
  <path class="cls-16" d="M922.58,550.72h0c5.01-3.86,6.34,19.18,6.46,23.65,1.36,56.41-.64,122.42,0,182.29.13,12.73-1.02,98.77,1.08,102.97.9,1.81,7.68.25,9.68.76.43,60.5,1.23,121.03,1.08,181.53-2.32-.53-9.18,1.52-12.91,1.52-1.7-45.97-1.93-92.08-2.16-138.06-.31-63.63-1.38-144.81-2.16-210.52-.17-14.68.13-29.48,0-44.23v-3.05c-.22-23.44-.89-46.79-1.08-70.18v-3.05c-.06-7.88.04-15.78,0-23.65h0Z"/>
  <path class="cls-1" d="M794.52,99.18h0c1.43-10.52,15.57-5.28,22.59-7.63,2.57,114.72.83,229.96,1.09,344.76-4.27-.7-2.96,1.15-3.23,5.34-2.96,45.58.19,103.19,0,150.26-1.22-.21-6.18,1.55-6.45,2.29-1.57,4.12-.16,82.64,0,93.81.11,7.43-.2,14.6,0,22.12.17,6.65,1.54,21.54,2.15,32.8.28,4.99-.35,10.28,0,15.25l-3.22,145.68c-3.2,7.83-8.4-18.19-10.76-18.3,1.49-96.77,1.28-193.82,1.06-290.61-.39-165.31-.8-330.56-3.25-495.79h0Z"/>
  <path class="cls-14" d="M820.37,626.98h0c3.22-1.23,5.65,7.07,6.45,9.92,18.66,65.77,14.29,78.88,18.29,146.45,3.78,63.95,8.19,128.95,11.84,192.21,1.54,26.66,1.59,53.58,4.31,80.09-3.34-.18-8.54-3.26-11.83-4.57-6.89-2.76-19.13-13.3-24.74-13.73-.35-.03-.73-.04-1.08,0-.1-135.15-2.64-272.75-3.24-410.36h0Z"/>
  <path class="cls-16" d="M783.79,626.23c9.23,4.99,6.25-27.69,13.98-31.27.23,96.79.43,193.84-1.06,290.61,2.36.11,7.56,26.13,10.76,18.3l3.22-145.68c1.72,24.79,4.05,53.09,8.61,76.27l3.24,202.89c-4.84,2.04-12.54,14.81-22.59,16.78-4.65.91-12.57.13-17.21-1.52l1.06-426.38Z"/>
  <path class="cls-11" d="M814.99,591.9h0c.18-47.07-2.97-104.69,0-150.26.27-4.17-1.05-6.04,3.23-5.34.3,132.76-.54,265.53,1.09,398.15-4.56-23.19-6.89-51.49-8.61-76.27-.35-4.97.28-10.25,0-15.25,9.49,1.9,2.19-25.31,2.15-28.22-.14-10.17.98-19.77,1.07-29.74.29-31.01.95-62,1.07-93.05h0Z"/>
  <path class="cls-11" d="M230.77,64.1l12.91,4.57c.01,7.61-.05,15.28,0,22.88.53,73.7.68,147.47,1.09,221.19l-2.15,90.77c-5.51,1.81-5.7-5.68-6.45-11.44-1.58-11.92.87-34.66-1.08-43.47-.86-3.92-6.29-5.6-6.45-6.1-2.9-9.18,3.01-50.68-1.08-63.31-.19-21.81-.11-43.77,0-65.6.19-38.16,1.29-76.31,2.15-114.41.27-11.72.77-23.44,1.07-35.09Z"/>
  <path class="cls-11" d="M966.66,71.69h0l12.91,3.05c.12,9.09-.38,18.41,0,27.46-1.94,84.32-1.16,169.07-1.06,253.23-3.24-.66-2.08,4.08-2.15,6.87-4.42,185.55.67,377.21.02,563.67-1.73.24-3.68-.36-5.38,0,1.13-4.07-4.19-15.67-4.3-17.54-.35-5.54.19-13.5,0-19.84-.91-29.16.86-62,1.07-91.53.01-1.7-2.19-9.01-2.15-12.2.01-.66,3.23-3.91,3.23-4.57.1-7.68-3.07-18.76-2.15-30.51.11-1.48,4,2.17,3.23-7.63-7.32-93.31-4.53-197.74-5.39-289.85-.01-.56,2.15-2.5,2.15-3.05-.02-1.24-2.09.5-2.15-3.05-1.94-118.49-.52-251.29,2.14-374.51h0Z"/>
  <path class="cls-1" d="M978.51,355.44v.02c-.1-84.17-.88-168.93,1.06-253.23.18,4.4.53,28.47,1.08,29.74.43,1.01,13.96,4.85,16.14,3.81-.12,70.7-.75,141.37-1.07,212.05-.28,65.03-2.23,130.35-2.14,195.26-4.86-1.03-1.64-21.22-2.15-22.12-.69-1.2-6.55-.99-8.07-2.29-2.66-2.26.83-39.01-2.15-45.77-.22,26.94-1.08,53.97-1.62,80.85-1.79-66.03-1.01-132.24-1.08-198.32h.01Z"/>
  <path class="cls-11" d="M778.38,97.66h0c.12-7.95.94-16.25,1.07-24.41l13.98,4.57c.12,7.23.07,14.24,1.08,21.36,2.45,165.23,2.86,330.48,3.25,495.79-7.73,3.58-4.74,36.25-13.98,31.27l-1.06,426.38c-2.01-.71-4.85-3.32-7.53-4.57-2.16-1.01-4.88-6.86-8.61-7.63,1.12-36.08.78-72.21,1.07-108.32,2.28-278.27,6.32-556.35,10.72-834.46h0Z"/>
  <path class="cls-16" d="M637.46,198.34h0c.16-43.21,1.07-86.4,1.07-129.67,3.4,13.95-.88,31.23,1.08,45.01.77,5.42.38,3.81,4.3,3.81.19,26.86.99,53.89,1.08,80.85v7.63c-8.62,2.45-2.86-6.54-7.53-7.63h0Z"/>
  <path class="cls-11" d="M568.6,155.61h2.15c-.15,74.43-.77,149.18,1.09,223.49l-2.15,1.52c.4-55.93-.86-112.45-1.08-168.57-.08-18.78.04-37.65,0-56.44h0Z"/>
  <path class="cls-11" d="M978.52,863.45h0l2.15-113.65c12.03-.99,4.9-34.32,5.38-47.29.03-.88,2.84,2.39,3.23-9.16.99-29.67,1.52-60.66,2.15-91.53.06-2.79-1.08-7.54,2.15-6.87.04,25.53,2.05,50.77,2.15,76.28.48,122.54,2.97,245.04,1.09,367.65-6.55-.61-12.11,2.58-18.29,4.57.07-59.98-.11-120.03,0-180.01h0Z"/>
  <path class="cls-16" d="M940.86,752.08v.02c4.71,1.43-.56,10.27,5.92,10.68.65-.36,2.65-17.95,2.69-19.07,1.3-37.61-.61-84.29-1.08-122.81,3.22,10.22-2.83,26.86,7.53,30.51-.65,112.74.62,220.03,2.17,333.32.32,23.07-2.16,46.27-1.07,69.41-.98-.12-5.94-1.27-6.45-1.52-.47-.23-7.06-8.92-7.53-9.16l-2.16-291.37h-.01Z"/>
  <path class="cls-2" d="M976.35,362.31c.06-2.8-1.09-7.53,2.15-6.87.07,66.09-.7,132.29,1.08,198.32-2.03,103.1-.89,206.41-1.06,309.67-.1,59.98.08,120.03,0,180.01h-1.08c-1.87-39-1.21-78.38-1.08-117.46.65-186.45-4.44-378.12-.02-563.67Z"/>
  <path class="cls-2" d="M937.63,465.28h0c3.23-.66,2.09,4.08,2.15,6.87,1.9,93.08.4,186.81,1.09,279.93l2.16,291.37c-1.58-.79-2.03-1.49-2.15-1.52.15-60.5-.65-121.03-1.08-181.53-.25-33.54-.84-67.19-1.08-100.68-.69-98.12-.96-196.28-1.09-294.42h0Z"/>
  <path class="cls-16" d="M971,925.99h0c1.7-.36,3.64.24,5.38,0-.13,39.08-.79,78.46,1.08,117.46-.82,2.93-1.3,4.28-3.23,6.1-.25.23-.79-.21-1.08,0-7.41-10.87-6.06-37.38-6.46-54.15-.52-22.12,1.21-44.94,0-67.12,1.38-1.24,2.66-1.95,4.3-2.29h0Z"/>
  <path class="cls-2" d="M995.74,671.23h2.15c-4.12,114.58.57,251.28,2.17,367.65-.95-.29-2.19.1-3.23,0,1.88-122.61-.61-245.11-1.09-367.65h0Z"/>
  <path class="cls-18" d="M979.59,553.76v-.02c.53-26.88,1.39-53.91,1.62-80.85,2.98,6.76-.51,43.51,2.15,45.77,1.54,1.29,7.4,1.08,8.07,2.29.51.9-2.7,21.09,2.15,22.12.02,17.27-.03,34.6,0,51.87-3.23-.66-2.09,4.08-2.15,6.87-.62,30.87-1.15,61.85-2.15,91.53-.39,11.54-3.2,8.27-3.23,9.16-.48,12.98,6.65,46.3-5.38,47.29l-2.15,113.65c.17-103.26-.97-206.57,1.06-309.67h-.01Z"/>
  <path class="cls-2" d="M430.92,843.63h0c4.48,4.85,4.09,26.58,4.3,35.85.2,8.24,1.58,25.3-2.15,31.27-.81-22.32-1.37-44.8-2.15-67.12h0Z"/>
  <path class="cls-11" d="M584.77,850.49c1.24-5.01,5.44-2.65,5.38-9.92.06.61,3.01,7.47,3.23,11.44.27,5.02-3.26,6.73-3.23,7.63.07,1.99,2.14,7.22,2.15,7.63,1.53,60.35-.67,122.23-2.14,182.29-3.85-2.01-5.77-6.28-9.68-7.63.16-20.82-.23-41.73,0-62.55.41-38.6,1.65-77.35,2.15-115.94,4.2-.31,1.36-9.79,2.15-12.97Z"/>
  <path class="cls-14" d="M194.22,547.68h.01c3.09-3.03,2.09,1.02,2.15,3.81.72,33.04.92,65.5,2.16,99.16.02.55,4.17,5.47,4.3,9.16,2.11,58.07-4.13,117.43,0,170.85-4.36,19.68,2.82,137.64-1.07,146.45-.74,1.66-3.54.25-3.77.76-2.33,5.28,1.19,8.15-3.77,7.63-.05-35.56.18-71.22,0-106.78-.38-75.22-1.33-150.5-1.09-225.78.11-35.1.91-70.15,1.07-105.26h0Z"/>
  <path class="cls-16" d="M235.11,800.92h-.01c-.13-7.63-2-15.05-2.15-22.12-.18-8.42,3.45-6.16,3.23-16.78-1.88-87.67-2.33-180.28-3.24-263.91-.8-74.2-4.75-144.93-5.39-218.91,4.09,12.63-1.82,54.13,1.08,63.31.15.5,5.58,2.18,6.45,6.1,1.95,8.81-.5,31.55,1.08,43.47l3.24,379.09,1.62,8.39,5.92-3.05c.35,62,.08,124.12,0,186.12-7.44,1.31-3.06-13.91-3.23-19.07-.8-25.2.55-77.61-3.23-97.64-.06-.3,2.25-3.78,1.08-6.1-.9-1.76-3.61.23-4.3-1.52-3.81-9.56-1.94-25.08-2.15-37.38h0Z"/>
  <path class="cls-2" d="M246.94,776.52h0c-.58-100.25-5.27-204.64-3.24-304.34.06-2.79-1.08-7.54,2.15-6.87.16,23.91.92,47.88,1.08,71.7.58,90.47,1.83,180,2.16,270.01.06,16.25-.02,32.57,0,48.82.07,60.87.94,122.29,0,183.06-.34.13-.77-.16-1.08,0-2.47-24.43-1.11-50.91-1.08-76.28.07-62,.34-124.13,0-186.12h0Z"/>
  <path class="cls-2" d="M8.1,585.84h3.23c-.75,108.28-1.6,216.6-2.14,324.94-.21,42.72-1.4,85.4-1.07,128.14-.46-.25-1.46.13-2.15,0,.93-151,1.12-302.09,2.13-453.08h0Z"/>
  <path class="cls-14" d="M11.32,453.88c.89,43.74.31,88.19,0,131.95h-3.23c.31-46.23.82-92.55,1.07-138.82,3.23-.66,2.09,4.08,2.15,6.87Z"/>
  <path class="cls-11" d="M589.05,382.91h0c4.51,6.63,1.33,22.2,2.15,31.27.05.55,4.24,8.61,4.3,9.16,1.26,10.51-3.25,49.47-3.22,64.07.17,107.06,4.28,219.61-1.06,324.94-.21,4.17.55,4.12-2.15,6.87l-5.38-76.28c1.75-120,4.53-239.95,5.36-360.02h0Z"/>
  <path class="cls-16" d="M582.61,858.88c-.02,1.5.02,3.06,0,4.57-.5,38.59-1.74,77.34-2.15,115.94-1.61-.38-5.62.9-6.45-.76-2.17-4.35-.15-93.06,0-106.78.01-.74,2.13-4.52,2.15-12.97h6.45Z"/>
  <path class="cls-11" d="M583.68,742.92h0l5.38,76.28c-.18,7.12.37,14.36,1.08,21.36.07,7.27-4.14,4.91-5.38,9.92-.79,3.18,2.05,12.66-2.15,12.97.02-1.5-.02-3.06,0-4.57.5-38.61.51-77.33,1.07-115.94h0Z"/>
  <path class="cls-16" d="M569.69,401.22h-.01c.08-3.07-.53-15.63.54-16.78,10.75,7.92,7.73,18.6,8.07,33.56l-8.61-4.57c0-4.04-.1-8.17,0-12.2h0Z"/>
  <path class="cls-16" d="M601.97,922.96h0c1.67-2.36,7.75-2.66,8.07-3.05,3.05-3.77,1.44-87.08,1.61-99.92.92-68.3,5.94-144.56,3.22-213.57-.11-2.93-.42-5.79,2.15-6.87-.18,104.18-1.31,207-2.14,304.34,0,.32,3.25,2.31,3.23,4.57,0,.34-2.15,5.76-2.15,6.1-.31,35.48,1.68,76.34,0,111.36-.19,3.98-8.25,19.44,0,23.65-4.73,2.21-10.01,4.62-15.06,4.57-.11-43.76.94-87.66,1.07-131.19h-.01Z"/>
  <path class="cls-11" d="M236.17,392.09h.01c.76,5.77.94,13.26,6.45,11.44l2.15-90.77c.28,50.84.72,101.75,1.08,152.55-3.23-.66-2.09,4.08-2.15,6.87-2.03,99.7,2.66,204.09,3.24,304.34l-5.92,3.05-1.62-8.39-3.24-379.09h0Z"/>
  <path class="cls-16" d="M246.93,537h0c14.13,9.51,2.47,45.4,4.31,60.26,6.22,50.33,1.28,74.16,0,122.81-.7,26.61.64,53.45,0,80.09-.06,2.8,1.09,7.53-2.15,6.87-.33-90.01-1.59-179.55-2.16-270.01h0Z"/>
  <path class="cls-11" d="M937.64,465.29h0c-.08-64.59.89-129.2,1.07-193.74l1.08,191.45c5.1-.62,4.97,7.67,5.38,13.73,2.99,43.94,2.68,99.23,3.23,144.16.47,38.52,2.38,85.21,1.08,122.81-.04,1.12-2.06,18.71-2.69,19.07-6.48-.41-1.22-9.25-5.92-10.68-.69-93.12.81-186.85-1.09-279.93-.06-2.79,1.08-7.54-2.15-6.87h.01Z"/>
  <path class="cls-18" d="M930.12,859.63c-2.1-4.2-.95-90.24-1.08-102.97l9.68,3.05c.24,33.49.83,67.14,1.08,100.68-2-.51-8.78,1.04-9.68-.76Z"/>
  <path class="cls-16" d="M808.54,688.01h0c-.16-11.16-1.57-89.68,0-93.81.28-.72,5.23-2.5,6.45-2.29-.12,31.06-.79,62.05-1.07,93.05l-5.38,3.05h0Z"/>
  <path class="cls-16" d="M808.54,688.02h0l5.38-3.05c-.09,9.98-1.22,19.57-1.07,29.74.04,2.91,7.34,30.12-2.15,28.22-.62-11.27-1.98-26.15-2.15-32.8-.21-7.52.11-14.69,0-22.12h0Z"/>
</svg>