<svg id="Capa_1" data-name="Capa 1" xmlns="http://www.w3.org/2000/svg" viewBox="0 0 350.22 343.17"><defs><style>.cls-1,.cls-2{fill:#fff;}.cls-1{stroke:#fff;stroke-linejoin:round;stroke-width:8px;}</style></defs><path class="cls-1" d="M302.38,105c-9.21-12.67-21.07-22.36-33.53-31.18a68.48,68.48,0,0,0-21.44-10c-6.19-1.71-12.43-4-18.7-4.42-14.67-1-29.45-.61-43.92,2.3A174.4,174.4,0,0,0,132,81.55a237.51,237.51,0,0,0-23.64,14.88c-11.73,8.7-20.83,20.08-30.93,30.43-5.27,5.41-9,11.9-12.27,18.69-3.18,6.6-6.91,13-8.44,20.23a56.11,56.11,0,0,1-9.82,22.09,25.55,25.55,0,0,0-3.85,6.6c-3.14,9.24-1.37,17.93,3,26.45,4.12,8,9.9,14.44,16.17,20.64,1.85,1.84,4.08,4.09,3,6.7-1.79,4.36-2.18,9.09-4,13.38-1.52,3.53-3,3.93-5.86,1.34-5.93-5.29-9.54-11.78-9.56-20.41-4.5,1.79-4.1,4.87-3.35,8.07,2,8.59,7.08,15.13,13.94,20.34a6.57,6.57,0,0,1,2.93,5.66c-.35,8.89,4.45,15.68,8.94,22.61,3,4.66,7.28,8.05,11.71,11.28,1.5,1.1,3,2.52,2.47,4.62-1,3.77-9.51,6.31-12.48,3.65a20.9,20.9,0,0,1-5.41-7.44c-1.59-3.72-1.77-7.66-2.43-11.69-2.37,1-2.71,2.73-2.66,4.69.16,5.94,2.6,11.11,6.07,15.64,7.07,9.2,21.1,15.48,33.22,7.22,1.94-1.32,3.81-2.69,5.7-4.06,1.54-1.12,3.49-2.87,5.51-.55,4.65,5.33,9.43,10.55,13.83,16.08,7.35,9.26,14.41,18.74,21.66,28.08,5.39,7,11.89,12.52,21,13.13,9.42.62,18.77.43,28-2.61,17.1-5.62,30.24-16.69,42.15-29.52,10.66-11.46,19.31-24.53,28.8-36.92,8.58-11.21,17.51-22.28,29.65-29.8,16.9-10.47,26.28-25.79,30.9-44.58a159,159,0,0,0,4.25-28.73c1.18-19.93-.14-39.56-6.45-58.64C318.71,133.45,312.19,118.55,302.38,105ZM266.16,145.1a2.9,2.9,0,0,0-.57,2.62h0A2.91,2.91,0,0,1,266.16,145.1Z" transform="translate(-37.49 -41.01)"/><path class="cls-1" d="M383.09,124.06a49.22,49.22,0,0,0-10.31-24.77,52.4,52.4,0,0,0-29.52-18.4c-1-.25-1.88-.62-1.89-1.84A28,28,0,0,1,351.13,77c3.22-.13,6.43-.67,9.69-.56a2.31,2.31,0,0,0,2.3-1c.63-1.13-.4-1.78-.92-2.59a6.08,6.08,0,0,0-3.39-2.16,51.2,51.2,0,0,0-10.49-2.5c-1.2-.16-2.65.25-3.12-1.36s.9-2.36,1.71-3.1c7.24-6.55,15.06-12,25-13.8,1.65-.29,4.11.26,5.24-2.11-3.07-2.65-6.8-2.66-10.28-2.78-13.68-.49-26.85,2.29-39.67,6.92a5.28,5.28,0,0,1-3.58.08c-3.64-.94-7.39-.36-10.1,2.8-.84,1-1.56,1.73-3.33,1.14,1-1,2-1.59,2.21-2.67a2,2,0,0,0-2-.76,45.32,45.32,0,0,0-18.71,7.22c-5.43,3.5-9.35,8.56-13.58,13.35-2,2.24-1.56,3.14.32,4.36A86.47,86.47,0,0,1,290.75,87.7a104.25,104.25,0,0,1,20.13,25.93A223.1,223.1,0,0,1,324,141.8a124.13,124.13,0,0,1,5.64,18.32,200.84,200.84,0,0,1,4.06,35.94c.09,4.28.57,4.74,4.6,3.53,13.52-4.06,24.65-11.76,32.07-23.76C380.1,160.07,385.64,143,383.09,124.06Z" transform="translate(-37.49 -41.01)"/><path d="M45.87,242.57c0,8.63,3.63,15.12,9.56,20.41,2.9,2.59,4.34,2.19,5.86-1.34,1.84-4.29,2.23-9,4-13.38,1.06-2.61-1.17-4.86-3-6.7-6.27-6.2-12-12.69-16.17-20.64-4.41-8.52-6.18-17.21-3-26.45a25.55,25.55,0,0,1,3.85-6.6,56.11,56.11,0,0,0,9.82-22.09c1.53-7.23,5.26-13.63,8.44-20.23,3.28-6.79,7-13.28,12.27-18.69,10.1-10.35,19.2-21.73,30.93-30.43A237.51,237.51,0,0,1,132,81.55a174.4,174.4,0,0,1,52.76-19.78c14.47-2.91,29.25-3.32,43.92-2.3,6.27.44,12.51,2.71,18.7,4.42a68.48,68.48,0,0,1,21.44,10c12.46,8.82,24.32,18.51,33.53,31.18,9.81,13.51,16.33,28.41,21.51,44.06,6.31,19.08,7.63,38.71,6.45,58.64a159,159,0,0,1-4.25,28.73c-4.62,18.79-14,34.11-30.9,44.58-12.14,7.52-21.07,18.59-29.65,29.8-9.49,12.39-18.14,25.46-28.8,36.92-11.91,12.83-25.05,23.9-42.15,29.52-9.25,3-18.6,3.23-28,2.61-9.16-.61-15.66-6.17-21-13.13-7.25-9.34-14.31-18.82-21.66-28.08-4.4-5.53-9.18-10.75-13.83-16.08-2-2.32-4-.57-5.51.55-1.89,1.37-3.76,2.74-5.7,4.06-12.12,8.26-26.15,2-33.22-7.22-3.47-4.53-5.91-9.7-6.07-15.64-.05-2,.29-3.66,2.66-4.69.66,4,.84,8,2.43,11.69A20.9,20.9,0,0,0,70,318.8c3,2.66,11.47.12,12.48-3.65.57-2.1-1-3.52-2.47-4.62-4.43-3.23-8.69-6.62-11.71-11.28-4.49-6.93-9.29-13.72-8.94-22.61A6.57,6.57,0,0,0,56.46,271c-6.86-5.21-11.93-11.75-13.94-20.34C41.77,247.44,41.37,244.36,45.87,242.57Zm219.67-94.83c2.91-.36,4.57-2.72,6.72-4.26A90.06,90.06,0,0,1,287.45,135c-.54-1.24-1.32-1.09-2.05-1-7.67,1.22-13.75,5.25-19,10.76a3,3,0,0,0-.81,3.05c-.57-.64-1.41-1-1.78-.11-.83,2-2.59,3.15-3.76,4.77-.95,1.31-2.6,2.67-1.69,5.12a35.75,35.75,0,0,1,3.58-4.39C263.42,151.82,265.48,150.27,265.54,147.74Zm-3.73,80.84a6.61,6.61,0,0,1-2.4-5.33c0-1.45-.53-2.77-1.93-2.66-3.83.3-6.92,2.46-10.09,4.47-2.21,1.41-1.17,3.35-1.26,5-.87,16.25-7.34,29.31-21.78,37.57-7,4-14.65,6.64-22.73,5.28-19.78-3.32-32.24-14.76-36.62-34.6-.52-2.38-1.71-3.7-4.52-2.64-3.46,1.32-7,2.37-10.56,3.42a4.16,4.16,0,0,0-3.18,4.46c.32,16.17-1.1,32.29-1.08,48.45,0,5.42,0,5.42,5.26,5.42,1.12,0,2.24.05,3.36.13,2.31.16,3.13,1.42,2.27,3.53-1.15,2.85-2.43,5.65-3.7,8.45a5.38,5.38,0,0,1-5.66,3.32c-.65-.72-.32-1.17-.25-1.64.66-4.44.38-4.77-4-4.81-2.37,0-4.75.07-7.11-.12s-3.93-.86-3.29-4c1.34-6.67,2.4-13.41,3.29-20.16.44-3.32,1.66-6.78-.37-10.57-9.82,8.07-20.57,12.69-33.4,9.67a12.45,12.45,0,0,0,1,6.2c6.17,14.07,13,27.8,21.7,40.51,9,13.19,18,26.39,28.73,38.29,2,2.21,3.76,5.05,6.94,5.67,12.58,2.46,25,2.18,37.18-2.37,20.48-7.65,35.35-22.21,46.41-40.19,11.44-18.59,19.41-39,24.72-60.29.48-1.93,1.61-3.26,4.08-2.65a28.77,28.77,0,0,0,6.57,1c11.31.18,18.25-6.65,23.39-15.54,7.33-12.66,8.49-26.6,6.64-40.77-1.55-11.94-12.17-17.12-23.1-11.9-8.4,4-13.41,11.07-17.81,18.86C266.49,221.59,265.91,226.12,261.81,228.58ZM119,201.06a2.54,2.54,0,0,1-2.58,1.22c-7.43.28-14.45,2.35-21.37,4.82a16.44,16.44,0,0,0-4.66,2.23,4.51,4.51,0,0,0-1.19,6c.68,1.36,1.92,2.31,3.13,1.4,3.08-2.3,6.67-3,10.23-3.91,12.21-3.25,22.34.66,31,9.14,2.15,2.11,4,3,6.78,1.78,6.72-3,14-3.84,21.12-3.94,5.87-.08,9.44-1.84,11.89-7,.4-.84.2-1.68.79-2.54,8.35-12.27,20.44-17.91,34.69-17.85,9.39,0,18.52,2.89,26,9.54,1.42,1.26,3.61,2.66,6,1.38,4.65-2.47,9.51-4.53,13.91-7.46,1.33-.89,2.19-2,1.66-3.76-2.92-9.78-6.7-19.19-12.66-27.52-7.28-10.16-16.56-18.26-26.93-25.17a74.16,74.16,0,0,0-29.56-11.69c-10.21-1.62-20.78-2.09-30.95,1.76-2.3.87-4.75,1.43-7,2.52-1.66.81-3.3,1.19-4.7-.55-.95,4.74-1.47,5-5.78,2.92-4.62-2.24-9-5.12-14.62-2.6-2.13,1-4.31,1.81-6.36,2.93a60.6,60.6,0,0,0-26.11,27.09c-4.83,9.89-6.36,20.48-7,31.41,2.18.76,4.15.14,6.16-.49,5.75-1.81,11.5-3.68,17.31-5.3,2-.55,4.63-.93,5.57,1.57C115.38,193.18,117.37,197.2,119,201.06Zm70.52,19.62c2.42-.88,4,0,5.59.63a9.25,9.25,0,0,0,7.92-.14c6.91-3.37,13.78-6.87,20.5-10.62,4.06-2.26,3.75-3.72-.34-6.1-11-6.44-21.77-5-32.3,1.11-15.81,9.12-20.78,33.09-6.35,47.49,9.49,9.47,21.19,11.78,34.23,7.57,10.47-3.37,18.44-15.85,19.11-25.52.09-1.26.23-2.49-1.19-3.23a3.25,3.25,0,0,0-3.49.27c-2.13,1.27-4.51,2.19-6.49,3.65-8.78,6.5-17.26,6-25.63-.69C196.25,231.21,192.15,226.72,189.56,220.68ZM95.15,235.53c1.11-.15,1.64-.39,2.06-.26,9.74,2.91,17.35-2,25.13-6.6,1.42-.83,2.16-1.85,2.13-3.06-.06-1.72-1.9-2.27-3.17-3-.81-.45-2-.17-2.89-.53-11.63-4.73-20.37-1.8-26.82,5.21-5.67,6.16-7.5,13.53-6.4,21.78,2,14.81,13.73,25.15,29.17,23.95,11.15-.87,20.26-9.62,21.1-19.28.16-1.84,1.29-3.89-.27-5.26-1.86-1.62-3.71.14-5.46.94a26.83,26.83,0,0,0-3,1.44c-6.49,3.94-12.87,3.39-18.85-.86C102.69,246.34,97.84,242.22,95.15,235.53Zm-19.3,27.69a16.59,16.59,0,0,0-3.77,11.34c.17,7.32,4.06,12.86,8.59,18,3,3.41,6.54,6.31,11.27,7.28,1.68.35,3.35.61,4.44-.79s-.38-2.68-1.12-3.9c-6.2-10.19-14.45-19.16-18.18-30.81C77,263.92,76.37,263.67,75.85,263.22Zm.71-118.16c-8.22,1.94-11.24,8.85-7.24,15.67a20.44,20.44,0,0,1,2,3.65c1.47,4.24,1.37,8.7,2.47,13.09a234,234,0,0,1,9.92-23.84c.42-.88,1.26-1.77.22-2.65s-2.11-.51-3.13,0c-2.22,1.19-4.42,2.42-7.12,3.9C74,151,76.6,148.42,76.56,145.06Zm-17,68.71c.52-7.11-2.56-12.94-3-19.67C49.67,199.63,51.21,209.67,59.61,213.77Zm175-104.6c-6.08-2.94-17.18-3.55-20.68-1.28A144.81,144.81,0,0,0,234.58,109.17Z" transform="translate(-37.49 -41.01)"/><path d="M312.43,53.34c-.22,1.08-1.21,1.68-2.21,2.67,1.77.59,2.49-.17,3.33-1.14,2.71-3.16,6.46-3.74,10.1-2.8a5.28,5.28,0,0,0,3.58-.08c12.82-4.63,26-7.41,39.67-6.92,3.48.12,7.21.13,10.28,2.78-1.13,2.37-3.59,1.82-5.24,2.11-10,1.75-17.79,7.25-25,13.8-.81.74-2.15,1.59-1.71,3.1s1.92,1.2,3.12,1.36a51.2,51.2,0,0,1,10.49,2.5,6.08,6.08,0,0,1,3.39,2.16c.52.81,1.55,1.46.92,2.59a2.31,2.31,0,0,1-2.3,1c-3.26-.11-6.47.43-9.69.56a28,28,0,0,0-9.76,2.06c0,1.22.85,1.59,1.89,1.84a52.4,52.4,0,0,1,29.52,18.4,49.22,49.22,0,0,1,10.31,24.77c2.55,18.92-3,36-12.74,51.77-7.42,12-18.55,19.7-32.07,23.76-4,1.21-4.51.75-4.6-3.53a200.84,200.84,0,0,0-4.06-35.94A124.13,124.13,0,0,0,324,141.8a223.1,223.1,0,0,0-13.1-28.17A104.25,104.25,0,0,0,290.75,87.7a86.47,86.47,0,0,0-12.33-10.19c-1.88-1.22-2.3-2.12-.32-4.36,4.23-4.79,8.15-9.85,13.58-13.35a45.32,45.32,0,0,1,18.71-7.22A2,2,0,0,1,312.43,53.34Zm42,74.34c7.8,13.37,13,27.07,13.12,42.75C374.24,163.32,365.91,135.23,354.43,127.68Z" transform="translate(-37.49 -41.01)"/><path class="cls-2" d="M261.81,228.58c4.1-2.46,4.68-7,6.68-10.53,4.4-7.79,9.41-14.85,17.81-18.86,10.93-5.22,21.55,0,23.1,11.9,1.85,14.17.69,28.11-6.64,40.77-5.14,8.89-12.08,15.72-23.39,15.54a28.77,28.77,0,0,1-6.57-1c-2.47-.61-3.6.72-4.08,2.65-5.31,21.31-13.28,41.7-24.72,60.29-11.06,18-25.93,32.54-46.41,40.19-12.21,4.55-24.6,4.83-37.18,2.37-3.18-.62-4.95-3.46-6.94-5.67-10.71-11.9-19.72-25.1-28.73-38.29-8.67-12.71-15.53-26.44-21.7-40.51a12.45,12.45,0,0,1-1-6.2c12.83,3,23.58-1.6,33.4-9.67,2,3.79.81,7.25.37,10.57-.89,6.75-2,13.49-3.29,20.16-.64,3.15,1,3.83,3.29,4s4.74.1,7.11.12c4.35,0,4.63.37,4,4.81-.07.47-.4.92.25,1.64a5.38,5.38,0,0,0,5.66-3.32c1.27-2.8,2.55-5.6,3.7-8.45.86-2.11,0-3.37-2.27-3.53-1.12-.08-2.24-.13-3.36-.13-5.24,0-5.25,0-5.26-5.42,0-16.16,1.4-32.28,1.08-48.45a4.16,4.16,0,0,1,3.18-4.46c3.55-1.05,7.1-2.1,10.56-3.42,2.81-1.06,4,.26,4.52,2.64,4.38,19.84,16.84,31.28,36.62,34.6,8.08,1.36,15.77-1.3,22.73-5.28,14.44-8.26,20.91-21.32,21.78-37.57.09-1.68-.95-3.62,1.26-5,3.17-2,6.26-4.17,10.09-4.47,1.4-.11,2,1.21,1.93,2.66A6.61,6.61,0,0,0,261.81,228.58ZM183.19,339.65c-1.14-1.89-3.13-2.21-4.59-3.28-2.42-1.79-6.51-2.89-6.41-6,.08-2.91,3.84-4,6.58-5.27,4-1.84,7.94-3.95,11.89-6,.79-.4,1.43-.92,1.18-2-.3-1.28-1.19-1-2-.95a13.81,13.81,0,0,0-2.23.22c-13,3.16-26.21,4.47-39.6,2.92-1.41-.16-3-.43-4.53.52a5.71,5.71,0,0,0,1.47,2.85c4.49,5.34,8.92,10.72,13.41,16.06a7.82,7.82,0,0,0,6.83,3.05c4.85-.31,9.71-.42,14.56-.69C180.89,341,182.28,341.25,183.19,339.65Zm97.22-84.77c2.65.69,3.59-.82,4.6-2.27,5.84-8.47,7-18.2,7.37-28.07.22-5.73.48-11.39,2.24-16.91.34-1.08,1.58-2.72-.42-3.53-1.67-.69-3,.57-3.79,1.66a31.27,31.27,0,0,0-4.7,10,76.44,76.44,0,0,0-2.79,21C282.82,242.8,280.4,248.57,280.41,254.88ZM163.08,297.39c2.33,4.45,12.32,5.36,19.25,1.39C175.55,296.14,169.38,297.1,163.08,297.39Z" transform="translate(-37.49 -41.01)"/><path class="cls-2" d="M119,201.06c-1.67-3.86-3.66-7.88-5.24-12.06-.94-2.5-3.58-2.12-5.57-1.57-5.81,1.62-11.56,3.49-17.31,5.3-2,.63-4,1.25-6.16.49.64-10.93,2.17-21.52,7-31.41a60.6,60.6,0,0,1,26.11-27.09c2-1.12,4.23-2,6.36-2.93,5.58-2.52,10,.36,14.62,2.6,4.31,2.09,4.83,1.82,5.78-2.92,1.4,1.74,3,1.36,4.7.55,2.25-1.09,4.7-1.65,7-2.52,10.17-3.85,20.74-3.38,30.95-1.76a74.16,74.16,0,0,1,29.56,11.69c10.37,6.91,19.65,15,26.93,25.17,6,8.33,9.74,17.74,12.66,27.52.53,1.78-.33,2.87-1.66,3.76-4.4,2.93-9.26,5-13.91,7.46-2.42,1.28-4.61-.12-6-1.38-7.46-6.65-16.59-9.5-26-9.54-14.25-.06-26.34,5.58-34.69,17.85-.59.86-.39,1.7-.79,2.54-2.45,5.15-6,6.91-11.89,7-7.1.1-14.4,1-21.12,3.94-2.78,1.22-4.63.33-6.78-1.78-8.64-8.48-18.77-12.39-31-9.14-3.56.94-7.15,1.61-10.23,3.91-1.21.91-2.45,0-3.13-1.4a4.51,4.51,0,0,1,1.19-6,16.44,16.44,0,0,1,4.66-2.23c6.92-2.47,13.94-4.54,21.37-4.82A2.54,2.54,0,0,0,119,201.06Zm113.31-18.71a10.14,10.14,0,0,0-6.55-5.48c-7.41-2.2-14.92-3.7-22.74-2.78-6.25.74-12.52,1.29-18.76,2.08a52.21,52.21,0,0,0-7.59,1.67,3.17,3.17,0,0,0-2.5,2.5c-.79,4.13-1.78,8.22-2.45,12.37-.48,3,1.26,4.35,4,3.22,2.5-1,4.89-2.32,7.34-3.46,12.89-6,26.23-10.11,40.64-9.86C226.46,182.66,229.23,183.16,232.35,182.35Z" transform="translate(-37.49 -41.01)"/><path class="cls-2" d="M189.56,220.68c2.59,6,6.69,10.53,11.56,14.42,8.37,6.68,16.85,7.19,25.63.69,2-1.46,4.36-2.38,6.49-3.65a3.25,3.25,0,0,1,3.49-.27c1.42.74,1.28,2,1.19,3.23-.67,9.67-8.64,22.15-19.11,25.52-13,4.21-24.74,1.9-34.23-7.57-14.43-14.4-9.46-38.37,6.35-47.49,10.53-6.08,21.26-7.55,32.3-1.11,4.09,2.38,4.4,3.84.34,6.1-6.72,3.75-13.59,7.25-20.5,10.62a9.25,9.25,0,0,1-7.92.14C193.6,220.64,192,219.8,189.56,220.68Z" transform="translate(-37.49 -41.01)"/><path class="cls-2" d="M95.15,235.53c2.69,6.69,7.54,10.81,12.72,14.48,6,4.25,12.36,4.8,18.85.86a26.83,26.83,0,0,1,3-1.44c1.75-.8,3.6-2.56,5.46-.94,1.56,1.37.43,3.42.27,5.26-.84,9.66-10,18.41-21.1,19.28-15.44,1.2-27.19-9.14-29.17-23.95-1.1-8.25.73-15.62,6.4-21.78,6.45-7,15.19-9.94,26.82-5.21.89.36,2.08.08,2.89.53,1.27.72,3.11,1.27,3.17,3,0,1.21-.71,2.23-2.13,3.06-7.78,4.62-15.39,9.51-25.13,6.6C96.79,235.14,96.26,235.38,95.15,235.53Z" transform="translate(-37.49 -41.01)"/><path class="cls-2" d="M75.85,263.22c.52.45,1.11.7,1.23,1.09,3.73,11.65,12,20.62,18.18,30.81.74,1.22,2.33,2.36,1.12,3.9s-2.76,1.14-4.44.79c-4.73-1-8.26-3.87-11.27-7.28-4.53-5.11-8.42-10.65-8.59-18A16.59,16.59,0,0,1,75.85,263.22Z" transform="translate(-37.49 -41.01)"/><path class="cls-2" d="M76.56,145.06c0,3.36-2.52,6-2.86,9.85,2.7-1.48,4.9-2.71,7.12-3.9,1-.54,2.16-.86,3.13,0s.2,1.77-.22,2.65a234,234,0,0,0-9.92,23.84c-1.1-4.39-1-8.85-2.47-13.09a20.44,20.44,0,0,0-2-3.65C65.32,153.91,68.34,147,76.56,145.06Z" transform="translate(-37.49 -41.01)"/><path class="cls-2" d="M59.61,213.77c-8.4-4.1-9.94-14.14-3-19.67C57.05,200.83,60.13,206.66,59.61,213.77Z" transform="translate(-37.49 -41.01)"/><path class="cls-2" d="M265.62,147.84a3,3,0,0,1,.81-3.06c5.22-5.51,11.3-9.54,19-10.76.73-.11,1.51-.26,2.05,1a90.06,90.06,0,0,0-15.19,8.48c-2.15,1.54-3.81,3.9-6.72,4.26Z" transform="translate(-37.49 -41.01)"/><path class="cls-2" d="M234.58,109.17a144.81,144.81,0,0,1-20.68-1.28C217.4,105.62,228.5,106.23,234.58,109.17Z" transform="translate(-37.49 -41.01)"/><path class="cls-2" d="M265.54,147.74c-.06,2.53-2.12,4.08-3.57,5.48a35.75,35.75,0,0,0-3.58,4.39c-.91-2.45.74-3.81,1.69-5.12,1.17-1.62,2.93-2.78,3.76-4.77.37-.89,1.21-.53,1.78.11Z" transform="translate(-37.49 -41.01)"/><path class="cls-2" d="M354.43,127.68c11.48,7.55,19.81,35.64,13.12,42.75C367.43,154.75,362.23,141.05,354.43,127.68Z" transform="translate(-37.49 -41.01)"/><path d="M183.19,339.65c-.91,1.6-2.3,1.33-3.48,1.39-4.85.27-9.71.38-14.56.69a7.82,7.82,0,0,1-6.83-3.05c-4.49-5.34-8.92-10.72-13.41-16.06a5.71,5.71,0,0,1-1.47-2.85c1.57-.95,3.12-.68,4.53-.52,13.39,1.55,26.56.24,39.6-2.92a13.81,13.81,0,0,1,2.23-.22c.85-.07,1.74-.33,2,.95.25,1.12-.39,1.64-1.18,2-3.95,2-7.85,4.14-11.89,6-2.74,1.24-6.5,2.36-6.58,5.27-.1,3.13,4,4.23,6.41,6C180.06,337.44,182.05,337.76,183.19,339.65Z" transform="translate(-37.49 -41.01)"/><path d="M280.41,254.88c0-6.31,2.41-12.08,2.51-18.18a76.44,76.44,0,0,1,2.79-21,31.27,31.27,0,0,1,4.7-10c.83-1.09,2.12-2.35,3.79-1.66,2,.81.76,2.45.42,3.53-1.76,5.52-2,11.18-2.24,16.91-.38,9.87-1.53,19.6-7.37,28.07C284,254.06,283.06,255.57,280.41,254.88Z" transform="translate(-37.49 -41.01)"/><path d="M163.08,297.39c6.3-.29,12.47-1.25,19.25,1.39C175.4,302.75,165.41,301.84,163.08,297.39Z" transform="translate(-37.49 -41.01)"/><path d="M232.35,182.35c-3.12.81-5.89.31-8.62.26-14.41-.25-27.75,3.87-40.64,9.86-2.45,1.14-4.84,2.44-7.34,3.46-2.73,1.13-4.47-.23-4-3.22.67-4.15,1.66-8.24,2.45-12.37a3.17,3.17,0,0,1,2.5-2.5,52.21,52.21,0,0,1,7.59-1.67c6.24-.79,12.51-1.34,18.76-2.08,7.82-.92,15.33.58,22.74,2.78A10.14,10.14,0,0,1,232.35,182.35Z" transform="translate(-37.49 -41.01)"/></svg>