<?xml version="1.0" encoding="UTF-8"?>
<svg id="Capa_1" data-name="Capa 1" xmlns="http://www.w3.org/2000/svg" viewBox="0 0 227.2 393.88">
  <defs>
    <linearGradient id="garra-fill" x1="0.1" y1="0.05" x2="0.9" y2="0.95">
      <stop offset="0%" stop-color="#fff2ff"/>
      <stop offset="35%" stop-color="#e3c9ff"/>
      <stop offset="70%" stop-color="#c3a0f2"/>
      <stop offset="100%" stop-color="#8f6cc2"/>
    </linearGradient>
    <radialGradient id="garra-highlight" cx="0.28" cy="0.18" r="0.52">
      <stop offset="0%" stop-color="rgba(255,255,255,0.95)"/>
      <stop offset="40%" stop-color="rgba(255,255,255,0.65)"/>
      <stop offset="75%" stop-color="rgba(255,255,255,0.15)"/>
      <stop offset="100%" stop-color="rgba(255,255,255,0)"/>
    </radialGradient>
    <filter id="garra-shadow" x="-25%" y="-25%" width="150%" height="170%">
      <feDropShadow dx="0" dy="12" stdDeviation="11" flood-color="#060303" flood-opacity="0.45"/>
      <feDropShadow dx="0" dy="2" stdDeviation="3" flood-color="#ffffff" flood-opacity="0.18"/>
    </filter>
  </defs>
  <path fill="url(#garra-fill)" filter="url(#garra-shadow)" d="M199.59,206.05h0l-.07-.08c-2.59-2.99-5.34-5.85-8.23-8.56L1.64,0,.11,275.26c-2.77,62.68,45.79,115.74,108.47,118.51,62.68,2.77,115.74-45.79,118.51-108.47,1.28-28.96-8.56-57.31-27.5-79.26Z"/>
  <path fill="url(#garra-highlight)" d="M191.33,201.12c-2.54-2.64-5.21-5.2-8-7.66L11.92,14.7,10.7,272.22c-2.51,56.95,41.57,105.13,98.52,107.64,45.62,2.01,86.95-25.21,102.91-65.87-10.52-31.6-31.44-58.21-61.8-82.87Z" opacity="0.95"/>
</svg>
