<?xml version="1.0" encoding="UTF-8"?>
<svg id="Layer_2" xmlns="http://www.w3.org/2000/svg" version="1.1" viewBox="0 0 1272.6 848.3">
  <!-- Generator: Adobe Illustrator 30.1.0, SVG Export Plug-In . SVG Version: 2.1.1 Build 136)  -->
  <defs>
    <style>
      .st0 {
        stroke: #000;
        stroke-miterlimit: 10;
        stroke-width: 65px;
      }
    </style>
  </defs>
  <g id="tail">
    <path class="st0" d="M1185.4,284.8h0c158.4,323.1-161.4,669.2-864.4,470.2-83-22-119.6-41.5-186-60-20.5-40.4-6.6-104.6-30.9-142.1-11-20.3-22.6-40.2-34.4-59.6,47.7,10.5,95.6,23.3,143.7,38.1,166,51,331.8,109,497.2,123.3,127.4,11,246.9-.9,338-105.4,63.4-71.7,62.5-137.3-6.2-235.6-36.8-52.6-142.1-210.4-54.2-273.8,29.9-18.4,53.3,8.5,75.7,38.2,47.4,62,88.4,131.7,121.5,206.7h0Z"/>
  </g>
</svg>