<?xml version="1.0" encoding="UTF-8"?>
<svg id="Capa_1" data-name="Capa 1" xmlns="http://www.w3.org/2000/svg" viewBox="0 0 266.61 237.62">
  <defs>
    <style>
      .cls-1 {
        fill: #fff;
        stroke: #fff;
        stroke-linejoin: round;
        stroke-width: 8px;
      }
    </style>
  </defs>
  <path class="cls-1" d="M63.79,223.87c10.56,4.59,21.82,6.47,32.86,9.02.26.02.53.03.78.07.43.01.86.02,1.29.02.11,0,.2-.03.3-.03h2.91c1.15,0,2.16.21,3.04.56,9.77.23,19.46.1,29.23-.91,1.02-.6,2.23-1.02,3.66-1.11,5.11-.33,9.92-1.88,14.9-2.57,2.14-1.09,4.86-1.57,7.21-2.25.26-.04.51-.09.76-.16,40.84-14.57,77.2-35.12,99.98-74.15,2.67-4.59,2.61-7.42-.75-11.57-7.01-8.97-15.77-16.42-25.74-21.91-10.36-5.52-13.59-16.21-8.82-27.39,11.06-25.86,24.17-50.99,29.84-78.94,1.29-6.31-.39-8.76-6.78-8.54-29.41.8-58.02,9.69-82.71,25.69-4.69,3.17-10.41,4.44-16,3.55-19.92-2.46-39.89-2.77-59.1,4.04-5.91,2.08-10.22.96-15.1-2.27C56.77,22.58,35.13,18.85,12.58,14.99c-.7,9.02,1.42,17.11,3.25,24.88,4.67,19.92,4.34,41.4,17.54,58.79,1.56,2.05.12,3.9-.33,5.86-2.46,10.59-4.91,21.24-5.4,32.13-.25,5.55-1.1,9.33-7.11,11.87-6,2.53-10.16,7.78-14.42,12.74-2.64,3.11-2.74,5.58-.76,8.99,13.9,23.98,32.66,42.49,58.43,53.62Z"/>
  <path d="M98.41,233c.11,0,.2-.03.3-.03M97.13,232.97,104.07,233.36l2.57.2c6.54.12,13.04.07,19.56-.32,5.76-1.03,10.91-2.08,16.61-2.44,3.19-.6,6.33-1.39,9.53-1.85,2.15-1.14,4.93-1.63,7.33-2.32.26-.04.51-.09.76-.16,40.84-14.59,77.2-35.12,99.98-74.15,2.67-4.67,2.63-7.42-.75-11.59-7.05-8.95-15.85-16.38-25.85-21.85-10.34-5.52-13.59-16.21-8.82-27.39,11.07-25.91,24.17-51.04,29.86-78.99,1.28-6.33-.4-8.76-6.8-8.55-29.4.81-58.01,9.7-82.69,25.71-4.69,3.17-10.41,4.43-16,3.55-19.92-2.46-39.89-2.77-59.1,4.03-5.89,2.1-10.22.98-15.09-2.26C56.37,22.55,34.75,18.82,12.19,14.96c-.68,9.02,1.42,17.11,3.25,24.96,4.67,19.92,4.34,41.4,17.54,58.79,1.56,2.05.14,3.9-.31,5.85-2.46,10.61-4.91,21.24-5.41,32.13-.25,5.57-1.1,9.41-7.09,11.88-5.99,2.47-10.17,7.78-14.43,12.74-2.64,3.11-2.74,5.57-.76,8.99,13.9,23.98,32.66,42.49,58.43,53.62,10.47,4.53,21.64,6.43,32.58,8.96M230.69,22.56c-5.07,15.55-5.94,30.98-16.19,44.81-8.49-11.52-16.69-21.1-31-25.27,13.7-13.59,29.77-16.52,47.18-19.53ZM151.04,98.52c12.44,0,21.77,8.69,21.77,20.34.16,13.7-15.01,26.9-30.89,26.87-12.05,0-21.12-8.54-21.29-20.03-.16-14.14,14.51-27.26,30.4-27.18ZM96.73,116.33c-.64-4.31.58-6.86,4.09-10.05,4.45,4.2,5.47,7.54,4.2,13-2.18,9.33,1.21,17.88,8.54,24.34,6.88,5.97,15.04,10.28,23.84,12.6,16.87,4.67,25.91,16.41,25.86,34.01,0,20.67-4.4,26.44-25.01,30.36-20.61,3.92-41.57,5.51-61.6-3.72-13.5-6.22-16.17-11.4-12.81-25.51,1.04-5.32,1.38-10.76,1.01-16.17-.28-10.89,4.15-18.66,14-23.7,18.58-9.58,21-14.59,17.88-35.16ZM52.58,119.34c-1.93,9.33,3.33,17.6,12.21,19.3,9.84,1.88,15.75-4.35,17.99-19,2.97,11.42-.82,21.52-9.44,25.21-10.02,4.31-22.72-.22-28.91-10.3-5.82-9.46-4.48-21.66,3.11-28.54,6.92-6.22,18.52-5.68,27.62,2.07-13.2-3.02-20.44.93-22.58,11.26ZM58.15,127.7c-2.74-1.31-3.11-3.11-1.06-5.29,1.38-.4,2.82.4,3.21,1.78.06.22.1.46.1.69.17,1.52-.86,2.3-2.26,2.81ZM30.9,41.74c10.3-1.07,23.92,3.59,30.36,10.61-7.78,7.36-13.79,16.19-20.58,26.89-7.99-12.97-7.25-25.66-9.78-37.5Z"/>
  <path d="M116.58,199.36c.64-3.78,2.92-7.08,6.22-9.02,7.12-4.51,11.54-11.48,15.55-19.53-4.99-.95-5.38,2.39-6.73,4.26-2.67,4.14-5.91,7.88-9.63,11.1-2.61,2.05-5.24,3.22-8.52,1.56-7.42-3.81-9.33-15.33-3.31-20.95,5.38-5.09,5.02-9.25-1.56-12.83-5.56-3.05-12.25-3.23-17.96-.48-4.5,1.96-5.48,5.07-2.95,9.33,2.92,4.86,7.05,8.89,11.97,11.7-1.14,5.83-2.55,11.96-8.21,13.45-6.05,1.56-8.51-4.67-11.45-8.79-1.79-2.52-2.99-5.44-4.67-8.02-1.01-1.56-1.42-4.18-5.33-3.02,3.11,8.96,7.45,17.28,15.15,22.44,4.49,3.02,6.64,6.72,8.94,10.89,3.11,5.8,5.41,14,13.58,12.85,7.31-.93,7.56-9.1,8.91-14.93ZM91.24,160.09c-1.37,0-2.47-.75-2.47-1.68s1.1-1.68,2.47-1.68,2.49.75,2.49,1.68-1.12,1.68-2.49,1.68ZM107.09,211.17c-6.84-3.55-9.78-10.14-11.62-16.42-1.7-5.75,5.54-8.38,7.88-15.71,1.46,8.62,10,10.33,9.75,16.87.06,5.68-2.1,11.15-6.02,15.26Z"/>
  <path d="M148.12,135.71c8.43.19,15.43-6.48,15.63-14.91.34-8.63-6.39-15.91-15.03-16.24-8.57-.33-15.81,6.29-16.23,14.86-.33,8.01,7.51,16.17,15.63,16.3ZM138.61,121.29c.47-.87,1.56-1.19,2.42-.72.07.04.14.08.2.13,2.72,1.56,1.94,3.5.65,5.99-3.62-1.09-4.4-2.89-3.28-5.4Z"/>
</svg>