<?xml version="1.0" encoding="UTF-8"?>
<svg id="Layer_3" data-name="Layer 3" xmlns="http://www.w3.org/2000/svg" viewBox="0 0 1332.84 1529.09">
  <defs>
    <style>
      .cls-1 {
        fill: #fff;
        stroke: #fff;
        stroke-linejoin: round;
        stroke-width: 32.89px;
      }

      .cls-2 {
        stroke: #020202;
        stroke-miterlimit: 10;
      }
    </style>
  </defs>
  <ellipse class="cls-1" cx="615.69" cy="450.28" rx="220.55" ry="117.77" transform="translate(-16.13 22.93) rotate(-2.11)"/>
  <g>
    <path d="M716.52,486.27c23.92.54,43.76-18.39,44.34-42.3.95-24.5-18.13-45.11-42.63-46.06-24.3-.94-44.84,17.85-46.04,42.14-.93,22.72,21.31,45.88,44.34,46.24h0v-.02ZM689.55,445.38c1.34-2.47,4.41-3.37,6.88-2.04.2.11.39.23.57.36,7.72,4.41,5.51,9.92,1.85,16.98-10.28-3.09-12.49-8.21-9.31-15.31h.01-.01Z"/>
    <path class="cls-2" d="M469.09,736.32c31.19,13.51,64.54,18.74,97.06,26.46.06.31.11.62.17.93.6-.27,1.28-.42,2.04-.4,3.25.1,6.43.7,9.62,1.23.09-.58.17-1.16.27-1.75l-.04-.17,24.08,1.89c.79-.73,1.87-1.19,3.25-1.2,18.43-.06,36.81-1.71,55.2-3,14.69-2.64,28.66-4.86,44.71-4.86l-.65,1.68c1.45-.05,2.89-.09,4.34-.12,1.49-.46,3.01-.65,4.66-.07.08,0,.15,0,.23,0,5.46-8.33,18.02-10,28.13-12.9.73-.11,1.45-.25,2.17-.44,115.85-41.39,219-99.62,283.63-210.35,7.58-13.24,7.46-21.05-2.12-32.87-20.01-25.39-44.95-46.47-73.32-61.98-29.34-15.66-38.57-45.97-25.02-77.69,31.41-73.49,68.55-144.79,84.7-224.07,3.63-17.96-1.15-24.83-19.28-24.26-83.41,2.3-164.56,27.53-234.57,72.92-13.31,8.98-29.53,12.58-45.4,10.05-56.51-6.97-113.15-7.85-167.65,11.42-16.72,5.95-28.99,2.78-42.79-6.4-53.38-35.29-114.71-45.88-178.72-56.82-1.94,25.59,4.01,48.53,9.23,70.81,13.24,56.51,12.32,117.45,49.77,166.76,4.41,5.83.4,11.07-.89,16.58-6.97,30.09-13.95,60.26-15.35,91.15-.71,15.79-3.13,26.69-20.11,33.71-16.98,7.02-28.86,22.06-40.94,36.13-7.5,8.82-7.77,15.79-2.17,25.5,39.43,68.02,92.65,120.53,165.74,152.11ZM717.67,380.6c35.29,0,61.76,24.66,61.76,57.71.44,38.87-42.58,76.33-87.61,76.23-34.2,0-59.91-24.21-60.4-56.82-.44-40.1,41.16-77.35,86.25-77.11ZM424.08,401.87c19.63-17.65,52.54-16.1,78.34,5.87-37.46-8.56-57.97,2.65-64.05,31.94-5.47,26.46,9.44,49.94,34.63,54.74,27.92,5.34,44.69-12.36,51.04-53.92,8.42,32.38-2.34,61.06-26.78,71.51-28.41,12.22-64.45-.61-82.01-29.2h.01c-16.5-26.82-12.7-61.45,8.82-80.95ZM451.17,448.38c3.92-1.13,7.99,1.15,9.11,5.05.18.63.28,1.3.28,1.95.48,4.32-2.42,6.53-6.4,7.99-7.76-3.7-8.82-8.82-3-14.99Z"/>
  </g>
</svg>