<?xml version="1.0" encoding="UTF-8"?>
<svg id="Layer_2" data-name="Layer 2" xmlns="http://www.w3.org/2000/svg" viewBox="0 0 1272.62 848.32">
  <defs>
    <style>
      .cls-1 {
        stroke: #000;
        stroke-miterlimit: 10;
        stroke-width: 65px;
      }
    </style>
  </defs>
  <g id="tail">
    <path class="cls-1" d="M1238.73,492.27h.07c28.11,353.86-396.51,524.05-987.67-55.69-57.18-53.69-114.45-107.04-172.98-157.55-4.21-44.62-11.81-88.88-20.99-133-2.85-22.82-6.41-45.53-10.37-67.95,43.2,33.93,85.68,69.92,127.54,107.62,144.55,130.18,286.14,266.28,444.75,365.47,122.15,76.41,245.69,129.51,378.03,90.2,91.7-26.53,117.07-81.92,88.01-200.33-15.54-63.34-57.01-251.05,55.66-257.64,37.05.32,49.56,35.3,59.93,71.87,22.35,76.82,35.19,156.84,38.02,237.01Z"/>
  </g>
</svg>