<svg id="Capa_1" data-name="Capa 1" xmlns="http://www.w3.org/2000/svg" viewBox="0 0 346.11 335.62"><defs><style>.cls-1,.cls-2{fill:#fff;}.cls-1{stroke:#fff;stroke-miterlimit:10;stroke-width:12px;}</style></defs><path class="cls-1" d="M375.87,227.39c-2.66-23.18-6.12-46.23-14.27-68.18-19-51.14-51-90.56-103.46-110-31.22-11.57-62.4-10-92.46,4.76-29,14.26-51.78,35.75-70.79,61.67-22,30-34.17,63.73-39.37,100.2-4.57,32-4.23,64.33-4.9,96.57-.09,4.49,0,9-.45,13.46C49,339,47.83,352.05,46.67,365.16H379.8a22.31,22.31,0,0,0,.42-3.43C379.19,316.94,381,272.06,375.87,227.39Z" transform="translate(-40.11 -35.54)"/><path class="cls-2" d="M343.78,365.16h-8c-.46-56.45-.8-112.91-9-168.94-3.78-25.7-9.38-51-18.76-75.29-3.1-8.05-6.65-15.89-11.87-22.87,3.52,9.13,7.71,17.94,10.72,27.26,11,34,14.06,69.27,16.89,104.56q2.65,33.11,3.59,66.34c.66,23,.75,46,.46,68.94h-30c-1.34-14.24-2.77-28.48-4-42.73-1.83-21.22-3.24-42.49-5.32-63.68a798,798,0,0,0-11.73-81.4c-5.46-26.77-12.14-53.16-24.94-77.56C246,88.66,239,78.32,228.87,70.54c-19.92-15.28-44-11.45-58.4,9.08-2.94,4.2-4.67,9.06-7.54,13.44-7.79-4.74-9-12.37-9.59-21-4.75,5.15-9.11,9.28-8.45,15.82.84,8.37,8,10.49,15.12,13.56-16.78,8.72-33.89,3.55-51.39,5.5a245.63,245.63,0,0,1,32.1-31.48c39.12-32.2,91.54-36.85,134.16-11,37.36,22.61,63.23,54.9,77.79,96.13,11.07,31.31,15.7,63.88,18,96.78,2.46,35.9,3.2,71.89,4.17,107.86h-5c-2-22.22-2.78-44.52-4.79-66.74-2.73-30.17-5.49-60.29-11.22-90.08-6.23-32.37-16.16-63.37-33.4-91.7-3.2-5.27-6.39-10.61-11-15.08-.64,1.3.15,1.87.54,2.54,6.05,10.34,12.07,20.68,17.15,31.55,16.31,34.9,23.9,72.06,28.79,110,2.81,21.81,4.58,43.73,5.56,65.67.8,18,2.69,35.88,2.35,53.89h-15a43.06,43.06,0,0,1-.73-4.89c-.47-11-.83-21.95-1.31-32.92-.38-8.67-.88-17.34-1.32-26-.77,7-.58,14-.81,20.94C344.16,336.57,345.3,350.89,343.78,365.16Z" transform="translate(-40.11 -35.54)"/><path d="M374.8,365.16c-1-36-1.71-72-4.17-107.86-2.26-32.9-6.89-65.47-18-96.78C338.11,119.29,312.24,87,274.88,64.39c-42.62-25.8-95-21.15-134.16,11a245.63,245.63,0,0,0-32.1,31.48c17.5-2,34.61,3.22,51.39-5.5-7.12-3.07-14.28-5.19-15.12-13.56-.66-6.54,3.7-10.67,8.45-15.82.59,8.65,1.8,16.28,9.59,21,2.87-4.38,4.6-9.24,7.54-13.44,14.42-20.53,38.48-24.36,58.4-9.08C239,78.32,246,88.66,251.79,99.79c12.8,24.4,19.48,50.79,24.94,77.56a798,798,0,0,1,11.73,81.4c2.08,21.19,3.49,42.46,5.32,63.68,1.22,14.25,2.65,28.49,4,42.73h-8c-.47-14.65-2.53-29.16-3.84-43.74-3.38-37.63-6.38-75.3-12.13-112.68-4.66-30.32-10.6-60.31-22.13-88.9-6-14.89-13.24-29.16-25.19-40.32-9.93-9.26-21.62-13.42-34.91-8.78s-20.13,15.38-25,28C185.68,102,194,106.34,203,117.84a84.23,84.23,0,0,1,12.84,24.67c10.94,31.67,14.65,64.83,19.72,97.67,4.88,31.59,8.51,63.37,13.55,94.93,2,12.81-.69,22.62-11.35,30.05h-12C241,355.69,246.1,339.31,238.1,324c-6.44,6.08-11.89,12.48-14.35,21.16-1.86,6.57-2.65,13.32-4,20h-12c6.77-.83,8.88-5,8.3-11.3-.18-1.94.58-3.95.62-5.94.06-3,1.42-6,.32-9.26-21.35,12.11-43,21.27-67.83,17.1-2.15,6.45,1.64,8.34,6.57,9.4h-10a58.19,58.19,0,0,1-.72-6.41c0-2.73-1-4.23-3.8-4.91-14.65-3.6-23-13.43-27.68-27.39C107.32,308,102,289.3,98.9,270c-1.57-9.81-4-19.58-2.48-29.61,1.08-6.93-1.7-12.8-4.47-19.93-.37,4.08-.49,7-.94,10-2.13,13.87-2.16,27.93-2,41.84.12,13.29.72,26.61.41,39.91-.42,17.65-1.12,35.3-1.71,53h-7c-.16-22.5,1.93-44.91,2.54-67.37.24-9,.23-18,.85-27,1-14.91,2.44-29.8,3.78-44.7Q89.5,208,91.44,189.88c.16-1.52-.42-4,3.27-3.84q-1,13.22-2,26.37c4-13.29,6.06-26.88,8.09-40.46,2.65-17.71,5.66-35.19,16.28-50.27a1.22,1.22,0,0,0-.18-2c-8.62.88-16.46,4-22.91,10.28-9.79,9.56-15.55,21.53-20.06,34.13-11.08,31-15.79,63-16.45,95.9-.41,19.78.33,39.59-1,59.34-1,15.28-2.53,30.52-3.83,45.78h-6c1.16-13.11,2.29-26.21,3.5-39.32.42-4.48.36-9,.45-13.47.67-32.23.33-64.54,4.9-96.56,5.2-36.47,17.38-70.21,39.37-100.2,19-25.92,41.77-47.41,70.79-61.67,30.06-14.76,61.24-16.33,92.46-4.76,52.5,19.47,84.48,58.89,103.46,110,8.15,21.95,11.61,45,14.27,68.18,5.12,44.67,3.32,89.55,4.35,134.34a22.31,22.31,0,0,1-.42,3.43ZM154.62,289.39c3.31-1.07,2.67-3.88,3.74-6,.68,7.48-.81,9.58-7.56,10.24a18.43,18.43,0,0,0-8.29,3.15c-4.4,2.81-5.83,2.47-8-2.49-1.69-3.93-2.36-8.31-5.92-11.33-1.21-1-.67-2.33.79-3.08,1.48,1.39,1.86,3.62,4,4.68,4.36-13,8.31-25.92,10.57-39.36,2.06-12.23.71-23.83-5.86-34.6a91,91,0,0,0-28.61-28.84c-4.21-2.74-6-2.24-7.82,2.53-1.94,5-2.21,10.41-2.68,15.72-.7,7.85-.64,7.83,6.55,10.78,3.39,1.39,6.78,2.79,10.08,4.38,7.86,3.79,15.23,8.28,20.64,15.37a24,24,0,0,1,4.94,16c-2-3-3.62-6.26-6.81-8.55-4.06,3-8.43,5.08-13.76,3.45,5.31,2.93,11.47,1.77,16.68,4.39-14.31.9-27.49-1.83-38-12.48-1.1,1.2-.59,2.22-.62,3.16-.88,31.2,8.49,60.38,17.13,89.81,6.31,21.51,28.72,28.2,44.32,23.34,28-8.72,51.71-25,75.59-41.18a3,3,0,0,0,1.61-3.31c-2-11.61-3.78-23.24-5.71-35.23-18.66,5.4-35,2-49.62-10-3.56-2.92-7.23-7.39-13-2.48,3.16-6.7,8.07-10.59,14.15-13.12,8.23-3.43,16.61-2.32,25.06-.83,6.41,1.12,12.51,4.17,19.55,3.65-.71-6.13-1.43-11.72-2-17.33-.22-2.13-1.54-2.69-3.29-3.07a77.26,77.26,0,0,0-27.81-1.18c-14.66,2.2-23.53,12.13-30.79,24-1.39,2.26-2.32,4.86-5.26,7.5,9-35.82,31.84-45.81,65.23-37.65-2.22-16.74-5.08-32.42-8.64-48-4.11-17.94-9.36-35.4-21.32-50-5.17-6.31-11.52-10.48-19.61-11.88-6.91-1.19-13.61.29-20.3,1.61-17.33,3.41-31.48,11.15-39.4,28-5,10.62-6.42,22-8.47,33.26-.43,2.38,1,2.87,2.49,3.58,9.77,4.63,18.09,11.22,25.56,18.94,6.82,7.06,12.34,15,14.11,24.81,1.83,10.16.47,20.25-2.15,30.15-2.85,10.77-5.93,21.48-8.88,32.22-.57,2.07-1.34,4.27.39,6.15,1.89,2,3.83.24,5.5-.41C147.27,286.25,151.15,285.76,154.62,289.39Zm23.88-35.28c6.43,4.34,12.2,8.39,19.77,11.05-1.08-4.57-1.91-7.94-2.66-11.32-.34-1.52-1.14-2.42-2.74-2.31C188.32,251.86,183.65,251.62,178.5,254.11ZM99.77,221.54c1.74,7.09,6,12.38,12.73,16.06-1.76-4.57-1.61-9.11-.36-14ZM131.59,232a72.05,72.05,0,0,1-15-5.52C119.25,235,123.65,236.69,131.59,232Zm95.72,28.77c-8.55-2.92-11.33,6.4-17.84,6C216.18,268,221.4,265.17,227.31,260.74Zm-15.55-3.88-12.18-3C202.81,261,206,261.85,211.76,256.86Z" transform="translate(-40.11 -35.54)"/><path class="cls-2" d="M237.74,365.16c10.66-7.43,13.4-17.24,11.35-30.05-5-31.56-8.67-63.34-13.55-94.93-5.07-32.84-8.78-66-19.72-97.67A84.23,84.23,0,0,0,203,117.84c-9-11.5-17.3-15.81-36.45-19.12,4.9-12.6,11.77-23.36,25-28s25-.48,34.91,8.78c11.95,11.16,19.18,25.43,25.19,40.32,11.53,28.59,17.47,58.58,22.13,88.9,5.75,37.38,8.75,75.05,12.13,112.68,1.31,14.58,3.37,29.09,3.84,43.74Z" transform="translate(-40.11 -35.54)"/><path class="cls-2" d="M52.67,365.16c1.3-15.26,2.82-30.5,3.83-45.78,1.31-19.75.57-39.56,1-59.34.66-32.88,5.37-64.92,16.45-95.9C78.44,151.54,84.2,139.57,94,130c6.45-6.31,14.29-9.4,22.91-10.28a1.22,1.22,0,0,1,.18,2c-10.62,15.08-13.63,32.56-16.28,50.27-2,13.58-4.13,27.17-8.09,40.46q1-13.17,2-26.37c-3.69-.17-3.11,2.32-3.27,3.84Q89.51,208,87.85,226.13c-1.34,14.9-2.74,29.79-3.78,44.7-.62,9-.61,18-.85,27-.61,22.46-2.7,44.87-2.54,67.37h-16a22.3,22.3,0,0,0,.66-3.39c.74-23.8,3.17-47.52,3.22-71.35,0-13.82,0-27.69,1.69-41.4,3-24.1,6.33-48.19,13.72-71.47.48-1.51,1.37-3.23-1.14-4.1-2.76,1.55-3.37,4.41-4.07,7.08-8.7,33.11-15,66.56-15.05,101,0,11.27-.44,22.55-1,33.82-.85,16.62-2,33.23-3,49.84Z" transform="translate(-40.11 -35.54)"/><path class="cls-2" d="M87.68,365.16c.59-17.65,1.29-35.3,1.71-53,.31-13.3-.29-26.62-.41-39.91-.13-13.91-.1-28,2-41.84.45-2.92.57-5.89.94-10,2.77,7.13,5.55,13,4.47,19.93-1.56,10,.91,19.8,2.48,29.61,3.08,19.27,8.42,37.93,14.61,56.42,4.67,14,13,23.79,27.68,27.39,2.81.68,3.78,2.18,3.8,4.91a58.19,58.19,0,0,0,.72,6.41Z" transform="translate(-40.11 -35.54)"/><path d="M327.78,365.16c.29-23,.2-46-.46-68.94q-1-33.23-3.59-66.34c-2.83-35.29-5.88-70.56-16.89-104.56-3-9.32-7.2-18.13-10.72-27.26,5.22,7,8.77,14.82,11.87,22.87,9.38,24.31,15,49.59,18.76,75.29,8.23,56,8.57,112.49,9,168.94Z" transform="translate(-40.11 -35.54)"/><path d="M363.79,365.16c.34-18-1.55-35.93-2.35-53.89-1-21.94-2.75-43.86-5.56-65.67-4.89-37.89-12.48-75-28.79-109.95C322,124.78,316,114.44,309.94,104.1c-.39-.67-1.18-1.24-.54-2.54,4.59,4.47,7.78,9.81,11,15.08,17.24,28.33,27.17,59.33,33.4,91.7,5.73,29.79,8.49,59.91,11.22,90.08,2,22.22,2.78,44.52,4.79,66.74Z" transform="translate(-40.11 -35.54)"/><path d="M59.67,365.16c1-16.61,2.18-33.22,3-49.84.57-11.27,1-22.55,1-33.82,0-34.41,6.35-67.86,15.05-101,.7-2.67,1.31-5.53,4.07-7.08,2.51.87,1.62,2.59,1.14,4.1C76.58,200.83,73.25,224.92,70.25,249c-1.7,13.71-1.66,27.58-1.69,41.4,0,23.83-2.48,47.55-3.22,71.35a22.3,22.3,0,0,1-.66,3.39Z" transform="translate(-40.11 -35.54)"/><path class="cls-2" d="M155.71,365.16c-4.93-1.06-8.72-3-6.57-9.4,24.84,4.17,46.48-5,67.83-17.1,1.1,3.26-.26,6.27-.32,9.26,0,2-.8,4-.62,5.94.58,6.34-1.53,10.47-8.3,11.3Z" transform="translate(-40.11 -35.54)"/><path class="cls-2" d="M219.74,365.16c1.36-6.66,2.15-13.41,4-20,2.46-8.68,7.91-15.08,14.35-21.16,8,15.29,2.91,31.67-12.36,41.14Z" transform="translate(-40.11 -35.54)"/><path d="M343.78,365.16c1.52-14.27.38-28.59.84-42.88.23-7,0-13.95.81-20.94.44,8.67.94,17.34,1.32,26,.48,11,.84,21.95,1.31,32.92a43.06,43.06,0,0,0,.73,4.89Z" transform="translate(-40.11 -35.54)"/><path class="cls-2" d="M154.62,289.39c-3.47-3.63-7.35-3.14-11.53-1.52-1.67.65-3.61,2.44-5.5.41-1.73-1.88-1-4.08-.39-6.15,3-10.74,6-21.45,8.88-32.22,2.62-9.9,4-20,2.15-30.15-1.77-9.82-7.29-17.75-14.11-24.81-7.47-7.72-15.79-14.31-25.56-18.94-1.5-.71-2.92-1.2-2.49-3.58,2.05-11.28,3.49-22.64,8.47-33.26,7.92-16.88,22.07-24.62,39.4-28,6.69-1.32,13.39-2.8,20.3-1.61,8.09,1.4,14.44,5.57,19.61,11.88,12,14.62,17.21,32.08,21.32,50,3.56,15.55,6.42,31.23,8.64,48-33.39-8.16-56.25,1.83-65.23,37.65,2.94-2.64,3.87-5.24,5.26-7.5,7.26-11.86,16.13-21.79,30.79-24a77.26,77.26,0,0,1,27.81,1.18c1.75.38,3.07.94,3.29,3.07.56,5.61,1.28,11.2,2,17.33-7,.52-13.14-2.53-19.55-3.65-8.45-1.49-16.83-2.6-25.06.83-6.08,2.53-11,6.42-14.15,13.12,5.82-4.91,9.49-.44,13,2.48,14.63,12,31,15.4,49.62,10,1.93,12,3.76,23.62,5.71,35.23a3,3,0,0,1-1.61,3.31c-23.88,16.14-47.59,32.46-75.59,41.18-15.6,4.86-38-1.83-44.32-23.34-8.64-29.43-18-58.61-17.13-89.81,0-.94-.48-2,.62-3.16,10.49,10.65,23.67,13.38,38,12.48-5.21-2.62-11.37-1.46-16.68-4.39,5.33,1.63,9.7-.42,13.76-3.45,3.19,2.29,4.8,5.52,6.81,8.55a24,24,0,0,0-4.94-16c-5.41-7.09-12.78-11.58-20.64-15.37-3.3-1.59-6.69-3-10.08-4.38-7.19-2.95-7.25-2.93-6.55-10.78.47-5.31.74-10.68,2.68-15.72,1.83-4.77,3.61-5.27,7.82-2.53a91,91,0,0,1,28.61,28.84c6.57,10.77,7.92,22.37,5.86,34.6-2.26,13.44-6.21,26.4-10.57,39.36-2.09-1.06-2.47-3.29-4-4.68-1.46.75-2,2.05-.79,3.08,3.56,3,4.23,7.4,5.92,11.33,2.13,5,3.56,5.3,8,2.49a18.43,18.43,0,0,1,8.29-3.15c6.75-.66,8.24-2.76,7.56-10.24C157.29,285.51,157.93,288.32,154.62,289.39Zm-36.71,8.1c1.1,2.65,5,3.35,4.94,6.54-.12,3.44,1.65,6,3,8.81.8,1.63,2.07,3.21,1.55,5.13-1.29,4.78,1.6,6.74,5.33,8,3.53,1.23,7.34,1.59,10.63,3.57,1.37-2.91-2-4.28-1.6-7.16,8.37-.47,15.06-6.15,23.45-7.85-6.52-.14-10.23-4.67-14.36-8.41-5.49-5-7-5.23-13-1.49a38.88,38.88,0,0,1-8.22-9.64C122.63,298.27,122.63,298.27,117.91,297.49Z" transform="translate(-40.11 -35.54)"/><path class="cls-2" d="M178.5,254.11c5.15-2.49,9.82-2.25,14.37-2.58,1.6-.11,2.4.79,2.74,2.31.75,3.38,1.58,6.75,2.66,11.32C190.7,262.5,184.93,258.45,178.5,254.11Z" transform="translate(-40.11 -35.54)"/><path class="cls-2" d="M99.77,221.54l12.37,2c-1.25,4.91-1.4,9.45.36,14C105.74,233.92,101.51,228.63,99.77,221.54Z" transform="translate(-40.11 -35.54)"/><path class="cls-2" d="M131.59,232c-7.94,4.72-12.34,3.05-15-5.52A72.05,72.05,0,0,0,131.59,232Z" transform="translate(-40.11 -35.54)"/><path class="cls-2" d="M227.31,260.74c-5.91,4.43-11.13,7.3-17.84,6C216,267.14,218.76,257.82,227.31,260.74Z" transform="translate(-40.11 -35.54)"/><path class="cls-2" d="M211.76,256.86c-5.72,5-8.95,4.14-12.18-3Z" transform="translate(-40.11 -35.54)"/><path d="M117.91,297.49c4.72.78,4.72.78,11.7-2.46a38.88,38.88,0,0,0,8.22,9.64c6.08-3.74,7.55-3.5,13,1.49,4.13,3.74,7.84,8.27,14.36,8.41-8.39,1.7-15.08,7.38-23.45,7.85-.38,2.88,3,4.25,1.6,7.16-3.29-2-7.1-2.34-10.63-3.57-3.73-1.3-6.62-3.26-5.33-8,.52-1.92-.75-3.5-1.55-5.13-1.37-2.81-3.14-5.37-3-8.81C123,300.84,119,300.14,117.91,297.49Zm10.84,11c1.58,7.85,13,11.05,22.9,6.61a9.53,9.53,0,0,0-5.71-1.47c-5.37.15-11.15,2-14.95-4C130.62,309.09,129.61,308.93,128.75,308.5Z" transform="translate(-40.11 -35.54)"/><path class="cls-2" d="M128.75,308.5c.86.43,1.87.59,2.24,1.17,3.8,5.93,9.58,4.12,14.95,4a9.53,9.53,0,0,1,5.71,1.47C141.74,319.55,130.33,316.35,128.75,308.5Z" transform="translate(-40.11 -35.54)"/></svg>