<svg id="Capa_1" data-name="Capa 1" xmlns="http://www.w3.org/2000/svg" xmlns:xlink="http://www.w3.org/1999/xlink" viewBox="0 0 361.46 267.96"><defs><style>.cls-1{fill:#fff;stroke:#fff;stroke-linejoin:round;stroke-width:12px;}.cls-2{fill:#080808;}.cls-3{fill:#090909;}.cls-4{fill:url(#Degradado_sin_nombre_19);}.cls-5{fill:#0a0a0a;}.cls-6{fill:#0e0e0e;}.cls-7{fill:#0b0b0b;}.cls-8{fill:#5e5e5e;}.cls-9{fill:#484848;}.cls-10{fill:#4f4f4f;}.cls-11{fill:#4c4c4c;}.cls-12{fill:#8e8e8e;}.cls-13{fill:#343434;}.cls-14{fill:#8d8d8d;}.cls-15{fill:url(#Degradado_sin_nombre_21);}.cls-16{fill:#656565;}.cls-17{fill:#f6f6f6;}.cls-18{fill:url(#Degradado_sin_nombre_21-2);}.cls-19{fill:#ebebeb;}.cls-20{fill:url(#Degradado_sin_nombre_23);}.cls-21{fill:url(#Degradado_sin_nombre_22);}.cls-22{fill:#787878;}.cls-23{fill:#7b7b7b;}</style><linearGradient id="Degradado_sin_nombre_19" x1="285.84" y1="232.91" x2="367.45" y2="232.91" gradientUnits="userSpaceOnUse"><stop offset="0" stop-color="#58595b"/><stop offset="1" stop-color="#231f20" stop-opacity="0.1"/></linearGradient><linearGradient id="Degradado_sin_nombre_21" x1="182.77" y1="333.38" x2="242.23" y2="333.38" gradientUnits="userSpaceOnUse"><stop offset="0" stop-color="#58595b"/><stop offset="1" stop-color="#231f20" stop-opacity="0.6"/></linearGradient><linearGradient id="Degradado_sin_nombre_21-2" x1="276.68" y1="160.46" x2="299.18" y2="160.46" xlink:href="#Degradado_sin_nombre_21"/><linearGradient id="Degradado_sin_nombre_23" x1="62.92" y1="209.66" x2="245.57" y2="209.66" gradientUnits="userSpaceOnUse"><stop offset="0" stop-color="#58595b"/><stop offset="0.84" stop-color="#231f20" stop-opacity="0.6"/></linearGradient><linearGradient id="Degradado_sin_nombre_22" x1="129.95" y1="177.25" x2="216.73" y2="177.25" xlink:href="#Degradado_sin_nombre_21"/></defs><path class="cls-1" d="M381.21,241.54c-6.94-12.66-17.79-21.57-28.94-30.37,8.24,11.2,17.26,22.07,13.8,36.67l-7.34-3.47c2.86-6.73,1-12.78-3.5-18A217,217,0,0,0,340,210.27a35.11,35.11,0,0,1-11.27-21.43c-3.82-25.9-13.74-49.11-32.83-67.61-25.52-24.74-56.48-36.51-91.8-36.61-28.57-.08-54.77,7.76-77.61,25.52-25.77,20-37.84,47.1-40,79C85.74,200.17,82,209,72.82,215.39c-4.61,3.19-9.21,6.42-13.57,9.93-12,9.62-20.5,21.51-21.32,37.33-1.27,24.51,17.9,44.71,42.79,46.12,13.78.78,26.6-2.87,39.45-7.09,1.78-.58,5.15.28,6.3,1.69,7.39,9,14.32,18.4,21.54,27.56,1.09,1.37,3.29,3.32,4.4,3,9.05-2.58,18.33-5.83,28.3-9.07a58.26,58.26,0,0,0,11.62,9.8c8.39,6.83,22,7.81,32.57,2.63a71.31,71.31,0,0,0,19-12.05c8.63,2.5,16.39,4.39,23.88,7,4.18,1.47,6.58.55,9.1-2.84,5.87-7.92,12.39-15.37,18-23.46,3.91-5.63,7.47-7.17,14.27-4.22,13.29,5.78,27.23,8.71,42,5.45C382.1,300.35,396.42,269.25,381.21,241.54Z" transform="translate(-31.87 -78.62)"/><path class="cls-2" d="M134.62,232.18c.74,37.4,19.49,66.08,45.18,92-9.29,5.72-19.53,6.92-28.92,10.49l-26.76-34.26-4.75-6.06c-15.78,7.13-31.75,13.15-49.39,11.89-29.5-7.36-41.74-41.63-23.94-67a71.5,71.5,0,0,1,18.79-18.12c3.15-2.14,6.1-4.57,9.2-6.79,8.3-5.93,11.84-14.16,12.35-24.17a114.74,114.74,0,0,1,7.1-35.38c10.54-27.63,29.68-47.63,56.74-58.83,49.95-20.67,96.93-14.32,139.33,19.49,19.34,15.43,30.93,36.29,36.6,60.35,1.18,5,2.22,10.06,2.92,15.15a28.83,28.83,0,0,0,9.18,17.45c5,4.8,10,9.7,14.66,14.86s8.26,10.71,6.93,18.14c-1.73,2-3.36,4.13-5.21,6a18.71,18.71,0,0,1-17.8,5.56c-23.84-5.15-40.79-18.19-47-42.92-.9-3.6-1.33-7.47-4-10.43A55.54,55.54,0,0,0,269,175.79c-4.44-3.76-8.9-7.5-13.31-11.3-3.86-3.34-7.82-6.64-8-13.06l-2.2,2.45a20.92,20.92,0,0,0-3.15,2.4,49.7,49.7,0,0,1-24.31,14.51c-7.28,2-14.58,4-21.84,6.07-6.59,1.89-13.45,3-19.58,6.31-6.69,1.62-12.34,5.18-17.58,9.5C148.26,199.83,141,210,134.68,221c-1.64,2.12-3.28,4.23-4.91,6.35-15.75,20.33-36,31.76-62.19,31.51a7.12,7.12,0,0,0-4.66.94c13.24,6.35,26.15,7.49,39.06,2.52,13.6-5.22,24.42-14,30.46-27.71A5.13,5.13,0,0,1,134.62,232.18Zm68.9-75.79c4.26-1.13,8.89-1.28,13.21-4.57a17.66,17.66,0,0,0-7.88-.54c-5.83.08-11.75-1.36-17.43,1.13a34.86,34.86,0,0,0-15,4c-3.36.82-6.73,1.64-9.45,4-16.12,7-26.72,19.29-33.5,35.19a15.18,15.18,0,0,0-3.54,8c2.12-2.87,2.8-4.38,4.71-6.73,9.53-10.57,19.86-20.18,32.52-27A60.09,60.09,0,0,0,178,164.44c4.38-.34,8-2.81,12.11-4.1A78.26,78.26,0,0,0,203.52,156.39Zm73.16-14.94,11.85,16.4c3.63,7.86,6.92,15.87,10.38,25.5,1-12.07-.64-21.92-6.32-30.93-2-5.71-6.59-9.76-9.58-14.85,7.43-10.59,8.68-13.09,8.52-18.1A46,46,0,0,0,276.68,141.45Zm-37.92-9.78c11.77,1.53,23.42-4.78,28.44-14.78,1.43-2.83,2.16-5.53-1.38-8.6C261.22,121.76,250.81,127.68,238.76,131.67Z" transform="translate(-31.87 -78.62)"/><path class="cls-3" d="M300.66,299.4l-27.1,34.09c-9.86-2.37-19.54-5.2-29.71-8.44,6.52-7.64,12.73-14.4,18.35-21.62,12.36-15.9,21.43-33.49,25.53-53.36A126.36,126.36,0,0,0,290,224c1.61,5.53,2.33,11.28,5.93,16.22,9.22,12.67,21.16,21.43,36.44,24.77,9.3,2,18.78,1.92,27.06-4.31,6.47-4.88,9.48-13.21,7.29-20.64-1.12-9.92-6.27-17.91-12.24-25.52l.06-2.13c6.27,5.4,12.68,10.67,18.12,17,9.66,11.19,15.73,23.7,14.63,39-.77,10.64-5.49,19.32-12.94,26.43a45,45,0,0,1-20.9,11.5c-5.79-.79-11.63.3-17.45-.72-10.74-1.9-20.33-6.76-30.42-11.25A13.64,13.64,0,0,0,300.66,299.4Zm47.12-6.4c6.36-.67,8.27-1.91,11.5-7.08Z" transform="translate(-31.87 -78.62)"/><path class="cls-4" d="M366.74,240.06c2.19,7.43-.82,15.76-7.29,20.64-8.28,6.23-17.76,6.35-27.06,4.31-15.28-3.34-27.22-12.1-36.44-24.77-3.6-4.94-4.32-10.69-5.93-16.22-1.61-8.09-3.82-16.08-4.18-24.39,2.68,3,3.11,6.83,4,10.43,6.19,24.73,23.14,37.77,47,42.92a18.71,18.71,0,0,0,17.8-5.56c1.85-1.91,3.48-4,5.21-6C362.18,241.14,364.77,242.25,366.74,240.06Z" transform="translate(-31.87 -78.62)"/><path class="cls-5" d="M229.15,245.44a40.27,40.27,0,0,1,9.91-9,27.12,27.12,0,0,1,13.75-4.72c8.5-.43,16.6-3.28,24.76-5.59a11.88,11.88,0,0,1,7-.41c-10.32,13.94-22.73,23.19-40.37,23.59.08-2.44,2.32-2.24,3.73-3.11,2.66-1.65,5.9-2.88,6.3-6.8-3.36-1.52-5.89-.36-8.37,1.28A45.5,45.5,0,0,1,235.21,246C233.08,246.74,231,247.51,229.15,245.44Z" transform="translate(-31.87 -78.62)"/><path class="cls-5" d="M171.15,248.35c-8.29-.41-14.72-4.86-20.85-9.81-4-3.21-7.24-7.13-11.07-12.58a107.72,107.72,0,0,0,24.52,4.21c12.05.47,21,6.67,29.68,14,.76.65,2.84,1.26.83,2.85-6.58-.95-12.32-3.84-17.76-7.5-2.9-1.95-5.86-3.36-8.92.24,2,3.89,6.28,5.18,10,8.64Z" transform="translate(-31.87 -78.62)"/><path class="cls-6" d="M156.47,202.18c1.57,0,3.14.17,4.7.07,10.57-.65,19.6,5.17,23.49,15.24.12.34-.17.83-.39,1.78-14.44-4.68-28.8-5.58-42.66,2-.82-.15-1.8.1-2.27-1,1.37-4.15,4.12-7.3,7.44-10C150.17,207.76,154.2,206,156.47,202.18Z" transform="translate(-31.87 -78.62)"/><path class="cls-7" d="M282.7,219.09c-15.18-4.33-30-4.57-44.77,1.52-.39-8.25,8.25-18,16-17.5C265.88,203.85,274.78,210.63,282.7,219.09Z" transform="translate(-31.87 -78.62)"/><path class="cls-8" d="M226.5,306.12c-2.19,5.25-4.66,10.17-10.95,11.65-7,1.66-12.86-.16-17.34-5.77a28,28,0,0,1-5-8.67,9.15,9.15,0,0,1,9.12,1.38c-.94.27-2.24-.32-2.7,1.11,3.19,2.79,3.21,3.07,5.57,2.93,4.81-.29,10,1.44,15.5-2.34l-5-.34C219.29,303.88,222.89,304.55,226.5,306.12Z" transform="translate(-31.87 -78.62)"/><path class="cls-9" d="M70,306.25c17.64,1.26,33.61-4.76,49.39-11.89l4.75,6.06c-6.75,2.11-13.3,4.85-20.22,6.45-10.51,2.43-21,3.38-31.62.61A11.38,11.38,0,0,1,70,306.25Z" transform="translate(-31.87 -78.62)"/><path class="cls-10" d="M198.47,285.9c9.64,3.49,19.11,5.64,28.22-.77,1,7.56-3.39,13-10.52,14.17C208.34,300.59,199.88,294.61,198.47,285.9Z" transform="translate(-31.87 -78.62)"/><path class="cls-11" d="M300.66,299.4a13.64,13.64,0,0,1,4.94-5.06c10.09,4.49,19.68,9.35,30.42,11.25,5.82,1,11.66-.07,17.45.72-10.66,4.53-21.34,2.44-32,.12C314.25,304.86,307.72,301.36,300.66,299.4Z" transform="translate(-31.87 -78.62)"/><path class="cls-12" d="M171.15,248.35h6.48c-3.77-3.46-8-4.75-10-8.64,3.06-3.6,6-2.19,8.92-.24,5.44,3.66,11.18,6.55,17.76,7.5-5.9,1.88-12.19.92-18.13,2.59A5.62,5.62,0,0,1,171.15,248.35Z" transform="translate(-31.87 -78.62)"/><path class="cls-13" d="M226.5,306.12c-3.61-1.57-7.21-2.24-10.83-.05-4.45-.46-9.09,1-13.34-1.36a9.15,9.15,0,0,0-9.12-1.38c-.65-1.12-1.86-1.93-2-4,13.39,2.66,26.65,5.34,41-.83C230.55,302.52,228,303.91,226.5,306.12Z" transform="translate(-31.87 -78.62)"/><path class="cls-14" d="M229.15,245.44c1.84,2.07,3.93,1.3,6.06.58a45.5,45.5,0,0,0,10.65-5.31c2.48-1.64,5-2.8,8.37-1.28-.4,3.92-3.64,5.15-6.3,6.8-1.41.87-3.65.67-3.73,3.11-4.57-.34-9.19-.1-13.69-1.29C229,247.66,228,247.16,229.15,245.44Z" transform="translate(-31.87 -78.62)"/><path class="cls-15" d="M241.07,325.67l-5,5.29h0c-5.46,3.74-11.77,5.41-18,7.34-10.58,1-20.29-1.68-29.37-7a9.94,9.94,0,0,0-6-4.33,13.41,13.41,0,0,0,6.08,6c7.51,6,15.73,9.59,25.63,7.6,2.16-.44,4.36-.62,6.54-.92a45.28,45.28,0,0,0,14.92-6.54c2.53-1.78,4.93-3.66,6.29-6.37Z" transform="translate(-31.87 -78.62)"/><path class="cls-16" d="M357.08,214.63l-.06,2.13a15.73,15.73,0,0,1-4.92-5.14A6.57,6.57,0,0,1,357.08,214.63Z" transform="translate(-31.87 -78.62)"/><path class="cls-17" d="M238.76,131.67c12.05-4,22.46-9.91,27.06-23.38,3.54,3.07,2.81,5.77,1.38,8.6C262.18,126.89,250.53,133.2,238.76,131.67Z" transform="translate(-31.87 -78.62)"/><path class="cls-18" d="M292.59,152.42c-2-5.71-6.59-9.76-9.58-14.85l-6.33,3.88,11.85,16.4c3.63,7.86,6.92,15.87,10.38,25.5C299.9,171.28,298.27,161.43,292.59,152.42Z" transform="translate(-31.87 -78.62)"/><path class="cls-19" d="M283,137.57l-6.33,3.88a46,46,0,0,1,14.85-22C291.69,124.48,290.44,127,283,137.57Z" transform="translate(-31.87 -78.62)"/><path class="cls-20" d="M245.51,153.88a20.92,20.92,0,0,0-3.15,2.4,49.7,49.7,0,0,1-24.31,14.51c-7.28,2-14.58,4-21.84,6.07-6.59,1.89-13.45,3-19.58,6.31-6.69,1.62-12.34,5.18-17.58,9.5C148.26,199.83,141,210,134.68,221c-1.64,2.12-3.28,4.23-4.91,6.35-15.75,20.33-36,31.76-62.19,31.51a7.12,7.12,0,0,0-4.66.94c13.24,6.35,26.15,7.49,39.06,2.52,13.6-5.22,24.42-14,30.46-27.71a5.13,5.13,0,0,1,2.18-2.46l.12-7c1-3.54,5.06-1.78,6.87-3.92-.82-.15-1.8.1-2.27-1,1.37-4.15,4.12-7.3,7.44-10,3.39-2.5,7.42-4.23,9.69-8.08,10.51-10.38,23.59-16,37.48-20,8.38-2.41,16.89-4.36,25.22-6.9,9.13-2.79,17.43-7.07,23.47-14.86C244.15,158.47,245.89,156.65,245.51,153.88Z" transform="translate(-31.87 -78.62)"/><path class="cls-21" d="M208.85,151.28c-5.83.08-11.75-1.36-17.43,1.13a34.86,34.86,0,0,0-15,4c-3.36.82-6.73,1.64-9.45,4-16.12,7-27.17,19.43-34,35.34a15.77,15.77,0,0,0-3.09,7.85c2.12-2.87,2.89-4.42,4.71-6.73,9.53-10.57,19.86-20.18,32.52-27A60.09,60.09,0,0,0,178,164.44c4.38-.34,8-2.81,12.11-4.1a78.26,78.26,0,0,0,13.42-4c4.26-1.13,8.89-1.29,13.21-4.57A17.66,17.66,0,0,0,208.85,151.28Z" transform="translate(-31.87 -78.62)"/><path class="cls-22" d="M347.78,293l11.5-7.08C356.05,291.09,354.14,292.33,347.78,293Z" transform="translate(-31.87 -78.62)"/><path class="cls-23" d="M202.33,304.71c4.25,2.4,8.89.9,13.34,1.36l5,.34c-5.55,3.78-10.69,2-15.5,2.34-2.36.14-2.38-.14-5.57-2.93C200.09,304.39,201.39,305,202.33,304.71Z" transform="translate(-31.87 -78.62)"/></svg>