<?xml version="1.0" encoding="UTF-8"?>
<svg id="Layer_7" data-name="Layer 7" xmlns="http://www.w3.org/2000/svg" viewBox="0 0 1080 1080">
  <defs>
    <style>
      .cls-1 {
        fill: #3f3f3f;
      }

      .cls-2 {
        fill: #323232;
      }

      .cls-3 {
        fill: #111;
      }

      .cls-4 {
        fill: #2b2b2b;
      }

      .cls-5 {
        fill: #444;
      }

      .cls-6 {
        fill: #909090;
      }

      .cls-7 {
        fill: #d6d6d6;
      }

      .cls-8 {
        fill: #6c6c6c;
      }

      .cls-9 {
        fill: #bdbdbd;
      }

      .cls-10 {
        fill: #292929;
      }

      .cls-11 {
        fill: #414141;
      }

      .cls-12 {
        fill: #393939;
      }

      .cls-13 {
        fill: #939393;
      }

      .cls-14 {
        fill: #8f8f8f;
      }

      .cls-15 {
        fill: #3c3c3c;
      }

      .cls-16 {
        fill: #474747;
      }

      .cls-17 {
        fill: #545454;
      }

      .cls-18 {
        fill: #363636;
      }

      .cls-19 {
        fill: #5b5b5b;
      }

      .cls-20 {
        fill: #d2d2d2;
      }

      .cls-21 {
        fill: #727272;
      }

      .cls-22 {
        fill: #777;
      }

      .cls-23 {
        fill: #707070;
      }

      .cls-24 {
        fill: #b5b5b5;
      }

      .cls-25 {
        fill: #d0d0d0;
      }

      .cls-26 {
        fill: #8e8e8e;
      }

      .cls-27 {
        fill: #454545;
      }

      .cls-28 {
        fill: #d9d9d9;
      }

      .cls-29 {
        fill: #a1a1a1;
      }

      .cls-30 {
        fill: #dbdbdb;
      }

      .cls-31 {
        fill: #979797;
      }

      .cls-32 {
        fill: #868686;
      }

      .cls-33 {
        fill: #171717;
      }

      .cls-34 {
        fill: #a5a5a5;
      }

      .cls-35 {
        fill: #969696;
      }

      .cls-36 {
        fill: #c1c1c1;
      }

      .cls-37 {
        fill: #5a5a5a;
      }

      .cls-38 {
        fill: #3b3b3b;
      }

      .cls-39 {
        fill: #1e1e1e;
      }

      .cls-40 {
        fill: #0d0d0d;
      }

      .cls-41 {
        fill: #aaa;
      }

      .cls-42 {
        fill: #b4b4b4;
      }

      .cls-43 {
        fill: #212121;
      }

      .cls-44 {
        fill: #4d4d4d;
      }

      .cls-45 {
        fill: #ccc;
      }

      .cls-46 {
        fill: #525252;
      }

      .cls-47 {
        fill: #9d9d9d;
      }

      .cls-48 {
        fill: #3a3a3a;
      }

      .cls-49 {
        fill: #606060;
      }

      .cls-50 {
        fill: #757575;
      }

      .cls-51 {
        fill: #d8d8d8;
      }

      .cls-52 {
        fill: #c3c3c3;
      }

      .cls-53 {
        fill: #c4c4c4;
      }

      .cls-54 {
        fill: #b1b1b1;
      }

      .cls-55 {
        fill: #a0a0a0;
      }

      .cls-56 {
        fill: #373737;
      }

      .cls-57 {
        fill: #696969;
      }

      .cls-58 {
        fill: #3d3d3d;
      }

      .cls-59 {
        fill: #c6c6c6;
      }

      .cls-60 {
        fill: #575757;
      }

      .cls-61 {
        fill: #5d5d5d;
      }

      .cls-62 {
        fill: #303030;
      }

      .cls-63 {
        fill: #656565;
      }

      .cls-64 {
        fill: #bebebe;
      }

      .cls-65 {
        fill: #c7c7c7;
      }

      .cls-66 {
        fill: #a6a6a6;
      }

      .cls-67 {
        fill: #636363;
      }

      .cls-68 {
        fill: #ddd;
      }

      .cls-69 {
        fill: #4e4e4e;
      }

      .cls-70 {
        fill: #141414;
      }

      .cls-71 {
        fill: #505050;
      }

      .cls-72 {
        fill: #717171;
      }

      .cls-73 {
        fill: #c9c9c9;
      }

      .cls-74 {
        fill: #b0b0b0;
      }

      .cls-75 {
        fill: #d7d7d7;
      }

      .cls-76 {
        fill: #b7b7b7;
      }

      .cls-77 {
        fill: #9b9b9b;
      }

      .cls-78 {
        fill: #848484;
      }

      .cls-79 {
        fill: #121212;
      }

      .cls-80 {
        fill: #646464;
      }

      .cls-81 {
        fill: #343434;
      }

      .cls-82 {
        fill: #666;
      }

      .cls-83 {
        fill: #bcbcbc;
      }

      .cls-84 {
        fill: #c5c5c5;
      }

      .cls-85 {
        fill: #cdcdcd;
      }

      .cls-86 {
        fill: #9f9f9f;
      }

      .cls-87 {
        fill: #bbb;
      }

      .cls-88 {
        fill: #101010;
      }

      .cls-89 {
        fill: #2e2e2e;
      }

      .cls-90 {
        fill: #b8b8b8;
      }

      .cls-91 {
        fill: #676767;
      }

      .cls-92 {
        fill: #858585;
      }

      .cls-93 {
        fill: #8b8b8b;
      }

      .cls-94 {
        fill: #4a4a4a;
      }

      .cls-95 {
        fill: #0c0c0c;
      }

      .cls-96 {
        fill: #acacac;
      }

      .cls-97 {
        fill: #a2a2a2;
      }

      .cls-98 {
        fill: #1f1f1f;
      }

      .cls-99 {
        fill: #8a8a8a;
      }

      .cls-100 {
        fill: #b3b3b3;
      }

      .cls-101 {
        fill: #ababab;
      }

      .cls-102 {
        fill: #2a2a2a;
      }

      .cls-103 {
        fill: #424242;
      }

      .cls-104 {
        fill: #626262;
      }

      .cls-105 {
        fill: #e1e1e1;
      }

      .cls-106 {
        fill: #949494;
      }

      .cls-107 {
        fill: #838383;
      }

      .cls-108 {
        fill: #bfbfbf;
      }

      .cls-109 {
        fill: #fff;
        stroke: #fff;
        stroke-miterlimit: 10;
        stroke-width: 29.63px;
      }

      .cls-110 {
        fill: #131313;
      }

      .cls-111 {
        fill: #202020;
      }

      .cls-112 {
        fill: #0a0a0a;
      }

      .cls-113 {
        fill: #252525;
      }

      .cls-114 {
        fill: #c2c2c2;
      }

      .cls-115 {
        fill: #b9b9b9;
      }

      .cls-116 {
        fill: #cbcbcb;
      }

      .cls-117 {
        fill: #737373;
      }

      .cls-118 {
        fill: #6e6e6e;
      }

      .cls-119 {
        fill: #6a6a6a;
      }

      .cls-120 {
        fill: #a8a8a8;
      }

      .cls-121 {
        fill: #191919;
      }

      .cls-122 {
        fill: #a4a4a4;
      }

      .cls-123 {
        fill: #616161;
      }

      .cls-124 {
        fill: #989898;
      }

      .cls-125 {
        fill: #353535;
      }

      .cls-126 {
        fill: #adadad;
      }

      .cls-127 {
        fill: #c8c8c8;
      }

      .cls-128 {
        fill: #d3d3d3;
      }

      .cls-129 {
        fill: #dadada;
      }

      .cls-130 {
        fill: #d1d1d1;
      }

      .cls-131 {
        fill: #090909;
      }

      .cls-132 {
        fill: #484848;
      }

      .cls-133 {
        fill: #555;
      }

      .cls-134 {
        fill: #888;
      }

      .cls-135 {
        fill: #dcdcdc;
      }

      .cls-136 {
        fill: #b6b6b6;
      }

      .cls-137 {
        fill: #0f0f0f;
      }

      .cls-138 {
        fill: #cacaca;
      }

      .cls-139 {
        fill: #161616;
      }

      .cls-140 {
        fill: #898989;
      }

      .cls-141 {
        fill: #222;
      }

      .cls-142 {
        fill: #999;
      }

      .cls-143 {
        fill: #434343;
      }

      .cls-144 {
        fill: #cfcfcf;
      }

      .cls-145 {
        fill: #b2b2b2;
      }

      .cls-146 {
        fill: #686868;
      }

      .cls-147 {
        fill: #7b7b7b;
      }
    </style>
  </defs>
  <path class="cls-109" d="M822.36,300.23c10.49-5.45,11.03-24.55,1.52-31.65-2.1-1.55-6.07-3.97-6.07.35,0,6.97-4.68,13.65-.97,20.81-2.55,1.77-4.32,5.1-8.2,4.45-2.9-1.9-5.87-.42-8.81,0v-4.03c2.45-2.13,9.26-1.84,6.45-6.58-2.16-3.61-5.45,1.61-8.2,3.1-1.42.94-2.77,2-4,3.13h-.13c-17.36-1.16-28.26-13.2-41.17-22.75-11.42-8.49-13.26-18.07-12.81-30.62.35-11.2,2.32-22.65-1.84-33.68-2.39-.65-6.74.58-6.16-3.52.97-6.78-3.1-11.71-5.13-17.36-12.2-33.97-34.75-59.85-63.53-80.76l-2.03-2.1-6.13-4.19c-8.2-.65-15.42-6.81-24.23-4.45.87-5.65-2.74-7.03-7.19-7.32-8.49-1-17.04-.77-25.46.61-4.68,1.03-9.1,1.19-9.68-5.45l-1.68-2.36-.81-1.9c2.74-.55,3.36-2.36,2.03-4.48-2.87-3.94-6.87-6.87-11.45-8.42-31.62-13.94-60.95-2.45-90.31,8.52-1.77.65-2.03,2.74-1.48,4.42h0c-18.94-1.32-31.43,12.07-46.17,20.23l-10.26,8.49c-23.91,17.36-45.27,36.98-57.59,64.66h0c-5.1,5-8.03,11.78-8.2,18.94v10.2c-1.19,3.26-5.45,3.81-6.26,7.84-2.9,13.84-6.26,27.52-4.23,41.81-2.74,15.1-9.42,27.59-23.94,34.81-4.78,2.65-9.39,5.52-13.84,8.65h-17.97l-8.52-1.97h0l-2.06-2.13h0l-4.03-2.55c-.74-1.87-1.61-3.68-2.55-5.45-1.77-2.9.29-9.1-5.23-8.39-4.71.58-6.97,5.45-7.68,9.94,0,3.03.35,6.07,1.13,9.03,1.16,9.29,10.13,13.1,14.16,20.36-8.87,10.29-15,22.13-7.52,34.81,4.13,6.94,6.16,14.33,9.55,21.29h0c1.42,5.52,5.23,10.1,10.39,12.49h0l4.1,2.1,1.81,4.26,12.62,10.29,6.45,1.84h0l1.87,2.19v.26c24.88,14.07,53.79,19.29,81.98,14.74,5.9-.97,10.13-.87,11.49,5.94,3.23,4.23,6.26,8.91,12.78,5.9,2.94,2.03-.65,6.9,3.61,8.36,12.07-4.9,23.39-8.2,34.78,2.74,8.58,7.71,17.81,14.68,27.59,20.81,6.45,4.36,7.26,7.74.19,11.81-1,5.81-8.74,3.13-10.39,8.2-3.84.87-3.45,3.42-2.36,6.23-5.94.77-5.45,12-14.04,8.55l-10.68,9.87c-.45.32-.94.55-1.48.71-2.42,4.97-6.61,6-11.78,5.9-19.62.13-39.07,3.74-57.4,10.71h0l-5.9,1.87c-8.74,5.9-19.75,9.71-20.71,22.71-.45,4.55-8.87,5.9-4.94,12.23.87,0-1.06,0-1.42.58l-5.71,1.81c-3.48,10.68-6.94,21.26-6.49,32.88.61,16.52.16,33.07.19,49.62,0,3.45-.26,6.87-.35,10.32l2.03,2.55c2.52,7.42,2.52,15.45,0,22.84l-2.1,2.39c0,8.94-.1,17.91-.29,26.88l-1.65,8.52c-1.13,16.78-.97,33.72-2.26,50.33-1.84,24.04-6.61,47.78-2.36,71.95,4.19-7.81-3,11.97,6.39,12.36l2.03,10.23c.29.61.42,1.29.39,2-1.65,13.42,7.03,21.81,14.68,30.97,1.68,1.16,3.52,3.45,5.03,3.29,23.88-2.74,23.36,7.78,13.33,23.78l-3.77.26c-6.07,2.9-6.1,7.23-3,12.33l.55,2.03-.32-.13-1.84,1.94-2,.45v-4.36c-.61-2.03-1.52-1.77-2.55-.29-.48,2.19-.97,4.39-1.42,6.61l1.84,2.26,2.36,1.65,1.58,2.29c.42.42.65.97.68,1.52-10.68,1.45-2.74,5.84-.68,7.45,10.55,7.97,9.03,14.04,2.03,25.26-12.13,19.33-19.1,41.49-16.36,65.34h390.05c-1.61-17.2-2.03-34.36-9.1-50.88-3.26-7.68-11.45-13.42-9.97-23.1l-3.81-7.13h0c11.81,1.81,24.55-10.68,22.88-22.39l-1.9-4.16-1.68-2.39h0c6.1-2.74,2.74-5.45-.19-8.2-3.94-10-11.2-17.91-16.84-26.84-1.48-4.55,2-4.55,4.48-4.19,13.97,2.03,25.39-2.74,35.04-12.45,8.2-9.65,9.68-20.97,8.49-33.14-.32-3.58-2.94-8.55.35-10.74,9.74-6.55,5-14.62,3.61-22.49-5.97-1.9-3.81-5.9-2.52-9.71-6.65-5.45-1.23-13.13-3.71-19.36-.39-24.78-.84-49.53-1.29-74.34,0-3.07-.45-5.78-4.68-4.32l-4.87-.26c.77-2.74-.48-6.13,2.16-8.49v.35c.81-12.84,1.58-25.68,2.32-38.56,0-1.48-.13-2.97-.23-4.48-4.84-2.36-5.13,2.19-5.78,4.48-1.84,6.45,0-9.97.13-15.97v-5.16c.61-6.42,1.29-12.84,1.9-19.29-1.19-3.55-2.13-7.2-2.74-10.91-1.58-19.75,4.97-41.14-12.29-57.53l6.65,1.23c-.87-1.71-1.87-3.36-2.97-4.94-5.45-6.81-10.13-14.55-18.23-18.97-18.94-12.23-40.01-15.26-61.95-14.74-2.61-2.74-6.32-4.13-10.1-3.81-8.2,0-14.26-2.74-16.49-11.26-8.2-3.16-12.1-11.29-18.71-16.36l-4.48-3.9c-3.19-3.97-7.49-6.87-12.36-8.36l-4.39-2.23c-3.84-7.23-1.16-11.91,5.13-16.36,14.91-10.91,31.39-19.97,42.75-35.2l.48-.26c.35,0,.68-.03,1-.16-.26.1-.55.16-.84.16l5.45,8.78-1.1,12.07c4.84-1.52,9.78-2.58,13.45-6.78,5.97-6.84,12.68-13.07,18.29-20.2,4.23-5.45,8.03-5.45,12.87-1.65,0,2.48-.26,5.65,3,5.45,17.2-.45,35.2,5.74,51.07-5.9l3.61-.35c18.97-3.84,35.94-14.33,47.82-29.62,15.13-19.1,27.65-39.98,15.71-66.24-2.19-4.71-1.13-8.68,4.65-11.74l-.03.03ZM760.64,793.33v-8.55,14-5.45ZM765.25,354.21h0ZM484.68,488.85l2.39-3.77h0l-2.39,3.77h0ZM511.98,489.27h0ZM323.1,393.61c-5.78-2.81-11.16-6.39-15.97-10.68,4.81,4.26,10.2,7.84,15.97,10.68,4.42,2.52,8.97,4.81,13.65,6.87-4.65-2.06-9.16-4.36-13.58-6.87h-.06,0ZM715.15,533.12c-.65-.16-1.29-.35-1.94-.58.71-.16,1.48.03,2,.58h-.06,0Z"/>
  <path class="cls-131" d="M367.11,945.17c-.03-.58-.29-1.13-.68-1.52l-1.61-2.39h0c0-1.94,0-3.87-.19-5.84l2-.45,1.84-1.94.32.13c2.13-1.81,4.32-6.13,6.29,0-.26.52-.39,1.1-.39,1.68-5.78,5.45-2.74,9.26,2.19,12.78h0c2.1,4.87,7.49,6.16,10.71,9.78l.87.45h1l4.16,3.71,26.55,17.36h0l6.52,3.81h0l6.32,4.03h.13l8,4.36h0c7.36,3.55,15.39,6.23,21.81,10.91,5.65,4.1,6.87.45,9.23-2.74h0l7.94-10.36.65-1.94,10.55-11.78,5.19-7.32c.35-.52.58-1.13.58-1.74l8.39-14.42c2.39-2,3.55-4.03.55-6.45,8.81-4.97,12.42-12.68,12.1-22.55v.16c3.1-.61,5.45-1.84,4.39-5.68l3.81-4.81,16.36-.45c8.78.58,17.58.71,26.36.39,8.49-.71,13.33,2.13,15.23,10.29,3,13.65,10.03,25.49,16.04,37.81,2.42,3.97,4.87,7.94,7.32,11.91,1.61,7.45,6.9,12.91,10.49,19.26,4.58,8.2,10.65,11.13,19.78,5.74,8.03-4.78,16.75-8.39,25.13-12.55l3.68-3.45c1.74,1.42,3.42,1.74,4.84-.45,17.91-8.68,36.04-17.2,50.85-30.81,6.03-5.45,13.65-11.74,5.29-21.26l-2-2.42-12.1-16.52-4.87-7.71-1.9-.68c-2.26-3.97-5.23-5.03-10.1-4.68-15.33,1.26-30.75.81-45.94-1.36-4.42-6.81,1.71-5.45,4.74-5.78,9.45-.94,19.1.81,28.43-2.03l47.2-.45c4.52,1.84,9.65-3.03,13.97,1.19-4.71,3.9-10.39,2.94-15.78,3.03-17.2.29-17.97,1.55-9.71,16.36l15.97,22.33,2.9,2.9h0l1.68,2.39,1.9,4.16-22.84,22.46h0c-4.68,5.84.42,6.13,4.13,7.2-1.48,9.68,6.68,15.42,9.97,23.1,7.07,16.52,7.49,33.68,9.1,50.88h-386.11c-.16-22.13,4.68-43.65,17.36-61.37,10.49-14.65,9.36-24.55-4.29-34.65-.81-.55-1.55-1.26-2.32-1.94l.03-.06ZM572.12,962.27c5.45-3.32,4.23-8.2,2.74-12.81-4.71-13.84-21-20-36.14-13.91-12.42,5.03-16.13,16.36-10,30.88,5.29,9.65,13.26,14.55,24.55,13.26,10.23-1.23,16.45-7.32,18.87-17.39l-.03-.03Z"/>
  <path class="cls-59" d="M367.11,945.17c.77.68,1.48,1.39,2.32,2,13.65,10.1,14.74,20,4.29,34.65-12.71,17.75-17.55,39.23-17.36,61.37h-4.13c-2.97-23.84,4.13-45.98,16.36-65.34,7-11.2,8.55-17.29-2.03-25.26-2.23-1.61-10.03-6,.58-7.45l-.03.03Z"/>
  <path class="cls-131" d="M342.01,860.54c.03-.68-.1-1.36-.39-2l-.26-10.23c-.97-3.19-8.03-2.74-5-8.2,1.13-2.03,2.42-5.61,3.52-5.58,4.16.23,3.03,5.45,5.84,7.49.81.61,1.55,1.32,2.32,2l1.87,6.29,4.61,14.39,1.48,4.48v-.13l2.19,4.55c-.06.55.1,1.1.45,1.52l1.65,2.55-.23-.16c.26,4.65,4.26,8.2,8.91,7.94h.19c23.78.81,47.56,2,70.92-3.74,18.58-.16,36.14-5.81,54.01-9.97,12.23-2.74,21.39-11.91,33.07-15.78,9.1-3,13.03-.23,11.39,7.97-.9,4.39,2.45,2.16,3.48,1.9,9.16-1.94,18.65-1.65,27.62.94,10.91,2.74,14.33-1.26,10.68-11.91-2.19-6.49-3.87-13.16-5.78-19.75l-.65-5.61-1.68-49.85c-.77-5.61-4.84-3.29-8-3.39-18.07-.39-34.85,6.55-52.3,9.45-25.04,3.45-50.17,6.39-75.05,10.65-6.13,1.03-14.16-1.45-18.55,5.9-8.2,7.45-19.68,1.58-28.55,6.68l-2.13,2.03h0l-2.16,2h0c-2.74,0-5.68,5.71-8.39,0,.9-2.03,4.78-2.9,3.07-5.78-2.1-3.52-5.65-3.45-9.16-2.19-4.1-1.84-7.61-4.74-10.16-8.42h0c2.16-2.26,1.42-4.48,0-6.74-2.23-2.9-4.45-5.87-6.74-8.74-3.32-4.19-6.49-10.29-2.9-13.81,9.32-9.2.81-14.2-3.13-20.49-7.49,0-2.74,5.45-3.81,8.39h0l-2.58-4.84c1.48-12.29-2.74-24.55.13-36.88,1.97-8.36-2.06-17.33,2.74-25.33,3,9.36,2.03,19.1,2.19,28.65.65,33.17,4.58,31.46,30.14,32.2,0,2.19-1.77,4.55,1.23,6.45,3.71,2.36,3.58,2.55-.68,5.84-.35.48-.61,1.03-.71,1.65l-9.84.19c-4.1.58-10.91,4.71-7.81,5.87,13.65,4.84.26,6.29-.39,9v1.45l1.68,2.45,14.81,6.03c7.23,10.26,16.84,14.04,29.04,10.65,2.94-4.58,8.71-3.48,12.62-6.19h0l2.19-.16c5.23-.42,11.68,2.39,14.87-3.97,4.87-9.74-8.68-41.88-19.1-45.88-2.55-1-3.74.71-4.65,2.74-10.91-3.81-21.81-2.58-32.88-.58-5.45-1.19-11.71,2.94-16.58-2.36l.16-6.03c10.16-3.55,21.17-4.1,31.65-1.55,6.78,1.42,9.52-.87,9.36-7.87-.39-15.91,0-31.85-.61-47.72-.19-5.19.77-8.71,5.45-10.91l2.42-1.84c5.87-3.45,2.74-10.07,5.19-14.68l6.49-6.58,33.23-4.19c2.52-.68,5.26-2.36,7.52-1.84,17.49,3.9,35.1.97,52.62,1.42,8.55-1.52,3.55-6.42,2.58-10.32,1.48-10.52-2.55-19.84-6.42-29.2l-.74-3.68c-4.97-4.48-2.94-10.71-4.07-16.16l-1.74-2.58h0c4.36-1.81,5.45,3,8.39,4.13,8.74,8.13,19.81,13.39,31.65,15.04,13.65,2.39,27.68-1.26,38.43-10.03,8.2-6.42,10.91-22.42,4.58-27.78-1.32-2.74.35-4.42,2.16-6.03,10.68-10.74,5.65-23.33,4.1-35.46,1.42-5.45-2.74-7.71-6.1-10.55l-4.39-26.78c-2.32-2.94,4.26-9.26-3.81-10.1h0c-16.84,7.68-34.23,4.78-51.3,1.74-17.65-3.13-17.55-3.74-17.52,14.65.06.68.19,1.36.39,2.03l-2.55,18.23c-11.2,12.29-10.03,25.94-4.29,40.04l2.03,2.23c.13.48.35.94.61,1.32l1.84,4.52h0l-2.06,2.13h0l-1.94,2.29h0l-6.42-2.29-2.23-10.36c-.81-11.65-1.61-23.3-2.42-34.97.45-11.91.35-23.71,9.36-33.46,3.16-3.42,2.03-8.42-.42-12.55,2.48-10.62-4.94-15.78-12.1-20.17-14.39-9.13-27.17-20.62-37.81-33.94-13.49-10.91-11.13,3.39-14.29,8.91-.26,5.1-3.58,8.42-6.84,11.81-4.26-1.45-.65-6.32-3.61-8.36s-7.26-3.03-6.71-8.03c-4.39-9-9.58-12.78-21.1-9.68-26.97,7.36-52.33.26-76.14-13.29-11.87-5.68-21-14.55-29.2-24.55-10.91-15.26-16.13-31.49-9.91-50.2.68-2.1-1.32-5.07-2.1-7.65,6.29-3.07,9.71-6.07.87-10.62-5.16-2.9-8.52-8.23-8.91-14.13-.32-2.19-1.81-5.16,1.58-5.9.97-.23,3.1,2.32,3.81,3.97,1.94,4.68,2.74,10.03,8.39,11.97,1.29,1.1,2.71,2,4.23,2.74,5.9,1.68,12.16,1.77,18.13.29-4.07-.94-8.2-1.77-12.23-2.9-.71-.19-1.1-1.65-1.65-2.48l25.1-4.07c16.36-2.74,26.2-14.04,32.94-27.84,2.9-5.9-1.39-14.07,4.13-19.97,3.68-7.9,1.03-16.1,1.1-24.17,0-3.71,0-7.42-.19-11.13l3.26,10.42c0,2-.61,4.29,1.74,5.45,1.1-1.03,1.87-2.36,2.19-3.81-.26-9.78,2.74-19.1,4.23-28.55v-4.13c4.13-8.2,8.2-16.1,12.29-24.2,10.26-21.42,26.04-39.75,45.69-53.11l15.36-11.55c13.33-8.32,25.97-17.78,40.91-23.36h0c9.78.52,17.36-6.61,27.52-6.68,21.17-.16,41.75,1.71,61.82,8.61h0c-4.97,7.81,7.13,3.87,6.16,8.97,3.68,3.58,6.84,7.29,13.29,4.84,12.03-4.65,25.42-4.45,37.3.58,8.78-2.39,15.97,3.81,24.23,4.45-.65,5.45.97,7.42,6.13,4.19l2.03,2.1c-2.1,2.42-1.16,3.42,1.29,5.45,44.07,36.3,69.4,81.98,69.3,140.19-.45,3.84,1.1,7.65,4.1,10.1l2.03,6.23,2.23,4h0c-1.06,13.49,8.55,16.36,18.62,18.71h0l2.39,1.71c9.61,4,20.13,5.42,30.46,4.07.55,1.58-.29,3.26-1.87,3.81-.1.03-.19.06-.32.1-3.61,1.39-11.32,0-10.32,2.9,1.42,4.26,8.36,1.68,12.87,1.65,3.81.19,7.55-1.29,10.2-4.03l4.32-1.84c3.87.65,5.61-2.74,8.2-4.45.65-.74,1.74-1.39,1.94-2.23.87-4.16,1.84-8.2,6.36-9.94.94-.03,1.84.42,2.39,1.23,1.32,4.42-1.16,8.2-2.9,11.74-.74,1.97-2.03,3.65-3.74,4.84-7.68,4.03-6.78,10.52-6.42,17.65.61,12.29,2.52,24.75-1.9,36.91-9.74,26.91-29.07,43.43-56.01,51.37-5.26,1.55-3.52,3.65-2.39,6.49l-3.61.35-54.08.35c-4.84-3.74-8.65-3.71-12.87,1.65-5.61,7.13-12.33,13.33-18.29,20.2-3.65,4.19-8.58,5.26-13.45,6.78.39-4.03.74-8.2,1.1-12.07.52-3.29,3.26-6.74.87-9.81-1.94-2.48-4.19.97-6.45,1.03l-.48.26c-1.52-6.19-3.65-2.74-5.9-.42-13.45,13.94-28.78,25.94-45.53,35.72-3.07,1.55-4.9,4.78-4.71,8.2-2.16,2.29-2.16,5.9,0,8.2,0,1.39.13,2.74.23,4.13.39,7.81,4.19,14.33,7.9,20.84,2.1,13.91,2.52,28.01,1.29,42.01-1.65,15.65-2.26,31.39-3.29,47.14-4.1,15.94-8.2,31.85-12.29,47.78-1.74,6.78.97,9.74,7.71,9.36,15.42-.87,30.91-1.84,46.36-2.74l8-.74,23.1.16c.58.16,1.13.35,1.65.61l2.1,1.87h0c.68,5.32,1.36,10.62,2,15.97l13.03-1.84,6.1,1.87c7.32,3.94,5.84,11.07,6.13,17.36,1.74,38.62-4.03,77.79,8.39,115.6-.58,1.71.19,3.58,1.84,4.32h0v6.1c-8.65-.35-5.74,9.23-10.91,12.42-7.74,4.9-17.16,3.84-24.91,8.2-.55-.16-1.13-.16-1.68,0-5.45.29-8.2,4.19-10.36,8.49h0c-4.07-3.42-8.2-1.81-12.45-.26l-12.33,2.48c-16,2.94-25.94,19.1-43.3,19.58-3.26,0-4.19,3.97-4.16,7.32,0,4.81,0,9.61-.19,14.39l-2.19,2.03-51.56.32c-5.19.32-6.23,6.58-10.91,7.71-6.26.9-12.91-1.03-18.94,2.19l-12.07,2.19c-10.26,3.32-25.97-4.32-28.72,14.2,2.55,6.94,8.68,6.1,14.2,6.61.61,0,1.26.16,1.87.19l.13,3.87-10.1.29-9.1.26-3.71-2.45c-3.68-5.07-5.58-12.71-14.58-10.23l-3.74-2.39c-9.29-7.58-34.2-3.71-42.43,6.78-6.26,7.97-12.2,16.2-18.26,24.3-.58,0-1.13.13-1.68.32-5.9-1.87-2.32-4.26-.32-6.55,1.32-9.42,10.74-13.65,13.97-22.36,2.42-6.68,1.19-6.68-4.29-6.52-9.23.26-18.55,1.52-27.42-2.32-9.07-7.49-10.32-20.52-19.04-28.62l.03-.06ZM665.43,134.49l-2.13-2.16v.23c-2.74-2.55-5.97-5.61-9.58-2.36s-.84,6.9,1.16,9.97c2,3.07,4.42,5.9,6.65,8.84h0l-2.19,2.26h.13l-12.26-4.29c.97,4.45,1.9,8.87,2.74,13.33.32,1.68.52,3.32.77,5h0l-10.2-3.97v-5.45c-.58.23-1.36.26-1.68.68-1.55,2.26,0,3.61,1.65,4.84,0,3.23,1.48,6.26,4.1,8.2v4.16h0l-10.42-3.1c-.94,3.77,2,5.45,4.13,7.36l.32,2.13c-.03.65-.03,1.29,0,1.94l1.87,2.03c.68.16,1.32.26,2.03.26,1.9,5.03,5.71,5.45,10.2,4.26l-1.65,3.87-1.9,2.03c6.97,3.1,8.78-.81,7.81-6.49-.81-4.55-.23-4.65,3.03-2,2.36,1.87,5.19,4.9,7.9,1.87,3.1-3.45.16-6.94-2-10l-.71-5.97c10.65.65,5.84-8.61,8.42-13.13,12.58-9.07-3.45-12.2-3.84-18.58l-4.48-5.87.1.1.03.03ZM455.9,206.86h0c2.29,2.52,3.55,8.55,8.36,2.42l2.1-.71c.32,7.49,4.87,3.03,7.94,2.74h0c-4.68,5.19,3.16,7.81,2.48,12.16-.77,2.32-4.55,4.23-1.94,6.84,2.03,2.03,4.36-.42,6.07-1.81,2.74-2.29,5.32-4.9,7.97-7.36l8.49-8.2c9.32,1.29,13.16-5.19,16.16-12.07,2.03-4.68,3.36-9.97-3.13-12.97l-2.39-2.1c-4.39-9.39-10.65-4.84-16.62-2.19h0l-4.26-2.03c.74-.74,1.32-1.94,2.19-2.1,8.91-1.74,8.71-11.62,14.55-16.07-5.13-.58-8.71,4.9-14.2,3.55-1.45-.35-3.32,1.39-4.9,1.23-2.74-.29-6.1-.58-7.55-2.26-2.45-2.74,1.29-4.81,2.9-6.68,3.48-3.39,5.9-7.68,6.97-12.42l1.84-.94-.81-.81-.97,1.81c-5,1.26-9.39,4.26-12.39,8.45l-2.29,4h.13c-8.2,7.26-19.46,12-20.84,24.94-1.16,4.97-2.65,9.84-4.48,14.58-3.32,7.32-9.29,13.81-5.74,22.78l-2.74.19.71,1.55,1.94-1.87,12.62-12.26,1.87-2.52-.03.1ZM642.65,221.54c-.19-2.26.35-4.81-2.36-6.1h.23l-3.84-2.32c-.74-5.26-4.9-7.84-8.49-10.91-4.42-3.97-3.52-15.91-14.68-9.78-6.16-6.45-7.49-16.49-15.87-21.33-3.39-6.94-6.68-7.97-10.36,0-1.61,2.94-3.45,5.74-5.45,8.39-3.26,3.61-6.52,7.19-9.78,10.91l-1.81,2.74c-1.97,2-3.9,3.97-5.87,5.94-2.36-3.1,2.36-7.42.52-8.2-3.26-1.58-5.78,2.74-8.32,4.61-11.29,8.78-21.81,18.49-33.62,26.62-4.58,3.19-.77,4.16-.42,6.19l-12.87,9.61c-5.1,2.42-10.03,5.16-14.81,8.2-5.07,3.65-13.94,7.32-12.45,13,1.29,5.07,10.68,5.45,17.1,5.9l8.03,6.58c-.9,5.74-5.26,4.1-8.65,3.74-6-.61-11.94-1.71-17.91,0-2.74-3.58-5.68-6.32-10.52-5.94-5.26-.42-10.49-.52-14.78,3.36-11.84,4.32-27.52,4.32-26.33,23.42v8.2c-.23,4.81-.42,9.61-.61,14.39-16.13-1-5.45,9.32-6.23,14.81,1.71,6.65,4.58,12.91,8.49,18.55.16.55.32,1.13.45,1.68l1.26,2.74c12.68,48.72,44.82,80.56,89.18,100.92,11.55,5.45,24.75,8.2,38.01,4.84h0c3.68-2.97,9.26-.23,12.58-4.26,6.87-5.9,16.71-7.16,22.62-14.55l2.03-.45,6.03-3.81c13.65-9.68,27.01-19.81,35.72-34.65,12.84-12,17.16-28.39,22.71-44.14l1.87-2.23h0c4.13,2.55,7.45,1.13,10.42-2.06l8.55-14.13c1.29-3.16,2.36-6.42,3.19-9.74,1.36-7.32,2.26-14.74,3.32-22.13-5.87,5.29-5.78,13.29-8.94,19.81-.61,1.23-1.06,2.55-1.61,3.81-1.87,2.97-2.32,6.97-6.26,8.42l-2.74-2.97c.26-3.77.52-7.49.81-11.26.71-14.71,1.81-29.43,2.03-44.17.19-12.49-6.65-17.97-19.1-16.62-22.29-2.9-40.56,9.49-60.37,16.04-9.58-.29-2.45-8.39-5.45-11.74,7.07.35,11.2-4.81,16.04-8.55,17.78-3.74,35.46-7.58,53.91-6.39l2.03.55c.61.16,1.23.26,1.84.26.23,0,.68-.52.61-.74-1.29-6.74-8.2-12.16-8.2-17.62-.23-9.16-4.45-5.74-8.55-5.23-.61-4,8.03-9.78-2.36-12.13v-.1ZM408.47,683.95c.26,7.42.48,14.87.77,22.29l.81-22.23c1.06-4.48,2.74-8.03,8.39-8.2,4.97-.35,9.91-.97,14.78-1.9,2.74-.55,7.94,1.29,7.58-1.81-.45-3.94-4.97-.29-7.68-.68-1.36,0-2.71.16-4,.48-8.13,1.87-22.65-7.26-20.68,12.03h.03ZM775.58,356.18h0c1,4.68,2,9.36,2.97,14.04,4.23-5.45,10.71-9.91,9.26-18.29-.03-.68-.03-1.36,0-2.03.61-1.58,1.13-3.19,1.48-4.84,1.03-7.45,2.16-17.13-4.32-20.26-4.65-2.23-1.74,9.2-6.71,12.07-.26,0-.45.52-.61.81-2.71.42-5.49.42-8.2,0-11.39-3.58-14.58,8.2-15.13,12.36-.84,6.52,8.2,3.48,12.91,4.36l6.23.16,2.13,1.68v-.03ZM308.51,352.21h0c-.1.68-.03,1.36.13,2.03,1.84,3.94,3.71,7.84,5.45,11.74,4.32-2.97-1.03-5.9,0-8.87s3-2.19,5.03-1.71c2.74.71,6.26,3.19,7.49-1.58,1.16-3.03-.32-6.45-3.36-7.61-.68-.26-1.39-.39-2.1-.39l-2-2.06c.81-3.29,3.26-4,6.26-4.1,2.26,0,4.84-1.16,2-3.42-6.39-5-15.26-5.65-21.33-11.52-2.74,7-5.26,14.04-2.74,21.81.26.65.55,1.26.87,1.87.03.55.16,1.06.39,1.55l3.9,2.26h0ZM403.99,221.28c8.39-6.81,11.2-20.46,25.01-20.78,2.42-2.32,4.65-4.84,6.71-7.49,6.19-9.26,20.2-19.1-.81-27.59,5.68-6.74,8.2-12.65-3.94-14.62-9.23-6.52-3.55-12.36.77-18.29.58-1.1,1.03-2.29,1.32-3.52-1.13.45-2.74.61-3.36,1.42-6.87,7.13-15.16,13.07-19.49,22.39-2.74,4.68-5.87,9.23-8.39,14.04-1.48,3.29-2.74,6.68-3.81,10.13,3.84-.77,4.61-4.84,7.36-6.68,1.52-.58,3.13-.84,4.74-.81-.16,3.74,1.94,7.23,5.32,8.81,3.61,1.94,6.49,5.19,3.29,9.94-6.32,10.39-12.39,20.94-14.71,33.1l-.06-.1.03.03ZM412.18,338.08c-1.9-2.74-1.9-8.74-6.94-6.26-4.26,2.1-1.45,6.55,0,9.87.81,1.48,1.71,2.94,2.74,4.29,3.32,4.29,6.45,8.74,10.07,12.78,1.48,1.65,3.58,5.45,6.32,1.81,1.77-2.39,4.39-5.81-.23-8.65-5.55-3.16-8.71-8.52-12-13.68v-.13l.03-.03ZM531.59,705.77c17.91,11.55,41.98,13.13,61.85-13.29,2.39-3.13,4-10.65,0-13.23-5.19-3.26-11.55,0-16.94,2.87l-35.23,3.74c-4.58-2.97-9.61-2.13-14.58-1.61-3.94,1-4.42,4.07-4.13,7.32.52,7.58,9,14.36,9,14.36v-.13l.03-.03ZM620.06,823.24h0c10.23,2.26,16.36-.65,15.13-12.29-1.16-9.84-3.39-19.58-4.23-29.46,0-5.58-3.61-10.52-8.91-12.26h0c.26-6.1-2.94-6.55-7.9-5.45-9.23,2.26-18.55,4.23-27.88,6.07-3.39.65-5.97,1.48-5.71,5.45l.16,33.07c.16,5.81-.03,11.65-.61,17.42-1.29,8.74,4.19,11.03,10.62,10.91,4.84-.13,10.32,0,14.58-3.39l8.36-4.13c4.94,1.26,6.03-1.87,6.36-5.81v-.13h.03ZM686.69,806.88c2.94-2.58,8.2-3.23,7.9-8.65,0-6.87-.61-13.65-.13-20.55.81-12.03-7.16-17.04-16.36-18.81-7.87-1.48-16.36-.16-24.55.77-5.1.61-12.78-1.94-14.62,4.32-2.1,7.03-1.42,15.07,5.65,20.46l2.03,5.68v7.97c-4.32,1.58-5.45,4.81-2.06,7.61s1.81,11.36,9.87,8.71c4.48-1.48,9.07-2.74,13.65-4.07,6.1-1,13,2,18.62-3.26v-.19ZM495.62,646.5c-18.62-4-36.75,2.94-55.2,2.74-3.55,0-2.97,3.07-2.74,5.45.29,2.9,1.68,3.71,4.84,3.52,10.26-.26,20.49.06,30.72.94,8.2.42,19.94,5.1,22.62-9.42,1.36.16,2.74.35,4.07.45,5.36.68,10.78.1,15.84-1.68-4.19-3.68-9.42-.65-14.04-2.1-2.03-.29-4.07-.26-6.1.1h0ZM642.49,647.33c-20-.45-39.4,3.74-59.01,6.32-37.33,4.97-75.11,7.9-112.6,12.74-6.49.84-13.03,1.23-19.55,1.94-2.74.29-6.1.77-5.58,4.52s-1.48,7.84,2.06,10.71c3.55,2.87,35.2.19,39.59-3.29,20.36-2.13,40.91-3.74,61.14-6.52s41.49.74,60.95-8.36l2.23-1.87c11.03-4.26,22.84-2.9,34.26-4.36,2.23-.26,5.45.32,5.45-3.1,0-2.58-2.42-2.74-4.58-2.74l-2.19-2.19c.48-1.61-.45-3.29-2.06-3.74-.03,0-.1,0-.13-.03h.06l-.03-.03ZM641.13,673.79v-.26l18.58-1.19c2.87-.19,5.74-.48,5.71-4.36s-3.16-4.1-5.9-3.97c-12.07.45-24.1,1.1-36.17,1.68-2.55.13-5.03.81-4.74,4,.13,2.45,2.23,4.32,4.68,4.19h17.84v-.1ZM552.56,648.95h16.36c2.32,0,5.23.42,5.45-3.1.23-3.52-2.26-3.97-4.78-4.19-10.62-.9-21.26-.55-31.81.97-2.26.29-4.23,1.36-4.29,3.68,0,2.9,2.55,2.74,4.52,2.74,4.84-.06,9.65-.1,14.45-.1h.1ZM681.82,665.66c2.74-1.23,7.94,2.55,8.39-2.1.26-2.74-5.07-2.13-7.94-2-2.87.13-8.87-1.61-8.91,1.68-.1,4.13,5.45,1.32,8.39,2.42h.06,0ZM427.93,660.21c3.61,0,4.9-1.87,4.94-5.19s-1.48-4.13-4.32-4.1-4.48,1.48-3.81,4.42c.45,2.06-.42,5.26,3.16,4.97l.06-.1h-.03ZM665.97,647.21c-1.87-.81-3.81-1.48-5.74-2.06-.65,0-1.29.13-1.87.39.29.81.35,2.03.94,2.32s1.68,0,6.65-.52l.06-.1-.03-.03Z"/>
  <path class="cls-87" d="M360.59,742.19c4.87,5.29,11.1,1.16,16.58,2.36l2.1,3.81-2.52.61c-25.55-.77-29.49.97-30.14-32.2-.19-9.58.81-19.29-2.19-28.65-4.78,8.03-.74,17-2.74,25.33-2.9,12.26,1.36,24.55-.13,36.88-.65,1.16-1.16,2.42-1.58,3.68-1.19,3.9-.94,8.07.77,11.78.19.39,2.26.26,2.26.26.45-3.61.81-7.26,1.16-10.91h0c.58-.1,1.16-.23,1.68-.45-2.58,15.13,4.84,30.75-2.13,45.69-2.55-3.65,1.9-10.55-3-11.65-4.36-.97-4.29,5.26-4.74,8.81-.61,4.81-3.71,12.1,2.42,13.39,5.45,1.16,1.97-7.61,5.32-10.55.71,4.07-.87,8.52,2.03,12.2-4.19,7.84-8.36,15.65-12.55,23.46-4.29-24.17.52-47.91,2.36-71.95,1.29-16.62,1.16-33.56,2.26-50.33l1.65-8.52c.1-8.97.19-17.91.29-26.88l2.1-2.39h0c2.52-7.42,2.52-15.45,0-22.88h0l-2.03-2.55.35-10.32c2.06,1.77,0,6.39,3.36,6.32,1.45,0,2.74-3.97,4.26-6.16l4.29,4.61c-5.45,3.74-9.52,27.26-5.26,31.49.77.52,1.65.84,2.55,1.03.55-1.23.97-2.48,1.26-3.81.58-6.16,1.03-12.33,1.52-18.49.65,2.97,2.23,6.1,1.81,8.87-1.36,8.65,4.36,17.91-4.84,26.36-3.26,2.97.52,13.65,1.1,20.75.97,9.68-.71,19.75,4.23,28.84v.23l1.84,2.1h0c1.23,1.16,3.19,1.1,4.36-.13h0l-.03-.03Z"/>
  <path class="cls-79" d="M756.93,619.88c-.61,6.45-1.29,12.87-1.9,19.29,0-4.45,0-8.91-.39-13.39,0-1.06,1.23-3.97-1.94-2.9-1.03.35-1.55,2.16-2.32,3.29-9.97-9.84-2.9-21.81-4.16-32.88-.48-4.32,1.29-9.03.26-13.13-1.55-6.03-2.45.77-3.9.68-.74-2.19-1.48-4.32-2.23-6.52,2.16-3.94,2.16-8.71,0-12.65h0c-6.81-10.91-14.49-21.04-25.1-28.59-.52-.52-1.23-.71-1.94-.58-2.74-3.19-6.61-2.97-10.23-3.97-13.13-3.61-27.42-3-39.56-10.39l2.03-4.19c21.81-.52,43.01,2.55,61.95,14.74-.48,3.19-2,5.74,2.19,8.74,4.94,3.48,8.32,9.2,12.36,13.94,17.26,16.36,10.71,37.81,12.29,57.53.55,3.74,1.42,7.42,2.58,11v-.03Z"/>
  <path class="cls-137" d="M598.99,468.14l4.39,2.23c8.58,13.65,18.68,25.59,33.14,33.3.81,7.94,12.94,6.03,12.84,14.74,1.06,17.58,12.2,32.23,14.49,49.49-.52,1.77.26,4.68-2.74,4.61-10.03-.19-17.52,6.1-25.88,10.03-3.81,1.84-8.2,4.48-4.48,10.2l-2.74,2.39c-3.26-3.84-6.52-7.68-9.78-11.49.16-.42,0-.9-.39-1.16.32-.48.32-1.1,0-1.58,4.26-.87,8.39-1.87,10.26-6.52h0c26.72-7.9,30.91-15.42,18.62-33.43-2.23-6.45-3.97-13.16-8.36-18.68h0c0-3.29-1.45-6.39-4-8.49h0l-27.26-28.65c-1-6.29-11.78-7.84-8.2-16.36l.06-.68.03.03Z"/>
  <path class="cls-145" d="M754.15,407.8c-1.16-2.74-2.9-4.94,2.39-6.49,26.94-7.94,46.36-24.55,56.01-51.37,4.42-12.16,2.52-24.55,1.9-36.91-.35-7.13-1.26-13.65,6.42-17.65,1.71-1.23,3-2.9,3.74-4.84,1.74-3.68,4.26-7.32,2.9-11.74-.52-.81-1.42-1.26-2.39-1.23-4.48,1.71-5.45,5.74-6.36,9.94-.19.84-1.29,1.48-1.94,2.23-3.71-7.03.97-13.84.97-20.81,0-4.32,3.97-1.9,6.07-.35,9.52,7,8.94,26.04-1.52,31.65-5.74,3.07-6.81,7-4.68,11.74,11.94,26.23-.58,47.04-15.71,66.24-11.87,15.29-28.84,25.78-47.82,29.62v-.03Z"/>
  <path class="cls-141" d="M347.78,640.36c-1.42,2.19-2.74,6.13-4.26,6.16-3.42,0-1.29-4.55-3.36-6.32,0-16.52.42-33.07-.19-49.62-.45-11.62,3-22.17,6.49-32.88l5.71-1.81c.32-.45.87-.68,1.42-.58h2.74l.16,2.19c0,.68-.1,1.39-.26,2.03-1.74,2.45-1.74,5.74,0,8.2.26.61.42,1.29.42,1.97l-2.36,2.42h0l-1.94-.26c-2.52,2.9-1.52,6.49-1.74,9.84-1.32,19.68.45,39.23-2.81,58.59l-.03.06Z"/>
  <path class="cls-122" d="M574.31,76.09c-20.04-6.9-40.65-8.78-61.82-8.61-10.16,0-17.75,7.2-27.52,6.68-.58-1.84-.29-3.77,1.48-4.42,29.36-10.91,58.69-22.46,90.31-8.52,4.65,1.58,8.71,4.58,11.55,8.55,1.32,2.13.71,3.94-2.03,4.48-18.78-18.71-42.07-15.26-65.05-13.29-1.16,0-2.16,1.29-3.26,1.97,1.23.52,2.48.87,3.81,1.1,12.36.71,24.75,1.74,37.14,1.84,8.94,0,15.81,4.32,22.17,9.55,3.23,2.74,7.45,7-.61,9.71.97-5.1-11.13-1.16-6.16-8.97l.32.29-.35-.39.03.03Z"/>
  <path class="cls-35" d="M738.05,256.87c-3-2.45-4.52-6.26-4.1-10.1,0-58.21-25.23-103.89-69.3-140.19-2.45-2.03-3.39-3-1.29-5.45,28.78,20.91,51.33,46.78,63.53,80.76,2.03,5.65,6.1,10.55,5.13,17.36-.58,4.1,3.77,2.74,6.16,3.52l-.48,2.74c-1.81,6.45-1.74,13.29.23,19.71.06,10.55.1,21.13.13,31.65h0Z"/>
  <path class="cls-79" d="M356.2,555.48h-2.74c-3.94-6.32,4.48-7.68,4.94-12.23l20.91-18.39,5.97-2.42c11.74-2.42,22.68-8.49,35.07-8.2,2.74,0,6.19-.68,7,2.74.81,3.42-3.39,3.55-5.29,5.19-10.49,0-19.87,4.16-29.3,8.2-15.07,1.68-23.04,13.45-32.52,23.1h0l-2.45,2.03c-.45-.23-1.06-.1-1.65,0l.06-.03Z"/>
  <path class="cls-36" d="M451.96,412.25c10.62,13.33,23.36,24.81,37.75,33.94,7.16,4.39,14.58,9.55,12.1,20.17-2.45,2.36-5.45,2.06-8.55,2.1,7.07-4.07,6.26-7.45-.19-11.81-9.74-6.16-18.94-13.13-27.46-20.91-11.39-10.91-22.71-7.71-34.78-2.74,3.26-3.39,6.58-6.71,6.84-11.81,6.74.45,9.45-5.9,14.29-8.97v.03Z"/>
  <path class="cls-141" d="M580.41,85.03c8.03-2.74,3.81-7.07.61-9.71-6.36-5.19-13.23-9.45-22.17-9.55-12.42,0-24.78-1.16-37.14-1.84-1.29-.19-2.58-.58-3.81-1.1,1.1-.68,2.1-1.87,3.26-1.97,22.97-2,46.36-5.45,65.05,13.29l.81,1.9,1.68,2.36c.61,6.55,5.03,6.39,9.68,5.45,8.42-1.42,16.97-1.61,25.46-.61,4.55.26,8.2,1.68,7.19,7.32-11.84-5-25.17-5.26-37.2-.68-6.55,2.45-9.71-1.26-13.39-4.84l-.03-.03Z"/>
  <path class="cls-108" d="M428.76,109.06c-19.62,13.29-35.39,31.59-45.69,52.95-3.97,8.2-8.2,16.13-12.29,24.2-1.39-6.26,2.74-12.42.16-18.65,12.33-27.68,33.68-47.3,57.59-64.66.06,2.06.13,4.13.23,6.19v-.03Z"/>
  <path class="cls-88" d="M454.35,501.89c.52-.16,1.03-.39,1.48-.71,10.26,3.94,12.36-.9,10.68-9.87,8.52,3.45,8.2-7.78,14.04-8.55,2.74-.81,5.45-1.55,6.61,2.32h0l-2.42,3.81h0l-3.61,2.74c-15.97,11.68-27.65,28.33-33.23,47.33l-4.13,8.45c-.87-3.03-1.77-6.03-2.74-9.07-.45-6.87,8.2-12.65,2.45-20.2.26-4.68,3.97-6.32,7.49-7.49,5.39-1.74,4.9-4.9,3.36-8.78h.03Z"/>
  <path class="cls-47" d="M323.13,393.61c23.81,13.65,49.11,20.65,76.14,13.29,11.55-3.1,16.71.68,21.1,9.68l-6.1,2.13c-1.32-6.81-5.45-6.9-11.49-5.94-28.2,4.58-57.11-.55-81.98-14.55l2.29-4.61h.03Z"/>
  <path class="cls-129" d="M737.7,205.5l.48-2.74c4.13,10.91,2.19,22.49,1.84,33.68-.45,12.58,1.39,22.13,12.81,30.62,12.91,9.55,23.81,21.59,41.17,22.75-.1.58-.16,1.16-.16,1.74-10.32,1.36-20.84-.06-30.46-4.07l-2.39-1.71h0c-4-8.42-12.81-12.07-18.62-18.71h0l-2.23-4-2.03-6.23c0-10.55-.03-21.13-.13-31.65-.1-6.55-.13-13.13-.23-19.68h-.06Z"/>
  <path class="cls-54" d="M321.26,290.04l-25.1,4.07-8.52,2.39c-5.74-1.94-6.45-7.32-8.39-11.97-.68-1.65-2.74-4.16-3.81-3.97-3.39.74-1.9,3.68-1.58,5.9.42,5.9,3.77,11.23,8.91,14.13,8.84,4.55,5.45,7.55-.87,10.62l-.32-2.74c-4-7.29-13-11.07-14.16-20.36-.77-2.94-1.13-5.97-1.13-9.03.71-4.48,2.97-9.36,7.68-9.94,5.45-.68,3.45,5.45,5.23,8.39.97,1.77,1.81,3.58,2.55,5.45l4.03,2.55h0l2.06,2.13h0l8.52,1.97h18.16l6.65.45.1-.03Z"/>
  <path class="cls-10" d="M773.38,814.95c1.39,7.87,6.13,15.97-3.61,22.49-3.29,2.19-.68,7.16-.35,10.74,1.19,12.16-.19,23.49-8.49,33.14-.23-4.07,0-8.36-4.42-10.65.77-4.07,1.52-8.2,2.32-12.2l2.13-20.71h0c6.42-5.19,4.81-11.91,3.55-18.55,4.13,2.74.74,12.23,5.65,11.07,5.74-1.39,2.23-9.39,3.13-14.42.06-.32.06-.61.1-.94v.03Z"/>
  <path class="cls-114" d="M281.61,308.56l.32,2.74c.77,2.55,2.74,5.45,2.1,7.65-6.23,18.71-.97,34.97,9.91,50.2-.23.52-.39,1.06-.52,1.65-2.74-2.74-5.45-5.9-9.78-6-3.39-6.97-5.45-14.39-9.55-21.29-7.58-12.78-1.32-24.62,7.52-34.91v-.03Z"/>
  <path class="cls-141" d="M773.38,814.95v1c-.9,5.03,2.74,13.03-3.13,14.42-4.9,1.16-1.48-8.2-5.65-11.07-5.45-6.03-4.29-13.29-3.9-20.42v-14c1.52-4.61-1.68-10.1,2.74-14.16,3.48,3.94.61,9.26,2.97,13.45.32.58.61,1.19.87,1.81,2.48,6.23-2.94,13.97,3.71,19.36-1.39,3.61-3.55,7.68,2.39,9.61h0Z"/>
  <path class="cls-100" d="M454.35,501.89c1.55,3.87,2.03,7.07-3.19,8.78-3.52,1.16-7.19,2.74-7.49,7.49-7.65-1.39-14.13,3.65-21.46,3.9,1.9-1.68,6.23-1.45,5.29-5.19s-4.36-2.74-7-2.74c-12.39-.29-23.33,5.74-35.07,8.2l-.26-3.81c18.36-6.97,37.78-10.58,57.4-10.71,5.16.1,9.42-.94,11.78-5.9h0Z"/>
  <path class="cls-70" d="M758.54,698.51c-2.74,2.36-1.39,5.68-2.16,8.49l-3.87,4.07c-4.32-1.36-3-5.58-4.29-8.49v-1.29c.77-7.13,1.55-14.2,2.32-21.29,1.42-6.58,2.55-13.23,4.39-19.68.65-2.26.97-6.81,5.78-4.48,0,1.48.13,2.97.23,4.48-.77,12.87-1.55,25.71-2.32,38.56l-.1-.35h.03Z"/>
  <path class="cls-9" d="M590.73,460.07c-.19-3.42,1.65-6.65,4.71-8.2,16.75-9.74,32.07-21.78,45.53-35.72,2.23-2.23,4.36-5.78,5.9.42-11.36,15.23-27.81,24.3-42.75,35.2-6.26,4.55-8.97,9.26-5.13,16.36l.26.65-8.2,3.71c0-1.36-.13-2.74-.23-4.13l-.13-8.32.03.03Z"/>
  <path class="cls-114" d="M321.26,290.04l-6.71-.26c4.45-3.13,9.1-6,13.84-8.65,14.55-7.19,21.07-19.68,23.94-34.81l5.97-4.1c-5.45,5.9-1.23,14.07-4.13,19.97-6.78,13.84-16.45,25.13-32.94,27.84h.03Z"/>
  <path class="cls-6" d="M333.2,835.95c4.19-7.81,8.39-15.62,12.55-23.46,1.42-1.29,2.74-2.58,4.19-3.9,1.26,1.29,3.36,1.29,4.61.03l.03-.03,3.71,6.16c-7.32,8.36-15.58,16.36-10.29,29.17-.77-.65-1.48-1.39-2.32-2-2.74-1.97-1.68-7.26-5.84-7.49-1.1,0-2.39,3.58-3.52,5.58-3.03,5.45,4.03,5.03,5,8.2h-1.77c-9.39-.29-5.55-7.49-6.39-12.26h.03ZM349.39,815.17l-.35-.74-.35.71h.71v.03Z"/>
  <path class="cls-24" d="M361.2,889.42c8.91,3.84,18.23,2.58,27.42,2.32,5.45-.16,6.71-.16,4.29,6.52-3.23,8.74-12.65,12.94-13.97,22.36l-3.9-2.03c10-16,10.52-26.55-13.33-23.78-1.52.16-3.36-2.13-5.03-3.29l4.52-2.1h0Z"/>
  <path class="cls-127" d="M358.33,242.22l-5.97,4.1c-2.03-14.29,1.32-27.97,4.23-41.81.84-4,5.07-4.55,6.26-7.84,2.81,6.65,2.68,14.13-.35,20.68l-3.26-10.42c0,3.71.23,7.42.19,11.13-.06,8.07,2.55,16.26-1.1,24.17h0Z"/>
  <path class="cls-17" d="M487.13,485.08c-1.13-3.87-3.87-3.1-6.61-2.32-1.1-2.74-1.52-5.45,2.48-6.26l.52.52-.71-.35c1.52-5.23,9.42-2.45,10.45-8.32,3.03,0,6.1.26,8.55-2.1,2.45,4.13,3.58,9.13.42,12.55-9,9.74-8.91,21.59-9.36,33.46-2.13-7-2.65-14.39-1.48-21.62.61-4.16,1.48-6.84-4.26-5.55ZM497.84,472.33c-.48-.39-.97-1-1.42-1s-.94.61-1.39.97l1.84,1.45.97-1.42h0Z"/>
  <path class="cls-124" d="M696.46,408.51l54.08-.35c-15.87,11.68-33.91,5.45-51.07,5.9-3.26.1-3.1-3.1-3-5.55Z"/>
  <path class="cls-70" d="M756.54,870.7c4.48,2.29,4.19,6.58,4.42,10.65-9.65,9.78-21.07,14.52-35.04,12.45-2.52-.35-5.97-.35-4.48,4.19l-1.48,10.07c-8.2-14.94-7.49-16.2,9.71-16.36,5.45,0,11.07.87,15.78-3.03-4.32-4.23-9.42.61-13.97-1.19,6.26-4.48,15.42-1.74,20.94-8.2l2.23-2.29-.26.26,2.19-6.45-.1-.13.06.03Z"/>
  <path class="cls-124" d="M636.52,503.69c-14.45-7.71-24.55-19.78-33.14-33.3,4.87,1.48,9.16,4.39,12.36,8.36.26,2.74-.45,6.55,4.48,3.9,6.61,5.03,10.49,13.13,18.71,16.36l-.71,1.06-1.84,3.81.13-.16v-.03Z"/>
  <path class="cls-122" d="M485,74.15c-14.91,5.45-27.55,15.07-40.91,23.36l-5.26-3.19c14.74-8.2,27.26-21.52,46.17-20.2v.03Z"/>
  <path class="cls-142" d="M719.95,908.06l1.48-10.07c5.65,8.94,12.94,16.84,16.84,26.84l-2.74,5.19-15.62-21.97h.03Z"/>
  <path class="cls-36" d="M719.24,961.95l22.88-22.39c1.68,11.74-11.16,24.2-22.88,22.39h0Z"/>
  <path class="cls-127" d="M361.2,889.42l-4.52,2.1c-7.65-9.03-16.36-17.55-14.68-30.97,8.71,8.1,9.97,21.13,19.2,28.88Z"/>
  <path class="cls-31" d="M293.41,370.67c.13-.55.29-1.1.52-1.65,8.2,10,17.36,18.91,29.2,24.55l-2.29,4.61.16-.19c-.61-.77-1.29-1.48-1.94-2.26h0l-6.45-1.84-12.71-10.45-1.81-4.26h0l-4.13-2.13h0c-.26-2.1-.42-4.26-.61-6.42l.06.03Z"/>
  <path class="cls-93" d="M649.39,518.44c0-8.74-12.03-6.81-12.84-14.74h0c.61-1.29,1.23-2.55,1.84-3.81l.71-1.06c2.23,8.55,8.2,11.29,16.49,11.26,3.77-.35,7.49,1.03,10.1,3.81l-2.03,4.19c-4.87-1.9-9.55-.68-14.23.35h-.03Z"/>
  <path class="cls-145" d="M741.99,551.41c-4.03-4.74-7.42-10.45-12.36-13.94-4.16-2.97-2.74-5.45-2.19-8.74,8.2,4.39,12.68,12.13,18.23,18.97,1.1,1.58,2.1,3.23,2.97,4.94l-6.65-1.23h0Z"/>
  <path class="cls-120" d="M379.43,524.76l-20.91,18.39c.97-13,12-16.84,20.71-22.71.06,1.45.13,2.9.19,4.32Z"/>
  <path class="cls-24" d="M362.49,217.34c3.03-6.55,3.16-14.04.35-20.68v-10.2c3.26,0,4.07,5.03,7.94,3.84-1.55,9.49-4.48,18.78-4.23,28.55-.32,1.45-1.1,2.81-2.19,3.81-2.39-1.06-1.77-3.36-1.84-5.36l-.03.03Z"/>
  <path class="cls-82" d="M793.84,291.62c0-.58.06-1.16.16-1.74h.13l5.78.32v4.03c.39,3.29,3.07,1.13,4.48,1.84-2.68,2.74-6.39,4.23-10.2,4.03-4.52,0-11.45,2.74-12.87-1.65-.97-2.9,6.74-1.52,10.32-2.9,1.61-.35,2.61-1.97,2.26-3.58,0-.13-.06-.26-.1-.35h.03Z"/>
  <path class="cls-105" d="M370.69,190.34c-3.87,1.19-4.68-3.81-7.94-3.84.16-7.13,3.1-13.94,8.2-18.94,2.55,6.26-1.55,12.42-.16,18.65l-.1,4.13h0Z"/>
  <path class="cls-140" d="M438.8,94.35l5.32,3.13-15.36,11.58c0-2.06-.16-4.13-.23-6.19l10.26-8.55v.03Z"/>
  <path class="cls-145" d="M466.48,491.3c1.68,8.97-.42,13.81-10.68,9.87l10.68-9.87Z"/>
  <path class="cls-129" d="M799.9,290.13l-5.78-.32c1.26-1.16,2.58-2.19,4-3.13,2.74-1.48,6.07-6.71,8.2-3.1,2.94,4.71-3.97,4.45-6.42,6.58v-.03Z"/>
  <path class="cls-127" d="M293.41,370.67c.19,2.16.42,4.32.61,6.49-5.16-2.42-8.97-7-10.39-12.49,4.42.1,6.97,3.29,9.78,6Z"/>
  <path class="cls-23" d="M375.08,918.61l3.9,2.03c-2,2.29-5.58,4.68.32,6.55l-4.13,6.19c-2-6.26-4.16-1.9-6.29,0l-.55-2.03c1.97-3.87,6.97-7,3-12.33l3.77-.39-.03-.03Z"/>
  <path class="cls-144" d="M371.3,918.87c3.97,5.32-1.03,8.45-3,12.33-3.1-4.97-3.07-9.42,3-12.33Z"/>
  <path class="cls-101" d="M414.31,418.71l6.1-2.13c-.55,5,3.84,5.87,6.71,8.03-6.55,3-9.58-1.68-12.78-5.9h-.03Z"/>
  <path class="cls-132" d="M647.36,416.19c2.23,0,4.48-3.52,6.45-1.03,2.39,3.1-.35,6.52-.87,9.81l-5.55-8.78h-.03Z"/>
  <path class="cls-59" d="M364.69,935.52l.19,5.84-2.39-1.65-1.84-2.26c.45-2.19.94-4.42,1.42-6.61l2.55.29v4.36l.06.03Z"/>
  <path class="cls-55" d="M735.63,930.07l2.74-5.19c2.74,2.74,6.26,5.26.19,8.2l-2.9-2.97-.03-.03Z"/>
  <path class="cls-72" d="M379.43,524.76c0-1.45,0-2.9-.19-4.32l5.9-1.87c0,1.29.19,2.55.26,3.81l-5.97,2.42v-.03Z"/>
  <path class="cls-129" d="M804.39,296.01c-1.45-.74-4.13,1.45-4.48-1.84,2.94-.39,5.9-1.87,8.81,0l-4.32,1.84Z"/>
  <path class="cls-101" d="M661.36,99.06c-5.19,3.23-6.78,1.16-6.13-4.19l6.13,4.19Z"/>
  <path class="cls-127" d="M339.59,848.31h1.77l.26,10.23-2.03-10.23Z"/>
  <path class="cls-46" d="M620.22,482.62c-4.94,2.74-4.23-1.16-4.48-3.9l4.48,3.9Z"/>
  <path class="cls-36" d="M723.24,969.21c-3.71-1.06-8.78-1.36-4.13-7.2l4.13,7.2Z"/>
  <path class="cls-114" d="M296.48,289.81l-8.52-1.97,8.52,1.97Z"/>
  <path class="cls-1" d="M352.17,555.93l-5.71,1.81,5.71-1.81Z"/>
  <path class="cls-47" d="M312.55,393.8l6.45,1.84-6.45-1.84Z"/>
  <path class="cls-144" d="M364.69,931.13l-2.55-.29c1-1.48,1.9-1.71,2.55.29Z"/>
  <path class="cls-127" d="M298.13,379.25l1.81,4.26-1.81-4.26Z"/>
  <path class="cls-114" d="M285.86,285.75l-4.03-2.55,4.03,2.55Z"/>
  <path class="cls-127" d="M294.03,377.15l4.13,2.13-4.13-2.13Z"/>
  <path class="cls-122" d="M588.67,78.38l-1.68-2.36,1.68,2.36Z"/>
  <path class="cls-114" d="M287.9,288l-2.06-2.13,2.06,2.13Z"/>
  <path class="cls-144" d="M368.53,933.1l-1.84,1.94,1.84-1.94Z"/>
  <path class="cls-55" d="M740.15,935.36l-1.68-2.39,1.68,2.39Z"/>
  <path class="cls-144" d="M360.69,937.46l1.84,2.26-1.84-2.26Z"/>
  <path class="cls-59" d="M364.82,941.26l1.61,2.39-1.61-2.39Z"/>
  <path class="cls-47" d="M319.07,395.77c.65.77,1.32,1.48,1.94,2.26-.61-.77-1.29-1.48-1.94-2.26Z"/>
  <path class="cls-68" d="M518.36,923.07c-1.1-5.68-5.29-6.61-10.1-6.45-9.91.42-19.84.61-29.72,1.48-10.49.94-20.04,1.23-28.26-7.74-6.78-7.42-16.87-3.45-25.55-4.1-5.45-.39-10.91,0-16.36,0,.84-7.32,6.23-8.2,12-8.39,7.19.29,14.39-.45,21.36-2.26l3.74,2.39c2.13,7.32,9.74,6.81,14.58,10.23l3.71,2.45c2.42,2.48,5.45,1.06,8.2,1.23l37.98.26c4.84.35,10.16-.68,12.84,5.07,1,3.94-1.32,5.16-4.39,5.78l-.03.06Z"/>
  <path class="cls-64" d="M709.05,902.35l4.87,7.71c-8.61,2.94,4.65,7.71-.9,10.91l-1.97-.19-2.03-2.03h0l-2.03-2.06h0l-2.19-2c-.61,0-1.26-.13-1.84-.26-4.19-11.58-12.26-4.07-18.87-3.84l-24.55.42-3.03-1.16c4.71-.58,9.42-1.1,14.13-1.77,1.45-.32,2.87-.77,4.26-1.32-1.29-.32-2.61-.55-3.94-.68-12.26,0-24.55-.19-36.72-.29v-1.61l5.97-.42h18.62c5.84-.39,11.94,2.16,17.49-1.61-5.32-4.29-11.55-1.19-17.29-2.03l-18.58-2.19v-2.06l10.49-.26c15.23,2.16,30.65,2.61,45.94,1.36,4.84-.32,7.84.71,10.1,4.68.55.94.61,2.74,2.06.68l.03.06Z"/>
  <path class="cls-128" d="M752.41,879.19c-5.45,6.42-14.68,3.65-20.94,8.2l-47.2.45c-14.62-1.71-29.72,1.71-43.91-4.16,28.2-.74,56.43-1.71,84.57-2.1,9.23,0,17.81-1.32,25.65-6.42l1.94-2.32.26-6.07,1.84-4.29c-.03-.61-.03-1.23,0-1.84l4.19-2.1c-.81,4.07-1.55,8.2-2.32,12.2h0l-2.19,6.45.26-.26-2.03,2.29-.1-.03Z"/>
  <path class="cls-83" d="M572.12,962.27c-2.42,10.1-8.65,16.16-19.1,17.39-11.2,1.32-19.1-3.61-24.55-13.26,0-4.42-.74-9.07.45-13.13,1.55-5.45,2.74-1.1,3.81.77-.1.65-.1,1.29,0,1.94l2.06,4.07c12.42,10.68,23.3,9.97,30.91-1.97l6.45,4.19h-.03Z"/>
  <path class="cls-37" d="M572.12,962.27l-6.26-4.19c-1.36-3.45-2.74-6.87-4.13-10.32l2.06-2.06h2.13c-1.61-3.45-2.74-7.68-8.03-4.52l-1.9,2.13c-10.71-2.94-18.1,1.26-23.04,10.71-1-1.84-2.23-6.1-3.81-.77-1.16,4.1-.35,8.74-.45,13.13-6.1-14.52-2.42-25.84,10-30.88,15.13-6.1,31.43,0,36.14,13.91,1.48,4.65,2.55,9.55-2.74,12.84l.03.03Z"/>
  <path class="cls-41" d="M728.05,928.97c8.2,9.55.74,15.75-5.29,21.26-14.81,13.65-32.91,22.13-50.85,30.81l-.97-.97c.03-2.45,1.29-4.68,3.36-6,14.45-7.71,27.68-17.39,41.72-25.65,4.13-2.26,7.03-6.26,7.84-10.91l1.68-2.29h0l1.74-2.16c-.42-1.42-.84-2.74-1.29-4.23l2.03.1.03.03Z"/>
  <path class="cls-25" d="M663.39,984.98c-8.39,4.13-17.13,7.78-25.13,12.55-9.13,5.45-15.2,2.39-19.78-5.74-3.61-6.36-8.91-11.81-10.49-19.26l1.68-4.19c18.78,29.04,19.1,29.26,41.4,17.71,4.13-2.16,7.9-4.94,11.87-7.42l.48,6.32-.03.03Z"/>
  <path class="cls-65" d="M543.01,912.16l-16.36.45-4.23-6.36c23.59,4.48,47.24-1.39,70.92.29-.16.52-.32,1-.45,1.52l-3.84.29-46.01,3.81h-.03Z"/>
  <path class="cls-115" d="M600.64,960.62c-6-12.33-13.03-24.2-16.04-37.81-.97-9.87,5.07-10.91,12.62-9.84,0,.52,0,1.03-.19,1.58-15.49,2.9-5.45,12.68-4.36,18.97,1.68,9.07,9.97,16.1,9.26,26.23l-1.32.87h.03Z"/>
  <path class="cls-60" d="M640.36,883.61c14.2,5.9,29.3,2.45,43.91,4.16-9.32,2.87-18.97,1.13-28.43,2.03-3.03.29-9.16-1.03-4.74,5.78l-10.49.26c-.52-.16-1.1-.23-1.65-.16l-8.74-6.07,5.1-2.32-5.03-2.13v-1.36l8.2-.39.87.19h1Z"/>
  <path class="cls-107" d="M597.22,912.97c-7.55-.97-13.65,0-12.62,9.84-1.87-8.2-6.74-10.91-15.23-10.29-8.81.32-17.58.19-26.36-.39l45.85-3.81c13.65,5,27.78.42,41.56,2.39l-33.2,2.19v.06Z"/>
  <path class="cls-114" d="M522.33,906.26c1.42,2.13,2.74,4.26,4.23,6.36l-3.68,4.81c-2.74-5.74-8.03-4.71-12.84-5.07v-1.68l-.45-.55c2.23,0,4.65,1.26,6.52-.97-1.71-.97-3.55-1.71-5.45-2.19-3.03-.29-6.07-.42-9.1-.39l-4.16-.26c-5.23-1.94-10.81-2.71-16.36-2.26l-6.78-3.42,1.03-1.03,7.71.45,39.3,6.26.03-.06Z"/>
  <path class="cls-114" d="M395.79,956.01c8.2,5.87,16.36,11.68,24.39,17.65,2.1,1.55,1.06,3.61,0,5.45l-26.42-17.39,2.03-5.71Z"/>
  <path class="cls-129" d="M441.32,991.4c11.39-1.23,20.97,4.61,31.14,8.2-2.36,3.26-3.58,6.87-9.23,2.74-6.52-4.68-14.55-7.36-21.91-10.91v-.03Z"/>
  <path class="cls-129" d="M481.1,987.21c-7.13-10.42,4.48-12.84,8-18.78.87,2.36,1.71,4.68,2.55,6.97l-10.55,11.78v.03Z"/>
  <path class="cls-68" d="M506.33,945.46c-.35-9.87,8.2-14.97,12.1-22.55.32,9.87-3.29,17.58-12.1,22.55Z"/>
  <path class="cls-20" d="M713.05,921c5.45-3.23-7.71-8,.9-10.91l12.1,16.52-.97,1.23c-6.26,1.68-8.55-3.58-12.07-6.84h.03Z"/>
  <path class="cls-42" d="M497.39,966.37c-1.68-7.39-1.45-13.65,8.39-14.42l-8.39,14.42Z"/>
  <path class="cls-115" d="M376.95,947.88c8-1.61,12.45.68,10.71,9.78-3.26-3.61-8.61-4.87-10.71-9.78Z"/>
  <path class="cls-115" d="M374.79,935.04c2.29,4,6.1,7.74,2.19,12.78-4.94-3.55-7.97-7.42-2.19-12.78Z"/>
  <path class="cls-115" d="M609.64,968.33l-1.68,4.26c-2.45-3.97-4.9-7.94-7.32-11.91l1.32-.87,7.68,8.55v-.03Z"/>
  <path class="cls-42" d="M491.65,975.34c-.84-2.32-1.68-4.65-2.55-6.97,0-.61,0-1.29.23-1.9l1.9-2.19,5.61,3.77-5.19,7.32v-.03Z"/>
  <path class="cls-129" d="M472.52,999.53c2.52-3.55-1.97-12.42,7.94-10.36l-7.94,10.36Z"/>
  <path class="cls-129" d="M433.35,987.05c3.94-.84,10.2-6,8,4.36l-8-4.36Z"/>
  <path class="cls-115" d="M395.79,956.01l-2.03,5.74-4.16-3.71c1.42-2.71,3.32-3.9,6.23-2.03h-.03Z"/>
  <path class="cls-114" d="M420.38,979.21c2.9,0,8.65-4.78,6.52,3.81l-6.52-3.81Z"/>
  <path class="cls-114" d="M426.89,983.01c3.07-.16,8.39-3.9,6.32,4.03l-6.32-4.03Z"/>
  <path class="cls-41" d="M663.39,984.98l-.48-6.32c1.94-1.03,4.32-.39,5.45,1.48l-1.16,1.42-3.81,3.45v-.03Z"/>
  <path class="cls-20" d="M709.05,902.35c-1.45,1.94-1.52.26-1.9-.68l1.9.68Z"/>
  <path class="cls-41" d="M671.91,981.11c-1.42,2.19-3.1,1.84-4.84.45l1.16-1.42h2.74l.97.97h-.03Z"/>
  <path class="cls-20" d="M726.05,926.58l2,2.42-1.97-.26c-.35-.29-.68-.61-.97-.97l.97-1.23-.03.03Z"/>
  <path class="cls-142" d="M451.7,184.21c1.39-12.97,12.62-17.71,20.84-24.94-2.16,7.97-2.1,14.84,8.2,16.58-1.32,2.74-.39,3.32,2.23,2.32l1.97,3.68c.68.77,1.39,1.52,2.06,2.32l4.29-.26h0l1.87,2.36c-3.77,3.97-5.74,9.29-5.45,14.74.13,8.2-3.19,12.1-11.71,10.45-.61-.03-1.23-.03-1.84,0h0c-2.39-1.58-4.58-3.9-7.94-2.74l-2.1.71c-2.74-1.32-3.74-7.94-8.36-2.42h0c-.68,0-1.32.1-1.97.32-2.19-3.45.26-6.78.19-10.2,1.61-1.1,2.74-2.39,1.77-4.48l-4.1-8.39.03-.06Z"/>
  <path class="cls-20" d="M526.62,850.34c2.29.94,4.87.65,6.87-.81,6.32-3.48,5.84-.55,10.39.26,8.2,1.45,12.68,11.78,22.29,8.32,8.2-2.94,4.84-10.45,6.52-15.97.71-2.32,1.26-4.68,1.87-7,1.9,6.58,3.58,13.26,5.78,19.75,3.65,10.65.16,14.55-10.68,11.91-9-2.55-18.49-2.87-27.62-.94-1.03.26-4.39,2.48-3.48-1.9,1.68-8.2-2.26-10.91-11.39-7.97-11.71,3.84-20.88,12.94-33.07,15.78-17.87,4.13-35.46,9.78-54.01,9.97l-15.39-2.52c11.97-3.61,24.55-3.71,36.78-4.65,22.88-1.71,40.65-11.49,56.66-26.39,2.13,2.36,5.45,3.23,8.49,2.19v-.03Z"/>
  <path class="cls-135" d="M582.44,480.85l4.39,26.78c-.97,4.55,1.65,9.13,6.1,10.55,1.55,12.16,6.61,24.75-4.1,35.46-3.52-3.77-7.03,1.29-10.55,0,1.23-1.65,2.71-3.1,4.39-4.29,10.55-5.45,11.39-12.26,4.39-21.49-5.32-7.32-8.16-16.13-8.2-25.17-.23-9.2-4.48-11.42-12.94-11.58-17.87-.29-35.85,2.16-53.59-1.58l-.58-.74c0-6.61,3.65-7.61,9.42-7.32,14.68.77,29.36.61,44.01,1.42,9.1.52,13.65-3.03,13.45-12.1h0l3.77,10.07h.03Z"/>
  <path class="cls-51" d="M591.06,182.08c-24.55,28.81-54.75,50.78-86.15,71.34-3.68,2.42-7.39,3.61-11.55,1.26,3.84-7.23,13.16-9.1,16.36-16.84l12.87-9.61c16.36-6.19,29.36-17.33,41.85-29.13,1.97-1.97,3.9-3.97,5.87-5.94l1.81-2.74c3.26-3.58,6.52-7.16,9.78-10.91l6.74.35,2.39,2.26.03-.03Z"/>
  <path class="cls-77" d="M434.96,165.56c20.97,8.55,6.97,18.29.81,27.59-2.06,2.68-4.29,5.23-6.71,7.58-4.26-3.39-11.58-4.19-10.23-12.26,3.19-4.74.29-8-3.29-9.94-3.39-1.58-5.48-5.07-5.32-8.81-.97-5.74,4.26-8.2,6.32-12.45h0l2.13-2.06h0c.65.06,1.29.06,1.94,0h0l14.39,10.36h-.03Z"/>
  <path class="cls-138" d="M447.51,381.31c0,.68,0,1.32.16,2l2.03,2.13v2.03l2.03,2.03c.13,1.39.26,2.74.39,4.13l1.74,2.03,2.36,4.19,1.74,2.03h0l1.97,2.03c.16.68.29,1.36.35,2.03l1.68,2,.19.19,1.9,1.97h0c.65.68,1.32,1.32,2.03,2,26.23,25.84,56.88,43.65,93.47,50.14-13.29,3.39-26.46.45-38.01-4.84-44.36-20.36-76.5-52.24-89.18-100.92,0-.74.23-1.48.35-2.26l6.16-1.97.42,10.13,1.87,6.26h0l2,2.13v2l1.94,2.19c0,1.32.16,2.74.23,4l2.19,2.39-.03-.06Z"/>
  <path class="cls-106" d="M487.42,680.28c3.26-8.68,11.91-7.45,17.68-7.13,26.46,1.32,51.24-10.91,77.73-8.58,8.81.81,17.84-1.84,26.68.87-19.46,9.1-40.65,5.58-60.95,8.36-20.29,2.74-40.88,4.29-61.14,6.52v-.03Z"/>
  <path class="cls-144" d="M638.58,829.69c-.55,5.1-2.16,9.16-7.97,10.49-9.45,2.1-7.74,6.26-2.19,11.65,2.74,2.74,8.81,5.26,6.42,8.97-2,3.07-7.97-.32-11.1-2.23-16.65-10.1-22.78,6.07-32.72,12.45,0-4.81.26-9.61.19-14.39,0-3.36.9-7.29,4.16-7.32,17.26-.35,27.2-16.65,43.2-19.58v-.03Z"/>
  <path class="cls-85" d="M634.71,513.89c-10.29,3.81-10.71-9.26-18.23-10.74-2.74-.58-4.52-6.03-8.58-3.71-3.52,2-2.36,6.16-2.48,9.49-.26,20.36-1.71,40.69-4.39,60.88-.71,4.39-1.13,8.94-4,12.68,1.03-15.75,1.68-31.49,3.29-47.14,1.23-14,.81-28.1-1.29-42.01l8.42-8.2,27.26,28.72v.03Z"/>
  <path class="cls-66" d="M578.6,470.75c0,9.1-4.32,12.62-13.45,12.1-14.65-.81-29.36-.65-44.01-1.42-5.78-.29-9.49.71-9.42,7.32-.52.16-1,.29-1.52.42-.19-.65-.32-1.32-.39-2.03,0-18.39,0-17.78,17.52-14.65,17.07,3.13,34.46,6.07,51.3-1.74h-.03Z"/>
  <path class="cls-6" d="M476.16,211.38c8.52,1.68,11.84-2.32,11.71-10.45-.29-5.45,1.68-10.81,5.45-14.74h14.71l2.39,2.1c.45,10.91-10.03,15.97-13.03,25.01l-8.49,8.2-8.2-1.84c.06-.68.06-1.32,0-2l-1.9-2.06-2.68-4.19h.03Z"/>
  <path class="cls-45" d="M489.29,534.92c-.45-9.61.52-19.29-2.03-28.75-.74-2.74-1.55-5.45-4.94-5.78-2.74-.29-3.9,2.74-5.68,3.45-13.94,5.81-18.42,18.29-22.84,30.94l-5.94,4.13c5.55-19,17.23-35.62,33.2-47.33l3.61-2.74h0l2.42-3.81h0c5.61-1.29,4.84,1.39,4.26,5.45-1.16,7.23-.68,14.62,1.48,21.62.81,11.68,1.61,23.33,2.42,34.97h-3.9c0-2-.16-4-.26-6.03-.58-2-1.16-4.1-1.81-6.19v.06Z"/>
  <path class="cls-73" d="M394.02,777.46c10.91,0,12.33,14.2,22.71,14.87-3.9,2.74-9.65,1.61-12.62,6.19l-29.04-10.65-14.81-6.03-1.68-2.45v-1.45c11.52-3.48,21.62,1.42,31.88,5.45,2.36.9,5.45,2.74,7.1-.45.45-1.06-2.29-3.65-3.55-5.52v.03Z"/>
  <path class="cls-29" d="M673.59,158.88c-2.58,4.48,2.19,13.65-8.42,13.13.26,2,.48,3.97.71,5.97-6.1-2.19-13.07-.52-18.78-4.26v-4.03l3.71-4.42h0l8.68-14.04h-.13c.74-.77,1.48-1.48,2.19-2.26h0c.55,0,1.1-.1,1.61-.32,8.03-1.1,8.91,4.94,10.49,10.23h-.06Z"/>
  <path class="cls-128" d="M588.73,873.02c-.29.16-.58.35-.87.58-4.94,3.55-11.58-.61-16.36,3.71,5.45,3.81,11.87,1.71,17.75,2.9,16.36,3.26,33.07-1.45,49.27,3.26l-8.2.39c-28.26-.97-56.53-1.84-84.76-3.19-3.65-.16-12.16,2.55-8.2-7.29l51.33-.32.03-.03Z"/>
  <path class="cls-30" d="M687.98,800.11c3.97-9.16,4.36-17.65-1.16-26.94-2.74-4.58-4.84-8.2-10.1-8.74-4.78-.58-9.61-.94-14.42-1.03-20.68-.23-21.07.29-17.87,21.07-7.07-5.45-7.74-13.42-5.65-20.46,1.84-6.26,9.52-3.71,14.62-4.32,8.2-.94,16.68-2.26,24.55-.77,9.26,1.77,17.26,6.78,16.36,18.81-.45,6.81,0,13.65.13,20.55l-6.03,2.29-.45-.52.03.06Z"/>
  <path class="cls-20" d="M441.64,895.77c-6.97,1.81-14.16,2.55-21.36,2.26-5.78,0-11.16,1.06-12,8.39-9.65,6.1-14.58,18.46-27.26,20.42,6.1-8.2,12.03-16.36,18.26-24.3,8.16-10.49,33.07-14.36,42.36-6.78h0Z"/>
  <path class="cls-98" d="M564.44,199.02c-12.49,11.81-25.46,22.94-41.85,29.13-.35-2.03-4.16-3,.42-6.19,11.74-8.2,22.33-17.84,33.62-26.62,2.55-1.97,5.03-6.19,8.32-4.61,1.84.87-2.87,5.19-.52,8.29h0Z"/>
  <path class="cls-61" d="M777.54,337.63c.19-.26.35-.65.61-.81,4.97-2.87,2.06-14.29,6.71-12.07,6.49,3.13,5.45,12.81,4.32,20.26-.35,1.65-.87,3.26-1.48,4.84-2.74,4.58-8.2,4.19-12.13,6.32h0l-2.16-1.87-6.23-.16c3.87-5.1.35-15.07,10.32-16.52h.03Z"/>
  <path class="cls-75" d="M590.7,441.36c18.87-12.65,35.14-28.81,47.88-47.62,5.45,3.58-.39,7.29.16,10.91-8.71,14.87-21.97,24.97-35.72,34.65-2.58,0-4.94,1.48-6.03,3.81l-2.03.45-4.29-2.23.03.03Z"/>
  <path class="cls-140" d="M505.65,791.75l-87.28,10.52c4.39-7.36,12.42-4.87,18.55-5.9,24.91-4.26,50.01-7.2,75.05-10.65l-6.32,6.03h0Z"/>
  <path class="cls-89" d="M425.22,768.68l-15.13-23.59c.9-2.03,2.06-3.77,4.65-2.74,10.32,3.97,23.88,36.14,19.1,45.88-3.19,6.36-9.61,3.58-14.87,3.97.03-.68.03-1.36,0-2.03l-.13.13c14.2-4.68,15.42-8.68,6.42-21.65l-.03.03Z"/>
  <path class="cls-62" d="M485.03,181.82l-1.97-3.68-.16-2.32,2.06-2.1h0l-2.1,2.06h-2.1c-10.36-1.74-10.42-8.61-8.2-16.58h-.13c2.03-.61,3.32-1.65,2.29-4,3-4.19,7.39-7.2,12.39-8.45h0c-1.06,4.71-3.48,9.03-6.97,12.42-1.61,1.87-5.45,3.81-2.9,6.68,1.45,1.68,4.94,1.97,7.55,2.26,1.58.16,3.45-1.58,4.9-1.23,5.45,1.36,9.07-4.13,14.2-3.55-5.84,4.45-5.65,14.33-14.55,16.07-.84.16-1.45,1.36-2.19,2.1v1.16l-2.19-.84h.06Z"/>
  <path class="cls-129" d="M356.62,864.44c5.74-8.81-.55-20.07,5.84-28.78.19,3.52-.61,7.26,2.29,10.16v6.39c1.32,2.32.68,7.52,5.9,3.97-.06,1.71-.26,3.39-.58,5.07-3.18,12.02,1.67,18.05,14.55,18.07h23.65c-16.36,2.74-32.46,4.48-48.33-1.94l.23.16-1.65-2.55c-.35-.42-.48-.97-.45-1.52l-2.19-4.55v.13c0-1.48.19-2.9.26-4.39l.45-.23h.03Z"/>
  <path class="cls-71" d="M537.21,873.35c-3.87,9.84,4.65,7.13,8.2,7.29,28.23,1.36,56.5,2.19,84.76,3.19v1.36c-12.91.97-25.94-1.61-38.72,1.77l-3.68.87-40.3-2.52-14.65-2.36h.26l-6.61-2.1c4.68-1,5.58-7.2,10.81-7.52h-.06Z"/>
  <path class="cls-42" d="M359.98,877.51c15.87,6.45,32.07,4.71,48.33,1.94l16.36-.26,15.39,2.52c-23.46,5.74-47.24,4.52-70.92,3.74-4.65.42-8.74-3-9.13-7.65v-.26l-.03-.03Z"/>
  <path class="cls-105" d="M646.49,790.17c4.61,13.39,15.52,11.91,26.17,11.03l15.33-1.1.58.52c-2.26,1.19-3.13,4-1.94,6.26,0,0,0,.06.03.1-5.45,5.26-12.49,2.26-18.75,3.39-4.32-.94-8.74-1.68-12.97-2.74-4.78-1.29-11.03-1.45-8.42-9.42v-8.03h-.03Z"/>
  <path class="cls-7" d="M638.74,404.67c-.55-3.65,5.45-7.36-.16-10.91v-2.19l1.9-2.03h0c6.65,1.26,4.78-2.94,4.1-6.39,0-.61,0-1.23.13-1.84l2.03-2.19c4.9-7.78,9.84-15.45,11.65-24.75.32-3.87,2.87-7.16,6.52-8.45-.55,4.13-1.1,8.2-1.68,12.42h0l-1.87,2.23c-5.48,15.68-9.78,32.07-22.65,44.07l.03.03Z"/>
  <path class="cls-59" d="M619.93,823.34c6.65-3.23,8.81-8.55,8.45-15.81-.61-13.03,1.39-26.42-6.45-38.17,5.29,1.74,8.91,6.68,8.91,12.26.84,9.87,3.1,19.62,4.23,29.46,1.36,11.55-4.9,14.55-15.13,12.29v-.03Z"/>
  <path class="cls-49" d="M379.27,748.32c12.87,5.13,26.2,9.45,35.46,20.88.81,4.19,7.9,6.13,4.23,11.91l-16.84-15.97-2.03-2.1h0c-7.13-5.68-15.07-1.03-22.62-1.81,4.26-3.26,4.39-3.48.68-5.84-3-1.9-1.16-4.29-1.23-6.45l2.39-.61h-.03Z"/>
  <path class="cls-60" d="M647.1,173.72c5.74,3.74,12.71,2.06,18.78,4.26,2.16,3.1,5.07,6.58,2,10-2.74,3.03-5.45,0-7.9-1.87-3.26-2.74-3.81-2.55-3.03,2,.97,5.68-.84,9.58-7.81,6.49l1.94-2.03c.61-1.32,1.23-2.74,1.84-4-2.45-3.65-1.39-15.78-10.2-4.26-.68,0-1.36-.13-2.03-.26l-1.87-2.03c-.03-.65-.03-1.29,0-1.94l1.77-2.19h0l2.1-1.97,2-2.19h0l2.42.06v-.06Z"/>
  <path class="cls-53" d="M665.55,279.55c-.97-7.36-12.07-4.45-12.52-12.33,12.39-1.36,19.1,4.13,19.1,16.62-.26,14.71-1.32,29.43-2.03,44.17-2.06-16.1-2.87-32.3-2.39-48.53.58-1,1.16-2,1.68-3.03l-.77-.48-.9,3.58h-2.19.03Z"/>
  <path class="cls-118" d="M304.19,348.4c-.32-.61-.61-1.23-.87-1.87-2.45-7.68,0-14.71,2.74-21.81,6.07,5.87,14.94,6.52,21.33,11.52,2.87,2.23.26,3.32-2,3.42-3.03,0-5.45.81-6.26,4.1-7.61-7.19-12.13-4.13-14.91,4.68l-.03-.03Z"/>
  <path class="cls-15" d="M394.02,777.46c1.26,1.84,4,4.45,3.55,5.45-1.61,3.23-4.74,1.32-7.1.45-10.29-3.97-20.36-8.87-31.88-5.45.61-2.74,13.97-4.16.39-9-3.16-1.16,3.71-5.29,7.81-5.87-2.48,6.07,1.97,6.71,6,7.9,7.13,2.13,14.16,4.36,21.26,6.52h-.03Z"/>
  <path class="cls-110" d="M416.5,644.72l4.1.26c-2.19,2.19-4.32,4.39-6.49,6.58l-5.71-11.29-4.32-12.1c-.61-4.16-1.29-8.39-1.9-12.58h0l3.19-7.42c.45.65.84,1.32,1.16,2.03,2.26,6.16,7.32,11.07,7.87,17.97,1.36,5.49-1.68,11.49,2.13,16.58l-.03-.03Z"/>
  <path class="cls-129" d="M453.77,617.72c5.61,19.91,7.03,20.75,27.68,21.07,10.91.13,21.81-1.84,32.55,1.61-17.52-.45-35.14,2.48-52.62-1.42-2.26-.52-5.03,1.16-7.52,1.84,2.06-13.36-10.68-5.45-14.68-10.32,5.87,0,8.39-4,10.45-8.58l2.32-3.84,1.81-.32v-.03Z"/>
  <path class="cls-130" d="M491.39,547.12h3.9l2.23,10.36c.94,7.19,3,14.23,6.1,20.78h0l1.74,2.58c1.13,5.45-.9,11.71,4.07,16.16-8.81-3.07-10.36-11.68-12.52-18.68-3.07-9.91-3.81-20.65-5.55-31.23l.03.03Z"/>
  <path class="cls-7" d="M665.55,279.55h2.13c-.48,16.2.29,32.43,2.39,48.53-.26,3.77-.52,7.49-.81,11.26-2.16.71-3.77,2.52-4.19,4.78-2.77-3.55-3.77-8.2-2.74-12.58,3.42-17.2,3.52-34.59,3.23-51.98Z"/>
  <path class="cls-20" d="M573.92,829.5c-10.36-10.91-4.36-24.55-5.9-37.04-.35-4.07-.48-8.13-.42-12.2l4.68-.61,1.68,49.85h-.03Z"/>
  <path class="cls-90" d="M576.38,682.28c-7.9,12.26-21.42,13.65-35.23,3.74l35.23-3.74Z"/>
  <path class="cls-32" d="M733.92,800.78c-7.39-2.55-15.1-2.23-22.75-2.48v-6.1c11.45-4.97,22.65-5.13,33.39,1.9-2.84,3.19-6.52,5.52-10.65,6.68ZM727.44,795.94l2.03-1.26c-.52-.68-1.13-1.29-1.84-1.81-.29-.16-1.06.58-1.61.9l1.42,2.16Z"/>
  <path class="cls-24" d="M572.25,779.62l-4.68.61c-21.39-.13-41.56,6.13-61.92,11.49l6.26-6.03c17.49-2.9,34.23-9.84,52.3-9.45,3.16,0,7.23-2.23,8,3.39h.03Z"/>
  <path class="cls-48" d="M777.54,337.63c-9.97,1.48-6.36,11.42-10.32,16.65-4.84-.87-13.65,2.16-12.91-4.36.55-4.16,3.77-15.94,15.13-12.36,2.68.42,5.42.45,8.1.1v-.03Z"/>
  <path class="cls-43" d="M410.24,152.94c4.32-9.32,12.62-15.26,19.49-22.39.77-.81,2.23-.97,3.36-1.42-.26,1.23-.71,2.42-1.32,3.52-4.32,5.94-9.97,11.78-.77,18.29-4.1-1.48-8.65.42-10.49,4.39h-1.94l-2.13,1.74h0l-6.26-4.13h.06Z"/>
  <path class="cls-76" d="M622,769.26c-2.06-2.42-5.68-2.77-8.2-.81-10.26,6.1-21.81,7.36-33.36,7.1-.26-4.1,2.32-4.9,5.71-5.45,9.32-1.84,18.65-3.81,27.88-6.07,5.03-1.32,8.23-.87,7.97,5.23h0Z"/>
  <path class="cls-140" d="M493.39,281.26l-12.65-3.55c0-.61-.19-1.23-.32-1.84l.61-.65c5.97-1.71,11.91-.61,17.91,0,3.39.35,7.74,2.03,8.65-3.74,3.45,2.03,8.71,4.55,5.68,8.91-4.71,6.68-11.87,3.45-18.23,1.52l4.71-.81c-.52-.61-.97-1.68-1.58-1.71-1.84-.23-4.74-2.65-4.78,1.87h0Z"/>
  <path class="cls-5" d="M451.7,184.21l4.16,8.2c-2.19.87-3.19,2.19-1.77,4.48,0,3.42-2.39,6.78-.19,10.2v2l-12.62,12.26h0c-3.55-8.97,2.42-15.45,5.74-22.78,1.87-4.68,3.42-9.45,4.65-14.36h.03Z"/>
  <path class="cls-71" d="M640.52,215.51c-3.48,4.78-6.1,7.68-10.65,0-4.87-8-12.58-14.16-16.36-23.07,11.16-6.13,10.26,5.78,14.68,9.78,1.13,4.94,2.06,10.03,8.49,10.91l3.84,2.39h0Z"/>
  <path class="cls-57" d="M673.75,819.01c-1.84,12.26,11.65,10.26,15.87,16.97,1.45,2.26,7.39,2.39,5.16,5.94-1.87,3-5.32-.87-7.87-2.19-7.84-4-15.68-8.2-23.52-12.23,2.26-4.29,4.84-8.2,10.36-8.49h0Z"/>
  <path class="cls-78" d="M652.81,614c1.94,5.61,8.32,10.39,1.84,17.39-2.42,2.74,1.74,2.39,3.29,2.74,3.9.84,7.87,1.48,11.81,2.19l-23.1-.16c.55-5.45.87-11.1-2.16-16.16,2.13-2.9,4-6.1,8.32-5.97v-.03Z"/>
  <path class="cls-79" d="M692.72,622.01c0,2-.26,4-.39,6l-1.74,4.32c-.97,6.87-4.71,13.45-2.03,20.68l-13.03,1.84c9.78-3.71,8.55-12.87,10.26-20.58.26-4.36.42-8.74.9-13.07.19-1.84.61-4.68,3.23-3.94,1.32.35,1.9,3.1,2.84,4.74h-.03Z"/>
  <path class="cls-114" d="M522.33,688.63c26.39,33.14,53.88,16.55,69.72,6-16.07,28.97-70.08,24.33-69.72-6Z"/>
  <path class="cls-53" d="M503.36,547.51c-5.74-14.1-6.94-27.75,4.29-40.04l2.39,6.65c-8.55,9.74-4.32,21.65-5.45,32.72-.45.26-.81.42-1.23.65v.03Z"/>
  <path class="cls-80" d="M412.15,338.21c3.29,5.16,6.45,10.49,11.87,13.81,4.61,2.74,2,6.26.23,8.65-2.74,3.74-4.84-.16-6.32-1.81-3.61-4-6.74-8.49-10.07-12.78l4.32-7.87h-.03Z"/>
  <path class="cls-44" d="M528.56,566c-5.45-6.32-14.39-5.74-20.68-10.36-.61-1.48-1.26-3.03-1.84-4.52l7.97.45,16.84,3.9c-.29,4.26,6,7.52,1.84,12.36h-1.68l-2.48-1.81.03-.03Z"/>
  <path class="cls-97" d="M509.72,237.8c-3.29,7.74-12.62,9.61-16.36,16.84h0l-1.94,2.16c-.03.68-.03,1.32,0,2l2,2.13,6.26,4c-6.45-.45-15.81-.81-17.1-5.9-1.48-5.71,7.39-9.36,12.45-13,4.71-3.03,9.61-5.81,14.68-8.23h0Z"/>
  <path class="cls-38" d="M418.83,188.4c-1.36,8.2,5.97,8.87,10.23,12.26-13.84.32-16.62,13.97-25.01,20.78h0c2.39-12.07,8.45-22.65,14.78-33.04Z"/>
  <path class="cls-140" d="M685.75,634.4c-1.68,7.71-.45,16.87-10.26,20.58-.65-5.32-1.32-10.62-2-15.97,4.03-1.61,3.55-5.45,4.32-8.68,3.97-1.42,4.87,3.29,7.9,4.03l.03.03Z"/>
  <path class="cls-60" d="M607.41,485.27l-8.42,8.2c-3.71-6.52-7.52-13.03-7.9-20.84l8.2-3.71c-3.74,8.55,7.03,10.03,8.16,16.36h-.03Z"/>
  <path class="cls-27" d="M420.57,155.33c1.81-3.97,6.36-5.87,10.49-4.39,12.13,1.97,9.61,7.87,3.94,14.62l-14.39-10.23h-.03Z"/>
  <path class="cls-102" d="M497.36,213.15c3-9.07,13.49-14.2,13.03-25.01,6.49,2.97,5.19,8.2,3.13,12.97-3,6.84-6.84,13.26-16.16,12.07v-.03Z"/>
  <path class="cls-114" d="M495.36,885.32c-5.13,6.97-17.33,3.81-20.17,14.1l-1,1.03-7.55-.97c2.74-18.42,18.46-10.74,28.72-14.2v.03Z"/>
  <path class="cls-122" d="M580.67,808.62c1.13,15.29,7.84,25.07,24.55,24.94-4.29,3.48-9.78,3.26-14.58,3.39-6.42.16-11.91-2.13-10.62-10.91.58-5.78.81-11.58.65-17.39v-.03Z"/>
  <path class="cls-22" d="M673.59,158.88c-1.58-5.29-2.45-11.32-10.36-10.16,2.42-5.45-3.61-10.91.16-16.13v-.23l2.13,2.16h-.13c.48,2.55,2.13,4.74,4.48,5.87.29,6.32,16.33,9.45,3.74,18.52l-.03-.03Z"/>
  <path class="cls-94" d="M321.16,345.92c3.26,0,5.87,2.68,5.84,5.94,0,.71-.13,1.42-.39,2.1-1.23,4.78-4.68,2.29-7.49,1.58-2.03-.48-4.07-1.06-5.03,1.71s4.39,5.9,0,8.87c-1.87-3.9-3.77-7.81-5.45-11.74-.16-.68-.23-1.36-.13-2.03,4.94-.61,10.45-.19,12.62-6.42h.03Z"/>
  <path class="cls-134" d="M682.3,342.08l-8.55,14.1c-9.36-3.58-1.68-9.26-1.71-14,3.94-1.45,4.36-5.45,6.26-8.42,2.65,1.94,4.16,5.03,4.03,8.32h-.03Z"/>
  <path class="cls-113" d="M663.39,132.52c-3.77,5.45,2.26,10.91-.16,16.13-.52.23-1.06.32-1.61.32-2.23-2.94-4.65-5.74-6.65-8.84s-4.61-6.81-1.16-9.97,6.78-.16,9.58,2.36Z"/>
  <path class="cls-27" d="M410.24,152.94l6.26,4.13c-2.06,4.16-7.29,6.74-6.32,12.45-1.61-.06-3.23.23-4.74.81-2.74,1.84-3.52,5.9-7.36,6.68,1.03-3.45,2.29-6.84,3.81-10.13,2.55-4.71,5.58-9.26,8.39-13.94h-.03Z"/>
  <path class="cls-106" d="M321.16,345.92c-2.19,6.23-7.68,5.78-12.65,6.42h0l-3.97-2.36c-.23-.48-.35-1.03-.39-1.55,2.74-8.81,7.32-11.91,15-4.58.65.71,1.32,1.45,2,2.06h0Z"/>
  <path class="cls-34" d="M350.33,806.85l10.49-10.39c2.58,3.68,6.1,6.58,10.16,8.42-4.94,2.29-9.26,5.68-12.65,9.94-1.23-2.06-2.48-4.13-3.71-6.16l-4.29-1.81h0Z"/>
  <path class="cls-55" d="M611.64,663.53c7.36-12.23,20.07-3.45,29.55-7.45,1.94-.81,5.94,2.9,5.45-2.74,2.16,0,4.61.13,4.58,2.74,0,3.45-3.23,2.74-5.45,3.1-11.32,1.42-23.1.1-34.14,4.32v.03Z"/>
  <path class="cls-91" d="M682.3,342.08c.06-3.23-1.42-6.29-4.03-8.2.55-1.26,1-2.55,1.61-3.81,3.16-6.52,3.1-14.52,8.94-19.81-1.06,7.39-1.97,14.81-3.32,22.13-.84,3.29-1.9,6.49-3.19,9.61v.06Z"/>
  <path class="cls-111" d="M775.58,356.18c4.03-2.13,9.39-1.74,12.13-6.32-.03.68-.03,1.36,0,2.03,1.45,8.39-5.03,12.78-9.26,18.29-.87-4.68-1.9-9.36-2.87-14.04v.03Z"/>
  <path class="cls-101" d="M408.47,640.27l5.71,11.29c-2.48,4.61.68,11.23-5.19,14.68l-1.03-.87c-3.94-8.45-2.36-16.81.52-25.1Z"/>
  <path class="cls-80" d="M429.06,325.3c.61,8.97,1.29,17.94,1.9,26.91-3.9-5.65-6.78-11.91-8.49-18.55,2.1-4.23,4.23-8.49,6.36-12.71l.23,4.32v.03Z"/>
  <path class="cls-19" d="M646.52,798.04c-2.74,8,3.65,8.2,8.42,9.42,4.26,1.16,8.65,1.87,12.97,2.74-4.55,1.36-9.1,2.74-13.65,4.07-8.2,2.74-6.52-5.87-9.87-8.71-3.36-2.84-2.23-5.87,2.1-7.52h.03Z"/>
  <path class="cls-142" d="M438.9,305.23l-3.74-.61c.61-2.42,2.9-6.71.45-6.94-3.97-.35-1.74,4.39-2.52,6.84-.52.06-1.06.06-1.58,0l-2.19-.16v-8.39c5.19-5.87,5.71-16.68,16.97-16.13-1.71,2.1-6.13,2.03-5.07,6.36-4.87,4.48-1.23,9.87-1.61,14.84v.77l-.71,3.45v-.03Z"/>
  <path class="cls-103" d="M503.78,578.38c-3.1-6.58-5.16-13.58-6.1-20.78l6.42,2.29,8.2,22.62c-3.03-1.13-4.26-5.9-8.49-4.13h-.03Z"/>
  <path class="cls-9" d="M688.56,653.01c-2.74-7.23,1.06-13.81,2.03-20.68h1.71c.77,2.74,1.55,5.61,2.32,8.42.58,5.45,4.26,1.9,6.58,2.29l-6.55,11.91-6.1-1.94h0Z"/>
  <path class="cls-63" d="M742.34,267.1c5.81,6.61,14.62,10.29,18.62,18.71-10.07-2.39-19.68-5.23-18.62-18.71Z"/>
  <path class="cls-123" d="M375.08,787.88l29.04,10.65c-12.16,3.39-21.81-.45-29.04-10.65Z"/>
  <path class="cls-130" d="M516.59,630.07c-3.07-7.23-6.07-14.52-9.23-21.68-1.52-2.36-.81-5.45,1.55-6.97.39-.23.77-.42,1.19-.55,3.97,9.36,8,18.68,6.49,29.2h0Z"/>
  <path class="cls-53" d="M590.7,441.36l4.29,2.26c-5.9,7.39-15.75,8.68-22.62,14.55l-2.23-3.97,20.55-12.84Z"/>
  <path class="cls-11" d="M672.01,342.21c0,4.74-7.65,10.42,1.71,14-2.97,3.19-6.29,4.61-10.42,2.06.58-4.13,1.13-8.2,1.68-12.42.23-.58.23-1.23,0-1.84.42-2.26,2.03-4.07,4.19-4.78l2.84,2.97h0Z"/>
  <path class="cls-13" d="M446.25,279.81c-11.26-.52-11.74,10.29-16.97,16.13-1.19-19.1,14.55-19.1,26.39-23.42l.55,3.16-.16-.35-2.19,2.16h0l-6.36,2.1c-.39.16-.84.23-1.26.23h0Z"/>
  <path class="cls-87" d="M597.64,171.24l-2.74,4.48-6.23,4.16h0l-6.74-.35c2-2.68,3.84-5.48,5.45-8.39,3.65-7.87,6.84-6.84,10.23.1h.03Z"/>
  <path class="cls-113" d="M659.52,151.2l-8.68,14.04c-.26-1.68-.45-3.32-.77-5-.94-4.45-1.87-8.87-2.74-13.33l12.16,4.26.03.03Z"/>
  <path class="cls-132" d="M451.96,412.25c-4.71,3.07-7.45,9.26-14.29,8.91,3.07-5.52.65-19.87,14.29-8.91Z"/>
  <path class="cls-72" d="M433.25,673.98c-4.87.94-9.81,1.58-14.78,1.9-5.74,0-7.32,3.65-8.39,8.2h-1.58c-1.97-19.29,12.55-10.13,20.68-11.97l4.1,1.87h-.03Z"/>
  <path class="cls-142" d="M456.25,275.81l-.55-3.16c4.32-3.87,9.52-3.77,14.78-3.36,1.32,2.16,2.74,4.29,3.9,6.45l-18.13.1v-.03Z"/>
  <path class="cls-61" d="M480.68,219.47l8.2,1.84c-2.74,2.45-5.19,5.07-7.97,7.36-1.68,1.39-4,3.84-6.07,1.81-2.74-2.74,1.16-4.52,1.94-6.84l3.9-4.13v-.03Z"/>
  <path class="cls-12" d="M681.75,665.66c-2.94-1.1-8.52,1.68-8.45-2.42,0-3.26,5.74-1.52,8.91-1.68,3.16-.16,8.2-.77,7.94,2-.45,4.68-5.55.84-8.39,2.1Z"/>
  <path class="cls-18" d="M412.15,338.21l-4.32,7.87c-1.03-1.36-1.94-2.77-2.74-4.29-1.45-3.32-4.26-7.78,0-9.87,5.13-2.48,5.13,3.61,7.03,6.26l.03.03Z"/>
  <path class="cls-45" d="M592.67,283.26c-3.32,2.97-7.36,5.26-10.42.61-3.68-5.65,0-9.55,4.97-12.33,3,3.36-4.13,11.42,5.45,11.74v-.03Z"/>
  <path class="cls-143" d="M497.42,906.26l4.16.26,7.94,3.58.45.55-27.1-.35c0-1.32,0-2.58-.13-3.87l14.71-.16h-.03Z"/>
  <path class="cls-118" d="M370.14,822.6l6.87-9.81c2.74,5.81,5.45,0,8.39,0l-10.13,16.84-1.03-1.23c.13-2.42.45-4.94-3.13-5.03l-.97-.77Z"/>
  <path class="cls-135" d="M510.04,514.15l-2.39-6.65,2.55-18.23c.52-.1,1.03-.26,1.52-.42l.58.74c-1.13,8.16,1.26,16.62-2.23,24.55h-.03Z"/>
  <path class="cls-125" d="M642.68,184.37c8.81-11.55,7.74.61,10.2,4.26-4.52,1.19-8.29.71-10.2-4.26Z"/>
  <path class="cls-57" d="M459.96,908.39c-4.84-3.42-12.45-2.9-14.58-10.23,9-2.48,10.91,5.16,14.58,10.23Z"/>
  <path class="cls-65" d="M482.87,910.29l27.1.35v1.68l-37.98-.26c.29-.48.58-1,.81-1.48l10.03-.29h.03Z"/>
  <path class="cls-15" d="M428.83,320.98c-2.13,4.23-4.26,8.49-6.36,12.71.77-5.45-9.94-15.81,6.23-14.81l.13,2.1h0Z"/>
  <path class="cls-67" d="M287.67,296.49l8.52-2.39c.55.84.94,2.29,1.65,2.48,4.03,1.13,8.2,1.97,12.23,2.9-5.97,1.48-12.23,1.39-18.13-.29-1.52-.71-2.94-1.61-4.23-2.71h-.03Z"/>
  <path class="cls-71" d="M644.84,233.8c-1.48-4.32-9.91-6.1-4.9-12.94l1.29,1.16c1.29,1.74,1.1-.26,1.55-.61h-.13c10.36,2.52,1.74,8.26,2.19,12.42v-.03Z"/>
  <path class="cls-89" d="M344.17,755.13c-.35,3.61-.68,7.26-1.16,10.91,0,0-2.06.13-2.26-.26-1.68-3.71-1.97-7.9-.77-11.78.42-1.29.94-2.52,1.58-3.68l2.58,4.81h.03Z"/>
  <path class="cls-123" d="M508.01,186.05h-14.71l-1.87-2.36c5.97-2.52,12.23-7.03,16.62,2.36h-.03Z"/>
  <path class="cls-115" d="M495.75,649.59l-.19-3.1c2-.42,4.03-.52,6.07-.26,4.61,1.45,9.84-1.58,14.04,2.1-5.1,1.77-10.52,2.36-15.84,1.68-1.48-.1-2.71-.26-4.07-.45v.03Z"/>
  <path class="cls-13" d="M428.83,320.98l-.13-2.1c.23-4.81.42-9.61.61-14.39l2.19.16c3.77,7.45,0,13.97-2.48,20.68-.1-1.45-.16-2.9-.23-4.32l.03-.03Z"/>
  <path class="cls-146" d="M578.28,553.7c3.52,1.26,7.03-3.81,10.55,0-1.81,1.61-3.48,3.26-2.16,6.03l-4.39,1.58c-1.32-3.48-4.55-4.03-7.52-5.03l-.87-1.16,4.39-1.45v.03Z"/>
  <path class="cls-113" d="M650.81,165.27l-3.77,4.36h-2.29c-2.58-1.9-4.13-4.97-4.1-8.2h0l10.13,3.81.03.03Z"/>
  <path class="cls-12" d="M408.47,683.95h1.58l-.81,22.23c-.26-7.36-.52-14.81-.77-22.23Z"/>
  <path class="cls-113" d="M644.68,173.66l-2,2.19-2.1,1.97h-2.1c-2.16-2.03-5.07-3.61-4.13-7.36l10.32,3.23v-.03Z"/>
  <path class="cls-143" d="M466.64,899.61l7.55.97,6.78,3.42v2.23c-5.65-.48-11.74.32-14.33-6.61Z"/>
  <path class="cls-128" d="M526.33,881.06l6.61,2.1h-25.55c6.03-3.13,12.74-1.19,18.94-2.1Z"/>
  <path class="cls-2" d="M480.68,219.47l-3.87,4.13c.68-4.36-7.16-6.97-2.48-12.16.61-.03,1.23-.03,1.84,0l2.55,4c.61.68,1.29,1.36,1.9,2.06.06.65.1,1.29.1,1.94l-.03.03Z"/>
  <path class="cls-2" d="M455.9,206.83c4.61-5.45,5.74,1.1,8.36,2.42-4.81,6.13-6.07.1-8.36-2.42Z"/>
  <path class="cls-138" d="M570.15,454.2l2.23,3.97c-3.29,4.03-8.91,1.29-12.58,4.26,1.71-4.9,6.23-6.36,10.32-8.23h.03Z"/>
  <path class="cls-26" d="M592.93,518.21c-4.42-1.42-7.07-6-6.1-10.55,3.26,2.84,7.49,5.03,6.1,10.55Z"/>
  <path class="cls-13" d="M636.68,213.18c-6.42-.81-7.36-5.9-8.49-10.91,3.58,3.1,7.74,5.65,8.49,10.91Z"/>
  <path class="cls-124" d="M686.66,806.98c-1.26-2.23-.45-5.07,1.81-6.29,0,0,.06,0,.1-.03l6.03-2.29c.13,5.42-4.97,6.07-7.9,8.65l-.03-.03Z"/>
  <path class="cls-129" d="M349.91,850.28c4.32,3.74,4.87,9.26,6.71,14.16l-.35.35h-1.74l-4.61-14.52h0Z"/>
  <path class="cls-96" d="M433.25,673.98l-4.1-2c1.32-.32,2.65-.48,4-.48,2.74.39,7.23-3.26,7.68.68.35,3.13-4.87,1.26-7.58,1.81Z"/>
  <path class="cls-119" d="M480.84,906.23v-2.23c5.55-.45,11.13.32,16.36,2.26l-14.71.16c-.42,0-1.03-.1-1.68-.19h.03Z"/>
  <path class="cls-2" d="M466.32,208.54c3.36-1.06,5.45,1.26,7.94,2.74-3.07.35-7.61,4.74-7.94-2.74Z"/>
  <path class="cls-140" d="M474.39,275.74c-1.29-2.16-2.58-4.29-3.9-6.45,4.84-.39,7.94,2.39,10.52,5.94l-.61.65-5.94-.29-.1.13.03.03Z"/>
  <path class="cls-74" d="M613.61,829.4c1.68-2.48,2.74-5.68,6.42-6.03-.32,3.94-1.42,7.07-6.42,6.03Z"/>
  <path class="cls-66" d="M582.44,480.85l-3.81-10.1c8.03.81,1.48,7.13,3.81,10.1Z"/>
  <path class="cls-60" d="M665.94,647.33c-5,.55-6.07.97-6.71.61s-.61-1.48-.94-2.32c.61-.23,1.23-.35,1.87-.39,1.97.58,3.87,1.26,5.74,2.06l.03.03Z"/>
  <path class="cls-53" d="M513.98,551.54l-7.97-.45c-.29-.42-.48-.87-.61-1.32l.81-1.29c3.03-.39,6.13-.42,7.78,3.07Z"/>
  <path class="cls-89" d="M347.97,746.71c-3.07,2.03-1.77,5.19-2.1,7.9-.55.23-1.1.39-1.68.45,1-2.9-3.68-8.39,3.81-8.39l-.03.03Z"/>
  <path class="cls-57" d="M663.36,827.47l-12.45-.26c4.19-1.52,8.36-3.13,12.45.26Z"/>
  <path class="cls-113" d="M640.65,161.27c-1.71-1.23-3.19-2.74-1.65-4.84.29-.42,1.1-.45,1.68-.68v5.55l-.03-.03Z"/>
  <path class="cls-60" d="M590.73,460.07v8.2c-2.16-2.29-2.16-5.9,0-8.2Z"/>
  <path class="cls-113" d="M669.75,140.3c-2.32-1.13-4-3.32-4.48-5.87,1.48,1.97,2.97,3.94,4.48,5.87Z"/>
  <path class="cls-5" d="M441.38,221.41l-1.94,1.87-.71-1.55,2.74-.19-.1-.13h0Z"/>
  <path class="cls-53" d="M597.02,443.13c1.1-2.32,3.45-3.81,6.03-3.81l-6.03,3.81Z"/>
  <path class="cls-62" d="M487.1,146.81l.97-1.81.81.81-1.84.94.1.1-.03-.03Z"/>
  <path class="cls-143" d="M472.77,910.58c-.26.52-.52,1-.81,1.48-2.74-.16-5.84,1.26-8.2-1.23l9-.26Z"/>
  <path class="cls-71" d="M639.94,220.89c0-1.81.26-3.61.35-5.45,2.74,1.32,2.16,3.84,2.36,6.1h.13c-.55.19-1.06.42-1.55.61l-1.29-1.29v.03Z"/>
  <path class="cls-34" d="M360.78,796.49v-6.61c1.42,2.13,2.16,4.36,0,6.61Z"/>
  <path class="cls-142" d="M474.71,155.27c1.03,2.39-.26,3.39-2.29,4l2.29-4Z"/>
  <path class="cls-55" d="M644.55,651.11l-2.13-3.81c1.61.42,2.58,2.1,2.16,3.71v.1h-.03Z"/>
  <path class="cls-42" d="M354.52,864.67h1.74c0,1.48-.16,2.9-.26,4.39l-1.48-4.39h0Z"/>
  <path class="cls-42" d="M355.91,868.96l2.19,4.55-2.19-4.55Z"/>
  <path class="cls-32" d="M709.21,787.91c.61,1.45,1.23,2.87,1.84,4.32-1.65-.74-2.45-2.61-1.84-4.32Z"/>
  <path class="cls-94" d="M304.68,349.98l3.97,2.36s-3.97-2.36-3.97-2.36Z"/>
  <path class="cls-123" d="M491.36,183.85l-4.29.26v-2.65l4.29,2.39Z"/>
  <path class="cls-63" d="M740.09,263.1l2.23,4-2.23-4Z"/>
  <path class="cls-125" d="M644.74,169.59h2.29v4.03h-2.29v-4.03Z"/>
  <path class="cls-53" d="M505.39,549.83l-2.03-2.23,1.16-.71,1.71,1.68-.81,1.29-.03-.03Z"/>
  <path class="cls-140" d="M671.39,636.94l2.1,1.87-2.1-1.87Z"/>
  <path class="cls-101" d="M406.53,668.08c0-.84-.19-1.68-.29-2.52.58-.03,1.13-.1,1.68-.23l1.03.87-2.42,1.84v.03Z"/>
  <path class="cls-2" d="M454,209.18v-2c.61-.23,1.29-.35,1.97-.32-.68.77-1.26,1.55-1.97,2.32Z"/>
  <path class="cls-118" d="M387.66,810.98l-2.16,2,2.16-2Z"/>
  <path class="cls-118" d="M389.79,808.95l-2.13,2.03,2.13-2.03Z"/>
  <path class="cls-125" d="M651.07,192.53l-1.9,2.03,1.9-2.03Z"/>
  <path class="cls-98" d="M572.12,190.34l-1.81,2.74,1.81-2.74Z"/>
  <path class="cls-125" d="M638.77,181.98l1.87,2.03-1.87-2.03Z"/>
  <path class="cls-42" d="M358.56,875.12l1.65,2.55-1.65-2.55Z"/>
  <path class="cls-125" d="M638.42,177.92h2.1l-1.77,2.19-.32-2.19h0Z"/>
  <path class="cls-63" d="M760.96,285.81l2.39,1.71-2.39-1.71Z"/>
  <path class="cls-73" d="M418.89,790.2c.03.68.03,1.36,0,2.03l-2.19.16,2.19-2.19Z"/>
  <path class="cls-80" d="M431.41,353.89c.55.03,1.1.19,1.61.45-.13.77-.26,1.52-.35,2.26-.45-.9-.84-1.81-1.26-2.71Z"/>
  <path class="cls-111" d="M773.41,354.4l2.16,1.87-2.16-1.87Z"/>
  <path class="cls-11" d="M661.46,360.53l1.87-2.23-1.87,2.23Z"/>
  <path class="cls-113" d="M661.59,148.91c-.71.77-1.45,1.48-2.19,2.26.74-.74,1.48-1.48,2.19-2.26Z"/>
  <path class="cls-103" d="M505.78,557.67l-1.94,2.29,1.94-2.29Z"/>
  <path class="cls-103" d="M505.39,581l-1.74-2.58,1.74,2.58Z"/>
  <path class="cls-15" d="M358.56,779.39l1.68,2.45-1.68-2.45Z"/>
  <path class="cls-113" d="M665.43,134.49l-2.13-2.16,2.13,2.16Z"/>
  <path class="cls-44" d="M507.88,555.61l-2.06,2.13,2.06-2.13Z"/>
  <path class="cls-65" d="M761.06,837.86c2.55-12.39-6.78-20.81-10.32-31.17,9.32-29.72,4.97-60.3,5.65-90.57,0-1.97-1.55-2.94-3.61-2.74l-.26-2.29,3.87-4.07,4.87.26c-4.55,25.81-2.39,51.66-.58,77.53v14c-.39,7.13-1.55,14.39,3.9,20.42,1.29,6.68,2.9,13.39-3.52,18.58v.03Z"/>
  <path class="cls-21" d="M752.51,711.02l.26,2.29c-2.74,7.87-8.84,14.2-10.29,22.81-1.16,6.74-5.87,1.23-8.78,2h.16c5.45-19.42,10.97-38.85,16.58-58.24-.77,7.1-1.55,14.2-2.32,21.29l.61.61-.55.68c1.29,2.97-.06,7.2,4.29,8.55h.03ZM745.12,715.28l.81-1.29h-.77s-.06.65-.06,1.29h.03Z"/>
  <path class="cls-62" d="M734.5,590.74l-.81,1.97-1.23,2.74-6.61,14.39-14.71,22.55h0l-6.32,6h0l-2,2.26v-.19c-6.07-2.74-1.74-6.39-.35-9.07,2.74-4.65,5.71-9.16,8.91-13.49,2.55-3.61,5.42-7.03,8.55-10.16,5.55-5.03,4.84-15.62,14.62-17h-.03Z"/>
  <path class="cls-3" d="M750.38,626.2c.77-1.16,1.29-2.94,2.32-3.29,3.16-1.06,1.84,1.84,1.94,2.9.29,4.48.26,8.94.39,13.39v5.16c0,6-.84,11.78-5.45,16.2-.58.71-1.61.84-2.32.29-.42-.32-.65-.84-.65-1.36-.81-6.78-4.52-14.33-.45-20.1,3.13-4.48,3.42-8.71,4.26-13.2h-.03Z"/>
  <path class="cls-92" d="M721.02,756.61l2.74-3.9c3.42.65,3.81-1.58,3.97-4.1.61-4.13,2.81-7.84,6.1-10.42h-.16c6.45,12.26-3.81,17.65-10.16,24.55.55-2.58.87-5.1-2.42-6.13h-.06Z"/>
  <path class="cls-21" d="M734.5,590.74c-9.78,1.29-9.07,11.84-14.78,16.81-3.13,3.16-5.97,6.55-8.55,10.16l-.26-2.39c2.23-10.32,12.68-15.94,15.07-26.2l7.55-.52,2.74.26-1.81,1.84.03.03Z"/>
  <path class="cls-86" d="M711.08,615.46l.26,2.39c-3.19,4.36-6.16,8.84-8.91,13.49-1.39,2.74-5.71,6.32.35,9.07-.45.87-.97,1.74-1.45,2.74-2.32-.39-6,3.19-6.58-2.29h0l1.61-2.74c3.03-8.61,8.07-16.36,14.71-22.65h0Z"/>
  <path class="cls-65" d="M733.92,800.78c4.07-1.19,7.71-3.52,10.52-6.68,5.45,2.87,5.78,7.32,4.07,12.49l-14.58-5.81h0Z"/>
  <path class="cls-9" d="M711.08,632.3l14.71-22.55c-2.29,9.2-2.23,19.97-14.71,22.55h0Z"/>
  <path class="cls-50" d="M721.02,756.61c3.29,1.03,2.97,3.55,2.52,6.13l-3.71,2.74c-2.26-3.32-.16-6.07,1.19-8.87Z"/>
  <path class="cls-9" d="M704.79,638.3l6.32-6c-.16,3.26,1.16,6.97-2.1,9.23-.45.32-2.77-2.06-4.23-3.23h0Z"/>
  <path class="cls-21" d="M740.31,574.38c.77,2.19,1.48,4.32,2.23,6.52-.55,2.13-2.39,3.65-4.58,3.77l-2.19-1.55,4.52-8.74h.03Z"/>
  <path class="cls-50" d="M727.79,748.61c-.16,2.52-.55,4.74-3.97,4.1-.16-2.1,1.42-3.94,3.55-4.1h.42Z"/>
  <path class="cls-131" d="M735.79,583.03l2.19,1.55c.06.65,0,1.29-.13,1.94l-1.48,2.45h0l-2.74-.26c.1-.65.1-1.29,0-1.9.26-1.32.45-2.74.71-4,.52,0,1,.1,1.48.26l-.03-.03Z"/>
  <path class="cls-9" d="M702.88,640.59l2-2.26-2,2.26Z"/>
  <path class="cls-21" d="M736.34,588.97l1.48-2.45-1.48,2.45Z"/>
  <path class="cls-21" d="M732.47,595.61l1.23-2.74-1.23,2.74Z"/>
  <path class="cls-4" d="M343.75,800.3c-3.36,2.94.16,11.71-5.32,10.55-6.13-1.29-3.03-8.58-2.42-13.39.45-3.55.39-9.78,4.74-8.81,4.9,1.1.45,8,3,11.65h0Z"/>
  <path class="cls-39" d="M352.04,644.98v10.23c-.48,6.16-.97,12.33-1.52,18.49-.29,1.29-.71,2.58-1.26,3.81-.9-.19-1.77-.55-2.55-1.03-4.19-4.19-.23-27.75,5.32-31.49Z"/>
  <path class="cls-28" d="M740.28,561.7c-5.65,1.9-7.16-3.26-9.58-6.1-15.07-17.68-32.72-29.17-57.27-27.26-14.04,1.1-15.42,3.1-11.16,16.36,3.07,9.42,10.32,18.52,5.19,29.55l-3.68-6.26c-2.29-17.26-13.42-31.91-14.49-49.49,4.68-1.03,9.36-2.26,14.1-.26,12.13,7.39,26.39,6.78,39.56,10.39,3.61.97,7.52.77,10.23,3.97.65.23,1.29.42,1.94.58,10.68,7.49,18.33,17.65,25.13,28.52h.03Z"/>
  <path class="cls-138" d="M733.66,586.84c.1.65.1,1.29,0,1.9l-7.55.52,14.36-27.62c2.16,3.94,2.16,8.71,0,12.65l-4.52,8.74c-.45-.13-.94-.19-1.42-.19-2.77.94-1.61,2.45-.84,4h-.03Z"/>
  <path class="cls-59" d="M628.29,574.38c.97-5.45,5.45-7.87,9.39-10.2,9.32-5.45,10.91-12.26,5.23-21.13l4-2.06c12.33,18,8.07,25.52-18.62,33.43v-.03Z"/>
  <path class="cls-34" d="M663.88,567.96l3.68,6.26c-9.32,3.58-18.62,7.26-27.97,10.65-3.97,1.42-6.65,3.52-6.97,7.9h-1.84c-3.81-5.71.68-8.39,4.48-10.2,8.39-3.94,15.84-10.23,25.88-10.03,3,.1,2.23-2.77,2.74-4.55v-.03Z"/>
  <path class="cls-85" d="M646.94,540.99l-4,2.06c-2.94-6.61-11.29-12.07-4.32-20.75,4.32,5.52,6.1,12.23,8.36,18.68h-.03Z"/>
  <path class="cls-107" d="M630.71,592.81h1.84l14.68,16.68c-8.2,2.52-9.81-8.2-16.65-8.2l-2.55-6,2.65-2.48h.03Z"/>
  <path class="cls-128" d="M628.06,595.16l2.55,6h-2.39c-5.61-4.55-11.74-8.84-9.94-17.55,3.26,3.9,6.52,7.71,9.78,11.55h0Z"/>
  <path class="cls-59" d="M617.45,578.03c3.45-1.81,6.26-5.45,10.91-3.61-1.84,4.65-6,5.65-10.26,6.52l-.65-2.9h0Z"/>
  <path class="cls-85" d="M638.58,522.34c-2.87-1.81-4.42-5.13-4-8.49,2.55,2.06,4.03,5.19,4,8.49Z"/>
  <path class="cls-128" d="M617.45,578.03l.61,2.9c.32.48.32,1.1,0,1.58-1.32-1.13-1.58-3.07-.61-4.48h0Z"/>
  <path class="cls-1" d="M368.88,607.33l-14.81-34.97,2.36-2.42c5.07,1.74,2.9,7.68,6.13,10.52,3.65,6.81,7.19,13.58,10.68,20.36l-2.74,2.55-1.94,4.13.32-.19v.03Z"/>
  <path class="cls-20" d="M362.56,580.48c-3.23-2.74-1.06-8.78-6.13-10.52,0-.68-.13-1.36-.42-1.97v-8.2c.19-.68.29-1.36.26-2.03l1.58-2.29,2.45-2.03c-.9,9.71,2.39,18.42,6.42,26.97l-4.16.06h0Z"/>
  <path class="cls-1" d="M356.1,559.74v8.2c-1.74-2.45-1.74-5.74,0-8.2Z"/>
  <path class="cls-1" d="M354.14,572.42c-.65,0-1.32-.06-1.94-.26l1.94.26Z"/>
  <path class="cls-1" d="M357.94,555.28l-1.58,2.29-.16-2.19c.58.06,1.16-.1,1.74-.1h0Z"/>
  <polygon class="cls-131" points="574.31 76.12 574.57 76.35 574.25 76.06 574.31 76.12"/>
  <path class="cls-131" d="M737.7,205.5c0,6.58.13,13.13.23,19.71-1.97-6.42-2.03-13.26-.23-19.71Z"/>
  <path class="cls-116" d="M429.18,566.03c-.42-14.42,3.39-28.62,10.91-40.91.68-1.16,2.1-2.55.26-3.16-1.97-.58-4.03-.48-5.94.26-12.23,5.13-25.33,6.32-38.17,8.78l-3.26-.68c9.42-4.07,18.78-8.2,29.3-8.2,7.32-.26,13.84-5.29,21.46-3.9,5.71,7.52-2.9,13.33-2.45,20.2-3.48,9.2-6.97,18.39-10.45,27.55-.55.06-1.1.06-1.68.06h.03Z"/>
  <path class="cls-20" d="M392.92,530.28l3.26.68c-9.45,6.74-20.26,11.74-27.26,21.52-2.52,3.48-5.26,4.23-8.45.9,9.42-9.65,17.39-21.42,32.49-23.1h-.03Z"/>
  <path class="cls-79" d="M430.77,565.87c3.48-9.1,6.97-18.26,10.45-27.55.87,3.03,1.77,6.03,2.74,9.07-2.9,7.1-4.9,14.23,4.03,18.52,10.91,5.19,21.81,9.94,32.72,14.84v3.55c-5.45.74-7.16,9.55-14.29,6.52h0c4.13-5.03.97-6.61-3.45-8.74-11-5.13-22.91-8-32.2-16.16v-.03Z"/>
  <path class="cls-144" d="M480.71,580.74c-10.91-4.9-21.97-9.65-32.72-14.84-8.94-4.29-6.94-11.42-4.03-18.52l4.03-8.45,5.94-4.13c-1.32,4.65-1.65,9.84-4.03,13.65-6.9,11.23,1.26,13.65,8.87,16.68,8.55,3.52,17.75,6.16,21.97,15.62h-.03Z"/>
  <path class="cls-17" d="M484.68,488.92l-3.61,2.74,3.61-2.74Z"/>
  <path class="cls-17" d="M487.16,485.08l-2.42,3.81,2.42-3.81Z"/>
  <path class="cls-56" d="M760.7,784.78c-1.84-25.88-3.97-51.82.58-77.53,4.23-1.48,4.61,1.26,4.68,4.32.45,24.78.87,49.56,1.29,74.34-.26-.61-.55-1.23-.87-1.81-2.39-4.19.52-9.52-2.97-13.45-4.36,4.07-1.16,9.55-2.68,14.16l-.03-.03Z"/>
  <path class="cls-51" d="M754.96,835.57c1.39,1.87,3.74,2.74,6.03,2.19l-2.13,20.71-4.19,2.1c-1.36-5.55-2.71-11.13-4.03-16.68l3.71-2.23c.23-2.03.39-4.1.61-6.13v.03Z"/>
  <path class="cls-71" d="M350.33,806.85l4.29,1.81c-1.26,1.29-3.36,1.29-4.61.03l-.03-.03c.03-.61.16-1.23.39-1.81h-.03Z"/>
  <polygon class="cls-48" points="349.39 815.17 348.68 815.14 349.04 814.46 349.39 815.17"/>
  <path class="cls-70" d="M497.84,472.33l-.97,1.42-1.84-1.45c.45-.35.94-.97,1.39-.97s.94.61,1.42,1h0Z"/>
  <path class="cls-10" d="M754.41,877.15l2.19-6.45-2.19,6.45Z"/>
  <path class="cls-10" d="M752.41,879.19l2.23-2.29-2.23,2.29Z"/>
  <path class="cls-137" d="M638.23,500.01c-.61,1.26-1.23,2.52-1.84,3.81.61-1.29,1.23-2.55,1.84-3.81Z"/>
  <path class="cls-129" d="M491.2,964.43l-1.9,2.19,1.9-2.19Z"/>
  <path class="cls-58" d="M630.42,910.77c-13.78-2-27.94,2.58-41.56-2.39l3.84-.29c7.13.48,14.23,1,21.17-1.39l12.2-.74h8.2c12.23,0,24.55.16,36.72.29,1.32.13,2.65.35,3.94.68-1.39.58-2.81,1.03-4.26,1.32-4.68.68-9.42,1.19-14.13,1.77l-26.07.74h-.03Z"/>
  <path class="cls-20" d="M630.42,910.77l26.1-.9,2.97.9c-20.36,5.61-41.65,6.87-62.53,3.68,0-.55,0-1.06.19-1.58l33.26-2.1h0Z"/>
  <path class="cls-20" d="M702.88,914.32c-6.42-.77-13.65,2.74-18.87-3.84,6.71-.23,14.78-7.74,18.87,3.84Z"/>
  <path class="cls-20" d="M659,903.77c0-1.23,0-2.42.19-3.65,5.74.84,11.97-2.23,17.29,2.03-5.55,3.77-11.65,1.23-17.49,1.61Z"/>
  <path class="cls-20" d="M634.35,905.9h-8.2v-1.68h8.2v1.68Z"/>
  <path class="cls-84" d="M640.61,897.93h-6.19c0-.61-.16-1.26-.26-1.87l4.84-.32c.55-.06,1.1,0,1.65.16v2.03h-.03Z"/>
  <path class="cls-20" d="M707.05,916.55l-2.19-2,2.19,2Z"/>
  <path class="cls-20" d="M709.11,918.68l-2.03-2.06,2.03,2.06Z"/>
  <path class="cls-20" d="M711.08,920.78l-2.03-2.03,2.03,2.03Z"/>
  <path class="cls-51" d="M752.8,866.73c.61-1.42,1.23-2.74,1.84-4.29l-1.84,4.29Z"/>
  <path class="cls-51" d="M750.64,875.09l1.94-2.32-1.94,2.32Z"/>
  <path class="cls-112" d="M532.82,954.04c4.94-9.45,12.33-13.65,23.04-10.71l6.03,2.45-.26-.19v2.19c1.39,3.45,2.74,6.87,4.13,10.32-7.61,11.94-18.49,12.62-30.91,1.97l-2.06-4.07c-.06-.65-.06-1.29,0-1.94l.03-.03Z"/>
  <path class="cls-37" d="M532.88,955.98l2.06,4.07-2.06-4.07Z"/>
  <path class="cls-131" d="M565.95,945.59h-4.29l.26.19-4.13-4.58c5.29-3.13,6.45,1.1,8.03,4.52l.1-.13h.03Z"/>
  <path class="cls-83" d="M557.79,941.17l4.13,4.58-6.03-2.45,1.9-2.13Z"/>
  <path class="cls-83" d="M561.66,945.59h2.16l-2.06,2.06-.1-2.06Z"/>
  <path class="cls-20" d="M725.6,935.17c.58-.71,1.16-1.42,1.74-2.16-.58.74-1.16,1.42-1.74,2.16Z"/>
  <path class="cls-20" d="M723.86,937.49l1.68-2.29-1.68,2.29Z"/>
  <path class="cls-107" d="M613.87,906.68c-6.94,2.39-14.04,1.87-21.17,1.39.13-.52.29-1,.45-1.52l10.16-.61,10.52.74h.03Z"/>
  <path class="cls-139" d="M591.57,886.96c12.78-3.39,25.81-.81,38.72-1.77l5.03,2.13-5.1,2.32h0c-12.65-4.13-25.81-1.13-38.65-2.68h0Z"/>
  <path class="cls-64" d="M639,895.67l-4.84.32-3.97-.26c-5.81-5.81-14.23-2.52-20.71-5.94l20.75-.19h0l8.74,6.07h.03Z"/>
  <path class="cls-119" d="M509.56,910.1l-7.94-3.58c3.03-.03,6.07.1,9.1.39,1.9.48,3.74,1.23,5.45,2.19-1.97,2.23-4.36,1.03-6.61.97v.03Z"/>
  <path class="cls-95" d="M653.13,296.2c5.19,7.97.61,11.74-6.16,14.68-7.61,8.2-6.78-7.26-12.45-4.42-7.29-4.13-6.13,2.29-6.97,6.32-.97,4.48-1.71,8.61-9.03,9.42-5.03,1.06-9.97-2.06-11.16-7.07-.74-1.97.26-6.61-4.26-2.74-1.61,8.42-4.94,9.16-9.97,2.23h0c-1.45-7.32-12.1,14.07-10.32-3.29,2.94-8.2,17.87-8.2,14.42-20.97,6,5.45,9.97-1.16,14.97-2.19,11.32-2.48,23.07-2.48,34.43,0-5.9,9.07,5.52,4.39,6.55,8.03h-.03Z"/>
  <path class="cls-40" d="M439.54,301.88v-.77c2.42-2.97.87-7.94,5.61-9.94,9.26-3.9-1.81-3.1-1.29-5.03.55-.13,1.13-.23,1.71-.26,7.78.77,15.71,2.97,23.26,2.03,16.36-2.03,23.78,11.71,35.01,18.52,4.29,2.74-.39,5.74-2.39,8.2l.13.23c-7.45-1.58-11.13-3.19-19.33,4.13-2.94,2.74-6.68,2.1-9.71,2.03-2.48-1.39-4.55-3.42-6-5.87-2.55-3.1-1.74-9.84-4.48-9.26-5.45,1.16-3.19,8.39-1.52,13.2.16,1.36.06,2.71-.29,4h-4.39c-.32-3.19-2.68-5.81-5.81-6.49-1.58-2.74-2-6.61-6.52-6.1h0l-2.03-2.13h0l-1.94-6.52-.03.03Z"/>
  <path class="cls-117" d="M501.49,314.72c2.03-2.48,6.68-5.58,2.39-8.2-11.2-6.81-18.58-20.55-35.01-18.52-7.55.94-15.49-1.29-23.26-2.03,18.07-3.29,36.72-1.39,53.75,5.45,8.39,3.26,10.91,12.62,12.97,21.13-4.78,2.1-3.39,6.81-4.52,10.49-3.16-1.94-.71-8.2-6.32-8.32Z"/>
  <path class="cls-64" d="M545.3,375.41c-.16,1.94.35,3.52,2.74,3.61,3.94.16,8.91-1.48,9.49,4.81.58,6.29-3.84,9.2-8.39,11.87-4.94,2.94-11.23,2.16-15.33-1.84-3.9-3.26-3.74-8.2-1.32-12.29s5.84-8.45,8.78-12.68c.19,2.9.13,5.97,4.03,6.55v-.03ZM543.11,389.54c1.81.1,3.39-1.29,3.48-3.1,0-.26,0-.55-.06-.81-.29-3.32-2.74-4.45-5.58-4.58-2.03,0-4.42.42-3.45,3.32.58,2.74,2.81,4.81,5.58,5.16h.03Z"/>
  <path class="cls-66" d="M472.58,321.04c5.65.74,11.16-2,13.97-6.94,2.1-3.84,7.65-.81,15.07.81-2.48,1.71-4.74,3.68-6.78,5.9-13.84,18.1-30.23,18.39-45.33.61l.77-1.29,5.58,3.07h0c4.29,7.84,11.55,8.91,19.39,8.39,2.74-.19,5.45-1.23,1.48-4.16,4.39-7.45-4.68-2.74-5.19-5.78.32-.23.68-.42,1.03-.58v-.03Z"/>
  <path class="cls-99" d="M600.15,327.01c8.2-1.48,16.1,2.48,24.39.39,11.87-3,15.58-10.23,9.97-21,5.68-2.74,4.84,12.65,12.45,4.42-3.26,20.29-27.94,28.84-46.82,16.2Z"/>
  <path class="cls-129" d="M582.89,311.17c-1.77,17.36,8.91-4.03,10.32,3.29-4.48,1.77-8.2,10.49-13.39,3.94-5.07-6-4.97-14.84.26-20.71,3.48-4.26,8.91-4.74,13.16-7.39-3.61,6.94-9.16,12.84-10.36,20.91v-.03Z"/>
  <path class="cls-132" d="M531.04,412.61c7.13,0,14.23-.26,21.36,0,3.55.13,9.74-1.23,10.03,1.97.39,3.71-6.26,1.32-8.97,3.74-6.29.71-12.68,1.9-18.84-.55-2.13-.77-7.78.16-3.58-5.16Z"/>
  <path class="cls-122" d="M582.89,311.17c1.26-8.03,6.81-13.97,10.36-20.91h4.07c3.39,12.58-11.55,12.62-14.42,20.91Z"/>
  <path class="cls-85" d="M546.18,424.87c2.74.45,6.71,0,6.65,3.13,0,4.32-4.58,2.94-7.32,3-2.74.06-6.49.97-6.13-3.1.32-3.32,4.16-2.65,6.78-3.03h.03Z"/>
  <path class="cls-85" d="M531.04,412.61c-4.1,5.32,1.55,4.39,3.58,5.19,6.16,2.45,12.55,1.26,18.84.55-8.74,6.65-17.65,2.55-26.39,0-1.23-.35-3.07-2.55-2.74-3.45.81-3.58,3.97-2.48,6.71-2.29h0Z"/>
  <path class="cls-14" d="M653.13,296.2c-1.03-3.61-12.42,1.06-6.49-8.2,3.71-.29,7.87-.61,9.97,2.74,1.48,2.55-2.23,3.61-3.48,5.45h0Z"/>
  <path class="cls-13" d="M443.93,286.13c-.52,1.97,10.52,1.16,1.29,5.03-4.74,2-3.19,6.97-5.61,9.94.39-4.97-3.26-10.36,1.61-14.84l2.74-.13h-.03Z"/>
  <path class="cls-19" d="M507.81,323.08c1.16-3.65-.26-8.39,4.52-10.49,2.36,5.19,4.26,10.1-4.52,10.49Z"/>
  <path class="cls-2" d="M545.3,375.41c-3.9-.58-3.84-3.65-4.13-6.55,1.55-1.65,3.13-4.74,5.45-1.61,1.94,2.29,1.65,5.74-.65,7.68-.19.16-.42.32-.65.48h-.03Z"/>
  <path class="cls-13" d="M443.54,310.65c4.52-.52,4.94,3.45,6.52,6.1,0,1.16.16,2.29.23,3.45l-.77,1.29-6.36-8.55c.1-.77.26-1.48.39-2.26v-.03Z"/>
  <path class="cls-69" d="M493.39,281.26c0-4.52,2.94-2.1,4.78-1.87.61,0,1.06,1.13,1.58,1.71l-4.71.81c-.58-.13-1.13-.35-1.65-.65Z"/>
  <path class="cls-75" d="M644.65,383.12c.68,3.45,2.55,7.65-4.1,6.39l4.1-6.39Z"/>
  <path class="cls-142" d="M474.45,275.58l5.94.29c0,.61.26,1.19.32,1.84l-6.26-2.13Z"/>
  <path class="cls-142" d="M447.61,279.65l6.36-2.1-6.36,2.1Z"/>
  <path class="cls-142" d="M453.87,277.61l2.19-2.16-2.19,2.16Z"/>
  <path class="cls-51" d="M493.29,260.9l-2-2.13,2,2.13Z"/>
  <path class="cls-51" d="M491.33,256.8l1.94-2.16-1.94,2.16Z"/>
  <path class="cls-75" d="M646.81,379.05l-2.03,2.19,2.03-2.19Z"/>
  <path class="cls-75" d="M640.58,389.51l-1.9,2.03,1.9-2.03Z"/>
  <path class="cls-118" d="M364.69,845.83c-2.9-2.9-2.1-6.65-2.29-10.16,2.58-4.32,5.19-8.65,7.74-12.97l.97.87c-.19,2.19,1.1,4.23,3.13,5.03l1.03,1.23c-3.55,8.32-5.16,17.33-4.68,26.36-5.23,3.58-4.61-1.65-5.9-3.97,3.94-2.23,5.45-5.87,2.42-9.1-1.81-2.03-1.87,1.29-2.39,2.71h-.03ZM369.08,835.44c.35-.58.97-1.16.87-1.58s-.87-.74-1.36-1.13c-.32.52-.97,1.1-.94,1.52s.97.77,1.48,1.16h-.1l.03.03Z"/>
  <path class="cls-41" d="M526.62,850.34c-3,1.03-6.36.16-8.49-2.19h0l1.87-2.19c3.9-4.68,7.71-9.42,11.71-14.04,1.26-1.45,2.74-3.84,4.87-2.42s.58,3.71-.45,5.45c-3.1,5.13-6.32,10.26-9.52,15.42v-.03Z"/>
  <path class="cls-55" d="M406.66,815.24l-10.42,13.65c-.39-1.1-1.29-2.36-1.03-3.26,1.45-5.68,3.65-11.03,9.42-13.65,1.48-.61,2.16,1,2.03,3.26Z"/>
  <path class="cls-20" d="M520.14,845.92l-1.87,2.19,1.87-2.19Z"/>
  <path class="cls-113" d="M754.96,835.57c-.19,2.03-.42,4.1-.61,6.13l-3.61.13h0c-1.32-7.32-3.39-13.91-13.2-11.87l-17.58-11.03c-1.23-1.81-4.52-2.74-2.9-5.78,1.61-3.03,4.42-1.55,6.45-.97,10.68,2.77,20.23,8.81,27.26,17.29l1.61,2.16c.39.42.65.97.74,1.52l1.48,2.74.42-.32h-.06Z"/>
  <path class="cls-76" d="M706.92,827.44c.74-1.48,1.48-2.94,2.19-4.42,8.42,7.49,18.33,13.45,24.55,23.26-3.61,1.68-3.61,5.1-3.97,8.36-7.36-9.26-11.78-20.94-22.75-27.2h-.03Z"/>
  <path class="cls-77" d="M729.66,854.6c.39-3.26.39-6.65,3.97-8.36,1,1.36,1.9,2.74,2.74,4.19,2.03,3.97,9.1,8.71,5.45,11.49-5.1,3.77-8.68-3.61-12.16-7.32h0Z"/>
  <path class="cls-133" d="M737.47,829.92c9.81-2.03,11.87,4.52,13.2,11.87l-13.2-11.87Z"/>
  <path class="cls-133" d="M750.7,841.86l3.61-.13-3.71,2.23.1-2.1Z"/>
  <path class="cls-101" d="M362.56,580.48h4.26c6.9,17.1,17.49,32.17,27.07,47.72l3.9,4.29h0v14.65c-5.03-3.23-9.26-7.58-12.36-12.71,4.65-7.36-4.52-9.26-5.71-14.36-.39-1.68,1.68-4.9-1.61-4.68-3.71.26-2.9,3.77-2.74,6.42-.68-.06-1.36-.13-2.03-.26-.87-2.52-1.71-5-2.58-7.49,5.16-3.55,8.87-7.36,2.52-13.1-3.58-6.81-7.16-13.62-10.71-20.49h0Z"/>
  <path class="cls-54" d="M466.29,590.74c7.13,3.03,8.87-5.78,14.29-6.52-5.13,14.2-18.42,21.81-26.81,33.43l-1.81.39c.48-3.39-1.29-6.71-4.39-8.2v-2.03l8.2-6.49c.39,1.45.77,2.9,1.16,4.32l1.48-.71-2.74-3.65c2.94-4.29,5.68-8.49,10.58-10.52l.03-.03ZM464.93,599.55v-.84h-1.52v.81c.52.1,1.03.1,1.52.1v-.06Z"/>
  <path class="cls-126" d="M414.44,628.17c-.55-6.9-5.61-11.81-7.87-17.97-.32-.71-.71-1.39-1.16-2.03l-3.19,7.42c-3.1-3.58-3.07-8.2-4.07-12.45,1.55.52,3.52,1.32,3.97-.97.61-3.1-1.97-2.74-3.84-2.74,0-3.39-1.16-7.9,2.94-8.91s4,3.87,5.19,6.49c4.61,9.97,9.78,19.81,10.07,31.14h-2.06l.03.03Z"/>
  <path class="cls-75" d="M397.79,647.01v-14.65l4.39,1.29v-5.61h1.97l4.32,12.1c-2.9,8.2-4.45,16.65-.52,25.1-.55.1-1.13.19-1.68.23-7.49-3.16-2.16-12.81-8.42-16.62,0-.55-.06-1.16-.06-1.84h0Z"/>
  <path class="cls-54" d="M430.77,565.87c9.26,8.2,21.26,11.03,32.04,16.16,4.45,2.13,7.58,3.71,3.45,8.74-8.36-7.39-18.55-10.91-28.97-13.94-5.74-1.61-9-4.48-8.2-10.91.55,0,1.1,0,1.65-.1l.03.03Z"/>
  <path class="cls-145" d="M447.64,607.65v2.03c3.61,3.58-3.61,8.91,1.97,12.2-2.06,4.58-4.58,8.61-10.45,8.58-5.42-10.68,3.71-15.97,8.49-22.84v.03Z"/>
  <path class="cls-101" d="M414.44,628.17h2.06v16.55c-3.81-5.1-.77-11.1-2.06-16.55Z"/>
  <path class="cls-8" d="M398.27,599.42c1.87,0,4.48-.39,3.84,2.74-.45,2.32-2.42,1.48-3.97.97.06-1.23.1-2.48.13-3.71Z"/>
  <path class="cls-126" d="M404.11,628.14h-1.97v-12.45c.71,4.1,1.32,8.29,1.97,12.45Z"/>
  <path class="cls-75" d="M397.79,632.36l-3.9-4.29,3.9,4.29Z"/>
  <path class="cls-74" d="M685.75,634.4c-3.03-.61-3.97-5.29-7.9-4.03,2.42-11.71,4.74-23.39,7.36-35.07.48-2.16,1.39-5.26,4.32-4.94,3.39.42,2.03,3.61,2.32,5.84,1.06,8.61,4.9,17.16.87,25.97-.94-1.68-1.52-4.39-2.74-4.74-2.74-.77-3.03,2.06-3.23,3.94-.61,4.19-.74,8.55-1,13.07v-.03Z"/>
  <path class="cls-52" d="M628.22,601.26h2.39c6.81.16,8.49,10.74,16.65,8.2l5.45,4.61c-4.32-.13-6.19,3.1-8.2,5.97l-3.87-2.19-10.39-12.45-1.87-2.03-.13-2.1h-.03Z"/>
  <path class="cls-74" d="M692.3,632.3h-1.71l1.74-4.32v4.32h-.03Z"/>
  <path class="cls-9" d="M696.24,638.01l-1.61,2.74,1.61-2.74Z"/>
  <path class="cls-16" d="M373.21,600.84c6.36,5.74,2.74,9.55-2.52,13.1l-1.84-6.61-.23.19c4.23.32,3.97-1.45,1.94-4.13l2.61-2.55h.03Z"/>
  <path class="cls-130" d="M489.29,534.92c.61,2.1,1.23,4.19,1.84,6.26-.61-2.06-1.19-4.16-1.84-6.26Z"/>
  <path class="cls-128" d="M628.35,603.33l1.87,2.03-1.87-2.03Z"/>
  <path class="cls-115" d="M532.69,567.8c4.13-4.84-2.16-8.2-1.84-12.36,3.03,2.74,6.29,5.19,9.07,8.2,7.49,8.03,14.33,8.58,21.04-.9,1.58-1.81,3.36-3.42,5.29-4.81,2.94,2.74,5.45,6.55,10.26,6.19l-18.2,12.55c-.84-.94-2.06-2.74-2.42-2.74-2.48,1.06-.74,2.74-.19,4.13-10.62,3.16-16.58-4-22.97-10.29l-.03.03Z"/>
  <path class="cls-146" d="M576.47,564.12c-4.87.35-7.32-3.36-10.26-6.19h0l3.97-2.29,3.74-.52.87,1.16c-.42,4.48,2.74,5.45,6.1,5.9l-4.42,1.97v-.03Z"/>
  <path class="cls-43" d="M580.86,562.16c-3.45-.48-6.52-1.39-6.1-5.9,2.97.97,6.23,1.52,7.52,5.03-.35.42-.87.74-1.42.87Z"/>
  <path class="cls-147" d="M555.6,578.19c-.55-1.48-2.29-3.1.19-4.13.35-.16,1.58,1.71,2.42,2.74l-2.61,1.42v-.03Z"/>
  <path class="cls-115" d="M528.56,566l2.48,1.68-2.48-1.68Z"/>
  <path class="cls-131" d="M454.12,196.99c-1.42-2.29-.45-3.61,1.77-4.48,1,2.13-.16,3.42-1.77,4.48Z"/>
  <path class="cls-131" d="M480.81,175.82h2.06l.16,2.32c-2.61,1-3.58.45-2.23-2.32Z"/>
  <path class="cls-6" d="M486.97,182.66v1.48c-.68-.81-1.39-1.55-2.06-2.32l2.06.84Z"/>
  <path class="cls-133" d="M754.41,835.82l-1.48-2.74,1.48,2.74Z"/>
  <path class="cls-133" d="M752.22,831.6l-1.61-2.16,1.61,2.16Z"/>
  <path class="cls-27" d="M418.63,155.17h1.94c-.65.06-1.29.06-1.94,0Z"/>
  <path class="cls-27" d="M416.5,157.07l2.13-2.06-2.13,2.06Z"/>
  <path class="cls-84" d="M609.48,889.83c6.49,3.45,14.91.13,20.71,5.94-10.65-.68-22.1,2.94-31.14-5.97h10.42v.03Z"/>
  <path class="cls-60" d="M609.48,889.83h-10.42l-11.16-1.97,3.68-.87c12.84,1.55,26.01-1.45,38.65,2.74l-20.75.1h0Z"/>
  <path class="cls-128" d="M532.72,883.09l14.71,2.23c-5.07.16-10.2.97-14.71-2.23Z"/>
  <path class="cls-51" d="M592.86,179.95h-4.16l6.23-4.16-2.03,4.16h-.03Z"/>
  <path class="cls-138" d="M418.83,781.1c3.68-5.78-3.42-7.71-4.23-11.91,3.58.16,7.39,6.07,10.62-.48,9,12.91,7.81,16.97-6.45,21.62l.1-9.23h-.03Z"/>
  <path class="cls-61" d="M480.61,217.47c-.61-.71-1.29-1.39-1.9-2.06.55.68,1.29,1.36,1.9,2.06Z"/>
  <path class="cls-131" d="M482.9,175.85l2.1-2.06h0l-2.06,2.1h0l-.03-.03Z"/>
  <path class="cls-81" d="M364.69,845.83c.45-1.36.52-4.71,2.39-2.74,2.94,3.23,1.48,6.84-2.42,9.1v-6.36h.03Z"/>
  <path class="cls-13" d="M433.12,304.52c.77-2.45-1.45-7.19,2.52-6.84,2.42.23.13,4.48-.45,6.94h-1.03l-1-.1h-.03Z"/>
  <path class="cls-13" d="M439.54,301.88l1.97,6.68-2.74-3.32.77-3.36h0Z"/>
  <path class="cls-13" d="M441.48,308.52l2.03,2.13-2.03-2.13Z"/>
  <path class="cls-125" d="M640.58,177.82l2.1-1.97-2.1,1.97Z"/>
  <path class="cls-131" d="M667.68,279.52l.9-3.58.77.48c-.55,1.03-1.13,2.03-1.68,3.03v.06Z"/>
  <path class="cls-69" d="M449.64,621.88c-5.58-3.26,1.68-8.61-1.97-12.2,3.1,1.45,4.87,4.78,4.39,8.2l-2.42,4Z"/>
  <path class="cls-136" d="M727.44,795.94l-1.42-2.16c.55-.32,1.32-1.06,1.61-.9.71.52,1.32,1.1,1.84,1.81l-2.03,1.26Z"/>
  <path class="cls-33" d="M374.3,828.6c-2.03-.81-3.32-2.87-3.13-5.03,3.58.1,3.26,2.61,3.13,5.03Z"/>
  <path class="cls-131" d="M641.23,222.02c.48-.23,1-.45,1.55-.61-.45.39-.26,2.39-1.55.61Z"/>
  <path class="cls-21" d="M733.66,586.84c-.71-1.48-1.94-3.1.71-4-.26,1.32-.45,2.68-.71,4Z"/>
  <path class="cls-115" d="M460.29,323.17c.35-1.29.45-2.68.29-4-1.68-4.84-4.55-10.91,1.52-13.2,3.77-1.36.55,9.32,10.49,15.1-.35.16-.68.39-1,.61-2.87-.45-5.74.9-7.19,3.42l-4.1-1.9v-.03Z"/>
  <path class="cls-132" d="M460.29,323.17l4.1,1.9h0l2,1.68,3.77.94c2.03,1.39,4.71,1.26,6.61-.29h0c3.87,2.94,1.16,3.97-1.48,4.16-7.84.52-15.1-.55-19.39-8.39h4.45-.06Z"/>
  <path class="cls-132" d="M450.29,320.17c0-1.16,0-2.29-.23-3.45,3.13.68,5.48,3.29,5.81,6.49l-5.58-3.07v.03Z"/>
  <path class="cls-62" d="M543.11,389.54c-2.71-.42-4.9-2.45-5.45-5.16-.97-2.9,1.39-3.42,3.45-3.32,2.74,0,5.29,1.26,5.58,4.58.35,1.77-.84,3.52-2.61,3.87-.32.06-.65.06-.94.03h-.03Z"/>
  <path class="cls-121" d="M369.14,835.44c-.52-.42-1.32-.74-1.42-1.16s.61-1,.94-1.52c.48.39,1.29.68,1.36,1.13s-.52,1-.87,1.58v-.03Z"/>
  <path class="cls-132" d="M383.34,632.3c-2.68-3.52-5.32-7.03-8-10.62,0-2.74-.94-6.16,2.74-6.42,3.26-.23,1.23,3.03,1.61,4.68,1.16,5.1,10.32,6.97,5.71,14.36h0l-2.03-2.03-.03.03Z"/>
  <path class="cls-104" d="M455.9,601.13l2.74,3.65-1.48.71c-.42-1.45-.81-2.9-1.16-4.32h-.06l-.03-.03Z"/>
  <path class="cls-80" d="M464.93,599.58c-.48.06-1,.06-1.48,0v-.81h1.52v.81h-.03Z"/>
  <path class="cls-101" d="M383.34,632.3l2.13,2.03-2.13-2.03Z"/>
  <path class="cls-115" d="M566.18,558.03l3.97-2.29-3.97,2.29Z"/>
  <path class="cls-66" d="M470.19,327.75l6.61-.29c-1.87,1.58-4.58,1.71-6.61.29Z"/>
  <path class="cls-115" d="M464.42,325.11l2,1.68-2-1.68Z"/>
</svg>