<?xml version="1.0" encoding="UTF-8"?>
<svg id="Layer_1" data-name="Layer 1" xmlns="http://www.w3.org/2000/svg" viewBox="0 0 1080 1080">
  <defs>
    <style>
      .cls-1 {
        fill: #fff;
      }
    </style>
  </defs>
  <path d="M627.29,239.9c.31-4.22,2.99-7.61,3.54-11.87,1.49-11.53-2.27-24.95-13.84-30.17-24.59-11.11-62.95-1.68-87.35,7.37-7.23,2.68-14.37,7.52-20.72,9.81-4.01,1.44-8.08,1.29-12.44,2.91-12.97,4.82-23.41,17.99-26.71,30.69-24.65-13.23-51.51-16.98-78.76-8.74-10.53,3.19-15.22,8.84-26.23,1.61-9.16-6.01-4.19-22.23-17.66-24.95-13.81-2.79-20.97,7.97-25.9,18.41-5.21,11.03-7.34,22.6-7.56,34.69-13.76.46-20.97,10.8-22.21,23.15-.45,4.49,1.42,10.58-.24,13.73-2.04,3.85-9.65,12.86-13.59,14.9-9.19,4.77-18.88.25-25,7.45-3.55,4.18-3.57,7.31-3.05,12.56,2.97,30.2,58.92,102.12,83.21,122.66,4.25,3.59,8.97,7.3,14.04,9.69-11.27,25.63-14.18,53.89-9.85,81.39,2.86,18.17,11.06,35.37,16.82,52.8,6.94,11.95,17.35,11.54,28.57,16.24,3.05,1.28,6.04,3.61,9.4,4.95,10.15,4.07,20.47,7.64,30.64,11.62-3.09,1.95-4.2,6.59-6.33,8.75-6.59,6.68-11.66,6.72-18.4,17.27-4.16,6.51-.19,3.96-7.4,8.61-55.42,35.76-93.72,111.51-117.59,169.99-23.67,58-31.75,113.08-33.41,174.93-.07,2.49-1.98,4.25-1.63,7.72,1.84,18.42,40.01,23.67,55.17,25.72,72.6,9.81,159.79,4.3,233.81,3.58,83.31-.81,167.1-.62,249.34-14.94,16.5-2.87,21.66-5.26,24.16-22.21,3.49-23.62.76-56.96-1.71-81.02-6.75-65.76-24.13-140.9-53.84-200.54-16.13-32.38-36.41-54.62-69.52-72.1-.18-8.47-3.54-18.35-10.93-23.55-5.7-4.01-12.11-1.77-18.26-5.18,1.06-8.12-6.93-23.46-15.63-25.16-3.66-.71-7.58.45-11.17-.63,11.26-10.26,21.45-20.52,30.78-32.44,1.79-2.28,10.22-15.14,11.08-15.59,2.7-1.39,4.8,2.34,6.99,3.82,11.93,8.08,22.97,10.78,37.44,7.39,36.21-8.47,55.05-55.85,52.07-88.38,25.73,1.03,54.66-27.37,61.95-49.25,3.25-9.76.3-8.35-.89-15.79-.85-5.3,1.47-8.12-4.39-12.15,6.86-12.46,27.26-36.05,24.15-50.41-.75-3.47-5.72-8.73-9.4-9.31-9.07-1.41-13.33,3.28-21.35,5.17,7.32-13.45,8.98-51.65-6.05-60.06-7.38-4.13-22.02-1.19-30.35-.52-4.33-6.41-7.08-12.89-12.29-18.81-26.69-30.36-66.48-34.21-104.67-23.56-8.31-5.31-16.74-10.64-26.89-12.2Z"/>
  <path class="cls-1" d="M627.29,239.9c10.15,1.56,18.59,6.89,26.89,12.2,38.2-10.64,77.98-6.8,104.67,23.56,5.2,5.92,7.96,12.41,12.29,18.81,8.33-.67,22.98-3.6,30.35.52,15.03,8.41,13.37,46.61,6.05,60.06,8.02-1.9,12.28-6.59,21.35-5.17,3.68.57,8.65,5.84,9.4,9.31,3.11,14.36-17.29,37.95-24.15,50.41,5.86,4.04,3.54,6.85,4.39,12.15,1.19,7.45,4.15,6.03.89,15.79-7.29,21.88-36.22,50.29-61.95,49.25,2.97,32.53-15.86,79.91-52.07,88.38-14.47,3.39-25.51.69-37.44-7.39-2.19-1.49-4.29-5.22-6.99-3.82-.87.45-9.3,13.31-11.08,15.59-9.34,11.92-19.53,22.18-30.78,32.44,3.59,1.09,7.51-.08,11.17.63,8.7,1.7,16.69,17.03,15.63,25.16,6.15,3.41,12.56,1.17,18.26,5.18,7.39,5.2,10.75,15.08,10.93,23.55,33.11,17.49,53.39,39.72,69.52,72.1,29.71,59.65,47.09,134.78,53.84,200.54,2.47,24.06,5.2,57.41,1.71,81.02-2.51,16.95-7.66,19.34-24.16,22.21-82.24,14.33-166.03,14.13-249.34,14.94-74.02.72-161.21,6.24-233.81-3.58-15.16-2.05-53.32-7.29-55.17-25.72-.35-3.47,1.57-5.23,1.63-7.72,1.65-61.84,9.73-116.92,33.41-174.93,23.87-58.48,62.16-134.23,117.59-169.99,7.21-4.65,3.24-2.1,7.4-8.61,6.74-10.54,11.81-10.59,18.4-17.27,2.13-2.16,3.24-6.8,6.33-8.75-10.18-3.99-20.49-7.56-30.64-11.62-3.36-1.34-6.34-3.67-9.4-4.95-11.22-4.7-21.64-4.29-28.57-16.24-5.76-17.43-13.96-34.63-16.82-52.8-4.33-27.5-1.42-55.76,9.85-81.39-5.07-2.38-9.8-6.09-14.04-9.69-24.29-20.54-80.24-92.46-83.21-122.66-.52-5.26-.49-8.39,3.05-12.56,6.11-7.2,15.8-2.69,25-7.45,3.94-2.04,11.55-11.05,13.59-14.9,1.66-3.14-.21-9.24.24-13.73,1.24-12.35,8.45-22.68,22.21-23.15.22-12.09,2.35-23.66,7.56-34.69,4.93-10.44,12.09-21.2,25.9-18.41,13.46,2.72,8.5,18.95,17.66,24.95,11.01,7.22,15.7,1.57,26.23-1.61,27.25-8.24,54.11-4.49,78.76,8.74,3.3-12.7,13.74-25.86,26.71-30.69,4.36-1.62,8.43-1.47,12.44-2.91,6.35-2.28,13.49-7.12,20.72-9.81,24.39-9.05,62.76-18.48,87.35-7.37,11.56,5.22,15.32,18.64,13.84,30.17-.55,4.26-3.24,7.65-3.54,11.87ZM324.12,261.28c-.57,5.69.42,12.11,0,17.89-21.06-1.78-25.76,12.16-20.23,29.12-9.58,10.88-14.61,21.34-30.06,25.2-5.65,1.41-5.66.53-10.3.6-8.78.13-.26,17.56,1.64,22.08,7.79,18.52,22.2,38.84,34.53,55.02,17.02,22.32,36.02,44.7,60.72,59.46-17.68,31.99-20.6,74.64-6.41,108.35,3.36,7.99,3.88,7.31,5.69,16.35s8.23,14.66,16.98,16.88c9.88,2.51,10.04,3.49,18.74,7.35,29.63,13.15,61.47,19.3,94.27,18.28.88,4.63,4.41,11.94-1.98,13.72-12.93-7.63-32.33-12.56-47.45-10.3-4.23.63-13.42,8.81-15.47,12.22-.88,1.46-1.13,4.48-1.64,4.98-1.26,1.22-9.47,2.72-12.07,6.31-1.22,1.69-1.06,3.52-1.91,5.15-.63,1.19-1.95,1.91-2.66,3.56-.77,1.79-.95,5.96-1.56,6.79-.39.52-9.98,4.47-11.91,5.6-48.93,28.68-94.26,120.69-114.22,171.47-12.52,31.85-20.31,65.82-25.42,99.53-3.7,24.4-4.27,47.93-4.4,72.55,3.4,7.2,30.49,12.41,38.52,13.74,50.21,8.28,103.13,5.36,153.56,5.45,93.83.17,189.04,1.79,282.16-8.8,16.12-1.83,41.31-3.99,56.29-8,9.18-2.46,9.43-6.68,10.63-15.11,6.7-47.02-6.36-122.64-17.81-169.43-12.17-49.74-36.42-126.43-80.11-157.92-4-2.89-26.37-15.38-27.15-16.73-2.13-3.68,1.4-14.67-5.06-20.45-4.01-3.59-21.46-4.05-27.26-3.98,5.59-6.79,3.64-24.54-6.89-26.11-11.18-1.66-29.16,5.75-37.75,12.57-2.76,2.19-3.55,6.82-8.27,4.3l-3.61-12.94c23.33-8.61,42.81-25.27,58.31-43.71,9.29-11.06,16.4-23.73,26.1-34.37,1.54-.25,9.67,8.8,11.73,10.39,22.39,17.28,45.06,5.09,59.44-14.54,13.58-18.54,18.87-44.45,13.82-66.58,10.58.27,21.72-.55,31.24-5.41,10.14-5.16,25.08-22.18,30.24-32.1,2.35-4.52,7.28-13.96-.52-16.15-3.12-.88-17.06,4.77-21.8,3.49,9.08-7.48,15.29-15.85,21.86-25.29,4.38-6.28,22.01-32.62,21.89-38.44-.19-8.71-15.44,1.06-20.3,2.44-6.5,1.84-13.36,2.12-19.8,4.14,5.5-11.48,13.08-22.47,14.45-35.44.63-5.93-.71-26.51-6.01-30.03-7.43-4.93-27.71,3.12-33.73-1.04-.92-.63-3.27-7.68-4.27-9.44-22.27-39.29-68.37-44.96-109.17-29.8-9.61-11.28-24.76-16.49-39.73-16.41,8.23-11.56,18.49-29.42,3.18-40.12-19.08-13.34-72.28,2.23-91.79,12.37-3.35,1.74-7.05,5.99-11.33,6.62-2.43.36-3.48-1.18-7.24,0-16.43,5.15-24.45,23.86-28.49,38.58-20.07-16.64-46.82-23.94-73.01-18.06-15.71,3.53-23.03,12.93-40.35,4.12-5.16-2.63-8.89-6.04-10.88-11.38-2.1-5.63-1.22-18.14-11.33-12.55-6.39,3.53-13.93,26.83-14.64,33.95Z"/>
  <path d="M324.12,261.28c.71-7.11,8.25-30.41,14.64-33.95,10.11-5.59,9.23,6.92,11.33,12.55s5.72,8.76,10.88,11.38c17.32,8.81,24.64-.59,40.35-4.12,26.18-5.88,52.94,1.43,73.01,18.06,4.04-14.72,12.06-33.44,28.49-38.58,3.76-1.18,4.81.36,7.24,0,4.28-.64,7.98-4.88,11.33-6.62,19.5-10.13,72.71-25.7,91.79-12.37,15.31,10.7,5.05,28.56-3.18,40.12,14.97-.09,30.11,5.13,39.73,16.41,40.8-15.16,86.89-9.49,109.17,29.8.99,1.75,3.35,8.8,4.27,9.44,6.01,4.15,26.3-3.9,33.73,1.04,5.29,3.52,6.63,24.1,6.01,30.03-1.37,12.97-8.95,23.96-14.45,35.44,6.44-2.02,13.3-2.3,19.8-4.14,4.86-1.38,20.12-11.15,20.3-2.44.13,5.81-17.51,32.16-21.89,38.44-6.57,9.43-12.78,17.81-21.86,25.29,4.73,1.28,18.68-4.36,21.8-3.49,7.8,2.19,2.87,11.63.52,16.15-5.16,9.91-20.1,26.93-30.24,32.1-9.52,4.85-20.66,5.68-31.24,5.41,5.05,22.13-.24,48.04-13.82,66.58-14.38,19.62-37.06,31.82-59.44,14.54-2.06-1.59-10.19-10.64-11.73-10.39-9.69,10.65-16.81,23.32-26.1,34.37-15.5,18.44-34.98,35.1-58.31,43.71l3.61,12.94c4.72,2.53,5.52-2.1,8.27-4.3,8.59-6.83,26.57-14.24,37.75-12.57,10.53,1.57,12.48,19.32,6.89,26.11,5.8-.07,23.26.39,27.26,3.98,6.46,5.78,2.93,16.77,5.06,20.45.78,1.35,23.15,13.84,27.15,16.73,43.68,31.5,67.94,108.18,80.11,157.92,11.45,46.78,24.51,122.41,17.81,169.43-1.2,8.43-1.45,12.65-10.63,15.11-14.97,4.01-40.17,6.17-56.29,8-93.11,10.59-188.32,8.97-282.16,8.8-50.43-.09-103.35,2.83-153.56-5.45-8.03-1.32-35.12-6.54-38.52-13.74.13-24.62.7-48.15,4.4-72.55,5.11-33.7,12.9-67.67,25.42-99.53,19.96-50.78,65.29-142.78,114.22-171.47,1.93-1.13,11.52-5.09,11.91-5.6.62-.83.8-5,1.56-6.79.71-1.65,2.03-2.36,2.66-3.56.85-1.63.69-3.47,1.91-5.15,2.6-3.6,10.82-5.09,12.07-6.31.51-.5.76-3.51,1.64-4.98,2.04-3.41,11.24-11.59,15.47-12.22,15.12-2.27,34.52,2.67,47.45,10.3,6.39-1.78,2.86-9.09,1.98-13.72-32.8,1.03-64.64-5.13-94.27-18.28-8.7-3.86-8.85-4.84-18.74-7.35-8.75-2.22-15.25-8.25-16.98-16.88s-2.33-8.36-5.69-16.35c-14.19-33.71-11.27-76.36,6.41-108.35-24.69-14.76-43.7-37.14-60.72-59.46-12.34-16.18-26.75-36.51-34.53-55.02-1.9-4.52-10.42-21.95-1.64-22.08,4.64-.07,4.65.81,10.3-.6,15.45-3.86,20.48-14.32,30.06-25.2-5.53-16.96-.83-30.9,20.23-29.12.42-5.78-.57-12.19,0-17.89ZM489.82,295.74l21.61-10.26c27.39-9.83,69.09-8.99,88.42-32.18,6.85-8.22,21.08-34.53,6.52-40.89-17.69-7.73-55.49,3.65-73.55,9.81-10.77,3.67-28.13,9.41-35.74,17.23-10.98,11.28-18.62,34.71-12.27,49.3,11.02-18.77,32.4-33.14,54.33-37.78,6.5-1.38,18.48-3.15,24.68-1.27,1.05.32,2.74,1.72,2.47,2.85-.51,2.19-23.86,5.22-28.02,6.31-19.33,5.03-40.34,19-48.45,36.89ZM341.41,241.65c-2.06-.36-1.45.11-2.03,1.11-6.16,10.73-6.2,29.53-3.38,41.15.79,3.27,6.26,12.58-1.48,12.66-7.6.08-5.46-10.06-17.25-8.7-8.83,1.02-7.02,13.06-9.54,19.2,1.3,1.05,6.71-5.67,11.22-4.24,7.52,2.39-5.14,14.59-7.57,16.91-12.86,12.32-23.34,18.76-40.54,23.96-1.2.36-1.46-.67-1.38,1.33s1.97,5.66,2.89,7.72c7.02,15.65,18.21,31.29,28.26,45.33,17.94,25.04,37.11,49.79,62.24,68.63l6.44-5.13,2.13,1.3c.5,1.88-6.92,16.63-8.18,19.98-11.08,29.56-12.37,61.07-2.7,91.18,1.19.25,1.08-.9,1.35-1.73,1.16-3.65,1.25-7.4,3.02-11.08.99-2.05,4.44-5.53,4.55-6.06.18-.89-4.1-12.92-4.41-16.43-.8-8.96.69-16.78,5.47-24.48,3.05-4.92,7.11-10.28,13.67-7.39.13-3.03.95-6.14,2.03-8.97.89-2.33,4.84-7.97,5.03-9.06.26-1.49-3.62-9.2-4.09-12.3-.51-3.32.22-6.61-.63-9.87-.85-1.12-10.41-1.09-9.22-6.06.94-1.78,7.75-2.42,10.08-2.6,6.78-.51,14.09.4,20.92-.02,10.62-.66,21.27-2.15,31.82-3.49,1.57.23,3.16,1.39,3.22,3.04.25,6.69-17.61,8.12-22.73,8.32l4.04,8.47c10.45-1.94,21.15.1,30.92,3.67,9.42-9.87,4.44-22.55,5.06-34.44.29-5.55,3.36-28.75,8.82-30.82.62-.24,2.11-.52,2.2.39,2.03,2.73-1.58,17.36-1.87,21.75-.76,11.5,2.21,26.32-2.57,36.8-1.17,2.56-5.96,7.69-5.7,9.37,20.87,12.99,36.99,25.64,30.77,52.17-3.16,13.49-18.97,30.83-31.9,36.61-11.45,5.12-23.82,5.18-36.12,4.21l8.76,2.5c17.24.7,36.33-3.83,48.15-16.47.97,1.47-1.8,4.23-2.72,5.24-16.18,17.77-49.19,20.96-68.67,6.46-7.39-5.5-17.65-15.78-22.66-23.65-.91-1.42-1.75-2.95-2.01-4.63l-.89,8.71c-5.08-11.18-3.39-22.28-3.19-34.01-15.36,16.3-.09,33.7,4.09,50.59-5.64,1.09-7.97-3.46-11.82-6.1-2.78,11.24.57,22.69.89,34.02-3.5.04-3.65-3.46-4.44-5.78s-1.09-2.07-1.05.13c.12,7.09,3.24,11.35,10.72,12.42,8.23,1.18,23.08-3.57,32.57-4.14,12.75-.77,25.62.82,38.19.9,32.07.21,68.52-2.19,99.92,2.83,2.88.46,20.66,2.8,16.71,7.65-1.32.78-3.23,1.32-4.75,1.37-13.87.53-31.03-2.71-45.34-3.21-21.93-.76-44.61-.71-66.46-.87-16.9-.13-34.01-.78-50.57,2.66-1.48,1.42,5.25,3.9,6.05,4.23,46,19.43,138.14,20.26,182.11-4.09,18.86-10.44,35.14-28.11,48-44.74,3.38-4.37,17.44-26.09,20.6-27.37,10.43-4.21,15.8,8.82,22.82,13.86,30.44,21.86,54.91-24.51,58.81-48.18,6.14-37.2-24.09-56.22-60.03-50.54-7,1.11-21.87,9.57-23.97.7-1.49-6.26,4.83-21.59,5.87-29.39,4.04-30.5-5.53-68.89-25.4-93.22-4.15-5.08-10.12-8.12-10.9-14.85-1.24-10.66,1.08-19.68,8.22-27.9,3.62-4.16,12.1-8.66,13.26-13.49,2.13-8.85-13.85-18.83-22.34-18.33-2.5,12.28-21.45,17.69-32.63,20.65-28.17,7.47-67.96,10.7-92.44,25.7-3.87,2.37-13.88,13.03-16.6,12.95-1.09-.03-5.32-4.88-6.82-5.65-4.03-13.75-2.08-28.25-.92-42.3l-3.69-.48c-43.26,14.6-70.71,52.03-82.98,93.11-7.95,26.62-5.68,50.82-7.01,77.91-.12,2.48-1.1,13.96-1.79,14.87-5.09,6.67-7.18-10.92-7.34-13.17-1.69-23.2-.55-55.92,5.71-78.26,11.28-40.24,39.91-84.53,82.59-98.83-18.41-10.11-39.77-12.76-60.28-7.17-10.9,2.97-15.72,8.04-28.25,6.51-11.3-1.38-26.49-10.24-28.92-21.59ZM616.37,255.62l-14.65,1.27c-.12,6.15-5.07,8.69-9.02,12.67,8.73-2.92,18.13-6.5,23.67-13.94ZM792.04,311.49c-1.41-1.31-30.68,3.86-35.89-3.57-1.75-2.49-3.62-9.14-5.8-12.77-18.58-31.02-59.23-37.41-92.72-26.61-5.75,1.85-4.18,6.09-6.31,10.53-3.39,7.09-8.5,10.63-14.06,15.32-4.54,3.84-7.18,13.69-6.39,19.27.51,3.59,10.58,12.81,13.55,16.68,26.25,34.15,31.12,78.45,20.19,118.94,23.77-8.68,51.45-5.34,70,11.87,2.65,2.46,5.21,7.84,8.69,8.25,17.04,2.01,31.66-3.88,42.86-15.75,2.3-2.44,17.11-20.75,15-22.69-5.88.09-11.94,2.24-17.76,2.6-2.9.18-8.7.8-10.4-1.39-.72-1.02-.85-1.77-.59-2.97.94-4.32,13.69-14.14,17.38-18.3,9.86-11.14,16.84-25.66,25.02-37.97-3.91.04-7.67,2.12-11.61,2.83-7.84,1.42-22.12,3.04-29.61.91-6.56-1.87,5.62-11.69,7.91-14.72,11.43-15.12,15.6-32.2,10.51-50.48ZM450.22,663.04c-2.12.6-10.59,0-13.66,0-1.02,0-10.73,2.88-12.77,3.47-1.29.37-1.61-.55-1.34,1.75,5.87,1.48,12.59,2.54,18.71,1.79,2.81-.34,4.32-2.62,6.33-2.6.8,0,8.52,2.84,8.98,3.35,2.88,5.96-1.66,5.05-4.86,8.38,5.41,5.14,12.58,12.51,20.02,14.82,12.78,3.97,29.29-3.36,42.28-4.77,13.88,6.54,22.68,13.38,39.23,12.23,13.39-.93,36.17-11.69,36.07-26.51l1.34-1.33c6.54-1.04,30.84,3.2,34.91-.57s.12-10.59,1.07-13.75c.89-2.95,5.66-2.41,1.43-8.24-2.4-2.02-20.52-5.84-20.75-6.87-1.24-5.46,11.5-8.62,14.18-12.57l-.9-1.72c-4.2,1.12-26.06,7.66-27.39,10.44,9.48,15.66,4.26,20.66-11.34,26.6-19.18,7.31-52.85,10.57-73.04,7.21-5.15-.86-22.39-5.53-23.43-10.7-.61-3.04,1.38-5.22-2.5-7.2-4.46-2.27-24.43-6.69-29.85-7.16-1.66-.14-3.34.01-4.99,0,.94,2.35,3.67,9.87,3.63,11.83-.02.82-.66,1.92-1.35,2.12ZM492.55,662.15c22.32,9.52,53.1,7.43,76.26,1.12,3.52-.96,28.89-8.8,17.49-13.75-3.69-1.6-20.26,5.55-25.47,6.97-14.69,4-31.63,6.55-46.92,5.71-4.97-.27-15.26-3.04-19.08-2.67-1.56.15-2.54,1.06-2.27,2.63ZM641.86,668.28l13.71.46c1.47-11.12-4.77-12.39-14.62-10.92l.91,10.46ZM414.45,681.19c5.61,4.06,14.28,4.03,19.82-.26l-18.64-7.43-1.18,7.69ZM782.98,1022.49v-13.09c-25.03,21.63-40.83-9.99-26.25-30.82,10.79-15.41,19.17-33.41,20.8-52.5.47-5.55-1.99-15.66-2.9-21.66-2.69-17.74-6.74-35.27-9.87-52.92-1.79-.45-1.76.71-2.56,1.47-9.88,9.35-15.46,20.79-32.41,18.52-21.42-2.87-33.32-50.54-41.92-67.14-13.26-25.61-43.97-45.97-23.63-75.79,9.47-13.88,22.66-18.21,39.56-13.63,6.86,1.86,3.93,2.35,5.91,6.55.82,1.73,7.31,6.59,5.88,3.1-.57-1.4-7.64-10.53-9.11-12.21-11.88-13.47-28.41-21.21-42.69-31.5-1.72-1.24-4.29-4.62-5.57-5.18-3.11-1.35-9.75,2.28-13.63,1.32.44,21.2-22.94,27.4-41.26,23.64-5.46,8.09-12.89,16.47-22.12,20.75-4.22,1.96-8.46,2.37-12.39,3.83-6.53,2.42-9.33,6-18.4,5.9-3.55-.04-23.18-4.49-26.71-5.88-6.98-2.74-9.84-6.99-14.3-12.39l-12.74,6.04c-16.15,71.78-32.43,143.73-41.43,216.8-4.28,34.77-6.24,69.85-10.04,104.67l159.83-.39,46.85-2.66c-1.96-3.99-.08-7.14.04-10.86,1.41-42.78-1.49-93.78-9.41-135.88-3.73-19.86-19.59-30.84-27.21-48.95-.82-1.96-4.22-8.78-.3-9.12,1.83-.16,5.84,5.27,7.2,6.87,11.43,13.41,24.65,30.78,28.49,47.73,8.97,39.64,12.32,97.05,10.34,137.61-.17,3.54-1.06,8.23-1.86,11.73,41.53-1.4,82.94-7.14,123.82-13.95ZM601.81,682.24l3.63,10.03c12.23,1.83,29.69.68,30.04-14.4-9.79,7.16-22.19,5.38-33.67,4.37ZM407.87,684.86h-1.33c-33.17,23.47-58.84,55.16-78.62,89.65-.8,3.03,5.25,8.99,6.87,12.23,8.91,17.86-6.54,38.11-5.08,57.22.63,8.28,4.59,17.21,5.33,25.42,2.71,30.05-18.71,32.23-31.32,52.84-6.65,10.87-8.19,30.73-26.39,28.65-6.28-.72-7.42-4.94-12.37-6.91-6.55,26.47-6.49,53.74-9.11,80.68.34,3.68,13.76,6.25,17.27,7.03,22.19,4.89,45.65,6.54,68.31,8.26.44-18.13,2.53-36.37,4.67-54.42,4.44-37.4,9.97-76.03,21.49-112.01,5.34-16.69,17.78-39.2,19.35-55.61.79-8.21-2.73-16.45.82-24.35,4.52-2.47,5.44,3.32,6.2,6.3,6.78,26.79-10.7,53.21-18.39,78.7-8.45,28-13.56,58.87-17.63,87.8-3.44,24.49-4.78,49.3-9.23,73.59l89.22.88c-.43-18.51,1.15-36.96,2.73-55.4,7.69-89.37,25.24-177.91,47.33-264.79-6.98-.45-13.44,1.33-20.47.85-18.36-1.25-32.86-11.16-37.01-28.66-8.32.14-18.78.54-22.66-7.96ZM505.3,701.42c-12.2,1.38-24.18,4.75-36.42,1.31-6.2-1.74-16.1-8.77-20.98-13.05-1.83-1.6-2.53-4.95-5.42-4.83-3.11,14.14,16.17,25.25,28.64,26.2,4.93.38,14.89-.33,19.83-1.13,1.9-.31,13.74-3.56,14.19-4.28.59-.96-.01-2.99.16-4.22ZM517.14,699.69c-1.04,6.87,3.03,14.48,9.74,17.26,9.48,3.93,37.29,1.17,47.02-2.56,9.78-3.75,22.05-13.15,20.61-24.3-15.26,16.74-41.17,25.59-63.43,16.73-5.02-2-9.02-5.29-13.94-7.13ZM330.49,858.46l-3.63-16.57c.46,4.28.17,10.33.9,14.39.27,1.49,1,2.45,2.73,2.18ZM724.7,866.31c.71-2.65-9-10.56-10.01-9.59-.38,2.48,8.89,10.66,10.01,9.59Z"/>
  <path class="cls-1" d="M341.41,241.65c2.43,11.35,17.62,20.21,28.92,21.59,12.52,1.53,17.34-3.54,28.25-6.51,20.52-5.59,41.87-2.94,60.28,7.17-42.68,14.3-71.31,58.59-82.59,98.83-6.26,22.34-7.4,55.07-5.71,78.26.16,2.25,2.25,19.85,7.34,13.17.69-.91,1.67-12.39,1.79-14.87,1.32-27.1-.95-51.29,7.01-77.91,12.27-41.07,39.72-78.51,82.98-93.11l3.69.48c-1.16,14.05-3.1,28.55.92,42.3,1.5.77,5.73,5.62,6.82,5.65,2.72.08,12.73-10.58,16.6-12.95,24.49-15.01,64.28-18.24,92.44-25.7,11.17-2.96,30.13-8.37,32.63-20.65,8.49-.5,24.46,9.48,22.34,18.33-1.16,4.83-9.65,9.33-13.26,13.49-7.14,8.22-9.46,17.24-8.22,27.9.78,6.74,6.75,9.77,10.9,14.85,19.87,24.32,29.44,62.71,25.4,93.22-1.03,7.8-7.35,23.13-5.87,29.39,2.1,8.86,16.97.4,23.97-.7,35.94-5.68,66.16,13.34,60.03,50.54-3.91,23.68-28.38,70.04-58.81,48.18-7.02-5.04-12.39-18.07-22.82-13.86-3.16,1.27-17.23,23-20.6,27.37-12.86,16.63-29.13,34.3-48,44.74-43.98,24.35-136.11,23.52-182.11,4.09-.8-.34-7.53-2.81-6.05-4.23,16.56-3.44,33.66-2.79,50.57-2.66,21.85.17,44.53.12,66.46.87,14.31.49,31.47,3.74,45.34,3.21,1.53-.06,3.43-.59,4.75-1.37,3.95-4.85-13.83-7.19-16.71-7.65-31.4-5.03-67.85-2.63-99.92-2.83-12.57-.08-25.44-1.67-38.19-.9-9.48.57-24.33,5.32-32.57,4.14-7.48-1.07-10.6-5.33-10.72-12.42-.04-2.2.24-2.52,1.05-.13s.94,5.82,4.44,5.78c-.32-11.33-3.68-22.78-.89-34.02,3.85,2.64,6.18,7.19,11.82,6.1-4.18-16.89-19.44-34.29-4.09-50.59-.2,11.73-1.88,22.83,3.19,34.01l.89-8.71c.26,1.67,1.1,3.2,2.01,4.63,5.01,7.87,15.28,18.15,22.66,23.65,19.48,14.5,52.49,11.32,68.67-6.46.92-1.01,3.7-3.77,2.72-5.24-11.81,12.64-30.91,17.17-48.15,16.47l-8.76-2.5c12.31.97,24.67.91,36.12-4.21,12.93-5.78,28.74-23.12,31.9-36.61,6.22-26.52-9.9-39.18-30.77-52.17-.26-1.68,4.53-6.81,5.7-9.37,4.78-10.48,1.81-25.3,2.57-36.8.29-4.39,3.9-19.01,1.87-21.75-.09-.91-1.58-.63-2.2-.39-5.46,2.07-8.53,25.27-8.82,30.82-.62,11.88,4.36,24.56-5.06,34.44-9.77-3.57-20.47-5.61-30.92-3.67l-4.04-8.47c5.12-.2,22.98-1.63,22.73-8.32-.06-1.66-1.65-2.82-3.22-3.04-10.54,1.34-21.19,2.84-31.82,3.49-6.83.42-14.14-.49-20.92.02-2.33.18-9.14.82-10.08,2.6-1.19,4.97,8.37,4.93,9.22,6.06.84,3.26.12,6.55.63,9.87.47,3.1,4.34,10.81,4.09,12.3-.19,1.09-4.14,6.74-5.03,9.06-1.09,2.83-1.91,5.94-2.03,8.97-6.56-2.89-10.62,2.47-13.67,7.39-4.78,7.71-6.27,15.53-5.47,24.48.31,3.51,4.59,15.54,4.41,16.43-.11.53-3.56,4.01-4.55,6.06-1.77,3.68-1.86,7.43-3.02,11.08-.26.83-.16,1.99-1.35,1.73-9.67-30.11-8.38-61.62,2.7-91.18,1.25-3.34,8.68-18.1,8.18-19.98l-2.13-1.3-6.44,5.13c-25.13-18.84-44.31-43.59-62.24-68.63-10.05-14.04-21.25-29.68-28.26-45.33-.92-2.06-2.81-5.66-2.89-7.72s.18-.97,1.38-1.33c17.2-5.2,27.68-11.65,40.54-23.96,2.43-2.32,15.09-14.52,7.57-16.91-4.51-1.43-9.92,5.29-11.22,4.24,2.52-6.13.7-18.18,9.54-19.2,11.79-1.36,9.66,8.78,17.25,8.7,7.74-.08,2.27-9.4,1.48-12.66-2.82-11.63-2.78-30.42,3.38-41.15.58-1.01-.04-1.47,2.03-1.11ZM393.3,355.93c1.26-4.02,3.04-8.49,4.99-12.23,4.66-8.92,11.85-16.9,15.04-26.14l-10.74,15.43c-2.94,6.53-8.09,13.38-9.79,20.29-.22.88-1.2,2.85.49,2.65ZM452.49,336.75c-.42,3.19.28,3.46,2.69,4.84,8.06,4.62,29.39,4.54,38.64,2.91,11.62-2.04,9.51-5.3-.83-6.87-13.02-1.97-27.31-.33-40.5-.88ZM552.64,350.71c-1.6-1.5-32.65,4.72-37.79,5.22-29.1,2.88-57.22-.35-83.82-12.18l-4.94,1.3c2.03,6.15,9.4,9.27,15.24,11.55,26.82,10.49,63.14,11.13,91.12,4.85,1.95-.44,24.73-6.5,20.19-10.75ZM445.88,377.95c-4.34.78-11.23,4.17-16.15,5.47-6.84,1.8-14.29,3.32-21.36,3.96-10.65.96-30.12-2.47-23.42,15.4,4.69,12.51,10.5,12.56,23.42,11.65,11.44-.81,32.18-8.2,42.49-13.37,9.09-4.56,14.08-15.33,3.75-21.41-3.02-1.78-5.15-2.34-8.74-1.69ZM598.79,401.57c-5.72-6.2-16.82-.33-23.89-.23-10.91.15-23.46-4.65-33.08-9.3-4.4-2.13-17.79-11.24-20.66-11.64-12.8-1.82-18.62,16.21-11.33,23.97,4.49,4.77,37.52,17.23,45.33,19.37,9.37,2.57,24.74,4.88,34.36,3.76,12.41-1.45,16.22-18.39,9.26-25.93ZM560.83,478.08c10.21.33,19.79-3.78,29.82-5.02,5.31-2.81,3.66-8.99-2.28-9.63-25.72.79-54.29,5.1-79.82,1.5-2.41-.34-8.28-4.07-9.5.67-1.77,6.93,15.22,9.02,19.53,10.69-7.73,18.22,13.01,38.65,31.83,31.48,12.66-4.82,13.04-18.72,10.43-29.7ZM706.51,506c-.59-.62,4.12-7.05,4.97-7.88,2.26-2.23,9.26-4.4,7.36-7.83-7.61-6.41-22.25.1-29.55,4.88-6.48,4.24-17.4,14.22-15.55,22.17,3.3,2.32,18.31-16.65,23.66-16.57-1.85,4.29-5.01,7.85-6.81,12.23-1.27,3.1-6.63,20.07.74,18.22,1.97-.49,5.55-10.96,7.49-13.81,2.48-3.65,13.66-12.71,14.04-13.59,1.74-3.96-6.1,2.46-6.36,2.19ZM490.42,493.04c-.82.25-1.74,1.03-1.42,1.95,8.97,9.74,14.72,21.69,13.56,34.99-.25,2.89-4.67,13.87-.45,14.22,12.38-7.31,10.88-26.82,5.18-37.91-2.43-4.72-10.53-15.16-16.86-13.24ZM541.45,518.35c-.83.2-2.17,1.39-2.33,2.17-.61,3.02,11.9,11.32,14.47,13.8,7.85,7.57,15.51,18.51,21.06,27.8,2.03,3.41,8.83,18.92,11.39,19.65,4.54,1.3,4.28-3.14,3.85-6.34-1.15-8.35-13.89-27.43-19.57-34.46-4.1-5.07-22.23-24.24-28.87-22.63Z"/>
  <path class="cls-1" d="M782.98,1022.49c-40.88,6.81-82.29,12.55-123.82,13.95.8-3.51,1.69-8.19,1.86-11.73,1.98-40.56-1.37-97.97-10.34-137.61-3.83-16.95-17.05-34.32-28.49-47.73-1.36-1.6-5.37-7.03-7.2-6.87-3.92.34-.52,7.16.3,9.12,7.62,18.12,23.48,29.09,27.21,48.95,7.91,42.1,10.82,93.11,9.41,135.88-.12,3.72-2,6.88-.04,10.86l-46.85,2.66-159.83.39c3.8-34.82,5.76-69.9,10.04-104.67,9-73.07,25.28-145.02,41.43-216.8l12.74-6.04c4.45,5.4,7.32,9.65,14.3,12.39,3.53,1.39,23.16,5.84,26.71,5.88,9.07.1,11.87-3.48,18.4-5.9,3.93-1.46,8.17-1.87,12.39-3.83,9.23-4.28,16.66-12.65,22.12-20.75,18.32,3.76,41.7-2.45,41.26-23.64,3.88.96,10.52-2.68,13.63-1.32,1.28.56,3.85,3.94,5.57,5.18,14.29,10.29,30.82,18.03,42.69,31.5,1.48,1.68,8.54,10.81,9.11,12.21,1.43,3.49-5.06-1.36-5.88-3.1-1.98-4.2.94-4.69-5.91-6.55-16.9-4.58-30.09-.25-39.56,13.63-20.34,29.81,10.37,50.17,23.63,75.79,8.6,16.6,20.5,64.27,41.92,67.14,16.95,2.27,22.53-9.16,32.41-18.52.8-.76.76-1.91,2.56-1.47,3.12,17.65,7.17,35.18,9.87,52.92.91,6,3.37,16.11,2.9,21.66-1.63,19.09-10.01,37.08-20.8,52.5-14.58,20.84,1.22,52.45,26.25,30.82v13.09ZM510.54,748.77c-6,.84-12.97,5.09-15.43,10.51-.7,1.54-5.13,11.76-5.24,12.43-2.79,16.72,9.44,32.34,27.9,24.99,2.13-.85,11.93-7.73,13.84-9.43,19.87-17.69,4.2-42.04-21.06-38.5ZM478.9,854.98c7.4,10.25,16.31,16.68,29.83,12.46,21.8-6.8,16.78-39.24-6.73-42.02-10.59-1.25-19.11-.38-22.89,10.16-2.97,8.29-3.74,21.44-.52,29.73,3.54,9.12,15.92,9.21,23.96,6.25.21-1.56-2.04-.85-3.06-.76-4.51.39-6.71,1.07-11.49-.54-7.58-2.55-8.55-8.32-9.1-15.26ZM668.25,997.18c.82-29.01-1.55-57.98-5.57-86.69-1.91-13.66-3.96-29.87-9.23-42.64-.38-.93-.27-2.6-1.57-2.39l16.37,131.73ZM505.88,909.38c-8.39-8.45-25.41-10.44-34.27-1.61-6.16,6.14-3.84,11.99-4.57,19.17-.86,8.44-4.88,15.48,4.12,22.26,3.8,2.86,12.38,4.45,15.93.89-10.78,1.62-21.26-4.38-20.02-15.71,2.61,2.28,4.5,5.26,7.26,7.43,23.31,18.28,48.97-14.87,31.55-32.42Z"/>
  <path class="cls-1" d="M407.87,684.86c3.88,8.49,14.34,8.1,22.66,7.96,4.15,17.51,18.64,27.42,37.01,28.66,7.02.48,13.49-1.3,20.47-.85-22.1,86.88-39.64,175.42-47.33,264.79-1.59,18.44-3.16,36.89-2.73,55.4l-89.22-.88c4.45-24.29,5.79-49.1,9.23-73.59,4.06-28.94,9.17-59.8,17.63-87.8,7.69-25.49,25.17-51.91,18.39-78.7-.75-2.98-1.68-8.76-6.2-6.3-3.55,7.9-.03,16.14-.82,24.35-1.58,16.41-14.01,38.93-19.35,55.61-11.53,35.98-17.06,74.61-21.49,112.01-2.14,18.05-4.23,36.29-4.67,54.42-22.66-1.72-46.12-3.37-68.31-8.26-3.51-.77-16.93-3.35-17.27-7.03,2.62-26.95,2.57-54.21,9.11-80.68,4.95,1.96,6.09,6.19,12.37,6.91,18.2,2.08,19.74-17.78,26.39-28.65,12.61-20.61,34.03-22.79,31.32-52.84-.74-8.21-4.69-17.14-5.33-25.42-1.46-19.11,13.99-39.36,5.08-57.22-1.62-3.24-7.67-9.2-6.87-12.23,19.78-34.49,45.45-66.18,78.62-89.64h1.33ZM331.4,1013.76c3.74-33.42,13.8-65.43,22.15-97.87,1.6-6.22,2.35-12.67,3.97-18.88,6.35-24.23,13.32-48.2,22.13-71.69l-13.19,32.28c-7.75,47.42-33.08,102.48-36,149.58-.09,1.4-.68,5.98.94,6.58Z"/>
  <path class="cls-1" d="M792.04,311.49c5.09,18.28.93,35.36-10.51,50.48-2.3,3.04-14.47,12.85-7.91,14.72,7.49,2.13,21.77.51,29.61-.91,3.94-.72,7.7-2.79,11.61-2.83-8.18,12.31-15.16,26.83-25.02,37.97-3.69,4.17-16.44,13.99-17.38,18.3-.26,1.2-.13,1.95.59,2.97,1.7,2.18,7.5,1.57,10.4,1.39,5.82-.36,11.88-2.51,17.76-2.6,2.11,1.94-12.7,20.25-15,22.69-11.2,11.87-25.82,17.75-42.86,15.75-3.48-.41-6.04-5.8-8.69-8.25-18.55-17.21-46.24-20.55-70-11.87,10.93-40.49,6.06-84.79-20.19-118.94-2.97-3.87-13.04-13.09-13.55-16.68-.79-5.58,1.85-15.43,6.39-19.27,5.56-4.7,10.67-8.23,14.06-15.32,2.13-4.45.56-8.68,6.31-10.53,33.48-10.8,74.14-4.41,92.72,26.61,2.17,3.62,4.05,10.28,5.8,12.77,5.21,7.42,34.47,2.26,35.89,3.57Z"/>
  <path class="cls-1" d="M489.82,295.74c8.1-17.89,29.12-31.85,48.45-36.89,4.16-1.08,27.51-4.12,28.02-6.31.27-1.13-1.42-2.53-2.47-2.85-6.2-1.88-18.18-.1-24.68,1.27-21.93,4.64-43.31,19.01-54.33,37.78-6.35-14.59,1.29-38.01,12.27-49.3,7.6-7.81,24.97-13.56,35.74-17.23,18.05-6.16,55.86-17.53,73.55-9.81,14.56,6.36.33,32.67-6.52,40.89-19.33,23.19-61.02,22.34-88.42,32.18l-21.61,10.26ZM518.96,251.24c1.5,1.43,20.33-8.71,23.68-10.01,12.34-4.8,26.96-9.3,40.32-6.69,3.43-1.62,3.68-6.11-.23-7.33-13.49-4.2-41.46,5.46-53.33,12.67-2.04,1.24-13.29,8.64-10.44,11.36ZM491.65,252.99l16.37-18.32c-7.71,3.18-13.65,10.84-16.37,18.32ZM553.55,258.23c-14.24,0-29.25,6.96-40.71,14.63-2.05,1.37-18.08,13.55-15.73,15.89,1.71.38,2.16-.93,3.18-1.74,12.88-10.18,20.83-18.5,37.54-24.22l15.71-4.56Z"/>
  <path class="cls-1" d="M450.22,663.04c.69-.2,1.34-1.3,1.35-2.12.04-1.96-2.69-9.48-3.63-11.83,1.65.02,3.34-.14,4.99,0,5.42.47,25.39,4.89,29.85,7.16,3.89,1.98,1.89,4.16,2.5,7.2,1.04,5.17,18.29,9.84,23.43,10.7,20.19,3.37,53.86.1,73.04-7.21,15.6-5.94,20.81-10.94,11.34-26.6,1.33-2.78,23.18-9.31,27.39-10.44l.9,1.72c-2.68,3.95-15.42,7.1-14.18,12.57.23,1.03,18.36,4.85,20.75,6.87,4.23,5.83-.54,5.29-1.43,8.24-.95,3.16,2.97,10.02-1.07,13.75s-28.37-.47-34.91.57l-1.34,1.33c.1,14.82-22.68,25.57-36.07,26.51-16.55,1.15-25.35-5.68-39.23-12.23-13,1.41-29.5,8.74-42.28,4.77-7.44-2.31-14.61-9.68-20.02-14.82,3.2-3.33,7.74-2.41,4.86-8.38-.46-.51-8.17-3.35-8.98-3.35-2-.01-3.52,2.26-6.33,2.6-6.11.75-12.83-.32-18.71-1.79-.27-2.3.05-1.38,1.34-1.75,2.05-.59,11.76-3.47,12.77-3.47,3.06,0,11.54.6,13.66,0Z"/>
  <path class="cls-1" d="M517.14,699.69c4.93,1.85,8.92,5.13,13.94,7.13,22.26,8.86,48.17,0,63.43-16.73,1.44,11.16-10.83,20.55-20.61,24.3-9.73,3.73-37.54,6.49-47.02,2.56-6.72-2.78-10.78-10.39-9.74-17.26Z"/>
  <path class="cls-1" d="M492.55,662.15c-.26-1.56.71-2.48,2.27-2.63,3.82-.36,14.11,2.4,19.08,2.67,15.29.84,32.23-1.71,46.92-5.71,5.21-1.42,21.78-8.57,25.47-6.97,11.4,4.95-13.97,12.79-17.49,13.75-23.16,6.32-53.94,8.41-76.26-1.12Z"/>
  <path class="cls-1" d="M505.3,701.42c-.17,1.23.43,3.26-.16,4.22-.45.72-12.29,3.98-14.19,4.28-4.93.8-14.9,1.5-19.83,1.13-12.47-.95-31.75-12.06-28.64-26.2,2.89-.12,3.59,3.22,5.42,4.83,4.88,4.28,14.77,11.31,20.98,13.05,12.25,3.43,24.22.06,36.42-1.31Z"/>
  <path class="cls-1" d="M601.81,682.24c11.48,1.01,23.88,2.8,33.67-4.37-.35,15.08-17.81,16.23-30.04,14.4l-3.63-10.03Z"/>
  <path class="cls-1" d="M641.86,668.28l-.91-10.46c9.85-1.47,16.09-.2,14.62,10.92l-13.71-.46Z"/>
  <path class="cls-1" d="M414.45,681.19l1.18-7.69,18.64,7.43c-5.54,4.3-14.21,4.32-19.82.26Z"/>
  <path class="cls-1" d="M616.37,255.62c-5.54,7.44-14.94,11.02-23.67,13.94,3.95-3.98,8.9-6.52,9.02-12.67l14.65-1.27Z"/>
  <path class="cls-1" d="M724.7,866.31c-1.11,1.08-10.39-7.11-10.01-9.59,1.01-.97,10.71,6.94,10.01,9.59Z"/>
  <path class="cls-1" d="M330.49,858.46c-1.73.27-2.46-.69-2.73-2.18-.73-4.06-.44-10.11-.9-14.39l3.63,16.57Z"/>
  <path d="M560.83,478.08c2.61,10.98,2.23,24.88-10.43,29.7-18.82,7.16-39.56-13.27-31.83-31.48-4.3-1.67-21.3-3.76-19.53-10.69,1.21-4.74,7.09-1.01,9.5-.67,25.53,3.6,54.1-.71,79.82-1.5,5.94.64,7.59,6.81,2.28,9.63-10.03,1.24-19.61,5.35-29.82,5.02Z"/>
  <path d="M598.79,401.57c6.96,7.54,3.16,24.48-9.26,25.93-9.62,1.13-24.99-1.19-34.36-3.76-7.81-2.14-40.84-14.6-45.33-19.37-7.29-7.76-1.48-25.79,11.33-23.97,2.87.41,16.26,9.51,20.66,11.64,9.62,4.65,22.16,9.44,33.08,9.3,7.07-.09,18.17-5.96,23.89.23ZM590.83,408.31c-22.96,5.81-44.27-2.33-63.6-13.62-1.49-.87-5.69-4.5-6.12-4.58-3.51-.66-4.97,4.01-3.52,6.85s14.92,7.97,18.44,9.37c14.22,5.67,34.46,13.08,49.84,11.56,7.25-.72,6.83-3.45,4.96-9.57Z"/>
  <path d="M445.88,377.95c3.59-.65,5.71-.09,8.74,1.69,10.33,6.09,5.34,16.85-3.75,21.41-10.31,5.17-31.05,12.56-42.49,13.37-12.92.91-18.73.87-23.42-11.65-6.69-17.87,12.78-14.43,23.42-15.4,7.07-.64,14.51-2.17,21.36-3.96,4.92-1.29,11.81-4.69,16.15-5.47ZM394.23,396.95l4.54,8.28c10.02.95,19.83-1.89,29.11-5.26,5.14-1.87,14.72-5.37,19.19-7.78,3.85-2.08,2.7-4.75-.48-4.82-.9-.02-8.25,3.26-10.5,3.9-13.59,3.87-27.61,6.4-41.87,5.68Z"/>
  <path d="M552.64,350.71c4.54,4.25-18.23,10.31-20.19,10.75-27.99,6.28-64.3,5.64-91.12-4.85-5.84-2.28-13.21-5.4-15.24-11.55l4.94-1.3c26.6,11.83,54.72,15.05,83.82,12.18,5.14-.51,36.19-6.72,37.79-5.22Z"/>
  <path d="M706.51,506c.26.27,8.1-6.15,6.36-2.19-.39.88-11.56,9.94-14.04,13.59-1.94,2.86-5.53,13.32-7.49,13.81-7.38,1.85-2.01-15.12-.74-18.22,1.79-4.38,4.95-7.94,6.81-12.23-5.34-.08-20.36,18.89-23.66,16.57-1.85-7.95,9.07-17.92,15.55-22.17,7.3-4.78,21.94-11.3,29.55-4.88,1.9,3.43-5.09,5.6-7.36,7.83-.84.83-5.56,7.26-4.97,7.88Z"/>
  <path d="M541.45,518.35c6.64-1.61,24.77,17.56,28.87,22.63,5.68,7.03,18.42,26.12,19.57,34.46.44,3.19.69,7.63-3.85,6.34-2.57-.73-9.36-16.24-11.39-19.65-5.54-9.29-13.21-20.23-21.06-27.8-2.57-2.48-15.07-10.78-14.47-13.8.16-.78,1.5-1.97,2.33-2.17Z"/>
  <path d="M490.42,493.04c6.33-1.92,14.43,8.52,16.86,13.24,5.71,11.09,7.2,30.61-5.18,37.91-4.22-.34.2-11.33.45-14.22,1.16-13.3-4.59-25.25-13.56-34.99-.32-.92.61-1.7,1.42-1.95Z"/>
  <path d="M452.49,336.75c13.19.55,27.48-1.09,40.5.88,10.34,1.57,12.45,4.82.83,6.87-9.25,1.63-30.58,1.71-38.64-2.91-2.41-1.38-3.1-1.65-2.69-4.84Z"/>
  <path d="M393.3,355.93c-1.7.2-.71-1.77-.49-2.65,1.7-6.91,6.84-13.76,9.79-20.29l10.74-15.43c-3.18,9.25-10.38,17.23-15.04,26.14-1.95,3.74-3.74,8.22-4.99,12.23Z"/>
  <path d="M510.54,748.77c25.26-3.53,40.93,20.81,21.06,38.5-1.91,1.7-11.7,8.58-13.84,9.43-18.46,7.36-30.69-8.26-27.9-24.99.11-.67,4.54-10.89,5.24-12.43,2.46-5.42,9.43-9.68,15.43-10.51ZM507.68,791.65c-4.52-2.18-7.78-4.4-10.97-8.27l-4.15-10.41c-.77,14.74,8.98,24.34,24.57,20.93l-8.47-.88c-.72-.15-.73-1.24-.98-1.36Z"/>
  <path d="M505.88,909.38c17.42,17.54-8.24,50.7-31.55,32.42-2.76-2.17-4.65-5.15-7.26-7.43-1.24,11.33,9.23,17.33,20.02,15.71-3.55,3.56-12.13,1.98-15.93-.89-8.99-6.78-4.98-13.82-4.12-22.26.73-7.18-1.59-13.03,4.57-19.17,8.86-8.83,25.88-6.83,34.27,1.61Z"/>
  <path d="M478.9,854.98c.55,6.94,1.52,12.71,9.1,15.26,4.78,1.61,6.98.93,11.49.54,1.02-.09,3.27-.79,3.06.76-8.04,2.96-20.42,2.87-23.96-6.25-3.22-8.29-2.44-21.43.52-29.73,3.77-10.54,12.29-11.41,22.89-10.16,23.5,2.78,28.53,35.22,6.73,42.02-13.53,4.22-22.44-2.2-29.83-12.46Z"/>
  <path d="M668.25,997.18l-16.37-131.73c1.31-.21,1.19,1.47,1.57,2.39,5.26,12.77,7.31,28.98,9.23,42.64,4.02,28.71,6.38,57.69,5.57,86.69Z"/>
  <path d="M331.4,1013.76c-1.62-.6-1.03-5.17-.94-6.58,2.92-47.1,28.25-102.17,36-149.58l13.19-32.28c-8.81,23.5-15.78,47.46-22.13,71.69-1.63,6.21-2.37,12.66-3.97,18.88-8.35,32.44-18.41,64.45-22.15,97.87Z"/>
  <path d="M518.96,251.24c-2.85-2.72,8.4-10.12,10.44-11.36,11.87-7.22,39.84-16.87,53.33-12.67,3.91,1.22,3.66,5.71.23,7.33-13.36-2.61-27.98,1.89-40.32,6.69-3.35,1.31-22.19,11.44-23.68,10.01Z"/>
  <path d="M553.55,258.23l-15.71,4.56c-16.71,5.72-24.66,14.04-37.54,24.22-1.03.81-1.47,2.12-3.18,1.74-2.35-2.34,13.68-14.52,15.73-15.89,11.46-7.67,26.47-14.63,40.71-14.63Z"/>
  <path d="M491.65,252.99c2.72-7.48,8.66-15.14,16.37-18.32l-16.37,18.32Z"/>
  <path class="cls-1" d="M590.83,408.31c1.87,6.12,2.29,8.85-4.96,9.57-15.39,1.52-35.63-5.89-49.84-11.56-3.52-1.4-17.05-6.67-18.44-9.37-1.45-2.84,0-7.51,3.52-6.85.44.08,4.63,3.71,6.12,4.58,19.33,11.29,40.65,19.44,63.6,13.62Z"/>
  <path class="cls-1" d="M394.23,396.95c14.26.72,28.28-1.81,41.87-5.68,2.25-.64,9.6-3.92,10.5-3.9,3.18.07,4.33,2.75.48,4.82-4.48,2.41-14.06,5.91-19.19,7.78-9.29,3.37-19.1,6.21-29.11,5.26l-4.54-8.28Z"/>
  <path class="cls-1" d="M507.68,791.65c.25.12.27,1.21.98,1.36l8.47.88c-15.59,3.41-25.34-6.19-24.57-20.93l4.15,10.41c3.19,3.87,6.45,6.09,10.97,8.27Z"/>
</svg>