<svg id="Capa_1" data-name="Capa 1" xmlns="http://www.w3.org/2000/svg" viewBox="0 0 341.19 330.72"><defs><style>.cls-1,.cls-9{fill:#fff;}.cls-1{stroke:#fff;stroke-miterlimit:10;stroke-width:10px;}.cls-2{fill:#121212;}.cls-3{fill:#090909;}.cls-4{fill:#ececec;}.cls-5{fill:#e1e1e1;}.cls-6{fill:#ebebeb;}.cls-7{fill:#f3f3f3;}.cls-8{fill:#e7e7e7;}.cls-10{fill:#fdfdfd;}.cls-11{fill:#f0f0f0;}.cls-12{fill:#dedede;}.cls-13{fill:#eee;}.cls-14{fill:#d8d8d8;}.cls-15{fill:#080808;}.cls-16{fill:#131313;}.cls-17{fill:#141414;}.cls-18{fill:#f5f5f5;}.cls-19{fill:#e9e9e9;}.cls-20{fill:#ddd;}.cls-21{fill:#e8e8e8;}.cls-22{fill:#f2f2f2;}.cls-23{fill:#e2e2e2;}</style></defs><path class="cls-1" d="M390.16,269.08c-2-11.74-7.71-21-19-26.11-1.67-.75-2-1.78-1.76-3.46a104.76,104.76,0,0,0,.09-22.67c-3.48-34.58-20.32-59.17-53.55-71.5-2.47-.91-5.15-1.39-7.51-3.1.46-1.63.91-3.13,1.32-4.65,4.95-17.91-.77-34.27-15.75-45.27a63.7,63.7,0,0,0-17.09-9C241,71,205.81,74.05,172.07,90.51c-27.24,13.3-45.17,34.5-49.16,65.64-.26,2-1.55,2.87-2.94,3.87A102.16,102.16,0,0,0,80,216.22,160.86,160.86,0,0,0,74,261.44c0,3.73-.89,6.83-3.61,9.56-3.66,3.69-6,8.29-7.82,13.11-1.59,2.65-3.75,11.29-.06,17.57,2.6,5.88,7.31,10,12.39,13.48,5.75,3.9,11.24,7.65,12.5,15.11,2.81,11.17,6.1,22.14,13.2,31.51,1.42,4.6,4.64,8.07,7.92,11.24a68.89,68.89,0,0,0,36.54,18.72c6.82,1.21,13.36,3.6,20.3,4.45s13.82-.5,20.73-.07c.56,0,1.14-.39,1.71-.6,2.82-1,5.93,0,8.65-.93,5.16-1.74,10.58-1.29,15.78-2.34,9.72-2,20.64,1,28.95-6.93a1.77,1.77,0,0,1,.68-.24c7.51-2.44,15-5,23-5,1.43,0,2.94.28,4.27-.6,24.12,1.06,40.9-10.41,52.49-30.75,4.38-7.68,7.12-16,9.54-24.43,1.37-.5,2.13.4,3.11,1.16,2.73,2.14,10.68,2.74,13.14,1.16,4.93,1.13,9.83,2.37,14.78,3.36,7.8,1.55,14.14-1,19.17-7.12a39.29,39.29,0,0,0,7.79-16A92.31,92.31,0,0,0,390.16,269.08ZM123.8,242.28h0ZM97.24,262.54a26.46,26.46,0,0,0-.33,2.77A26.46,26.46,0,0,1,97.24,262.54Z" transform="translate(-55.47 -70.76)"/><path class="cls-2" d="M62.71,284.11c1.86-4.82,4.15-9.42,7.81-13.11,2.72-2.73,3.62-5.83,3.61-9.56a160.75,160.75,0,0,1,6.05-45.21A102.19,102.19,0,0,1,120.11,160c1.4-1,2.68-1.84,2.94-3.87C127,125,145,103.81,172.21,90.51,206,74.05,241.14,71,277.1,83.28a63.56,63.56,0,0,1,17.09,9c15,11,20.7,27.36,15.76,45.27-.42,1.52-.87,3-1.33,4.65,2.36,1.71,5.05,2.19,7.51,3.1,33.23,12.33,50.07,36.92,53.56,71.5a104.76,104.76,0,0,1-.1,22.67c-.19,1.68.09,2.71,1.76,3.46,11.24,5.11,16.93,14.37,19,26.11a92.14,92.14,0,0,1-1,37.81,39.27,39.27,0,0,1-7.78,16c-5,6.11-11.38,8.67-19.18,7.12-4.95-1-9.85-2.23-14.78-3.36-4.68-2.57-9.84-3.84-14.48-5.86-1.47,1.1-1.45,2.39-1.77,3.54-2.42,8.44-5.16,16.75-9.53,24.43-11.6,20.34-28.38,31.81-52.5,30.75.32-2.46,2-3,4.15-3.06,3.5-.05,7,.29,10.47-.68,1-.28,2.27-.23,2.26-2.14-2.54-1.57-5.55-.44-8.29-.94,2.28-.32,4.59-.57,6.86-1C304,368.26,325.4,342.09,325,322.44a2.41,2.41,0,0,0-1.91-2.62c-2.84-1-5.58-2.27-8.34-3.48-5.93-2.61-7.42-7.13-3.73-11.73,1.29.52,2.65,1,4,1.61,12.34,5.65,25.19,10,38.09,14.09a53.88,53.88,0,0,0,13.58,2.86c3.53.18,6.85-.4,9.43-3.09,3.62-3.77,6.23-8,6.92-13.38.48-3.68,1.32-7.32,2-11,1.37-4.38.72-8.89.66-13.34-.06-5.05-.13-10.18-2.14-15-1.92-11.5-8.73-18.36-19.92-21.1-.95-.23-1.84-.68-2.8-.88a23.17,23.17,0,0,1-14.26-9.53c-7-9.47-16.55-14.09-28.14-15-13.54-1-27.09-.72-40.63-.58-5,.06-6.22-1.36-5.26-6.88,14.08-.41,28.19-.64,42.34.49,14.58,1.16,26.47,6.89,35.52,18.54a19.74,19.74,0,0,0,9.7,6.92,3.9,3.9,0,0,0,3.36.88c1-1.12.84-2.52.87-3.81a138.35,138.35,0,0,0-1.15-24.33c-.92-5.95-1.57-12-4.53-17.4-1.79-3.43-2.35-7.31-4.27-10.72-7.08-12.59-16.75-22.44-29.75-28.88-18-8.89-37.28-12-57-13.24-5.86-.36-5.87-.24-6.34-6.1-.05-.57,0-1.15,0-2.18,14.35,1.06,28.06,4.17,41.62,7.61,5.75-14.82,3.09-32.44-9.94-43-7.35-6-15.89-9.58-24.92-11.92-30.87-8-61.05-5.25-90.31,7a83.89,83.89,0,0,0-37.26,30.36c-9,13.06-12.22,27.75-12.35,43.34,0,2.06,0,3.91-2,5.47-19.22,14.52-30.38,34.09-34.89,57.47-5.29,27.44-4.07,54.94.48,82.33,2.19,13.17,5.63,26,12,37.89,6.47,12.07,15.37,21.37,28.56,26.39,7.1,2.71,14.49,4.19,21.63,6.6,14.21,4.8,28.75,5.1,43.44,3.13,10-1.34,20.07-2.74,30.11-4.12a4.27,4.27,0,0,1-3,2.95c-2.7.76-5.35,1.93-8.1,2.23-12.68,1.35-25.32,3.61-38.17,2.41-2-.19-4.16-.5-5.88,1.23-1,1.05-2.24.69-3.39.1-1.41-.73-2.77-1.56-4.23-2.18-2.75-1.17-5-.93-6.09,2.37l-1.42-.14c-2.94.35-5.23-1.61-7.92-2.24a110,110,0,0,1-28.81-10.93,7.11,7.11,0,0,0-1.19-1.31c-13-8.81-21-21.25-26.13-35.74-2-5.74-3.64-11.63-5.44-17.45-.28-2.5-.24-5.15-3.15-6.33-8.2-5.59-16.14-11.45-21.17-20.34C61.87,292.6,62.42,288.35,62.71,284.11Zm59.44-119.84c-12,9-21.72,19.29-28.7,32-9.91,18.1-13.94,37.77-14.18,58.14-.11,8.8-1.19,16.64-7.8,22.94a5.4,5.4,0,0,0-.81,1.22c-3.1,5.19-3.62,10.51-.92,16.06C73,301.25,78,306.05,84.11,309.91a1.47,1.47,0,0,0,1.85,0c0-.84,0-1.81-.16-2.76a294,294,0,0,1-2-55.56c1.74-31.74,12.48-59.29,36.87-80.61C122.65,169.23,123,167.25,122.15,164.27Z" transform="translate(-55.47 -70.76)"/><path class="cls-3" d="M158.58,391.22c1-3.3,3.34-3.54,6.09-2.37,1.46.62,2.82,1.45,4.23,2.18,1.15.59,2.36,1,3.39-.1,1.72-1.73,3.86-1.42,5.88-1.23,12.85,1.2,25.49-1.06,38.17-2.41,2.75-.3,5.4-1.47,8.1-2.23a4.27,4.27,0,0,0,3-2.95c5.09-6.28,11.57-9.94,19.75-9.91,10.24,0,20.47.31,30.7.48,2.74.5,5.75-.63,8.29.94,0,1.91-1.25,1.86-2.26,2.14-3.45,1-7,.63-10.47.68-2.18,0-3.83.6-4.15,3.06-1.32.88-2.83.6-4.26.6-8.05,0-15.53,2.54-23.05,5a1.77,1.77,0,0,0-.68.24c-8.31,7.89-19.22,5-28.95,6.93-5.2,1.05-10.61.6-15.77,2.34-2.73.92-5.83-.08-8.66.93l-13.72-.11Z" transform="translate(-55.47 -70.76)"/><path class="cls-4" d="M174.21,395.41l13.72.11c-.57.21-1.15.64-1.7.6-6.91-.43-13.79.92-20.74.07S152,393,145.19,391.74A68.92,68.92,0,0,1,108.65,373c-3.28-3.17-6.49-6.64-7.92-11.24.72.81,1.52,1.57,2.16,2.44A75.39,75.39,0,0,0,115.2,377c1.64,1.39,3.22,2.15,5.23.88a110,110,0,0,0,28.81,10.93c2.69.63,5,2.59,7.92,2.24a3,3,0,0,0,2.62,2.65C164.58,394.34,169.26,396,174.21,395.41Z" transform="translate(-55.47 -70.76)"/><path class="cls-5" d="M120.43,377.91c-2,1.27-3.59.51-5.23-.88a75.39,75.39,0,0,1-12.31-12.81c-.64-.87-1.44-1.63-2.16-2.44-7.1-9.37-10.39-20.34-13.19-31.51,1-2.27-.1-4.58.13-6.86,1.8,5.82,3.41,11.71,5.44,17.45,5.13,14.49,13.17,26.93,26.13,35.74A7.11,7.11,0,0,1,120.43,377.91Z" transform="translate(-55.47 -70.76)"/><path class="cls-6" d="M87.67,323.41c-.23,2.28.83,4.59-.13,6.86-1.27-7.46-6.76-11.21-12.5-15.11-5.08-3.45-9.79-7.6-12.4-13.48h.72C68.17,307.57,74,312.39,80,317c1.46,1.14,3,1.55,4.56.07C87.43,318.26,87.39,320.91,87.67,323.41Z" transform="translate(-55.47 -70.76)"/><path class="cls-7" d="M331.33,324.32c.32-1.15.3-2.44,1.77-3.54,4.64,2,9.8,3.29,14.48,5.86-2.45,1.58-10.4,1-13.14-1.16C333.46,324.72,332.71,323.82,331.33,324.32Z" transform="translate(-55.47 -70.76)"/><path class="cls-8" d="M63.36,301.68h-.72A12.1,12.1,0,0,1,61.2,290c.7-1.94.11-4.16,1.51-5.88-.29,4.24-.84,8.49.64,12.63C63.2,298.39,62.43,300,63.36,301.68Z" transform="translate(-55.47 -70.76)"/><path class="cls-9" d="M277.89,372.68c-10.23-.17-20.46-.44-30.7-.48-8.18,0-14.66,3.63-19.75,9.91-10,1.38-20.07,2.78-30.11,4.12-14.69,2-29.23,1.67-43.44-3.13-7.14-2.41-14.53-3.89-21.63-6.6-13.19-5-22.09-14.32-28.56-26.39-6.37-11.86-9.81-24.72-12-37.89-4.55-27.39-5.77-54.89-.48-82.33,4.51-23.38,15.67-42.95,34.89-57.47,2.06-1.56,2-3.41,2-5.47.13-15.59,3.34-30.28,12.35-43.34a83.89,83.89,0,0,1,37.26-30.36c29.26-12.24,59.44-15,90.31-7,9,2.34,17.57,5.94,24.92,11.92,13,10.6,15.69,28.22,9.94,43-13.56-3.44-27.27-6.55-41.62-7.61,0,1,0,1.61,0,2.18.47,5.86.48,5.74,6.34,6.1,19.74,1.19,39.05,4.35,57,13.24,13,6.44,22.67,16.29,29.75,28.88,1.92,3.41,2.48,7.29,4.27,10.72a34.23,34.23,0,0,0,.88,11.52c2.16,9.82,2.23,19.92,3.48,29.88.25,2-.74,3.25-2.91,3.26a19.74,19.74,0,0,1-9.7-6.92c-9.05-11.65-20.94-17.38-35.52-18.54-14.15-1.13-28.26-.9-42.34-.49-1,5.52.23,6.94,5.26,6.88,13.54-.14,27.09-.46,40.63.58,11.59.9,21.16,5.52,28.14,15a23.17,23.17,0,0,0,14.26,9.53c1,.2,1.85.65,2.8.88,11.19,2.74,18,9.6,19.92,21.1q.74,14.16,1.48,28.32c-.68,3.66-1.52,7.3-2,11-.69,5.35-3.3,9.61-6.92,13.38-2.58,2.69-5.9,3.27-9.43,3.09a53.88,53.88,0,0,1-13.58-2.86c-12.9-4.13-25.75-8.44-38.09-14.09-1.32-.6-2.68-1.09-4-1.61-3.69,4.6-2.2,9.12,3.73,11.73,2.76,1.21,5.5,2.5,8.34,3.48a2.41,2.41,0,0,1,1.91,2.62c.36,19.65-21,45.82-40.29,49.26C282.48,372.11,280.17,372.36,277.89,372.68Zm-177.15-95.2a19.56,19.56,0,0,0,4.92,4.73c1.07.63,2.64,1.37,3.7.27s.21-2.44-.75-3.45a39.86,39.86,0,0,1-5.31-14.66c-1.35-9.69,2.84-19.09,10.47-23.59a4.72,4.72,0,0,0,4.07,1.57c4.06-.13,8.14,0,12.2,0a9,9,0,0,1,4.38,1.69c4.1,2.51,7.4,6,11,9.06,1.26,1.08,2.31,2.7,4.38,1.73,5.44,6.94,5.44,6.94,7.71,7.16a47,47,0,0,0-7.5-14.55c-4.63-5.92-10.37-10.28-17.89-11.83-14.69-3-26.91,4.45-32.77,20C96.62,263.05,95.41,270.47,100.74,277.48Zm105.52,6.61c.21,8.05,11.12,18.57,22.77,16.09.6.07,1.21.11,1.81.2,18.23,2.89,36.74-10.27,40-28.48a32,32,0,0,0-14.1-32.69c-10.71-6.9-25.83-6.23-37,1.33-8.28,5.58-12.24,13.64-14.1,23.06-1.6,5.3-1,10.74-.93,16.13A6,6,0,0,0,206.26,284.09Zm-90.87,17.59c5.72,4.48,12.74,5,19.29,4.55a182.37,182.37,0,0,1,20.6-.55c11.44.5,22.87-.06,34.29.46,4.12.18,7.72-1.42,11.53-2.34,1.11-2.71.23-5.55.55-8.31.25-2.15-.78-3.21-2.58-4.26-20.85-12.15-41.64-24.39-62.65-36.72l-24.6,38.4c-2.86,4.07-2.77,4.61,1.19,7.19C113.81,300.62,114.6,301.15,115.39,301.68Zm69.92,57.73c12.83.33,23.11-1.22,33.43-2.21,2-.2,4.26-.53,3.71-3.68-1.2-6.87-2.35-13.71-6.36-19.69-4.5-6.7-10.69-10.21-18.76-10.22-17.19,0-30.14,7.63-39.39,21.89-1.6,2.46-2.74,5.24-4.57,7.49a5.35,5.35,0,0,0-1.06,5.38c.64,2,2.61,1.81,4.34,1.93C167,361,177.34,358.47,185.31,359.41Zm140-163.81c-5.27-5.26-9.22-9.55-16.89-9.38-18.68.42-37.33.88-55.92,2.75-6.37.64-12.72,1.49-19.06,2.25.69,6.15.82,6.26,6.19,5.66.72-.08,1.45-.21,2.17-.29,22.47-2.53,45-4.19,67.59-2.62C314.36,194.31,319.3,195,325.32,195.6Zm19.77,104.68c1.76,2.41,2.56,2.89,5.11,3.19,11.19,1.31,20.63-4.65,24.08-15.38a24.82,24.82,0,0,0,.07-14.41c-.86-3.16-3.94-3-6-4.25-7.88-5-19.08-1.53-23.27,7-2.14,4.35.5,8.58,5.31,8.41s9.17-1,12.56-4.83c1.71-1.93,3.75-3.57,5.78-5.48a24.86,24.86,0,0,1,1.09,10.38c-1.05,10.18-8.58,15.77-18.57,13.76C349,298.21,347,298.4,345.09,300.28ZM284.56,169c-2.94-6.63-2.94-6.59-9.64-6.39a414.41,414.41,0,0,0-44.09,3.64,232.12,232.12,0,0,0-22.94,4c1.61,5.88,1.61,5.88,7,5.09.12,0,.24,0,.36-.06a478.83,478.83,0,0,1,65.92-5.57C282.26,169.66,283.4,170,284.56,169Zm15.28,86.44a22.07,22.07,0,0,0,2,8c1.74,3.5,3,3.64,6.68,2.43,5.29-1.73,10-4.63,15.18-6.63,7.7-3,15.45-5.91,22.48-10.35,1.22-.77,3.61-1.13,2.77-3.16-.66-1.57-2.7-1.89-4.5-1.7-1,.11-1.94.22-2.89.4-13,2.45-25.91,5.78-39,7.73C300,252.55,299.77,254.12,299.84,255.41ZM178.1,182.18c1.15-13.23,8.21-22.06,18.81-28.46,6.36-3.82,13.4-5.83,20.56-7.43,3.77-.84,7.58-1.53,11.57-2.33-.8-2.79-.38-5.39-1.63-8-12.28,2-23.76,5.76-33.92,12.91-9.19,6.45-16.48,14.52-19.76,25.57-.78,2.6-1.79,5.26-1.08,8.26Zm-22.38-8.42C164.55,137,190.89,122.7,225.53,119c-.61-5.45-.61-5.48-5.56-5.06a79.65,79.65,0,0,0-27.77,7.46c-15.74,7.5-28,18.48-34.15,35.33A36,36,0,0,0,155.72,173.76ZM292,117c-2.94-6.56-4.17-7.89-7.25-8.09a308.46,308.46,0,0,0-32.18-.57c-2.28.09-4.62-.06-6.79.88.74,6.14,1.1,6.38,6.8,6.36,8.41,0,16.83-.08,25.24.14C282.45,115.85,287,116.53,292,117Zm.85,153.32-4,12.38c12.55,5.61,37.6,11.7,42.5,10C317.78,286.12,304.83,279.41,292.89,270.32Z" transform="translate(-55.47 -70.76)"/><path class="cls-10" d="M122.15,164.27c.82,3,.5,5-1.53,6.73-24.39,21.32-35.13,48.87-36.87,80.61a294,294,0,0,0,2,55.56c.13.95.12,1.92.16,2.76a1.47,1.47,0,0,1-1.85,0C78,306.05,73,301.25,69.74,294.66c-2.7-5.55-2.18-10.87.92-16.06a5.4,5.4,0,0,1,.81-1.22c6.61-6.3,7.69-14.14,7.8-22.94.24-20.37,4.27-40,14.18-58.14C100.43,183.56,110.16,173.25,122.15,164.27Z" transform="translate(-55.47 -70.76)"/><path class="cls-11" d="M360.12,239.39c2.17,0,3.16-1.22,2.91-3.26-1.25-10-1.32-20.06-3.48-29.88a34.23,34.23,0,0,1-.88-11.52c3,5.42,3.61,11.45,4.53,17.4a138.35,138.35,0,0,1,1.15,24.33c0,1.29.16,2.69-.87,3.81A3.9,3.9,0,0,1,360.12,239.39Z" transform="translate(-55.47 -70.76)"/><path class="cls-12" d="M63.36,301.68c-.93-1.64-.16-3.29,0-4.94,5,8.89,13,14.75,21.17,20.34-1.54,1.48-3.1,1.07-4.56-.07C74,312.39,68.17,307.57,63.36,301.68Z" transform="translate(-55.47 -70.76)"/><path class="cls-13" d="M385.05,295.72q-.75-14.16-1.48-28.32c2,4.8,2.08,9.93,2.14,15C385.77,286.83,386.42,291.34,385.05,295.72Z" transform="translate(-55.47 -70.76)"/><path class="cls-14" d="M174.21,395.41c-5,.62-9.63-1.07-14.43-1.68a3,3,0,0,1-2.62-2.65l1.42.14Z" transform="translate(-55.47 -70.76)"/><path class="cls-2" d="M111.82,292.91l24.6-38.4c21,12.33,41.8,24.57,62.65,36.72,1.8,1,2.83,2.11,2.58,4.26-.32,2.76.56,5.6-.55,8.31-5.94-.15-11.88-.36-17.82-.43-11-.14-22.07-.2-33.1-.3-4.59-.8-9.22-.49-13.84-.57a40.26,40.26,0,0,1-22.62-7.2C112.83,294.69,111.71,294.3,111.82,292.91Z" transform="translate(-55.47 -70.76)"/><path class="cls-15" d="M185.31,359.41c-8-.94-18.27,1.61-28.66.89-1.73-.12-3.7.06-4.34-1.93a5.35,5.35,0,0,1,1.06-5.38c1.83-2.25,3-5,4.57-7.49,9.25-14.26,22.2-21.93,39.39-21.89,8.07,0,14.26,3.52,18.76,10.22,4,6,5.16,12.82,6.36,19.69.55,3.15-1.69,3.48-3.71,3.68C208.42,358.19,198.14,359.74,185.31,359.41Z" transform="translate(-55.47 -70.76)"/><path class="cls-2" d="M205.65,263.6c1.86-9.42,5.82-17.48,14.1-23.06,11.21-7.56,26.33-8.23,37-1.33a32,32,0,0,1,14.1,32.69c-3.31,18.21-21.82,31.37-40,28.48-.6-.09-1.21-.13-1.81-.2-3-1.25-6.13-2.12-8.92-3.9-6.15-3.91-10.08-9.56-13-16A45.29,45.29,0,0,1,205.65,263.6Zm31.84-25.72c-16.27.28-27.84,11.94-27.55,27.79.3,16.94,13.86,29.65,31.34,29.37,14.6-.23,25.38-12.24,25.16-28C266.2,250.52,253.37,237.61,237.49,237.88Z" transform="translate(-55.47 -70.76)"/><path class="cls-16" d="M325.32,195.6c-6-.63-11-1.29-15.92-1.63-22.62-1.57-45.12.09-67.59,2.62-.72.08-1.45.21-2.17.29-5.37.6-5.5.49-6.19-5.66,6.34-.76,12.69-1.61,19.06-2.25,18.59-1.87,37.24-2.33,55.92-2.75C316.1,186.05,320.05,190.34,325.32,195.6Z" transform="translate(-55.47 -70.76)"/><path class="cls-3" d="M345.09,300.28c1.92-1.88,3.87-2.07,6.2-1.6,10,2,17.52-3.58,18.57-13.76a24.86,24.86,0,0,0-1.09-10.38c-2,1.91-4.07,3.55-5.78,5.48-3.39,3.84-7.84,4.67-12.56,4.83s-7.45-4.06-5.31-8.41c4.19-8.54,15.39-12,23.27-7,2,1.28,5.1,1.09,6,4.25a24.82,24.82,0,0,1-.07,14.41c-3.45,10.73-12.89,16.69-24.08,15.38C347.65,303.17,346.85,302.69,345.09,300.28Z" transform="translate(-55.47 -70.76)"/><path class="cls-16" d="M284.56,169c-1.16,1-2.3.69-3.36.71a478.83,478.83,0,0,0-65.92,5.57c-.12,0-.24.05-.36.06-5.42.79-5.42.79-7-5.09a232.12,232.12,0,0,1,22.94-4,414.41,414.41,0,0,1,44.09-3.64C281.62,162.38,281.62,162.34,284.56,169Z" transform="translate(-55.47 -70.76)"/><path class="cls-3" d="M299.84,255.41c-.07-1.29.14-2.86,2.67-3.24,13.13-1.95,26-5.28,39-7.73.95-.18,1.92-.29,2.89-.4,1.8-.19,3.84.13,4.5,1.7.84,2-1.55,2.39-2.77,3.16-7,4.44-14.78,7.37-22.48,10.35-5.15,2-9.89,4.9-15.18,6.63-3.7,1.21-4.94,1.07-6.68-2.43A22.07,22.07,0,0,1,299.84,255.41Z" transform="translate(-55.47 -70.76)"/><path class="cls-2" d="M178.1,182.18l-5.45.54c-.71-3,.3-5.66,1.08-8.26,3.28-11.05,10.57-19.12,19.76-25.57,10.16-7.15,21.64-10.94,33.92-12.91,1.25,2.59.83,5.19,1.63,8-4,.8-7.8,1.49-11.57,2.33-7.16,1.6-14.2,3.61-20.56,7.43C186.31,160.12,179.25,169,178.1,182.18Z" transform="translate(-55.47 -70.76)"/><path class="cls-2" d="M155.72,173.76a36,36,0,0,1,2.33-17c6.1-16.85,18.41-27.83,34.15-35.33A79.65,79.65,0,0,1,220,114c4.95-.42,4.95-.39,5.56,5.06C190.89,122.7,164.55,137,155.72,173.76Z" transform="translate(-55.47 -70.76)"/><path class="cls-2" d="M99.34,255.53c5.86-15.52,18.08-23,32.77-20,7.52,1.55,13.26,5.91,17.89,11.83a47,47,0,0,1,7.5,14.55c-2.27-.22-2.27-.22-7.71-7.16a34,34,0,0,0-15.07-14.86,19.63,19.63,0,0,0-15.92-1.4,8.11,8.11,0,0,0-5,2.26c-7.63,4.5-11.82,13.9-10.47,23.59A39.86,39.86,0,0,0,108.61,279c-.16.68.56,1.42-.3,2.22-3.81-2.6-5.81-6.67-8.31-10.33C97.71,265.88,99.08,260.68,99.34,255.53Z" transform="translate(-55.47 -70.76)"/><path class="cls-17" d="M292,117c-5-.47-9.59-1.15-14.18-1.28-8.41-.22-16.83-.18-25.24-.14-5.7,0-6.06-.22-6.8-6.36,2.17-.94,4.51-.79,6.79-.88a308.46,308.46,0,0,1,32.18.57C287.87,109.11,289.1,110.44,292,117Z" transform="translate(-55.47 -70.76)"/><path class="cls-2" d="M292.89,270.32c11.94,9.09,24.89,15.8,38.51,22.36-4.9,1.72-29.95-4.37-42.5-10Z" transform="translate(-55.47 -70.76)"/><path class="cls-18" d="M150.18,303.07c11,.1,22.06.16,33.1.3,5.94.07,11.88.28,17.82.43-3.81.92-7.41,2.52-11.53,2.34-11.42-.52-22.85,0-34.29-.46a182.37,182.37,0,0,0-20.6.55c-6.55.45-13.57-.07-19.29-4.55a58.78,58.78,0,0,0,14.5,1.34C136.6,302.76,143.41,303.18,150.18,303.07Z" transform="translate(-55.47 -70.76)"/><path class="cls-19" d="M118.8,238.52a19.63,19.63,0,0,1,15.92,1.4,34,34,0,0,1,15.07,14.86c-2.07,1-3.12-.65-4.38-1.73-3.59-3.1-6.89-6.55-11-9.06A9,9,0,0,0,130,242.3C126.49,240.46,122.16,240.93,118.8,238.52Z" transform="translate(-55.47 -70.76)"/><path class="cls-20" d="M207.07,280.23c3,6.49,6.89,12.14,13,16,2.79,1.78,5.93,2.65,8.92,3.9-11.65,2.48-22.56-8-22.77-16.09Z" transform="translate(-55.47 -70.76)"/><path class="cls-21" d="M150.18,303.07c-6.77.11-13.58-.31-20.29-.05a58.78,58.78,0,0,1-14.5-1.34c-.79-.53-1.58-1.06-2.38-1.58-4-2.58-4.05-3.12-1.19-7.19-.11,1.39,1,1.78,1.9,2.39a40.26,40.26,0,0,0,22.62,7.2C141,302.58,145.59,302.27,150.18,303.07Z" transform="translate(-55.47 -70.76)"/><path class="cls-12" d="M100,270.92c2.5,3.66,4.5,7.73,8.31,10.33.86-.8.14-1.54.3-2.22,1,1,1.91,2.25.75,3.45s-2.63.36-3.7-.27a19.56,19.56,0,0,1-4.92-4.73C100.62,275.28,99,273.25,100,270.92Z" transform="translate(-55.47 -70.76)"/><path class="cls-22" d="M118.8,238.52c3.36,2.41,7.69,1.94,11.24,3.78-4.06,0-8.14-.08-12.2,0a4.72,4.72,0,0,1-4.07-1.57A8.11,8.11,0,0,1,118.8,238.52Z" transform="translate(-55.47 -70.76)"/><path class="cls-23" d="M100,270.92c-1,2.33.62,4.36.74,6.56-5.33-7-4.12-14.43-1.4-22C99.08,260.68,97.71,265.88,100,270.92Z" transform="translate(-55.47 -70.76)"/><path class="cls-8" d="M207.07,280.23l-.81,3.86a6,6,0,0,1-1.54-4.36c0-5.39-.67-10.83.93-16.13A45.29,45.29,0,0,0,207.07,280.23Z" transform="translate(-55.47 -70.76)"/><path class="cls-9" d="M237.49,237.88c15.88-.27,28.71,12.64,28.95,29.14.22,15.78-10.56,27.79-25.16,28-17.48.28-31-12.43-31.34-29.37C209.65,249.82,221.22,238.16,237.49,237.88Z" transform="translate(-55.47 -70.76)"/></svg>