<?xml version="1.0" encoding="UTF-8"?>
<svg id="Layer_5" data-name="Layer 5" xmlns="http://www.w3.org/2000/svg" viewBox="0 0 1080 1080">
  <defs>
    <style>
      .cls-1 {
        fill: #fff;
        stroke: #fff;
        stroke-linejoin: round;
        stroke-width: 26.21px;
      }
    </style>
  </defs>
  <path class="cls-1" d="M321.86,271.73c-1.63-1.1-3.33-2.01-5.15-2.76-4.49-1.44-8.22-4.61-10.39-8.82-.6-1.04-.25-2.76-.35-3.95,1.1.06,2.2.06,3.3,0,1.29,0,2.54-.31,3.83-.44-.66-1.1-1.38-2.17-1.98-3.3-1.91-3.33-3.51-6.81-4.77-10.42-.69-2.54,1.76-2.95,3.89-2.26,9.92,3.26,17.07-3.48,18.01-12.24.6-5.37.53-10.76.72-16.13.47-2.51-1.1-4.93-3.58-5.55-12.93-4.24-18.67-22.03-10.67-33.08,3.42-4.74,6.94-9.38,10.54-13.87.85-1.07,2.32-1.66,3.23-2.76.69-.75,1.04-1.76.97-2.76-.16-.63-1.6-1.22-2.51-1.26-1.57-.09-3.11.09-4.61.56-2.82,1.29-6.18.47-8.13-1.98-1.79-2.48-1.29-5.55,1.32-8.69-2.45-.56-4.39-1.13-6.37-1.38-3.8-.5-7.56-1-8.72-5.55-.85-4.61,1.22-9.26,5.21-11.71.82-.69,1.54-1.51,2.17-2.39-.94-.72-1.95-1.35-3.04-1.79-4.61-1.57-9.35-2.76-13.87-4.61-1.6-.88-2.76-2.35-3.23-4.11-.47-2.07.72-4.17,2.76-4.8,1.66-.38,2.73-2.04,2.35-3.7-.16-.75-.6-1.38-1.22-1.82-4.86-5.05-9.73-10.11-14.41-15.35-2.01-2.32-3.77-4.86-5.21-7.56-.75-1.35-1.38-3.73-.72-4.68,1.19-1.26,2.95-1.79,4.64-1.51,3.83,1.26,7.53,2.86,11.11,4.74,3.3,1.66,6.25,4.02,9.6,5.55,1.69.69,3.61.69,5.34,0,3.95-2.17,8.94-1.07,11.58,2.6.91,1.38,1.73,2.82,2.45,4.33l1.79-1.26c.35-1.07.6-2.17.75-3.26,0-2.26.35-4.83,2.95-5.02,2.2.13,4.33.75,6.21,1.85,1.29.82,2.48,1.73,3.58,2.76,1.66,1.19,2.54.63,2.76-1.38.85-5.55,3.23-6.65,7.75-3.01,3.14,2.54,5.96,5.4,8.85,8.32.72.78,1.22,1.73,1.48,2.76,0,.88-.16,1.73-.5,2.51-.69-.28-1.38-.66-1.98-1.1-1.76-1.95-3.64-3.8-5.62-5.55-1.38-.66-2.89-1.04-4.43-1.13-.22,1.41-.22,2.86,0,4.27,1.38,4.46,3.11,8.79,4.52,13.24.09.94,0,1.88-.28,2.76-.94-.31-2.26-.35-2.76-1-2.76-3.58-5.21-7.38-7.88-11.11s-5.05-6.56-7.56-9.82l-1.48.25c-.44,1.98-.53,4.02-.28,6.06,1.26,4.24,3.11,8.32,4.68,12.4.35.88,15.03,14.75,14.94,15.63s-2.6,20.02-3.04,21.15c-.88-.63-13.68-11.83-14.31-12.65-5.15-6.5-11.11-33.11-16.79-40.48-.69,1.88-1.32,2.76-1.22,3.42.16,1.41.85,2.76,1.07,4.17.13,1.22.13,2.45,0,3.67-1.22-.28-2.76-.16-3.55-.88-2.76-2.45-5.05-5.55-8-7.72-5.18-3.89-10.67-7.44-16.19-10.86-.91-.6-2.6,0-4.11.66,5.99,5.55,8.72,13.28,15.75,17.86,4.86,3.17,9.23,7.03,14.81,9.13,1.07.38,1.57,2.26,2.32,3.42-1.22.75-2.6,1.26-4.02,1.48-2.6-.13-5.15-1.13-7.75-1.26-1.19,0-2.42,1.19-3.61,1.85,1,1,1.85,2.64,2.98,2.76,5.55.97,10.86,1.57,16.35,2.29,1.32.03,2.6.19,3.89.5.88.35,2.1,1.22,2.2,1.98.03,1.13-.44,2.23-1.29,2.98-2.54,1.69-5.4,2.95-8,4.61-1.82,1.13-3.45,2.51-4.9,4.11-.91,1.04-1.29,2.42-1.04,3.73.66,1.35,1.95,2.29,3.42,2.54,5.24,0,10.48-.28,15.72-.5.35,0,.69-.22,1.07-.28,2.04-.38,4.68-1.69,5.37,1.22.22.91-2.48,2.76-4.08,3.83-2.17,1.38-4.71,2.23-6.81,3.7-1.38.69-1.91,2.35-1.22,3.73.56,1.13,1.82,1.73,3.04,1.44,2.23-.31,4.46-.78,6.59-1.44,4.21-.97,8.16-3.23,12.8-1.32,2.39,1.04,4.14-.35,3.89-3.33-.78-10.01,2.01-19.43,4.71-28.87,1.79-6.12,2.76-12.49,4.39-18.67.91-3.61,4.68-4.77,7.41-5.18,3.99-.53,7.31-3.3,8.6-7.09,4.52-10.26,13.28-16.13,22.06-22.19,3.77-2.73,7.03-6.09,9.67-9.92,4.9-7.72,13.09-12.74,22.19-13.59,3.11-.72,6.09-1.85,8.88-3.45,4.8-2.13,9.54-4.43,14.34-6.56,4.36-2.13,8.88-3.99,13.5-5.55,3.58-1.1,7.38-1.41,11.11-.88,5.24.75,10.61,0,15.41-2.23,14.5-5.9,30.94-4.64,44.38,3.39,3.55,2.32,6.97,4.83,10.23,7.53,2.6,1.85,5.37,3.55,8.03,5.34l14.34,9.26c1.41,1.29,3.08,2.29,4.86,2.98,4.68,1.35,9.04,3.55,12.93,6.5.6.38,1.41.63,1.79,1.19,2.95,4.39,7.34,5.15,12.18,6.34,3.61.88,6.81,4.61,9.42,7.75,2.13,2.51,3.64,4.39,7.31,3.3,1.73-.22,3.48.38,4.68,1.63,3.8,4.36,7.25,9.01,10.39,13.87,1,2.26,1.29,4.77.85,7.22-.6,5.74,0,6.62,5.77,6.81,3.58,0,8.94,5.55,9.67,10.29.56,3.64,1.66,5.37,5.81,4.58,1.16-.25,3.33,1.29,4.08,2.57,4.14,7.06,5.93,15.22,5.15,23.35-.31,3.92.75,7.85,3.01,11.11,2.1,2.29,2.01,5.84-.22,8-.75-3.67-3.86-6.4-7.59-6.65-.47-1.41-.56-2.89-.31-4.36,2.26-8.13,1.88-16.73-1.07-24.64-.38-.94-1.13-1.69-2.07-2.04-.88.09-1.66.63-2.1,1.38-.91,6.34-4.64,12.15-3.58,18.86.41,1.22.66,2.51.78,3.8-.35,1.48-.85,2.89-1.54,4.21l-1.69-.16c-.56-2.73-.94-5.52-1.1-8.32.13-8.57.91-17.14.78-25.7-.5-3.08-1.69-5.96-3.45-8.5-.85-.94-2.13-1.38-3.39-1.19-1.29.47-2.29,1.48-2.76,2.76-1.79,6.31-3.51,12.68.41,18.89.6.78.88,1.79.75,2.76-.41,1.38-3.92,43.09-3.92,44.38s-21.28-29.25-21.62-27.96c-1.32-.78,2.1-46.04,1.63-48.74-1.32-7.44-7.47-31.51-13.87-33.55,0,2.42,10.67,112.23,4.77,107.93-.38-.28-27.52-116.5-27.12-115.46,1.41,3.92,10.48,97.07,12.15,100.49.56,1.19-22.41-64.12-24.29-67.57-3.42-6.15-11.71-34.37-11.11-33.61,4.9,5.02-4.14,11.67-5.68,11.77.19,1.63,23.26,28.53,20.15,28.65-1.98,0,14.15,17.29,12.05,17.36-3.11,0,9.45,26.43,10.17,26.99,4.64,3.64,34.9,19.43,41.96,17.36,8.98-2.76,35.34,8.32,38.07,12.37,2.6,4.27,4.43,8.98,5.37,13.87.97,4.8,1.26,9.73.88,14.62-.88,17.36-7.75,33.86-19.43,46.7-.69.78-1.41,2.76-1.07,3.11.97.97,2.23,1.63,3.61,1.85,8.54,1.35,14.09,5.81,15.53,14.12.25,4.11-.19,8.25-1.32,12.24-.5,1-1.51,1.66-2.6,1.73-1.22-.28-2.23-1.1-2.76-2.26-1.76-4.9-3.77-6.59-7.91-6.21-4.11.22-7.47,3.36-8,7.47-.78,4.39,1.51,8.76,5.55,10.64,5.4,2.32,11.67.38,14.84-4.58,1.66-2.92,3.92-4.11,6.81-2.76s2.04,4.43,1.22,6.68c-3.7,9.92-10.11,17.29-20.65,20.34-2.04.6-4.17,1.07-6.21,1.73-1.13.35-2.64.56-3.23,1.38-5.55,7.5-13.75,6.34-21.28,6.81-4.77-.09-9.54-.44-14.28-1.1-1.54-.06-3.08.47-4.24,1.51,4.02,1.98,8.32,3.64,12.02,5.93,4.8,2.79,9.35,6.03,13.59,9.63,11.11,9.73,18.52,22.19,25.67,34.71,4.3,7.44,6.09,16.29,9.26,24.42,2.64,6.75,5.37,13.5,8.54,20.02,1.32,2.29,3.3,4.11,5.71,5.18,12.21,5.37,17.76,14.91,17.79,27.74-.41,5.34,1.82,10.51,5.96,13.87,2.42,1.98,4.46,4.36,5.99,7.06,1.44,2.57,2.39,5.4,2.76,8.32,1.07,8.32,1.69,16.63,2.51,24.95.16.56.19,1.19.13,1.79-1.57,5.18,1.44,8.69,4.55,12.05,6.47,7.06,13.12,13.87,19.43,21.09,9.13,10.29,17.98,20.81,26.99,31.16,7.38,8.47,14.94,16.63,22.19,25.26,6.78,7.88,13.24,16.04,19.9,24.01,5.12,6.15,10.42,12.11,15.38,18.39,4.93,6.28,10.2,13.49,15.13,20.43,4.21,5.93,8.32,11.89,12.15,18.08,4.43,7.25,8.63,14.59,12.52,22.19,2.39,6.28.38,13.37-4.96,17.48-5.12,3.89-10.98,6.72-17.2,8.32-9.57,1.54-19.21,2.32-28.9,2.35-7.12.25-8.07.5-10.17,7.19-2.35,8.22-8.29,14.94-16.13,18.27-6.09,2.51-12.9,2.45-18.96-.16-7.34-3.23-15.41-4.52-23.41-3.7-1.54.16-3.04.56-4.46,1.13-8.57,4.14-16.6,9.32-23.88,15.41-16.04,12.15-33.8,19.8-54.61,17.36-8.79-1.04-17.79-1-26.39-2.76-9.89-2.07-19.43-5.68-29.12-8.57-1.38-.38-3.36-.94-4.27-.31-.94,1.16-1.32,2.64-1.07,4.11,2.54,18.33,5.02,36.69,7.97,55.02,1.73,10.73,4.17,21.37,6.37,32.04,1.63,7.94,3.23,15.91,4.99,23.82,4.43,19.55,8.88,39.1,13.5,58.62,1.13,3.8,3.73,6.97,7.25,8.85,6.06,3.95,12.3,8,16.13,14.44.94,2.04,1.19,4.3.69,6.5-.56,3.01-2.23,5.84-2.92,8.85-1.38,5.65-2.45,11.39-3.14,17.2-.56,5.37,2.6,9.73,5.24,14.22,6.12,10.33,16.19,15.88,25.92,21.91,6.31,3.89,12.58,7.78,18.99,11.52,3.01,2.07,4.9,5.37,5.18,8.98.19.94-1.79,2.76-3.17,3.45-1.88.75-3.89,1.19-5.9,1.32-13.87,1.69-27.52,3.58-41.33,4.93-11.83,1.19-22.6-2.76-33.05-8-4.24-2.13-8.72-3.89-13.15-5.55-2.54-1-4.3.13-5.55,2.6-2.26,4.83-4.58,5.96-9.73,4.27-5.93-1.88-11.74-4.08-17.42-6.59-3.73-1.69-4.68-5.55-4.9-9.45-.25-5.15-.13-10.29,0-15.41.44-3.51-1.22-7-4.3-8.79-5.12-3.08-6.18-8.32-6.34-13.68,0-4.68.44-9.38.16-14-.19-2.79-.94-5.49-2.26-7.97-4.93-9.16-10.48-17.98-15.19-27.21-5.77-11.27-11.36-22.63-16.29-34.27-5.77-13.87-10.76-27.74-15.97-41.87-2.86-7.59-5.65-15.25-8.32-22.94-5.08-15.19-10.2-30.38-15-45.66-5.55-17.89-10.98-35.87-16.29-53.85-4.14-14.34-7.81-28.81-11.67-43.25-1.54-5.74-2.54-6.65-8.32-7-5.37-.35-10.76-.38-16.13-.85-2.57-.41-5.15-1-7.66-1.76-4.43-1.04-7.03,1.04-6.31,5.55,2.7,18.74,3.83,37.66,3.36,56.58-.28,28.12-.85,56.24-1.66,84.39-.35,12.3-1.13,24.64-2.17,36.91-1.26,14.69-3.48,29.25-4.33,43.94-.75,12.74-.31,25.58,0,38.35,0,3.23,2.07,6.34,2.51,9.63,1.57,9.63,2.67,19.36,3.23,29.09.19,5.37-1.79,10.8-3.01,16.13-.88,3.83-2.17,7.56-3.23,11.36-1.38,4.68-5.05,8.35-9.73,9.7-2.48.78-4.93,1.73-7.31,2.76-2.51,1.57-5.77,1.22-7.94-.85-3.23-2.76-5.18-2.6-7.44.66-2.2,3.04-5.77,4.77-9.54,4.64-10.64.85-21.28,1.44-31.79,3.08-8.47,1.32-16.63,4.17-24.95,5.99-11.58,2.48-23.22,4.58-34.84,6.81-1.07.19-2.13.22-3.23.13-3.36-.28-7.19-.35-8.5-4.08-1.1-3.7.28-7.72,3.45-9.92,8.07-6.94,16.95-12.9,26.39-17.76,4.93-2.35,9.38-5.68,14.09-8.5,3.95-2.39,8.1-4.52,11.93-7.09,4.05-2.73,7.97-5.68,11.74-8.82,2.57-2.2,3.3-5.87,1.76-8.88-1.04-2.17-1.88-4.39-2.54-6.68-.53-2.89-.75-5.84-.6-8.76.13-1.69.56-3.33,1.29-4.86,2.51-5.65.88-12.3-3.95-16.13-2.17-2.23-3.95-4.8-5.34-7.59-1.88-2.82-1.26-6.62,1.44-8.66,4.83-4.43,9.2-9.42,13.87-13.87,2.86-2.67,3.95-6.78,2.76-10.51-4.43-19.08-9.35-38.1-13.12-57.31-3.67-18.64-6.31-37.5-9.04-56.3-2.35-16.19-4.58-32.45-6.21-48.77-1.07-10.92-.69-22.03-1.66-32.98-2.39-28.87-2.86-57.87-1.41-86.81.5-11.96,1.51-23.88,2.04-35.84.28-6.09,0-6.12-6.18-6.34-4.9,0-9.79-.38-14.66-1-7.47-.91-13.18-5.55-18.45-10.29-4.93-4.68-9.57-9.67-13.87-14.94-5.9-6.9-11.83-13.87-17.36-21.03-6.25-8.16-12.15-16.63-18.01-24.95-4.55-6.56-8.91-13.24-13.09-20.09-2.76-4.58-4.17-9.35,0-14.28.72-.88-.19-3.33-.72-4.9-1.22-3.61-2.98-7.03-3.86-10.7-.06-1.82.66-3.55,1.98-4.8,3.23-3.2,3.17-5.9-.75-8.32-.82-.5-1.66-.94-2.54-1.32-8.32-3.36-8.66-4.17-7.28-12.77,1.16-4.49-1.22-9.13-5.55-10.86-1.29-.69-2.45-1.54-3.7-2.26-6.34-3.92-8.32-8.32-5.87-15.5,1.69-5.49,2.07-11.33,1.07-17.01-1.32-10.58.88-21.31,6.25-30.5,6.43-11.46,14.56-21.91,24.13-30.91,4.02-3.89,8.72-7,13.87-9.2,7.38-3.36,13.5-.16,19.71,3.01,5.49,2.64,10.58,6.06,15.1,10.14,5.77,5.55,8.88,5.24,16.01,1.76,5.87-2.76,14.41-3.04,19.14,2.76.91.94,1.54,2.1,1.88,3.36,2.2,11.83,1.32,22.85-8.94,30.94-4.27,3.36-6.09,7.03-4.3,12.4.38,1.76.56,3.55.6,5.34.6,4.99-2.29,8.07-5.55,11.27-3.58,2.89-7.59,5.21-11.89,6.84-2.04,1.04-5.34,1.85-4.43,4.77,1.19,3.01,2.86,5.84,4.93,8.32,1.07,1.13,2.26,2.13,3.58,2.98-1.13,1.38-2.42,2.64-3.86,3.73-1.69,1.07-3.8,1.48-5.55,2.45-2.92,1.57-2.98,3.8-.6,5.99,1.98,1.85,3.61,4.11,5.55,5.87,1.63,1.66,3.61,2.95,5.81,3.77,2.86.53,5.3,2.32,6.75,4.83,3.73,6.4,7.38,12.84,11.11,19.43.09.22.19.44.35.63l4.86,4.9c.88-1.88,1.88-3.7,2.6-5.55,3.8-10.33,7.5-20.68,11.33-30.98,3.61-9.76,7.16-19.43,11.11-29.12,2.39-5.84,5.55-11.3,8.32-17.07,2.73-5.24,7.12-9.45,12.52-11.83,3.86-1.73,6.56-5.3,7.16-9.45,1.51-8.72,7.97-12.05,16.1-13.28,2.13-.47,4.08-1.57,5.55-3.17,3.33-3.61,6.43-7.38,9.38-11.3,3.26-4.3,8.32-4.64,12.71-4.64,6.34,0,10.83-4.64,16.82-5.55,1.48-.16,3.3-3.23,3.61-5.15,0-1.04-2.42-2.76-4.02-3.73-8.03-4.68-16.26-9.04-24.2-13.87-4.02-2.42-7.53-5.55-11.42-8.32-2.54-1.85-6.06-1.63-8.32.53-.85.66-1.79,1.26-2.76,1.88-9.85,7.41-20.74,3.36-22.19-9.04-.56-8.94-.5-17.92.22-26.86,0-1.54,1.63-2.98,1.85-4.58.03-1.63-.16-3.23-.6-4.8-1.32.25-3.04,0-3.99.85-8,6.68-17.07,4.86-25.99,3.17-3.39-.63-3.64-2.48-1.91-5.55l1.66-2.98-.31-.09Z"/>
  <path d="M321.86,271.73c-1.63-1.1-3.33-2.01-5.15-2.76-4.49-1.44-8.22-4.61-10.39-8.82-.6-1.04-.25-2.76-.35-3.95,1.1.06,2.2.06,3.3,0,1.29,0,2.54-.31,3.83-.44-.66-1.1-1.38-2.17-1.98-3.3-1.91-3.33-3.51-6.81-4.77-10.42-.69-2.54,1.76-2.95,3.89-2.26,9.92,3.26,17.07-3.48,18.01-12.24.6-5.37.53-10.76.72-16.13.47-2.51-1.1-4.93-3.58-5.55-12.93-4.24-18.67-22.03-10.67-33.08,3.42-4.74,6.94-9.38,10.54-13.87.85-1.07,2.32-1.66,3.23-2.76.69-.75,1.04-1.76.97-2.76-.16-.63-1.6-1.22-2.51-1.26-1.57-.09-3.11.09-4.61.56-2.82,1.29-6.18.47-8.13-1.98-1.79-2.48-1.29-5.55,1.32-8.69-2.45-.56-4.39-1.13-6.37-1.38-3.8-.5-7.56-1-8.72-5.55-.85-4.61,1.22-9.26,5.21-11.71.82-.69,1.54-1.51,2.17-2.39-.94-.72-1.95-1.35-3.04-1.79-4.61-1.57-9.35-2.76-13.87-4.61-1.6-.88-2.76-2.35-3.23-4.11-.47-2.07.72-4.17,2.76-4.8,1.66-.38,2.73-2.04,2.35-3.7-.16-.75-.6-1.38-1.22-1.82-4.86-5.05-9.73-10.11-14.41-15.35-2.01-2.32-3.77-4.86-5.21-7.56-.75-1.35-1.38-3.73-.72-4.68,1.19-1.26,2.95-1.79,4.64-1.51,3.83,1.26,7.53,2.86,11.11,4.74,3.3,1.66,6.25,4.02,9.6,5.55,1.69.69,3.61.69,5.34,0,3.95-2.17,8.94-1.07,11.58,2.6.91,1.38,1.73,2.82,2.45,4.33l1.79-1.26c.35-1.07.6-2.17.75-3.26,0-2.26.35-4.83,2.95-5.02,2.2.13,4.33.75,6.21,1.85,1.29.82,2.48,1.73,3.58,2.76,1.66,1.19,2.54.63,2.76-1.38.85-5.55,3.23-6.65,7.75-3.01,3.14,2.54,5.96,5.4,8.85,8.32.72.78,1.22,1.73,1.48,2.76,0,.88-.16,1.73-.5,2.51-.69-.28-1.38-.66-1.98-1.1-1.76-1.95-3.64-3.8-5.62-5.55-1.38-.66-2.89-1.04-4.43-1.13-.22,1.41-.22,2.86,0,4.27,1.38,4.46,3.11,8.79,4.52,13.24.09.94,0,1.88-.28,2.76-.94-.31-2.26-.35-2.76-1-2.76-3.58-5.21-7.38-7.88-11.11s-5.05-6.56-7.56-9.82l-1.48.25c-.44,1.98-.53,4.02-.28,6.06,1.26,4.24,3.11,8.32,4.68,12.4.44.85.69,1.82.69,2.76-.28,1.1-.72,2.13-1.32,3.08-.94-.53-1.82-1.19-2.6-1.95-5.15-6.5-10.2-13.06-15.94-20.43-.69,1.88-1.32,2.76-1.22,3.42.16,1.41.85,2.76,1.07,4.17.13,1.22.13,2.45,0,3.67-1.22-.28-2.76-.16-3.55-.88-2.76-2.45-5.05-5.55-8-7.72-5.18-3.89-10.67-7.44-16.19-10.86-.91-.6-2.6,0-4.11.66,5.99,5.55,8.72,13.28,15.75,17.86,4.86,3.17,9.23,7.03,14.81,9.13,1.07.38,1.57,2.26,2.32,3.42-1.22.75-2.6,1.26-4.02,1.48-2.6-.13-5.15-1.13-7.75-1.26-1.19,0-2.42,1.19-3.61,1.85,1,1,1.85,2.64,2.98,2.76,5.55.97,10.86,1.57,16.35,2.29,1.32.03,2.6.19,3.89.5.88.35,2.1,1.22,2.2,1.98.03,1.13-.44,2.23-1.29,2.98-2.54,1.69-5.4,2.95-8,4.61-1.82,1.13-3.45,2.51-4.9,4.11-.91,1.04-1.29,2.42-1.04,3.73.66,1.35,1.95,2.29,3.42,2.54,5.24,0,10.48-.28,15.72-.5.35,0,.69-.22,1.07-.28,2.04-.38,4.68-1.69,5.37,1.22.22.91-2.48,2.76-4.08,3.83-2.17,1.38-4.71,2.23-6.81,3.7-1.38.69-1.91,2.35-1.22,3.73.56,1.13,1.82,1.73,3.04,1.44,2.23-.31,4.46-.78,6.59-1.44,4.21-.97,8.16-3.23,12.8-1.32,2.39,1.04,4.14-.35,3.89-3.33-.78-10.01,2.01-19.43,4.71-28.87,1.79-6.12,2.76-12.49,4.39-18.67.91-3.61,4.68-4.77,7.41-5.18,3.92-.53,7.22-3.2,8.54-6.94,4.52-10.26,13.28-16.13,22.06-22.19,3.77-2.73,7.03-6.09,9.67-9.92,4.9-7.72,13.09-12.74,22.19-13.59,3.11-.72,6.09-1.85,8.88-3.45,4.8-2.13,9.54-4.43,14.34-6.56,4.36-2.13,8.88-3.99,13.5-5.55,3.58-1.1,7.38-1.41,11.11-.88,5.24.75,10.61,0,15.41-2.23,14.5-5.9,30.94-4.64,44.38,3.39,3.55,2.32,6.97,4.83,10.23,7.53,2.6,1.85,5.37,3.55,8.03,5.34l14.34,9.26c1.41,1.29,3.08,2.29,4.86,2.98,4.68,1.35,9.04,3.55,12.93,6.5.6.38,1.41.63,1.79,1.19,2.95,4.39,7.34,5.15,12.18,6.34,3.61.88,6.81,4.61,9.42,7.75,2.13,2.51,3.64,4.39,7.31,3.3,1.73-.22,3.48.38,4.68,1.63,3.8,4.36,7.25,9.01,10.39,13.87,1,2.26,1.29,4.77.85,7.22-.6,5.74,0,6.62,5.77,6.81,3.58,0,8.94,5.55,9.67,10.29.56,3.64,1.66,5.37,5.81,4.58,1.16-.25,3.33,1.29,4.08,2.57,4.14,7.06,5.93,15.22,5.15,23.35-.31,3.92.75,7.85,3.01,11.11,2.1,2.29,2.01,5.84-.22,8-.75-3.67-3.86-6.4-7.59-6.65-.47-1.41-.56-2.89-.31-4.36,2.26-8.13,1.88-16.73-1.07-24.64-.38-.94-1.13-1.69-2.07-2.04-.88.09-1.66.63-2.1,1.38-.91,6.34-4.64,12.15-3.58,18.86.41,1.22.66,2.51.78,3.8-.35,1.48-.85,2.89-1.54,4.21l-1.69-.16c-.56-2.73-.94-5.52-1.1-8.32.13-8.57.91-17.14.78-25.7-.5-3.08-1.69-5.96-3.45-8.5-.85-.94-2.13-1.38-3.39-1.19-1.29.47-2.29,1.48-2.76,2.76-1.79,6.31-3.51,12.68.41,18.89.6.78.88,1.79.75,2.76-.56,1.38-1.29,2.73-2.17,3.95-1.22-.72-3.08-1.19-3.51-2.23-.94-2.26-1.41-4.68-1.44-7.09,0-8.32,0-16.48.47-24.7.82-8.57-2.51-17.04-8.94-22.75-.82-.56-1.82-.78-2.76-.56-.94.38-1.66,1.16-1.91,2.17,0,7.25-1.51,14.66,2.17,21.53.66,1.16,1,2.45,1.07,3.77-.22,1.35-.6,2.64-1.16,3.89-1.32-.78-3.36-1.26-3.83-2.35-.94-2.57-1.6-5.27-1.91-8-1.32-7.44-2.04-15-4.02-22.19-.91-5.27-4.64-9.6-9.7-11.33-.28,2.2-.38,4.43-.28,6.62.69,4.39,1.79,8.69,2.76,13.02.28.78.44,1.6.38,2.45-.38.91-.91,1.79-1.54,2.54-.66-.56-1.73-1-1.98-1.73-.75-2.13-1.13-4.36-1.69-6.56-1-4.05-1.85-8.16-2.98-12.18-2.1-7.53-8.07-11.86-13.87-16.16-.75-.19-1.54,0-2.07.56-.75,1.16-1.07,2.54-.91,3.92,1.44,3.92,3.11,7.75,4.99,11.46,1.79,3.51,4.11,6.78,5.77,10.36.56,1.19-.16,2.98-.31,4.46-1.32-.75-3.17-1.16-3.83-2.26-2.04-3.36-3.48-7.03-5.37-10.45-2.95-6.34-8.07-11.42-14.41-14.41-2.51-1.04-4.8-2.6-7.31-3.61-1.19-.16-2.45-.06-3.61.25.31,1.19.22,2.76.94,3.51,4.9,5.02,9.92,9.92,14.94,14.78,3.3,3.23,3.58,3.77,2.76,7.75l-10.92-6.5c-2.6-1.69-5.3-3.2-8.1-4.58-1.54-.31-3.11-.31-4.64,0,.19,1.63,0,3.73.75,4.86,4.93,6.81,11.83,11.96,19.77,14.72,3.45,1,6.81,2.23,10.11,3.7,1.32.63,2.04,2.51,3.08,3.77-1.29.85-2.73,1.48-4.24,1.82-3.08.19-6.21-.35-9.32-.22-2.17.35-4.3.85-6.34,1.57,6.97,8.72,15.82,11.39,25.42,12.4,1.54.03,3.08.22,4.61.53.82.22,1.35,1.32,2.04,2.04-.75.63-1.48,1.73-2.26,1.79-1.66.03-3.33-.06-4.96-.35-2.13-.35-4.27-.56-6.4-.6-3.11,0-4.83,3.04-2.92,5.15,1.79,2.17,4.08,3.83,6.68,4.83,6.94,2.07,14.12,3.42,21.12,5.27,1.26.35,2.23,1.79,3.3,2.76-1.13.85-2.2,2.23-3.45,2.45-3.42.56-6.9.47-10.36.91-1.63.13-3.17.78-4.43,1.85-.63,1.22-.53,2.67.19,3.83,4.33,4.05,10.01,6.31,15.94,6.37,4.43-.19,8.85,0,13.28.19,2.17,0,4.64.75,4.24,3.2-.19,1.32-2.76,2.76-4.39,3.2-2.13.31-4.27.47-6.43.41-1.82.31-3.64.69-5.4,1.19l-.44,1.38c1.41.88,2.76,2.42,4.24,2.54,6.97,1.13,14.09.82,20.9-.94,8.91-2.95,18.61-2.17,26.96,2.13,4.58,2.32,8.41,5.87,11.11,10.23,2.6,4.27,4.43,8.98,5.37,13.87.97,4.8,1.26,9.73.88,14.62-.88,17.36-7.75,33.86-19.43,46.7-.69.78-1.41,2.76-1.07,3.11.97.97,2.23,1.63,3.61,1.85,8.54,1.35,14.09,5.81,15.53,14.12.25,4.11-.19,8.25-1.32,12.24-.5,1-1.51,1.66-2.6,1.73-1.22-.28-2.23-1.1-2.76-2.26-1.76-4.9-3.77-6.59-7.91-6.21-4.11.22-7.47,3.36-8,7.47-.78,4.39,1.51,8.76,5.55,10.64,5.4,2.32,11.67.38,14.84-4.58,1.66-2.92,3.92-4.11,6.81-2.76,2.89,1.35,2.04,4.43,1.22,6.68-3.7,9.92-10.11,17.29-20.65,20.34-2.04.6-4.17,1.07-6.21,1.73-1.13.35-2.64.56-3.23,1.38-5.55,7.5-13.75,6.34-21.28,6.81-4.77-.09-9.54-.44-14.28-1.1-1.54-.06-3.08.47-4.24,1.51,4.02,1.98,8.32,3.64,12.02,5.93,4.8,2.79,9.35,6.03,13.59,9.63,11.11,9.73,18.52,22.19,25.67,34.71,4.3,7.44,6.09,16.29,9.26,24.42,2.64,6.75,5.37,13.5,8.54,20.02,1.32,2.29,3.3,4.11,5.71,5.18,12.21,5.37,17.76,14.91,17.79,27.74-.41,5.34,1.82,10.51,5.96,13.87,2.42,1.98,4.46,4.36,5.99,7.06,1.44,2.57,2.39,5.4,2.76,8.32,1.07,8.32,1.69,16.63,2.51,24.95.16.56.19,1.19.13,1.79-1.57,5.18,1.44,8.69,4.55,12.05,6.47,7.06,13.12,13.87,19.43,21.09,9.13,10.29,17.98,20.81,26.99,31.16,7.38,8.47,14.94,16.63,22.19,25.26,6.78,7.88,13.24,16.04,19.9,24.01,5.12,6.15,10.42,12.11,15.38,18.39,4.96,6.28,10.2,13.49,15.13,20.43,4.21,5.93,8.32,11.89,12.15,18.08,4.43,7.25,8.63,14.59,12.52,22.19,2.39,6.28.38,13.37-4.96,17.48-5.12,3.89-10.98,6.72-17.2,8.32-9.57,1.54-19.21,2.32-28.9,2.35-7.12.25-8.07.5-10.17,7.19-2.35,8.22-8.29,14.94-16.13,18.27-6.09,2.51-12.9,2.45-18.96-.16-7.34-3.23-15.41-4.52-23.41-3.7-1.54.16-3.04.56-4.46,1.13-8.57,4.14-16.6,9.32-23.88,15.41-16.04,12.15-33.8,19.8-54.61,17.36-8.79-1.04-17.79-1-26.39-2.76-9.89-2.07-19.43-5.68-29.12-8.57-1.38-.38-3.36-.94-4.27-.31-.94,1.16-1.32,2.64-1.07,4.11,2.54,18.33,5.02,36.69,7.97,55.02,1.73,10.73,4.17,21.37,6.37,32.04,1.63,7.94,3.23,15.91,4.99,23.82,4.43,19.55,8.88,39.1,13.5,58.62,1.13,3.8,3.73,6.97,7.25,8.85,6.06,3.95,12.3,8,16.13,14.44.94,2.04,1.19,4.3.69,6.5-.56,3.01-2.23,5.84-2.92,8.85-1.38,5.65-2.45,11.39-3.14,17.2-.56,5.37,2.6,9.73,5.24,14.22,6.12,10.33,16.19,15.88,25.92,21.91,6.31,3.89,12.58,7.78,18.99,11.52,3.01,2.07,4.9,5.37,5.18,8.98.19.94-1.79,2.76-3.17,3.45-1.88.75-3.89,1.19-5.9,1.32-13.87,1.69-27.52,3.58-41.33,4.93-11.83,1.19-22.6-2.76-33.05-8-4.24-2.13-8.72-3.89-13.15-5.55-2.54-1-4.3.13-5.55,2.6-2.26,4.83-4.58,5.96-9.73,4.27-5.93-1.88-11.74-4.08-17.42-6.59-3.73-1.69-4.68-5.55-4.9-9.45-.25-5.15-.13-10.29,0-15.41.44-3.51-1.22-7-4.3-8.79-5.12-3.08-6.18-8.32-6.34-13.68,0-4.68.44-9.38.16-14-.19-2.79-.94-5.49-2.26-7.97-4.93-9.16-10.48-17.98-15.19-27.21-5.77-11.27-11.36-22.63-16.29-34.27-5.77-13.87-10.76-27.74-15.97-41.87-2.86-7.59-5.65-15.25-8.32-22.94-5.08-15.19-10.2-30.38-15-45.66-5.55-17.89-10.98-35.87-16.29-53.85-4.14-14.34-7.81-28.81-11.67-43.25-1.54-5.74-2.54-6.65-8.32-7-5.37-.35-10.76-.38-16.13-.85-2.57-.41-5.15-1-7.66-1.76-4.43-1.04-7.03,1.04-6.31,5.55,2.7,18.74,3.83,37.66,3.36,56.58-.28,28.12-.85,56.24-1.66,84.39-.35,12.3-1.13,24.64-2.17,36.91-1.26,14.69-3.48,29.25-4.33,43.94-.75,12.74-.31,25.58,0,38.35,0,3.23,2.07,6.34,2.51,9.63,1.57,9.63,2.67,19.36,3.23,29.09.19,5.37-1.79,10.8-3.01,16.13-.88,3.83-2.17,7.56-3.23,11.36-1.38,4.68-5.05,8.35-9.73,9.7-2.48.78-4.93,1.73-7.31,2.76-2.51,1.57-5.77,1.22-7.94-.85-3.23-2.76-5.18-2.6-7.44.66-2.2,3.04-5.77,4.77-9.54,4.64-10.64.85-21.28,1.44-31.79,3.08-8.47,1.32-16.63,4.17-24.95,5.99-11.58,2.48-23.22,4.58-34.84,6.81-1.07.19-2.13.22-3.23.13-3.36-.28-7.19-.35-8.5-4.08-1.1-3.7.28-7.72,3.45-9.92,8.07-6.94,16.95-12.9,26.39-17.76,4.93-2.35,9.38-5.68,14.09-8.5,3.95-2.39,8.1-4.52,11.93-7.09,4.05-2.73,7.97-5.68,11.74-8.82,2.57-2.2,3.3-5.87,1.76-8.88-1.04-2.17-1.88-4.39-2.54-6.68-.53-2.89-.75-5.84-.6-8.76.13-1.69.56-3.33,1.29-4.86,2.51-5.65.88-12.3-3.95-16.13-2.17-2.23-3.95-4.8-5.34-7.59-1.88-2.82-1.26-6.62,1.44-8.66,4.83-4.43,9.2-9.42,13.87-13.87,2.86-2.67,3.95-6.78,2.76-10.51-4.43-19.08-9.35-38.1-13.12-57.31-3.67-18.64-6.31-37.5-9.04-56.3-2.35-16.19-4.58-32.45-6.21-48.77-1.07-10.92-.69-22.03-1.66-32.98-2.39-28.87-2.86-57.87-1.41-86.81.5-11.96,1.51-23.88,2.04-35.84.28-6.09,0-6.12-6.18-6.34-4.9,0-9.79-.38-14.66-1-7.47-.91-13.18-5.55-18.45-10.29-4.93-4.68-9.57-9.67-13.87-14.94-5.9-6.9-11.83-13.87-17.36-21.03-6.25-8.16-12.15-16.63-18.01-24.95-4.55-6.56-8.91-13.24-13.09-20.09-2.76-4.58-4.17-9.35,0-14.28.72-.88-.19-3.33-.72-4.9-1.22-3.61-2.98-7.03-3.86-10.7-.06-1.82.66-3.55,1.98-4.8,3.23-3.2,3.17-5.9-.75-8.32-.82-.5-1.66-.94-2.54-1.32-8.32-3.36-8.66-4.17-7.28-12.77,1.16-4.49-1.22-9.13-5.55-10.86-1.29-.69-2.45-1.54-3.7-2.26-6.34-3.92-8.32-8.32-5.87-15.5,1.69-5.49,2.07-11.33,1.07-17.01-1.32-10.58.88-21.31,6.25-30.5,6.43-11.46,14.56-21.91,24.13-30.91,4.02-3.89,8.72-7,13.87-9.2,7.38-3.36,13.5-.16,19.71,3.01,5.49,2.64,10.58,6.06,15.1,10.14,5.77,5.55,8.88,5.24,16.01,1.76,5.87-2.76,14.41-3.04,19.14,2.76.91.94,1.54,2.1,1.88,3.36,2.2,11.83,1.32,22.85-8.94,30.94-4.27,3.36-6.09,7.03-4.3,12.4.38,1.76.56,3.55.6,5.34.6,4.99-2.29,8.07-5.55,11.27-3.58,2.89-7.59,5.21-11.89,6.84-2.04,1.04-5.34,1.85-4.43,4.77,1.19,3.01,2.86,5.84,4.93,8.32,1.07,1.13,2.26,2.13,3.58,2.98-1.13,1.38-2.42,2.64-3.86,3.73-1.69,1.07-3.8,1.48-5.55,2.45-2.92,1.57-2.98,3.8-.6,5.99,1.98,1.85,3.61,4.11,5.55,5.87,1.63,1.66,3.61,2.95,5.81,3.77,2.86.53,5.3,2.32,6.75,4.83,3.73,6.4,7.38,12.84,11.11,19.43.09.22.19.44.35.63l4.86,4.9c.88-1.88,1.88-3.7,2.6-5.55,3.8-10.33,7.5-20.68,11.33-30.98,3.61-9.76,7.16-19.43,11.11-29.12,2.39-5.84,5.55-11.3,8.32-17.07,2.73-5.24,7.12-9.45,12.52-11.83,3.86-1.73,6.56-5.3,7.16-9.45,1.51-8.72,7.97-12.05,16.1-13.28,2.13-.47,4.08-1.57,5.55-3.17,3.33-3.61,6.43-7.38,9.38-11.3,3.26-4.3,8.32-4.64,12.71-4.64,6.34,0,10.83-4.64,16.82-5.55,1.48-.16,3.3-3.23,3.61-5.15,0-1.04-2.42-2.76-4.02-3.73-8.03-4.68-16.26-9.04-24.2-13.87-4.02-2.42-7.53-5.55-11.42-8.32-2.54-1.85-6.06-1.63-8.32.53-.85.66-1.79,1.26-2.76,1.88-9.85,7.41-20.74,3.36-22.19-9.04-.56-8.94-.5-17.92.22-26.86,0-1.54,1.63-2.98,1.85-4.58.03-1.63-.16-3.23-.6-4.8-1.32.25-3.04,0-3.99.85-8,6.68-17.07,4.86-25.99,3.17-3.39-.63-3.64-2.48-1.91-5.55l1.54-2.98-.28-.03ZM579.8,1031.56h0c-.25,3.11-.25,6.21,0,9.32.22,2.17,1.32,4.17,2.98,5.55,4.11,2.2,8.38,4.08,12.8,5.55,3.77,1.38,5.55.47,6.84-3.36.69-2.67,3.3-4.39,6.03-3.95,1.79.06,3.58.41,5.27,1,8.32,3.48,16.63,7.34,24.95,10.7,6.34,2.76,13.31,3.83,20.18,3.17,12.55-1.57,25.11-3.45,37.63-5.27,1.16-.38,2.23-.97,3.2-1.69-.69-.97-1.22-2.29-2.17-2.92-6.34-4.02-12.87-7.81-19.24-11.83-8.32-5.3-16.63-10.17-22.69-18.74-6.06-8.57-9.85-17.29-7.69-27.74,1.35-6.18,3.08-12.27,5.18-18.27,1.13-2.32.47-5.12-1.54-6.75-5.49-4.96-11.33-9.57-17.45-13.75-2.92-1.6-4.93-4.43-5.55-7.69-.35-1.38-.53-2.76-.82-4.21-1.44-7.41-2.76-14.81-4.36-22.19-1.85-8.32-4.21-16.41-6.03-24.73-4.68-21.62-9.48-43.25-13.62-64.96-2.76-15.03-4.86-30.22-6.87-45.41-3.08-19.87-5.12-39.86-6.09-59.91,0-2.98-.53-5.96-.72-8.94s-2.04-4.43-5.02-4.21c-3.45.22-6.94.69-10.39.82-33.39.75-66.82-.31-100.11-3.2-4.8-.35-6.21,1.1-4.96,5.81,1.57,6.03,3.33,11.99,5.05,17.95,4.36,14.94,8.69,29.88,13.09,44.78,3.51,12.05,7.12,24.07,10.8,36.06,3.39,10.95,6.94,21.87,10.45,32.83,2.35,7.38,4.61,14.81,7.34,22.06,5.55,14.53,10.92,29.09,17.01,43.37,6.37,14.91,13.18,29.63,20.37,44.13,4.36,8.72,9.95,16.82,14.62,25.42,1.07,2.48,1.54,5.18,1.38,7.88,0,5.55-.47,11.11-.56,16.82-.06,3.55,1.98,6.81,5.18,8.32,3.36,1.76,5.46,5.3,5.37,9.1.16,3.17.13,6.15.13,9.16l-.09-.06.13-.03ZM458.85,211.98c.56.28,1.1.63,1.57,1,6.5,6.09,9.6,14.94,8.32,23.76-.75,3.11,1,6.31,4.05,7.28,5.55,2.54,11.11,5.55,16.63,8.32,10.83,5.62,20.37,13.46,28.03,22.97,8.72,11.11,11.11,31.38-1.57,42.09-3.86,3.3-11.11,4.55-14.69.85-4.17-4.55-10.33-6.75-16.41-5.84-4.33.35-8.94.35-12.3-3.48-3.36-3.83-6.53-3.7-10.86-1.51-4.77,2.73-10.54,3.08-15.63.97-2.86-1.6-6.4-1.22-8.88.94-4.68,3.92-11.39,4.17-16.35.63-2.39-1.85-5.71-1.85-8.07,0-3.83,2.98-8.82,3.99-13.5,2.76-2.45-.19-4.86.41-6.97,1.66-1.48.82-2.01,2.67-1.16,4.14.28.5.69.91,1.16,1.16,10.39,6.59,20.59,13.46,32.39,17.45,11.8,3.99,24.23,7.19,36.62,4.33,19.43-4.52,39.57-6.81,58.53-13.87,15.63-5.9,30.69-12.58,43.15-24.07,8.1-7.25,15.16-15.6,21-24.76,5.3-8.57,6.62-18.42,9.98-27.59.56-1.44-.22-3.36-.38-5.08-1.48.28-2.98.41-4.39.85-1.16.28-2.26.78-3.23,1.48-8.32,6.15-17.14,5.18-26.08,2.76-3.7-1.26-6.62-4.14-7.91-7.81l11.86-1.54c-5.46-2.95-10.73-6.28-15.79-9.92-5.15-4.17-6.37-12.87-2.92-16.63,2.54,3.36,5.9,5.99,9.73,7.66.85.38,2.29-.5,3.48-.82-.31-1.13-.75-2.23-1.32-3.26-2.35-3.55-5.15-6.87-7.19-10.58-1-1.66-.44-3.83,1.22-4.83,1.48-.88,3.36-.56,4.49.75,2.82,2.64,7.09,2.98,10.33.85,8.07-3.64,13.56-11.3,14.37-20.12,1.19-12.24,1.82-24.54,2.76-36.84-.06-1.29-.28-2.57-.72-3.8-.78-1.76-1.29-3.64-1.48-5.55.69-4.05-1.44-8.07-5.21-9.7-4.49-2.26-7.25-6.9-7.12-11.93-.47-1.85-1.51-3.48-2.98-4.71-2.76-2.76-5.93-5.37-8.51-8.32-3.33-3.92-4.9-9.07-10.33-11.49-5.74-2.64-11.83-4.36-18.11-5.15-5.55-.6-10.89-1.54-16.35-2.51-1.57-.28-3.3-.56-3.04-3.08.44-4.14-.31-4.49-4.55-4.14s-8.79,0-13.15.5c-2.48.44-4.9,1.19-7.22,2.23-2.2.78-4.3,1.82-6.5,2.76-1.19.47-2.54.56-3.7,1.13-3.48,1.82-5.4,1.19-6.31-2.57-.56-2.48-1.76-2.76-4.14-2.45-2.07.28-4.17.19-6.21-.28-2.2-.47-4.43-2.42-6.34-2.1-6.09.91-12.11,2.42-17.92,4.46-4.68,1.79-13.06-2.23-13.5-7.34-.22-1.35-.6-2.67-1.07-3.95-1.32.69-3.04,1.07-3.95,2.1-2.26,2.6-3.95,5.71-6.31,8.32-1.19,1.29-3.8,2.76-4.9,2.32-4.24-1.95-5.74.66-7.75,3.39-1.66,2.54-3.8,4.77-6.31,6.53-2.32,1.19-4.08,3.3-4.86,5.81-.35,1.6-1.16,3.11-2.32,4.24-10.73,8.1-15.5,20.43-22.19,31.35-2.54,4.14-.53,6.78,4.36,6.12,2.76-.35,5.55-1.76,8.32-1.82,9.92-.35,19.87-.31,29.78-.38,1.32.09,2.64.09,3.95,0,3.04-.41,3.73-1.95,3.23-4.93-.19-2.26-.19-4.52,0-6.78h1.16c1.54,9.67,6.62,18.61,5.55,28.87-.19,1.79,0,3.61,0,5.37-.25,3.26.91,5.02,4.43,4.96,1.13.06,2.26.25,3.36.56l.35.94c-7.59,3.14-14.34,8.07-19.65,14.37-.16.19-.35.35-.56.47-8.19,5.52-14.34,13.56-17.54,22.91-1.76,5.55-3.33,11.11-4.9,16.85-2.86,8.91-4.21,18.2-3.99,27.55.35,6.72,8.91,15.91,16.63,16.95,8.6,1.26,17.32-.56,24.73-5.15,6.31-4.14,13.31-7.16,20.65-8.94,5.27-.97,10.45-2.45,15.44-4.43,4.61-1.63,8.03-5.62,8.94-10.42,1-5.12.13-10.39-2.48-14.91-2.26-2.98-3.33-6.72-2.95-10.42l.13.06ZM420.22,715.56h-.6v-7.53c.28-2.51-1.54-4.77-4.05-5.05h0c-6.78-.88-13.53-1.79-20.31-2.54-12.49-1.41-24.95-2.76-37.47-4.08-9.26-1.04-18.52-2.26-27.74-3.14-3.8-.35-4.93,1.1-4.71,4.9,1.91,32.11,2.23,64.37,6.97,96.29,1.66,11.11,2.6,22.19,4.49,33.02,3.2,18.52,6.72,36.94,10.39,55.49,2.76,13.24,5.3,26.46,8.79,39.48,1.91,7.19,1.57,13.02-3.92,18.27-4.02,3.86-7.81,7.91-11.86,11.77-2.07,2.13-2.29,5.43-.56,7.81,2.76,3.77,5.37,7.63,8.32,11.11,2.13,2.35,2.73,5.74,1.54,8.69-.53,1.73-1.32,3.33-1.98,5.02-1.85,4.36-1.69,9.32.44,13.53,3.7,7.38,4.71,14.34-4.33,20.15-10.04,6.43-19.9,13.18-29.91,19.68-2.57,1.66-5.55,2.76-8.32,4.36-7.38,4.77-14.69,9.67-21.87,14.72-1,.69-1.13,2.6-1.69,3.95,1.41.41,2.92,1.41,4.17,1.19,10.58-1.95,21.12-3.95,31.63-6.21,16.63-3.61,33.02-7.97,50.12-8.72,7-.31,13.59-1.38,18.96-7.53s6.18-5.55,13.5-1.85c4.64,2.54,10.45.85,12.99-3.8.22-.41.41-.82.56-1.26,2.04-4.21,3.64-8.6,4.8-13.12,2.1-12.15,2.01-24.6-.28-36.72-1.1-4.71-2.51-9.32-4.17-13.87-3.95-12.37-1.88-24.95-.88-37.38,1.63-20.21,4.05-40.39,5.93-60.57.47-4.99.22-10.07.38-15.1.78-23.57,2.13-47.17,2.23-70.71.09-23.54-.88-46.86-1.51-70.14l-.03-.09ZM589.56,703.54l.16.78c7.69-1.69,15.41-3.2,23.04-5.15,3.23-.82,3.95-3.51,2.57-6.97-1.66-3.45-3.01-7.06-4.08-10.73-2.76-13.87-5.12-27.74-7.75-41.61-2.26-11.86-4.77-23.66-7-35.53-2.01-10.7-3.86-21.37-5.55-32.11-.6-3.8-1.57-5.02-5.34-4.33-15.97,2.45-32.2,3.17-48.33,2.1-6.97.03-13.9-1.07-20.49-3.23-10.73-4.36-21.15-9.42-31.2-15.13-6.9-4.05-13.59-8.47-20.05-13.21-2.76-2.32-6.84-2.23-9.48.22-1.51,1.35-3.36,2.32-5.34,2.76-5.52,1.29-11.33-.63-15-4.93-4.52-5.24-5.52-12.65-2.54-18.89,1.16-1.82.72-4.24-1-5.55-3.51-3.39-7.06-6.78-10.8-9.98-1-.78-2.29-1.04-3.48-.69-1.04.75-1.66,1.91-1.79,3.17-.82,5.3-1.57,10.64-2.04,15.97-1.22,15.38-2.76,30.76-3.23,46.17-.47,15.41.72,30.88.97,46.29.25,15.41,5.99,30.38,8.32,45.66.22.97.56,1.88,1.04,2.76,3.55,8.63,7.12,17.23,10.67,25.86,3.17,7.56,7.91,12.52,17.01,12.8,12.55.41,24.95,2.17,37.6,2.76,25.23,1,50.5,1.73,75.73,2.13,9.16-.13,18.27-1.07,27.34-1.48l.06.06ZM421.75,696.95c.56.13,1.16.13,1.76,0,1.66-.25,3.26-.85,4.64-1.79.5-.5-.47-2.76-1.07-4.08-2.1-4.8-4.43-9.48-6.56-14.31-5.4-12.27-9.29-25.14-11.58-38.32-3.45-17.86-5.02-36.06-4.71-54.26.53-13.02,0-26.14,1.13-39.1,1.32-16.19,3.77-32.29,5.55-48.46.19-1.95-.28-3.89-1.32-5.55-7.53-10.01-15.41-19.77-23.04-29.75-8.76-11.55-16.63-23.54-20.46-37.85-.35-1.32-1.73-2.35-2.76-3.51-1.07,1.1-2.76,2.04-3.2,3.39-3.14,11.11-6.25,22.19-8.88,33.3-3.11,13.24-5.9,26.61-8.51,39.98-2.51,12.9-4.64,25.89-6.9,38.82-.69,3.89-1.38,7.75-1.95,11.67-1.63,11.74-3.64,23.41-4.71,35.21-1.29,13.87-1.91,27.74-2.51,41.61-.85,18.52-1.38,37.06-1.98,55.61-.16,6.09.91,7.31,7.03,7.91,17.61,1.63,34.96,5.34,52.69,5.87,12.43.13,24.67,2.32,37.28,3.7l.03-.09ZM833.07,712.8v.38c4.43-.22,8.85-.35,13.24-.69,4.39-.35,5.27-2.76,2.92-6.28-.82-1.44-1.54-2.92-2.13-4.43-.85-1.95-1.85-3.8-3.01-5.55-4.08-5.27-8.32-10.51-12.55-15.6-8.1-9.45-16.16-19.18-24.73-28.34-10.45-11.3-21.37-22.19-31.98-33.3-7.5-7.85-14.84-15.85-22.35-23.63-1.26-.97-2.67-1.69-4.17-2.2-.16,1.54-.16,3.11,0,4.64.5,2.45,1.54,4.8,2.04,7.25.44,1.48.38,3.08-.22,4.49-3.23,4.49-2.76,9.1-1.38,14.03.44,1.98.66,4.02.66,6.06.31,3.99-.88,5.3-4.93,5.87-1.38.03-2.76.47-3.89,1.32-2.45,2.76-1.79,10.64.28,13.87,3.92,5.96,4.46,10.83-1.63,14.34-.91.56-1.79,1.19-2.6,1.88-4.64,3.51-10.2,6.34-13.87,10.73-6.5,8-11.24,17.01-10.95,28.06.19,7.91-3.95,11.8-11.55,13.65-18.77,4.64-37.69,3.92-56.68,1.91-6.25-.31-11.36-5.08-12.05-11.3-.6-2.76-1.26-5.84-2.07-8.69-.5-1.16-1.16-2.23-1.91-3.23-1.16.88-2.35,1.76-3.48,2.76s-1.66,1.82-2.76,2.13c-6.75,2.04-13.5,4.11-20.34,5.84-3.23.85-4.71,2.39-4.43,5.77,1.19,13.71,2.35,27.4,3.45,41.11,0,2.6,1.54,4.93,3.95,5.93,3.39,1.48,6.72,3.04,10.14,4.39,9.48,3.7,18.99,7.34,29.41,7.44,2.13.19,4.27.5,6.37.91,16.82,1.88,33.67,3.67,49.18-5.93,5.37-3.33,11.11-6.15,16.32-9.67,4.24-2.76,7.85-6.62,12.08-9.45,7.47-4.9,15.28-8.54,24.76-7.94,6.78.56,13.49,2.01,19.93,4.24,7.22,2.95,15.53,1.13,20.87-4.58,3.51-3.23,5.99-7.47,7.09-12.15,1.51-8.19,8.35-14.34,16.63-14.97,5.4-.75,10.92-.78,16.41-1.16l-.06.06ZM312.82,596.27h2.76c4.96,0,5.9-.97,6.59-6.03.6-4.52,1.32-8.98,1.95-13.5,2.54-19.21,4.77-38.41,7.75-57.56,2.23-14.28,4.9-28.53,8.32-42.62,4.36-18.61,9.45-37.06,14.28-55.49,1.32-4.96,3.08-9.82,4.43-14.78.41-1.29.22-2.7-.5-3.86-1.19-.66-2.64-.66-3.83,0-3.08,1.57-5.77,3.8-7.91,6.53-5.21,8.85-9.82,18.01-13.87,27.43-3.7,8.76-6.09,18.11-9.2,27.18-3.77,10.92-7.5,21.91-11.67,32.67-1.79,4.58-2.51,8.63.47,12.84.75,1.1,1.38,2.26,1.91,3.45,2.39,5.34,4.93,10.64,7.03,16.1.41,1.1-.85,2.76-1.32,4.36-1.26-.88-3.01-1.54-3.64-2.76-3.33-6.59-6.15-13.46-9.51-20.05-6.37-12.52-12.99-24.95-19.58-37.47-1.57-3.26-5.49-4.64-8.72-3.08-.35.16-.69.38-1,.6-4.52,2.76-9.1,5.24-13.65,7.78-12.58,7.12-25.23,14.15-37.75,21.37-1.22.72-2.57,3.2-2.2,4.27,1.32,4.33,3.17,8.44,5.55,12.3,6.25,9.04,12.93,17.79,19.43,26.52,5.77,7.59,11.61,15.16,17.67,22.53,5.68,6.9,11.42,13.87,17.64,20.21,7.41,7.75,17.89,11.86,28.59,11.17v-.13h0ZM303.44,367.14c0-1.79-.16-3.58-.41-5.37-.41-2.95-1.22-5.84-4.46-6.81-3.58-1.35-7.56-.69-10.54,1.69-3.58,3.83-9.51,4.27-13.62,1.04-5.37-3.58-10.51-7.53-16.04-10.83-7.12-4.3-14.75-8.94-23.07-3.7-5.77,3.55-10.98,7.97-15.44,13.09-6.34,7.31-11.89,15.22-16.63,23.63-4.83,8.25-6.47,17.98-4.58,27.34,1.51,5.74.94,11.83-1.63,17.17-1.95,3.14-.97,7.28,2.17,9.26.25.16.53.31.82.44,1.41.88,2.76,1.79,4.27,2.6,7.12,4.05,9.95,10.86,7.53,17.1-.94,2.42.35,3.95,2.1,5.15,3.01,2.1,5.96,1.32,9.1-.19,8.32-3.95,16.63-7.91,24.95-11.33,5.96-2.42,12.27-4.02,18.42-5.87,2.26-.35,3.83-2.48,3.48-4.74-.06-.35-.16-.66-.28-.97-.35-1.13-1-2.17-1.44-3.26-2.04-5.21-1.66-10.95,4.99-12.62,2.6-.5,5.05-1.51,7.28-2.92,3.23-2.35,6.12-5.18,8.57-8.32,1.73-2.76,1.44-6.31-.66-8.76-1.79-2.6-4.11-.6-6.21-.22-.72,0-1.41.35-2.1.41-2.51.25-3.58,1.82-4.52,3.99-3.33,7.72-6.65,15.47-12.52,21.75-8.16,9.16-19.21,15.32-31.29,17.48-1.38.41-2.82.5-4.24.25-1.35-.72-2.54-1.66-3.61-2.76.97-1,2.01-1.91,3.11-2.76.53-.38,1.41-.13,2.1-.35,4.58-1.26,9.13-2.54,13.71-3.89,2.45-.72,2.39-2.32,1.29-4.17-.47-.97-1.13-1.85-1.88-2.6-8.16-6.97-16.01-14.56-27.96-13.87-.82.16-1.69.03-2.45-.35-1.19-.94-2.98-2.26-2.98-3.36.41-1.54,1.54-2.76,3.01-3.3,1.98-.35,4.02-.35,5.99,0,6.31.72,11.42,4.27,16.45,7.53s11.49,6.56,14.53,12.9c1,2.1,3.01,2.04,4.49.5,3.23-3.33,6.31-6.81,9.32-10.36,2.2-2.39,2.42-5.99.5-8.63-3.58-6.94-9.26-12.62-16.19-16.19-4.74-2.2-9.32-4.77-14.09-6.9-2.29-1.07-6.18-1.04-5.34-4.39s4.49-2.32,6.81-1.19c7.06,3.45,14.03,7.19,20.9,11.11,2.07,1.16,3.89,1.98,4.9-.78,1.57-4.49,2.76-9.1,4.17-13.68.72-1.69-.06-3.64-1.76-4.36-.16-.06-.35-.13-.53-.19-7.03-2.45-13.4-6.9-21.34-6.68-1.07,0-2.13-1.73-3.23-2.64,1-1.16,1.79-2.76,3.04-3.33,1.63-.38,3.3-.25,4.86.35,6.47,2.13,12.87,4.39,19.27,6.78,2.04,1.07,4.52.66,6.09-1,1.07-.97,3.36-.5,5.12-.69-.19,1.6.22,3.7-.66,4.74-4.39,5.68-7.31,12.33-8.47,19.43-.94,4.64.56,6.4,5.34,6.62,8.69.38,15.22-3.89,21.37-9.45,5.81-4.96,10.64-10.14,10.07-18.48v-.13l.06.06ZM668.78,622.32c2.1-.94,4.3-1.73,6.53-2.29,9.98-1.66,20.02-3.08,30.03-4.64,11.67-1.85,23.38-3.67,35.02-5.71,4.3-.75,5.15-2.98,3.42-7.03-3.7-8.54-7.56-17.01-10.86-25.7-3.95-10.39-7.06-21.09-11.11-31.45-3.3-8.57-7.28-16.88-11.11-25.26-.56-1.88-2.57-2.98-4.46-2.42-.53.16-1.04.44-1.44.85-8.44,5.43-16.88,10.8-25.36,16.13-10.73,6.75-21.44,13.5-33.8,17.07-2.42.66-4.71,1.73-6.81,3.14-.94,1-1.32,2.42-1,3.77,4.17,9.04,8.47,17.95,12.96,26.8,1.6,3.17,4.14,5.84,5.55,9.01,2.2,4.68,3.77,9.63,5.55,14.44,1.13,2.95,2.26,5.9,3.61,8.76.94,1.63,2.04,3.2,3.23,4.64v-.09h.03ZM641.31,673.94c.5,1.38.91,2.82,1.16,4.27.44,8.76,3.08,17.23,7.69,24.7.66,1.54,1.04,3.17,1.16,4.86-1.88-.38-3.73-.88-5.55-1.48-.66-.28-1.07-1.26-1.6-1.88-1.32-1.69-2.76-3.3-4.3-4.77-2.01-1.76-3.7-1.04-3.7,1.63.09,2.04.35,4.05.82,6.03.91,5.55,2.92,7.53,8.32,8.19,7.56.88,15.19,1.6,22.82,2.32,1.66.16,3.36.09,5.02-.13,7.53-1.1,15.16-2.1,22.63-3.55,9.63-1.79,9.76-2.2,10.58-12.11.82-11.46,5.87-22.22,14.19-30.16,4.3-3.8,8.88-7.22,13.75-10.26,2.51-1.13,3.61-4.08,2.48-6.56-.28-.6-.66-1.13-1.13-1.57-1.98-2.64-5.18-4.05-8.47-3.77-11.61,0-23.26.28-34.84,0-4.02-.13-7.91-1.22-11.42-3.17-3.39-1.98-6.34-2.98-9.63-.97-4.14,2.54-8.16,5.34-11.99,8.32-3.04,2.82-6.94,4.58-11.11,4.96-2.23.22-4.43.85-6.43,1.82-3.01,1.16-5.93,2.51-8.76,4.05-1.6.69-2.89,1.88-3.7,3.42-1.26,3.39-2.07,6.87-2.51,10.45-.78,6.87.82,9.2,6.25,10.42s5.84.35,4.33-4.68-.44-8.16,4.05-10.36l-.06-.03ZM677.97,637.32c-1.19-1.29-2.26-2.67-3.17-4.17-1.32-3.3-4.58-5.4-8.13-5.3-1.63-.35-3.01-1.35-3.86-2.76-1.69-2.76-2.76-6.03-4.3-9.04-8.63-18.11-17.36-36.06-25.83-54.33-.78-2.67-3.58-4.21-6.25-3.42-.19.06-.38.13-.53.19-8.07,2.1-16.19,4.17-24.29,6.25-3.95,1-5.55,2.76-4.99,6.9,2.32,13.87,4.86,27.52,7.47,41.24,1.88,9.98,4.02,19.93,5.96,29.88,2.39,12.3,4.61,24.7,7.06,36.97.72,2.57,1.66,5.12,2.76,7.53.97-.94,1.57-2.23,1.6-3.61-.6-6.25,1.35-11.99,2.92-17.86.94-3.39,3.58-6.03,7-6.97,2.23-.85,4.43-1.79,6.62-2.64,2.26-1.19,4.64-2.1,7.12-2.76,4.43-.47,8.6-2.32,11.86-5.37,4.74-4.96,10.92-8.29,17.64-9.57,1.13-.31,2.23-.72,3.3-1.22v.06h.03ZM668.08,195.78c-.38-4.14-1.07-8.25-2.13-12.3-2.89-8.85-10.04-15.6-19.02-18.01-8.32-2.6-17.29-1.76-22.41,4.99-3.99,5.24-6.81,11.27-8.32,17.7-2.26,9.16-4.39,18.33-7.03,27.34-3.04,10.29-6.81,20.37-9.92,30.5-2.45,6.56.88,13.84,7.44,16.29,1.1.41,2.26.66,3.42.75,3.89.66,7.88.31,11.58-1.04,11.11-4.9,22.78-9.07,29.72-20.12,4.11-5.99,7.88-12.18,11.3-18.58,3.89-7.81,4.83-16.6,5.43-27.59l-.06.06ZM573.78,327.22c-.5-1.51-.5-2.35-.94-2.76-2.92-3.45-6.09-6.72-9.45-9.73-2.2-1.73-5.4-1.38-7.16.85-.6.6-1.26,1.1-1.95,1.54-13.31,8.47-27.84,14.81-43.09,18.83-4.77.94-9.42,2.39-13.87,4.33-5.02,2.98-9.79,6.37-14.25,10.17-.91.94-1.29,2.29-1.04,3.58,2.35,6.25,4.99,12.37,7.56,18.52,2.35,5.55,5.05,11.11,7.03,16.82,1.07,3.17,2.76,4.11,5.55,3.23,1.79-.63,3.42-1.66,4.8-2.98,5.02-4.61,9.82-9.45,14.88-14.03,8.72-7.97,17.54-15.82,26.3-23.69,6.53-5.87,13.12-11.64,19.43-17.61,2.2-2.26,4.27-4.61,6.21-7.09l-.03.03ZM356.16,213.48v-1c1.07,0,2.1-.22,3.17-.25,9.32,0,17.89-5.18,22.19-13.46,1.51-2.48.75-3.7-2.1-3.45-3.95.28-8.16-1.6-11.83,2.42-1.57,1.73-5.55,1.38-8.51,1.63-1.91-.06-3.83-.19-5.71-.44-6.81-.19-10.14,1.91-11.93,8.32-1.19,4.27-1.95,8.63-2.23,13.02-.91,15.25,4.8,28.78,11.61,41.96.97,2.17,2.1,4.27,3.39,6.28,2.04,2.76,3.45,2.35,5.55-.41,2.98-4.02,6.34-7.72,9.26-11.74,1.44-1.69,2.32-3.83,2.51-6.06-.78-11.86,2.51-22.97,5.9-34.05.41-1.32.69-3.48,0-4.21s-2.76-.63-4.3-.41c-4.3.66-8.57,1.6-12.9,2.26-1.38.03-2.73-.09-4.08-.41h0ZM489.29,511l.72-1.16c-3.55-2.6-7.06-5.27-10.64-7.78-10.01-7.09-20.12-14.09-30.07-21.25-4.9-3.23-9.54-6.87-13.87-10.86-7.44-7.38-14.37-15.28-21.44-23.04-4.11-4.46-3.89-5.81,1.04-9.82,1.44-1.07,2.73-2.32,3.83-3.73.5-.63,0-1.91,0-2.76-.85.06-1.66.25-2.42.6-1.57,1.22-2.98,2.76-4.49,3.99-7.85,7.06-19.9,6.4-26.96-1.41-.5-.53-.94-1.13-1.38-1.73-5.37-8-5.9-14.12.5-23.22,5.87-8.32,14.19-10.67,23.13-6.06,2.76,1.82,5.34,3.83,7.75,6.06,3.73,2.54,5.46,7.16,4.3,11.55-.09,1.85.09,3.73.5,5.55h.94c.41-1.29,1.38-2.76,1.13-3.86-1.16-5.3-1.13-11.89-4.36-15.5-5.84-6.56-13.28-12.46-23.57-8.88-1.38.44-2.82.56-4.24.38-1-.19-1.91-.78-2.42-1.69-1.79-4.64-3.3-9.45-5.05-14.12-.75-1.6-1.6-3.14-2.6-4.61l-1.22.35c-.44,1.82-.53,3.7-.31,5.55,1.44,4.55,3.23,8.98,5.37,13.24,1.91,3.61,2.2,5.15-.5,8.16-5.77,7.34-7.25,17.17-3.89,25.89,2.54,5.49,7.34,9.63,13.15,11.33,3.92.72,7.91,1.19,11.93,1.35,1.73.25,4.43.85,4.77,1.91,2.39,7.47,8.32,12.4,13.24,17.57,7.19,7.5,14.97,14.37,23.29,20.56,10.86,8,22.38,15.03,33.71,22.31,3.36,1.79,6.81,3.3,10.14,5.05v.09ZM431.99,345.39c-.47.35-2.26,1.07-2.76,2.26-4.39,11.08-7.34,22.72-8.76,34.55-.41,2.98,1.38,4.71,3.95,3.67,6.84-2.79,13.62-5.74,20.34-8.88,2.13-.88,3.14-3.3,2.29-5.43-.03-.09-.06-.19-.13-.25-1.79-5.9-3.23-11.96-4.8-17.95s-3.99-8-10.11-8.03v.06h-.03ZM220.62,481.06c1.48,2.76,2.76,4.9,3.73,7.16,1.35,3.26,3.39,3.17,6.03,1.69,4.27-2.39,8.6-4.64,12.87-7.03,9.26-5.15,18.48-10.36,27.74-15.63,1.79-1,3.64-2.35,2.29-4.86-.94-2.23-3.55-3.3-5.77-2.32-.09.03-.19.09-.28.13-8.32,3.39-16.63,6.84-24.95,10.17-5.96,2.39-12.05,4.55-17.98,7.06-1.32.56-2.29,2.32-3.64,3.55v.06l-.03.03ZM716.26,628.06v.94h22.19c1.35,0,3.86-1,3.89-1.6.35-3.04.06-6.12-.88-9.04-.44-1.07-4.02-1.54-6.03-1.29-5.55.72-10.8,2.26-16.23,2.76-12.18,1.51-24.42,2.76-36.66,3.95h-.69l-3.36,3.2c1.16,1,2.42,1.95,3.7,2.76.6.35,1.63,0,2.48,0l31.57-1.69h0ZM709.13,643.78v-.35c6.56,0,13.15.13,19.71,0,2.7-.03,4.86-2.26,4.83-4.99,0-.19,0-.38-.03-.56-.5-2.76-2.76-3.23-5.18-3.23-10.39,0-20.81.19-31.2.38-4.55,0-9.1.35-13.62.69-1,0-2.76,1.07-2.76,1.57,0,1.29.66,2.45,1.66,3.23,2.95,1.44,6.15,2.42,9.42,2.89,5.71.56,11.49.22,17.23.22v.13l-.06.03ZM668.08,420.49l-.44-1.54c-1.32,0-2.64.06-3.95.31-3.3.97-6.53,2.26-9.85,3.2-7.03,1.91-13.87,4.33-21.4,3.7-13.46-1.13-26.9-2.1-40.33-3.45-7.91-.78-15.79-2.13-23.69-3.23-1-.06-2.01-.06-3.01,0,.22.78.82,1.41,1.57,1.69,4.74,1.57,9.54,2.89,14.44,3.92,12.11,1.95,24.29,3.92,36.5,5.05,13.71,1.76,27.62.25,40.64-4.43,3.3-1.51,6.5-3.26,9.54-5.21v-.03ZM462.8,377.15c4.83-.69,9.67-1.22,14.44-2.13,2.79-.22,4.86-2.64,4.64-5.43,0-.09,0-.22-.03-.31-1.13-6.65-3.92-10.73-7.31-10.7h-.69c-5.18.82-10.39,1.54-15.53,2.42-4.43.75-5.18,2.35-3.45,6.43.63,1.54,1.13,3.14,1.57,4.74.56,3.04,3.3,5.18,6.37,4.99ZM595.78,488.84v.91l2.39.63c.69.16,1.38.35,2.1.44,18.74,3.26,37.85,4.05,56.77,2.32,8.22-.69,16.26-2.67,23.85-5.9,1.1-.66,2.1-1.44,2.98-2.35l-.72-1.07c-1.57.97-3.23,1.76-4.99,2.26-7.28,1.1-14.59,2.04-21.91,2.76-16.07,1.54-32.26,1.54-48.36,0-4.14-.44-8.19-.16-12.21-.16l.06.13.03.03ZM227.55,469.13c2.54-.75,4.68-1.16,6.68-1.95,9.29-3.7,19.02-6.37,27.74-11.77,1.69-1.07,3.95-2.04,2.76-4.14-1.35-1.13-3.17-1.54-4.9-1.07-7.28,2.6-14.44,5.55-21.59,8.51-3.58,1.35-7.09,2.89-10.51,4.64-1.19.97-2.01,2.32-2.29,3.83-.31.31,1.32,1.22,2.04,1.82l.06.13ZM406.28,422.97c.53-5.59-3.58-10.54-9.16-11.05-.41-.03-.82-.06-1.26-.03-5.02-.38-9.82,5.27-9.7,10.64,0,6.18,4.43,11.33,9.57,11.27,5.55-.25,10.98-3.58,10.48-10.89l.06.13v-.06ZM437.73,523.68c0,6.84,3.11,11.39,8.16,12.77,2.29.97,4.96.13,6.28-2.01.72-1.44.72-3.11,0-4.55-2.51-3.01-5.3-5.81-8.32-8.32-1.16-.91-2.67-1.22-4.11-.85-1.1.47-1.73,2.32-2.04,2.82l.06.13h-.03ZM408.57,361.33l-1.35-.38c-1,1.22-1.79,2.6-2.32,4.11-1.32,7.75-2.51,15.5-3.51,23.29,0,1.22.88,2.6,1.38,3.95.88-1.19,2.32-2.26,2.57-3.55,1.1-6.21,1.98-12.46,2.76-18.7.35-2.86.31-5.77.47-8.69v-.03ZM461.8,41.03l.78.78,9.13-8.1c-3.99-.85-8.72,2.82-9.92,7.31ZM464.88,351.7l.16,1.63c2.17.13,4.33.13,6.5,0,.66,0,1.16-1.38,1.76-2.1-.85-.47-1.76-1.48-2.45-1.32-2.04.5-4.02,1.1-5.96,1.85v-.06h0ZM586.14,322.41v-1.76l-8.32-2.39c.47,1.51.6,3.04,1.04,3.17,2.42.47,4.83.82,7.28,1.04v-.06h0ZM496.51,24.14l-.13-1.41-7.38.72.16,1.54s7.34-.85,7.34-.85Z"/>
  <path d="M452.01,122.37c-.53.25-1.29.35-1.54.75-.91,1.38-2.64,3.23-2.26,4.24.82,1.57,2.35,2.67,4.11,2.92,3.55-.38,7.09-.97,10.58-1.82,9.98-1.82,19.9-4.27,29.97-5.34,10.07-1.07,21.03-.75,31.57-1.26,7.22-.35,13.02,2.98,18.89,6.5,4.17,2.51,8.51,4.8,12.65,7.44,6.75,4.52,11.49,11.49,13.21,19.46,1.32,4.71,2.13,9.57,2.45,14.44.75,13.15-5.99,20.68-19.71,15.28-3.39-1.51-7.22-1.66-10.7-.44-2.04.53-4.21.44-6.21-.25-4.24-1.32-8.72-1.57-13.09-.75-5.34.75-11.33,2.76-16.16,1.48-6.15-2.04-12.62-2.98-19.08-2.76-.6,0-1.19-.19-1.69-.53-4.49-2.6-8.98-4.68-14.53-3.55-2.13-.06-4.24-.66-6.09-1.73-2.07-1.16-4.68-.69-6.21,1.1-1.63,1.91-1.69,4.71-.13,6.68,5.99,9.76,16.32,16.04,27.74,16.82,7.72.6,15.53.25,23.29.31h8.07l.19,1.66c-3.73.78-7.44,1.85-11.11,2.26-9.92,1.32-20.02.31-29.5-2.92-10.86-3.95-20.24-10.26-23.29-22.72-.35-1.6-1.35-2.98-2.76-3.83-6.5-2.07-11.61-7.06-13.87-13.5-2.6-7.91-2.6-16.45,0-24.35,1.54-6.28,5.3-11.83,10.54-15.63,1.48-.69,3.04-1.13,4.64-1.35l.06,1.32-.03.06Z"/>
  <path d="M432.61,594.45c-.69-7.44,3.7-11.96,9.35-15.22,5.49-3.67,12.65-3.58,18.01.25,6.59,4.77,7.59,12.08,6.81,19.65-.66,6.56-5.87,11.67-13.43,13.65-5.55,1.44-14.37-1.19-17.07-5.87-1.88-3.92-3.42-7.97-4.61-12.15l.88-.28.06-.03ZM461.42,595.86c0-8-4.43-13.87-10.51-13.87s-12.77,6.28-12.77,12.21c0,7.75,4.96,13.59,11.58,13.71,6.37-.5,11.36-5.65,11.67-12.05h.03Z"/>
  <path d="M442.94,660.07c0-10.23,8.69-19.05,18.27-18.83,8.66.19,17.32,9.79,16.63,19.24-.88,11.86-6.47,17.79-17.39,17.86-10.92.06-16.45-7.03-17.54-18.27h.03ZM473.1,660.42c0-6.18-6.9-13.87-12.46-13.75s-11.71,6.72-11.71,13.4c0,8.32,4.3,13.15,11.83,13.06,6.72-.47,12.02-5.9,12.33-12.62v-.13.03Z"/>
  <path d="M665.1,597.27c-3.95.31-7.41-2.64-7.72-6.59-.03-.56,0-1.16.06-1.73.22-5.55,3.95-9.63,8.32-9.32,4.64,1,7.97,5.08,8.03,9.85-.28,4.55-4.17,8-8.72,7.78h.03ZM665.1,593.88c2.92.25,5.49-1.91,5.74-4.83s-1.91-5.49-4.83-5.74c-3.04-.44-5.84,1.66-6.28,4.71,0,.13-.03.28-.03.41-.35,2.67,1.54,5.12,4.24,5.46.41.06.82.06,1.22,0h-.06Z"/>
  <path d="M674.33,599.63c3.42-.35,6.47,2.13,6.81,5.55,0,.25.03.47.03.72,1,7.85-5.15,11.74-10.04,10.14-2.76-.85-5.34-6.97-4.64-10.33.97-3.55,4.17-6.03,7.85-6.09ZM669.53,608.23c-.19,2.29.19,4.55,3.77,4.61,3.58.06,4.96-1.54,5.08-5.37,0-2.6,0-5.08-3.7-5.08s-5.02.85-5.15,5.84h0Z"/>
  <path d="M645.14,180.21c2.54,1.1,6.18,2.51,9.67,4.27.82.41,1.07,1.91,1.54,2.76-1.22.6-2.45,1.66-3.67,1.63-1.51-.25-2.98-.82-4.27-1.63-3.3-2.1-7.63-1.54-10.26,1.32-3.92,4.33-7.53,8.94-10.8,13.81-2.32,3.51-1.35,5.55,2.26,7.41,6.34,3.01,9.01,11.58,4.58,17.04-3.83,4.21-8.07,8.03-12.65,11.42-1.54,1.29-3.99,1.91-5.27-.56s.69-4.11,2.76-4.9c4.39-1.66,7.97-4.99,9.98-9.26,1.88-3.04.91-7.03-2.13-8.88-.31-.19-.63-.35-.97-.47-1.32-.78-2.76-1.35-4.17-2.04-1.85-.6-2.86-2.57-2.26-4.43.06-.22.16-.41.25-.6,3.33-6.97,7.19-13.65,11.52-20.05,3.33-4.27,8.41-6.78,13.84-6.81l.06-.03Z"/>
  <path d="M396.24,415.25c3.92.78,6.97,3.92,7.63,7.88-.91,3.92-4.05,6.9-8,7.56-4.11-.72-7.16-4.17-7.38-8.32.56-3.92,3.8-6.9,7.75-7.12h0Z"/>
</svg>