<svg id="Capa_1" data-name="Capa 1" xmlns="http://www.w3.org/2000/svg" viewBox="0 0 392.89 345.21"><defs><style>.cls-1,.cls-2{fill:#fff;}.cls-1{stroke:#fff;stroke-linejoin:round;stroke-width:9.7px;}</style></defs><path class="cls-1" d="M401.73,299c-3,7.1-6.94,13.47-13.34,18a11.21,11.21,0,0,1-8.36,2.4,8.48,8.48,0,0,1-6.9-8.77c.06-3.89,2.41-6.64,6-7,.53,1.3-.43,2.32-.69,3.45-.94,4,.51,5.41,4.49,4.29a14.84,14.84,0,0,0,7.92-6,46.11,46.11,0,0,0,8.77-28.58c0-1.89,0-3.94-1.91-5.88-1.47,4.55-3,8.62-6.31,11.61-2.49,2.26-5.45,3.21-8.6,1.64-2.92-1.46-3.47-4.32-3.3-7.31a17.13,17.13,0,0,1,2.16-6.92c2.71-5.3,5.65-10.5,8.09-15.92,5.21-11.55,7.92-23.58,6-36.34s-9.18-22.35-19.38-26.41c.46-3.07,1-8.27,1.47-12.58a30.19,30.19,0,0,0,.59-16.11l0-.19a91.76,91.76,0,0,0-12.18-32.92,40.21,40.21,0,0,0-7.57-10.49l-.51-.6c-11.18-13-22.43-26.56-41.17-32.22-10.7-3.24-15.41-11.45-19.61-10-3.92,1.31-14.28-6.26-23-8-8.28-2.17-14.85-7.38-20.56-13.74-3.07-3.42-6.44-6.57-9.7-9.83a7.37,7.37,0,0,0-5-2.22,143.37,143.37,0,0,0-57,8c-8.77,2.91-22.14,7.71-37.88,14.5v0c-14.6,5.92-27.66,13.41-38.5,26l.3,0c-6.64,5.4-28.05,24.18-33.19,29.64-5.59,5.94-10.48,20.26-10.48,23a43.35,43.35,0,0,1-1.4,8s-2.79,1.05-3.49,2.44,1,17.12,1,17.12l.62,4c-.29.12-.59.24-.92.35C43.69,180.22,35.22,192.23,35,207.34c-.16,9.84,2.64,19,6.12,28a54.38,54.38,0,0,1,3.31,27.11c-.42,3.23-1.82,6.16-5.36,6.92s-6.67-.61-8.87-3.61c-2.82-3.85-3.33-8.17-2.6-12.77.21-1.37,1.21-2.71.39-4.27-1.79.65-2.36,2.26-3.15,3.62-14.55,25,5.67,59.65,35.36,60.43,3.54.09,4.38,1.31,5,4.54,2,9.63,5.63,18.49,13,25.53,9.26,8.82,20.34,15,30.87,22,2,1.33,4.39,2.07,6.58,3.13,6.39,3.07,13.53,3.46,20.17,5.67,25.26,5.12,60.89,5.36,86.94,0C232.93,370,243.33,367,253,362.17c11.17-5.57,21.92-11.74,31-20.47a25,25,0,0,1,2.38-1.71c1.82,5.2-.87,9.33-2.52,14.37A75,75,0,0,0,297,347.54c3-1.83,5.63-2,9.11-.89,33,10.14,62.89,4.56,89.08-18.44,3.38-3,5.55-6.92,8-10.61V295.66C402.69,296.76,402.19,297.86,401.73,299ZM225.1,367.34l5.26-1.14C228.61,366.62,226.86,367,225.1,367.34Z" transform="translate(-15.13 -37.23)"/><path d="M265.77,125.09c3.4,2,6.57,1.26,9.91-.43,5.44-2.77,11.1-5,17.34-5.31a8,8,0,0,1,7.82,4c-1.17,2.17-3.36,2.8-5.14,3.91-3.79,2.37-7.63,4.65-11.39,7-1.28.81-3.3,1.48-2,3.65,1,1.72,2.45,2.91,4.7,2.31s4.43-1.28,6.68-1.73c6.71-1.35,13.21-.95,19.21,2.75,1.35.83,2.86,1.55,3.71,3.7-5,.91-9.79,1.78-14.61,2.68-1.86.35-3.73.7-5.56,1.18-1.27.34-2.82.64-2.69,2.47s1.55,2.4,3.13,2.56c1.35.14,2.71.14,4.05.29,8.65,1,17.22,2.3,24.41,7.82,1.34,1,3,1.85,3.33,3.81-5,0-9.94-.05-14.86,0-2.71,0-5.41.2-8.11.41-1.15.08-2.76-.16-3,1.43a3.23,3.23,0,0,0,2.14,3.57,23.51,23.51,0,0,0,4.35.91c9,1.42,17.89,3,26.52,5.89,2.39.8,4.87,1.65,6.29,4.62-5.41,2.08-10.93,2.45-16.38,3.07-4.3.5-8.64.64-12.95,1-1.87.15-4.42-.7-4.54,2.54-.1,2.89,2.08,3,4.15,3.31,12.47,2.09,24.81,1,37.12-1.41,6.77-1.33,13.58-2.74,20.53-1.69,13.54,2,23.49,13,25.8,28.16,1.94,12.76-.77,24.79-6,36.34-2.44,5.42-5.38,10.62-8.09,15.92a17.18,17.18,0,0,0-2.16,6.92c-.17,3,.38,5.85,3.3,7.31,3.15,1.57,6.11.62,8.6-1.64,3.3-3,4.84-7.06,6.31-11.61,1.93,1.94,1.89,4,1.91,5.88a46.11,46.11,0,0,1-8.77,28.58,14.8,14.8,0,0,1-7.92,6c-4,1.12-5.43-.29-4.49-4.28.26-1.14,1.22-2.16.69-3.46-3.58.36-5.93,3.11-6,7a8.48,8.48,0,0,0,6.9,8.77,11.21,11.21,0,0,0,8.36-2.4c6.4-4.56,10.36-10.93,13.34-18,.46-1.11,1-2.21,1.44-3.31V317.6c-2.47,3.69-4.64,7.64-8,10.61-26.19,23-56.07,28.58-89.08,18.44-3.48-1.08-6.16-.94-9.11.89a75,75,0,0,1-13.07,6.82c1.65-5,4.34-9.17,2.52-14.37A25,25,0,0,0,284,341.7c-9.07,8.73-19.82,14.9-31,20.47-9.71,4.83-20.11,7.81-30.25,11.49-26,5.36-61.68,5.13-86.94,0-6.64-2.2-13.78-2.6-20.17-5.67-2.19-1.06-4.58-1.8-6.58-3.13-10.53-7-21.61-13.22-30.87-22-7.39-7-11-15.9-13-25.53-.66-3.23-1.5-4.45-5-4.54-29.69-.78-49.91-35.47-35.36-60.43.79-1.36,1.36-3,3.15-3.62.82,1.56-.18,2.9-.39,4.27-.73,4.6-.22,8.93,2.6,12.77,2.2,3,5.24,4.39,8.87,3.61s4.94-3.69,5.36-6.92a54.38,54.38,0,0,0-3.31-27.11c-3.48-9-6.28-18.14-6.12-28,.25-15.11,8.72-27.12,23.14-31.93,3.08-1,4.37-2.33,4.14-5.7-.33-4.66-.09-9.37-.09-14.05,2.1-.38,2.61,2.33,4.56,1.71,1.21-.87.39-2,.09-2.88-4-11.45-.59-21.56,6.45-30.4,10.49-13.17,23.61-23.36,38.5-31.25,3.7-2,3.72-1.92,4.65-4.57-3.75-1.14-6.34,2.45-10.78,2.53,10.84-12.55,23.9-20,38.5-26,0,2.24-1.37,2.82-2.29,3.63a50.7,50.7,0,0,0-14.16,21.46c-1,2.68-2.12,5.28-3,8-2.76,8.68-8,15.45-15.08,21.15a76.7,76.7,0,0,0-27.77,45.51c-.93,4.56-.71,5,4,4.92,16.91-.13,33.83,0,51.21-2.63-.61,9.33-1.88,18.21-4.88,26.79a67.17,67.17,0,0,1-8,15.45,254.15,254.15,0,0,1-16.21,21.33c-8.19,9.7-19,14-31.37,14.95-3.32.25-3.55,0-5.7-2.4,10.36-.28,19.63-3,27.2-10.15,1.84-1.73,3.91-3.35,4.27-6.35-2.68-1.82-5.55-.86-8.17-.35-4.37.85-7.88.48-10.42-3.8-1-1.72-2.5-3.56-5.16-3.85-.68,3.63,2.91,5.63,3.34,9.32-5.83.86-11.53,1.74-17.24,2.52-1.75.23-3.08.51-3.25,2.74C60.58,243.05,59,253,59,263a63.4,63.4,0,0,0,13.31,39.67c.87,1.15,1.59,2.56,3.72,2.87,10.59-18.32,15.09-39.24,23.47-58.6-1.61,8.18-3,16.25-2,24.55,1.4,11.43,6.43,20,18.1,23.49a34.72,34.72,0,0,1,10.11,5.14c3,2.15,5.88,2.19,9,.39,2.42-1.37,4.8-3,7.92-3.17,1.2,3.94.52,7-3.18,9-4.84,2.69-9.48,6.08-15.52,3.32a1.91,1.91,0,0,0-2.65.86c2.2,2.59,5.42,3.73,8.22,5.44,1.33.82,2.25-.29,3.17-1.08a94.44,94.44,0,0,1,11.18-8.07c5.21-3.32,4.78-14.23-.64-17.22-1.54-.85-3.23-1.41-4.78-2.23-3.9-2.06-4.77-4.89-2.62-8.76a17.79,17.79,0,0,1,11.4-8.53,38.69,38.69,0,0,1,23.58.73c1.95.7,3.81,1.83,3.79,4.25a5.92,5.92,0,0,1-3.41,5.17c-2.36,1.35-4,.24-5.72-1.38-6.32-5.93-14.37-6.71-21.53-2.17-1.75,1.11-3.67,2.27-3.23,5.21a7,7,0,0,0,1.73-.47c7.92-4.89,13.53-4.61,20.77,1.1,4.88,3.85,9.76,3.42,13.93-1.18a15.9,15.9,0,0,0,4-10.82c.22-11.32-4.24-20.77-11.69-29-1.09-1.2-2.15-2.43-3.18-3.67-.13-.16,0-.5,0-.76,9.32.27,20.46,9.92,23.77,20.51a24.7,24.7,0,0,1,1,11.64c-.64,3.62.89,4.61,4,5.41a88.6,88.6,0,0,1,30.82,14.12c21.16,15.56,24.16,35.47,15.36,60-.88,2.45-2.63,2.3-4.55,2.22a176.66,176.66,0,0,1-39.21-6.25,124.1,124.1,0,0,1-22.93-9,54.86,54.86,0,0,0-24.65-5.58,257.24,257.24,0,0,0-25.9.74,29.3,29.3,0,0,0-14.23,5.5A132.79,132.79,0,0,0,99,345.09c-1.38,1.19-3.35,3.21-.79,4.55,9.07,4.76,16.87,12.93,27,14.49,34.91,5.4,70,10.42,105.21,2.07,27.32-6.48,49.39-20.83,65.2-44.37,7.87-11.72,15.21-23.7,20.11-37,.35-1,.45-2.17,1.7-2.68,1.21.95.89,2.43,1.15,3.66a18,18,0,0,0,4.94,9.16c3.84,3.86,6.77,4.44,11.7,2.05a69.7,69.7,0,0,0,17-11c8.39-7.68,17-15.16,24.89-23.32,13.24-13.7,18.64-30,13.65-48.84-2.58-9.74-8.49-17.19-19-19-11-1.9-19.86,2.65-25.86,11.68-8.2,12.35-12.82,25.91-10.87,41.07.09.67.14,1.35.17,2a3.69,3.69,0,0,1-.19.85c-1.7.34-2.12-1.31-3.11-2s-1.28-2.15-3.78-2.25c-5.88,23.54-22.11,38.71-43.56,50.29-2.85-23.66-6.49-46.4-31.38-57.77a105.08,105.08,0,0,0,13.1-.43c24-2.84,38.6-18.56,39.21-42.8.42-16.55-5-31.45-14.23-44.93-5.45-8-12.4-14.65-20-20.66-1.89-1.5-4.08-2.7-5.35-4.87Zm-70.1,199.28a97.1,97.1,0,0,0-35.61-17.05C171.91,313,184.21,317.82,195.67,324.37Z" transform="translate(-15.13 -37.23)"/><path d="M265.87,125a7.21,7.21,0,0,1-1.92-.49c-22.11-13.24-46.43-17.19-71.73-17.19-13.67,0-27.35-.21-41-.34-5.12,0-9.95-1.08-14.14-4.24a11.91,11.91,0,0,1-4.93-11.35c.27-2.71,1.6-4.54,4-6.18,27.45-19.16,58.38-29.19,91-34.91.79-.14,1.58-.33,2.36-.51.11,0,.18-.18.9-.94C197,52.2,167.24,63.71,138.66,80.19c.11-2.3,1.48-3.44,2.56-4.63A75.84,75.84,0,0,1,160.15,60.4C184.64,46.53,211,40.79,239,42.32a7.34,7.34,0,0,1,5,2.23c3.26,3.25,6.63,6.4,9.7,9.82,5.82,6.49,12.55,11.79,21.06,13.88,16.34,4,23.88,15.62,27.81,30.66a104.53,104.53,0,0,1,2.69,13.2c-6.76-15-18.92-24.18-32.93-31.5,6.49,8.44,14,16.12,18.64,25.94-1.78,1-2.84-.21-4-.71-9.56-4.26-19.38-7.66-29.79-9.14-1.29-.19-3.16-1.4-3.61,1-.41,2.18,1.57,2.25,2.92,2.57a117.61,117.61,0,0,1,17,5.35c2.23.89,4.54,1.71,6.56,3.9-2.72,3.69-6.41,6.23-9.51,9.33-1.87,1.86-4.48,3.19-4.86,6.23Zm-77.5-39.32c-6.15,4.47-9.21,11.09-12.92,17.28l1.8,1.23C182,98.77,185.34,92.36,188.37,85.68Zm1.46,18.1c5.13-5,8.47-11.11,12-17.87C197.31,87.24,189.53,98.84,189.83,103.78ZM175.26,86.24c-4.39,1.91-11.54,13.26-11,18.25A90.65,90.65,0,0,0,175.26,86.24Zm38.82.54c-4.86,5.86-8.43,11.08-10.88,17C207,102.76,214,92,214.08,86.78Z" transform="translate(-15.13 -37.23)"/><path d="M242.61,201c1.39,3.78,4.94,5.66,5.68,9.16-6.2,5-33.71,7.1-50.66,3.78,2.43-4.54,6.69-7.72,8.9-12.59-2.57-.7-3.63,1-4.87,2-5.46,4.41-10.42,9.45-16.57,13-3.4,2-6.07,2-9.58-.29A48.66,48.66,0,0,1,154,185.28a162.75,162.75,0,0,1-3.1-19.64c-.2-1.83-.43-3.44,2.3-3.68,16.92-1.51,33.17-6.54,49.79-9.61,22.54-4.15,44.82-3.87,65.8,6.9,12.81,6.59,22.88,16,27.07,30.32s-4,27.17-18.78,29.84c-2.21.4-3.63.08-5.16-1.87C266.15,210.21,252.75,202.71,242.61,201Z" transform="translate(-15.13 -37.23)"/><path d="M343.07,240.34c6.19,1.29,11.69,3.95,15.67,9,3.1,3.94,2.91,8.88-1,12-8.1,6.51-16.21,13-25,18.67a4.27,4.27,0,0,1-1.34.29A5.71,5.71,0,0,1,331,273a4.72,4.72,0,0,1,1-1.3c8-6.16,9.72-14.72,9.44-24.16C341.32,245.23,341.23,242.69,343.07,240.34Z" transform="translate(-15.13 -37.23)"/><path d="M371.79,255.79c1.07-4.69,2.21-9.36,3.19-14.06a47.6,47.6,0,0,0,.75-13.32,14.06,14.06,0,0,0-2.45-7.21c-2.58-3.72-5.64-4.27-9.38-1.72-5.95,4.05-6.28,6.28-2,15.28-5.33-1.47-10.36-2.74-15.55-2.9.77-9.65,10.54-19.19,19.65-19.5a11.51,11.51,0,0,1,10.38,5.24,16.94,16.94,0,0,1,2.9,7.09C381,236,377.67,246.21,371.79,255.79Z" transform="translate(-15.13 -37.23)"/><path d="M350.59,159c.05-11.66-.2-22.18-3-32.47s-7.26-19.69-12.29-29.37C353.35,103.92,362.29,139.24,350.59,159Z" transform="translate(-15.13 -37.23)"/><path d="M362.93,177.94c2.46-20.41,2.52-39.83-5-59.64C370.89,129.89,379.78,161.08,362.93,177.94Z" transform="translate(-15.13 -37.23)"/><path d="M316.94,86.11c8.25,3.73,13.42,8.94,16.36,16.28,5.06,12.63,5.82,25.66,3.34,39.05C335.35,121.5,326.51,104.29,316.94,86.11Z" transform="translate(-15.13 -37.23)"/><path d="M322.33,125.13a89.13,89.13,0,0,0-10.6-24.76c-4.71-7.67-9.84-15.09-14.51-23,6,1.69,11.61,3.86,15.42,9.22C320.86,98.2,322.35,111.45,322.33,125.13Z" transform="translate(-15.13 -37.23)"/><path d="M186.74,224.6c17.32,8.84,35.79,9.09,55,7.64C231.45,239.74,195.75,239.08,186.74,224.6Z" transform="translate(-15.13 -37.23)"/><path d="M375.34,184.41c1.27-7.35,2.11-14.75,3-22.14A30.38,30.38,0,0,1,375.34,184.41Z" transform="translate(-15.13 -37.23)"/><path class="cls-2" d="M188.37,85.68c-3,6.68-6.35,13.09-11.12,18.51l-1.8-1.23C179.16,96.77,182.22,90.15,188.37,85.68Z" transform="translate(-15.13 -37.23)"/><path class="cls-2" d="M189.83,103.78c-.3-4.94,7.48-16.54,12-17.87C198.3,92.67,195,98.8,189.83,103.78Z" transform="translate(-15.13 -37.23)"/><path class="cls-2" d="M175.26,86.24a90.65,90.65,0,0,1-11,18.25C163.72,99.5,170.87,88.15,175.26,86.24Z" transform="translate(-15.13 -37.23)"/><path class="cls-2" d="M214.08,86.78c0,5.21-7.05,16-10.88,17C205.65,97.86,209.22,92.64,214.08,86.78Z" transform="translate(-15.13 -37.23)"/></svg>