<?xml version="1.0" encoding="UTF-8"?>
<svg id="Layer_7" xmlns="http://www.w3.org/2000/svg" version="1.1" viewBox="0 0 1080 1080">
  <!-- Generator: Adobe Illustrator 30.3.0, SVG Export Plug-In . SVG Version: 2.1.3 Build 182)  -->
  <defs>
    <style>
      .st0 {
        fill: #3f3f3f;
      }

      .st1 {
        fill: #323232;
      }

      .st2 {
        fill: #111;
      }

      .st3 {
        fill: #2b2b2b;
      }

      .st4 {
        fill: #444;
      }

      .st5 {
        fill: #909090;
      }

      .st6 {
        fill: #d6d6d6;
      }

      .st7 {
        fill: #6c6c6c;
      }

      .st8 {
        fill: #bdbdbd;
      }

      .st9 {
        fill: #292929;
      }

      .st10 {
        fill: #414141;
      }

      .st11 {
        fill: #393939;
      }

      .st12 {
        fill: #939393;
      }

      .st13 {
        fill: #8f8f8f;
      }

      .st14 {
        fill: #3c3c3c;
      }

      .st15 {
        fill: #474747;
      }

      .st16 {
        fill: #545454;
      }

      .st17 {
        fill: #363636;
      }

      .st18 {
        fill: #5b5b5b;
      }

      .st19 {
        fill: #d2d2d2;
      }

      .st20 {
        fill: #727272;
      }

      .st21 {
        fill: #777;
      }

      .st22 {
        fill: #707070;
      }

      .st23 {
        fill: #b5b5b5;
      }

      .st24 {
        fill: #d0d0d0;
      }

      .st25 {
        fill: #8e8e8e;
      }

      .st26 {
        fill: #454545;
      }

      .st27 {
        fill: #d9d9d9;
      }

      .st28 {
        fill: #a1a1a1;
      }

      .st29 {
        fill: #dbdbdb;
      }

      .st30 {
        fill: #979797;
      }

      .st31 {
        fill: #868686;
      }

      .st32 {
        fill: #171717;
      }

      .st33 {
        fill: #a5a5a5;
      }

      .st34 {
        fill: #969696;
      }

      .st35 {
        fill: #c1c1c1;
      }

      .st36 {
        fill: #5a5a5a;
      }

      .st37 {
        fill: #3b3b3b;
      }

      .st38 {
        fill: #1e1e1e;
      }

      .st39 {
        fill: #0d0d0d;
      }

      .st40 {
        fill: #aaa;
      }

      .st41 {
        fill: #b4b4b4;
      }

      .st42 {
        fill: #212121;
      }

      .st43 {
        fill: #4d4d4d;
      }

      .st44 {
        fill: #ccc;
      }

      .st45 {
        fill: #525252;
      }

      .st46 {
        fill: #9d9d9d;
      }

      .st47 {
        fill: #3a3a3a;
      }

      .st48 {
        fill: #606060;
      }

      .st49 {
        fill: #757575;
      }

      .st50 {
        fill: #d8d8d8;
      }

      .st51 {
        fill: #c3c3c3;
      }

      .st52 {
        fill: #c4c4c4;
      }

      .st53 {
        fill: #b1b1b1;
      }

      .st54 {
        fill: #a0a0a0;
      }

      .st55 {
        fill: #373737;
      }

      .st56 {
        fill: #696969;
      }

      .st57 {
        fill: #3d3d3d;
      }

      .st58 {
        fill: #c6c6c6;
      }

      .st59 {
        fill: #575757;
      }

      .st60 {
        fill: #5d5d5d;
      }

      .st61 {
        fill: #303030;
      }

      .st62 {
        fill: #656565;
      }

      .st63 {
        fill: #bebebe;
      }

      .st64 {
        fill: #c7c7c7;
      }

      .st65 {
        fill: #a6a6a6;
      }

      .st66 {
        fill: #636363;
      }

      .st67 {
        fill: #ddd;
      }

      .st68 {
        fill: #4e4e4e;
      }

      .st69 {
        fill: #141414;
      }

      .st70 {
        fill: #505050;
      }

      .st71 {
        fill: #717171;
      }

      .st72 {
        fill: #c9c9c9;
      }

      .st73 {
        fill: #b0b0b0;
      }

      .st74 {
        fill: #d7d7d7;
      }

      .st75 {
        fill: #b7b7b7;
      }

      .st76 {
        fill: #9b9b9b;
      }

      .st77 {
        fill: #848484;
      }

      .st78 {
        fill: #121212;
      }

      .st79 {
        fill: #646464;
      }

      .st80 {
        fill: #343434;
      }

      .st81 {
        fill: #666;
      }

      .st82 {
        fill: #bcbcbc;
      }

      .st83 {
        fill: #c5c5c5;
      }

      .st84 {
        fill: #cdcdcd;
      }

      .st85 {
        fill: #9f9f9f;
      }

      .st86 {
        fill: #bbb;
      }

      .st87 {
        fill: #101010;
      }

      .st88 {
        fill: #2e2e2e;
      }

      .st89 {
        fill: #b8b8b8;
      }

      .st90 {
        fill: #676767;
      }

      .st91 {
        fill: #858585;
      }

      .st92 {
        fill: #8b8b8b;
      }

      .st93 {
        fill: #4a4a4a;
      }

      .st94 {
        fill: #0c0c0c;
      }

      .st95 {
        fill: #acacac;
      }

      .st96 {
        fill: #a2a2a2;
      }

      .st97 {
        fill: #1f1f1f;
      }

      .st98 {
        fill: #8a8a8a;
      }

      .st99 {
        fill: #b3b3b3;
      }

      .st100 {
        fill: #ababab;
      }

      .st101 {
        fill: #2a2a2a;
      }

      .st102 {
        fill: #424242;
      }

      .st103 {
        fill: #626262;
      }

      .st104 {
        fill: #e1e1e1;
      }

      .st105 {
        fill: #949494;
      }

      .st106 {
        fill: #838383;
      }

      .st107 {
        fill: #bfbfbf;
      }

      .st108 {
        fill: #fff;
        stroke: #fff;
        stroke-miterlimit: 10;
        stroke-width: 29.6px;
      }

      .st109 {
        fill: #131313;
      }

      .st110 {
        fill: #202020;
      }

      .st111 {
        fill: #0a0a0a;
      }

      .st112 {
        fill: #252525;
      }

      .st113 {
        fill: #c2c2c2;
      }

      .st114 {
        fill: #b9b9b9;
      }

      .st115 {
        fill: #cbcbcb;
      }

      .st116 {
        fill: #737373;
      }

      .st117 {
        fill: #6e6e6e;
      }

      .st118 {
        fill: #6a6a6a;
      }

      .st119 {
        fill: #a8a8a8;
      }

      .st120 {
        fill: #191919;
      }

      .st121 {
        fill: #a4a4a4;
      }

      .st122 {
        fill: #616161;
      }

      .st123 {
        fill: #989898;
      }

      .st124 {
        fill: #353535;
      }

      .st125 {
        fill: #adadad;
      }

      .st126 {
        fill: #c8c8c8;
      }

      .st127 {
        fill: #d3d3d3;
      }

      .st128 {
        fill: #dadada;
      }

      .st129 {
        fill: #d1d1d1;
      }

      .st130 {
        fill: #090909;
      }

      .st131 {
        fill: #484848;
      }

      .st132 {
        fill: #555;
      }

      .st133 {
        fill: #888;
      }

      .st134 {
        fill: #dcdcdc;
      }

      .st135 {
        fill: #b6b6b6;
      }

      .st136 {
        fill: #0f0f0f;
      }

      .st137 {
        fill: #cacaca;
      }

      .st138 {
        fill: #161616;
      }

      .st139 {
        fill: #898989;
      }

      .st140 {
        fill: #222;
      }

      .st141 {
        fill: #999;
      }

      .st142 {
        fill: #434343;
      }

      .st143 {
        fill: #cfcfcf;
      }

      .st144 {
        fill: #b2b2b2;
      }

      .st145 {
        fill: #686868;
      }

      .st146 {
        fill: #7b7b7b;
      }
    </style>
  </defs>
  <path class="st108" d="M822.4,300.2c10.5-5.5,11-24.5,1.5-31.6-2.1-1.5-6.1-4-6.1.4,0,7-4.7,13.6-1,20.8-2.5,1.8-4.3,5.1-8.2,4.5-2.9-1.9-5.9-.4-8.8,0v-4c2.5-2.1,9.3-1.8,6.5-6.6-2.2-3.6-5.5,1.6-8.2,3.1-1.4.9-2.8,2-4,3.1h-.1c-17.4-1.2-28.3-13.2-41.2-22.8-11.4-8.5-13.3-18.1-12.8-30.6.3-11.2,2.3-22.6-1.8-33.7-2.4-.6-6.7.6-6.2-3.5,1-6.8-3.1-11.7-5.1-17.4-12.2-34-34.8-59.8-63.5-80.8l-2-2.1-6.1-4.2c-8.2-.7-15.4-6.8-24.2-4.4.9-5.7-2.7-7-7.2-7.3-8.5-1-17-.8-25.5.6-4.7,1-9.1,1.2-9.7-5.4l-1.7-2.4-.8-1.9c2.7-.6,3.4-2.4,2-4.5-2.9-3.9-6.9-6.9-11.5-8.4-31.6-13.9-61-2.5-90.3,8.5-1.8.7-2,2.7-1.5,4.4h0c-18.9-1.3-31.4,12.1-46.2,20.2l-10.3,8.5c-23.9,17.4-45.3,37-57.6,64.7h0c-5.1,5-8,11.8-8.2,18.9v10.2c-1.2,3.3-5.5,3.8-6.3,7.8-2.9,13.8-6.3,27.5-4.2,41.8-2.7,15.1-9.4,27.6-23.9,34.8-4.8,2.6-9.4,5.5-13.8,8.6h-18l-8.5-2h0l-2.1-2.1h0l-4-2.5c-.7-1.9-1.6-3.7-2.5-5.5-1.8-2.9.3-9.1-5.2-8.4-4.7.6-7,5.5-7.7,9.9,0,3,.4,6.1,1.1,9,1.2,9.3,10.1,13.1,14.2,20.4-8.9,10.3-15,22.1-7.5,34.8,4.1,6.9,6.2,14.3,9.5,21.3h0c1.4,5.5,5.2,10.1,10.4,12.5h0l4.1,2.1,1.8,4.3,12.6,10.3,6.5,1.8h0l1.9,2.2v.3c24.9,14.1,53.8,19.3,82,14.7,5.9-1,10.1-.9,11.5,5.9,3.2,4.2,6.3,8.9,12.8,5.9,2.9,2-.6,6.9,3.6,8.4,12.1-4.9,23.4-8.2,34.8,2.7,8.6,7.7,17.8,14.7,27.6,20.8,6.5,4.4,7.3,7.7.2,11.8-1,5.8-8.7,3.1-10.4,8.2-3.8.9-3.5,3.4-2.4,6.2-5.9.8-5.5,12-14,8.5l-10.7,9.9c-.5.3-.9.5-1.5.7-2.4,5-6.6,6-11.8,5.9-19.6.1-39.1,3.7-57.4,10.7h0l-5.9,1.9c-8.7,5.9-19.8,9.7-20.7,22.7-.5,4.5-8.9,5.9-4.9,12.2.9,0-1.1,0-1.4.6l-5.7,1.8c-3.5,10.7-6.9,21.3-6.5,32.9.6,16.5.2,33.1.2,49.6,0,3.5-.3,6.9-.4,10.3l2,2.5c2.5,7.4,2.5,15.5,0,22.8l-2.1,2.4c0,8.9-.1,17.9-.3,26.9l-1.6,8.5c-1.1,16.8-1,33.7-2.3,50.3-1.8,24-6.6,47.8-2.4,72,4.2-7.8-3,12,6.4,12.4l2,10.2c.3.6.4,1.3.4,2-1.6,13.4,7,21.8,14.7,31,1.7,1.2,3.5,3.5,5,3.3,23.9-2.7,23.4,7.8,13.3,23.8l-3.8.3c-6.1,2.9-6.1,7.2-3,12.3l.5,2h-.3c0-.1-1.8,1.8-1.8,1.8l-2,.5v-4.4c-.6-2-1.5-1.8-2.5-.3-.5,2.2-1,4.4-1.4,6.6l1.8,2.3,2.4,1.7,1.6,2.3c.4.4.6,1,.7,1.5-10.7,1.5-2.7,5.8-.7,7.5,10.5,8,9,14,2,25.3-12.1,19.3-19.1,41.5-16.4,65.3h390c-1.6-17.2-2-34.4-9.1-50.9-3.3-7.7-11.5-13.4-10-23.1l-3.8-7.1h0c11.8,1.8,24.5-10.7,22.9-22.4l-1.9-4.2-1.7-2.4h0c6.1-2.7,2.7-5.5-.2-8.2-3.9-10-11.2-17.9-16.8-26.8-1.5-4.5,2-4.5,4.5-4.2,14,2,25.4-2.7,35-12.5,8.2-9.7,9.7-21,8.5-33.1-.3-3.6-2.9-8.5.3-10.7,9.7-6.5,5-14.6,3.6-22.5-6-1.9-3.8-5.9-2.5-9.7-6.7-5.5-1.2-13.1-3.7-19.4-.4-24.8-.8-49.5-1.3-74.3,0-3.1-.5-5.8-4.7-4.3l-4.9-.3c.8-2.7-.5-6.1,2.2-8.5v.3c.8-12.8,1.6-25.7,2.3-38.6,0-1.5-.1-3-.2-4.5-4.8-2.4-5.1,2.2-5.8,4.5-1.8,6.5,0-10,.1-16v-5.2c.6-6.4,1.3-12.8,1.9-19.3-1.2-3.5-2.1-7.2-2.7-10.9-1.6-19.8,5-41.1-12.3-57.5l6.7,1.2c-.9-1.7-1.9-3.4-3-4.9-5.5-6.8-10.1-14.5-18.2-19-18.9-12.2-40-15.3-62-14.7-2.6-2.7-6.3-4.1-10.1-3.8-8.2,0-14.3-2.7-16.5-11.3-8.2-3.2-12.1-11.3-18.7-16.4l-4.5-3.9c-3.2-4-7.5-6.9-12.4-8.4l-4.4-2.2c-3.8-7.2-1.2-11.9,5.1-16.4,14.9-10.9,31.4-20,42.8-35.2l.5-.3c.3,0,.7,0,1-.2-.3.1-.5.2-.8.2l5.5,8.8-1.1,12.1c4.8-1.5,9.8-2.6,13.5-6.8,6-6.8,12.7-13.1,18.3-20.2,4.2-5.5,8-5.5,12.9-1.6,0,2.5-.3,5.6,3,5.5,17.2-.5,35.2,5.7,51.1-5.9l3.6-.4c19-3.8,35.9-14.3,47.8-29.6,15.1-19.1,27.7-40,15.7-66.2-2.2-4.7-1.1-8.7,4.7-11.7h0s0,0,0,0ZM760.6,793.3v-8.5,14-5.5ZM765.2,354.2h0ZM484.7,488.9l2.4-3.8h0l-2.4,3.8h0ZM512,489.3h0ZM323.1,393.6c-5.8-2.8-11.2-6.4-16-10.7,4.8,4.3,10.2,7.8,16,10.7,4.4,2.5,9,4.8,13.6,6.9-4.6-2.1-9.2-4.4-13.6-6.9h0ZM715.2,533.1c-.7-.2-1.3-.3-1.9-.6.7-.2,1.5,0,2,.6h0Z"/>
  <path class="st130" d="M367.1,945.2c0-.6-.3-1.1-.7-1.5l-1.6-2.4h0c0-1.9,0-3.9-.2-5.8l2-.5,1.8-1.9h.3c2.1-1.7,4.3-6,6.3.1-.3.5-.4,1.1-.4,1.7-5.8,5.5-2.7,9.3,2.2,12.8h0c2.1,4.9,7.5,6.2,10.7,9.8l.9.5h1l4.2,3.7,26.5,17.4h0l6.5,3.8h0l6.3,4h.1l8,4.4h0c7.4,3.5,15.4,6.2,21.8,10.9,5.6,4.1,6.9.5,9.2-2.7h0l7.9-10.4.6-1.9,10.5-11.8,5.2-7.3c.4-.5.6-1.1.6-1.7l8.4-14.4c2.4-2,3.5-4,.5-6.5,8.8-5,12.4-12.7,12.1-22.5v.2c3.1-.6,5.5-1.8,4.4-5.7l3.8-4.8,16.4-.5c8.8.6,17.6.7,26.4.4,8.5-.7,13.3,2.1,15.2,10.3,3,13.7,10,25.5,16,37.8,2.4,4,4.9,7.9,7.3,11.9,1.6,7.5,6.9,12.9,10.5,19.3,4.6,8.2,10.7,11.1,19.8,5.7,8-4.8,16.8-8.4,25.1-12.5l3.7-3.5c1.7,1.4,3.4,1.7,4.8-.5,17.9-8.7,36-17.2,50.8-30.8,6-5.5,13.7-11.7,5.3-21.3l-2-2.4-12.1-16.5-4.9-7.7-1.9-.7c-2.3-4-5.2-5-10.1-4.7-15.3,1.3-30.8.8-45.9-1.4-4.4-6.8,1.7-5.5,4.7-5.8,9.5-.9,19.1.8,28.4-2l47.2-.5c4.5,1.8,9.7-3,14,1.2-4.7,3.9-10.4,2.9-15.8,3-17.2.3-18,1.5-9.7,16.4l16,22.3,2.9,2.9h0l1.7,2.4,1.9,4.2-22.8,22.5h0c-4.7,5.8.4,6.1,4.1,7.2-1.5,9.7,6.7,15.4,10,23.1,7.1,16.5,7.5,33.7,9.1,50.9h-386.1c-.2-22.1,4.7-43.7,17.4-61.4,10.5-14.7,9.4-24.5-4.3-34.7-.8-.5-1.5-1.3-2.3-1.9h0c0,0,0,0,0,0ZM572.1,962.3c5.5-3.3,4.2-8.2,2.7-12.8-4.7-13.8-21-20-36.1-13.9-12.4,5-16.1,16.4-10,30.9,5.3,9.7,13.3,14.5,24.5,13.3,10.2-1.2,16.5-7.3,18.9-17.4h0s0,0,0,0Z"/>
  <path class="st58" d="M367.1,945.2c.8.7,1.5,1.4,2.3,2,13.6,10.1,14.7,20,4.3,34.7-12.7,17.8-17.5,39.2-17.4,61.4h-4.1c-3-23.8,4.1-46,16.4-65.3,7-11.2,8.5-17.3-2-25.3-2.2-1.6-10-6,.6-7.5h0s0,0,0,0Z"/>
  <path class="st130" d="M342,860.5c0-.7-.1-1.4-.4-2l-.3-10.2c-1-3.2-8-2.7-5-8.2,1.1-2,2.4-5.6,3.5-5.6,4.2.2,3,5.5,5.8,7.5.8.6,1.5,1.3,2.3,2l1.9,6.3,4.6,14.4,1.5,4.5h0c0-.1,2.2,4.4,2.2,4.4,0,.5.1,1.1.5,1.5l1.6,2.5-.2-.2c.3,4.7,4.3,8.2,8.9,7.9h.2c23.8.8,47.6,2,70.9-3.7,18.6-.2,36.1-5.8,54-10,12.2-2.7,21.4-11.9,33.1-15.8,9.1-3,13-.2,11.4,8-.9,4.4,2.5,2.2,3.5,1.9,9.2-1.9,18.7-1.7,27.6.9,10.9,2.7,14.3-1.3,10.7-11.9-2.2-6.5-3.9-13.2-5.8-19.8l-.7-5.6-1.7-49.8c-.8-5.6-4.8-3.3-8-3.4-18.1-.4-34.8,6.5-52.3,9.5-25,3.5-50.2,6.4-75,10.7-6.1,1-14.2-1.5-18.5,5.9-8.2,7.5-19.7,1.6-28.5,6.7l-2.1,2h0l-2.2,2h0c-2.7,0-5.7,5.7-8.4,0,.9-2,4.8-2.9,3.1-5.8-2.1-3.5-5.6-3.5-9.2-2.2-4.1-1.8-7.6-4.7-10.2-8.4h0c2.2-2.3,1.4-4.5,0-6.7-2.2-2.9-4.5-5.9-6.7-8.7-3.3-4.2-6.5-10.3-2.9-13.8,9.3-9.2.8-14.2-3.1-20.5-7.5,0-2.7,5.5-3.8,8.4h0l-2.6-4.8c1.5-12.3-2.7-24.5.1-36.9,2-8.4-2.1-17.3,2.7-25.3,3,9.4,2,19.1,2.2,28.7.6,33.2,4.6,31.5,30.1,32.2,0,2.2-1.8,4.5,1.2,6.5,3.7,2.4,3.6,2.5-.7,5.8-.4.5-.6,1-.7,1.7l-9.8.2c-4.1.6-10.9,4.7-7.8,5.9,13.6,4.8.3,6.3-.4,9v1.5l1.7,2.5,14.8,6c7.2,10.3,16.8,14,29,10.7,2.9-4.6,8.7-3.5,12.6-6.2h0l2.2-.2c5.2-.4,11.7,2.4,14.9-4,4.9-9.7-8.7-41.9-19.1-45.9-2.5-1-3.7.7-4.6,2.7-10.9-3.8-21.8-2.6-32.9-.6-5.5-1.2-11.7,2.9-16.6-2.4l.2-6c10.2-3.5,21.2-4.1,31.6-1.5,6.8,1.4,9.5-.9,9.4-7.9-.4-15.9,0-31.8-.6-47.7-.2-5.2.8-8.7,5.5-10.9l2.4-1.8c5.9-3.5,2.7-10.1,5.2-14.7l6.5-6.6,33.2-4.2c2.5-.7,5.3-2.4,7.5-1.8,17.5,3.9,35.1,1,52.6,1.4,8.5-1.5,3.5-6.4,2.6-10.3,1.5-10.5-2.5-19.8-6.4-29.2l-.7-3.7c-5-4.5-2.9-10.7-4.1-16.2l-1.7-2.6h0c4.4-1.8,5.5,3,8.4,4.1,8.7,8.1,19.8,13.4,31.7,15,13.7,2.4,27.7-1.3,38.4-10,8.2-6.4,10.9-22.4,4.6-27.8-1.3-2.7.3-4.4,2.2-6,10.7-10.7,5.7-23.3,4.1-35.5,1.4-5.5-2.7-7.7-6.1-10.5l-4.4-26.8c-2.3-2.9,4.3-9.3-3.8-10.1h0c-16.8,7.7-34.2,4.8-51.3,1.7-17.6-3.1-17.5-3.7-17.5,14.6,0,.7.2,1.4.4,2l-2.5,18.2c-11.2,12.3-10,25.9-4.3,40l2,2.2c.1.5.4.9.6,1.3l1.8,4.5h0l-2.1,2.1h0l-1.9,2.3h0l-6.4-2.3-2.2-10.4c-.8-11.7-1.6-23.3-2.4-35,.5-11.9.4-23.7,9.4-33.5,3.2-3.4,2-8.4-.4-12.5,2.5-10.6-4.9-15.8-12.1-20.2-14.4-9.1-27.2-20.6-37.8-33.9-13.5-10.9-11.1,3.4-14.3,8.9-.3,5.1-3.6,8.4-6.8,11.8-4.3-1.5-.6-6.3-3.6-8.4s-7.3-3-6.7-8c-4.4-9-9.6-12.8-21.1-9.7-27,7.4-52.3.3-76.1-13.3-11.9-5.7-21-14.5-29.2-24.5-10.9-15.3-16.1-31.5-9.9-50.2.7-2.1-1.3-5.1-2.1-7.6,6.3-3.1,9.7-6.1.9-10.6-5.2-2.9-8.5-8.2-8.9-14.1-.3-2.2-1.8-5.2,1.6-5.9,1-.2,3.1,2.3,3.8,4,1.9,4.7,2.7,10,8.4,12,1.3,1.1,2.7,2,4.2,2.7,5.9,1.7,12.2,1.8,18.1.3-4.1-.9-8.2-1.8-12.2-2.9-.7-.2-1.1-1.6-1.6-2.5l25.1-4.1c16.4-2.7,26.2-14,32.9-27.8,2.9-5.9-1.4-14.1,4.1-20,3.7-7.9,1-16.1,1.1-24.2,0-3.7,0-7.4-.2-11.1l3.3,10.4c0,2-.6,4.3,1.7,5.4,1.1-1,1.9-2.4,2.2-3.8-.3-9.8,2.7-19.1,4.2-28.6v-4.1c4.1-8.2,8.2-16.1,12.3-24.2,10.3-21.4,26-39.8,45.7-53.1l15.4-11.6c13.3-8.3,26-17.8,40.9-23.4h0c9.8.5,17.4-6.6,27.5-6.7,21.2-.2,41.8,1.7,61.8,8.6h0c-5,7.8,7.1,3.9,6.2,9,3.7,3.6,6.8,7.3,13.3,4.8,12-4.7,25.4-4.4,37.3.6,8.8-2.4,16,3.8,24.2,4.4-.7,5.4,1,7.4,6.1,4.2l2,2.1c-2.1,2.4-1.2,3.4,1.3,5.4,44.1,36.3,69.4,82,69.3,140.2-.5,3.8,1.1,7.6,4.1,10.1l2,6.2,2.2,4h0c-1.1,13.5,8.5,16.4,18.6,18.7h0l2.4,1.7c9.6,4,20.1,5.4,30.5,4.1.5,1.6-.3,3.3-1.9,3.8,0,0-.2,0-.3.1-3.6,1.4-11.3,0-10.3,2.9,1.4,4.3,8.4,1.7,12.9,1.6,3.8.2,7.5-1.3,10.2-4l4.3-1.8c3.9.6,5.6-2.7,8.2-4.5.7-.7,1.7-1.4,1.9-2.2.9-4.2,1.8-8.2,6.4-9.9.9,0,1.8.4,2.4,1.2,1.3,4.4-1.2,8.2-2.9,11.7-.7,2-2,3.6-3.7,4.8-7.7,4-6.8,10.5-6.4,17.6.6,12.3,2.5,24.8-1.9,36.9-9.7,26.9-29.1,43.4-56,51.4-5.3,1.5-3.5,3.6-2.4,6.5l-3.6.4-54.1.4c-4.8-3.7-8.7-3.7-12.9,1.6-5.6,7.1-12.3,13.3-18.3,20.2-3.7,4.2-8.6,5.3-13.5,6.8.4-4,.7-8.2,1.1-12.1.5-3.3,3.3-6.7.9-9.8-1.9-2.5-4.2,1-6.5,1l-.5.3c-1.5-6.2-3.7-2.7-5.9-.4-13.5,13.9-28.8,25.9-45.5,35.7-3.1,1.5-4.9,4.8-4.7,8.2-2.2,2.3-2.2,5.9,0,8.2,0,1.4.1,2.7.2,4.1.4,7.8,4.2,14.3,7.9,20.8,2.1,13.9,2.5,28,1.3,42-1.7,15.7-2.3,31.4-3.3,47.1-4.1,15.9-8.2,31.8-12.3,47.8-1.7,6.8,1,9.7,7.7,9.4,15.4-.9,30.9-1.8,46.4-2.7l8-.7,23.1.2c.6.2,1.1.3,1.7.6l2.1,1.9h0c.7,5.3,1.4,10.6,2,16l13-1.8,6.1,1.9c7.3,3.9,5.8,11.1,6.1,17.4,1.7,38.6-4,77.8,8.4,115.6-.6,1.7.2,3.6,1.8,4.3h0v6.1c-8.7-.3-5.7,9.2-10.9,12.4-7.7,4.9-17.2,3.8-24.9,8.2-.5-.2-1.1-.2-1.7,0-5.5.3-8.2,4.2-10.4,8.5h0c-4.1-3.4-8.2-1.8-12.5-.3l-12.3,2.5c-16,2.9-25.9,19.1-43.3,19.6-3.3,0-4.2,4-4.2,7.3,0,4.8,0,9.6-.2,14.4l-2.2,2-51.6.3c-5.2.3-6.2,6.6-10.9,7.7-6.3.9-12.9-1-18.9,2.2l-12.1,2.2c-10.3,3.3-26-4.3-28.7,14.2,2.5,6.9,8.7,6.1,14.2,6.6.6,0,1.3.2,1.9.2v3.9c.1,0-10,.3-10,.3l-9.1.3-3.7-2.5c-3.7-5.1-5.6-12.7-14.6-10.2l-3.7-2.4c-9.3-7.6-34.2-3.7-42.4,6.8-6.3,8-12.2,16.2-18.3,24.3-.6,0-1.1.1-1.7.3-5.9-1.9-2.3-4.3-.3-6.5,1.3-9.4,10.7-13.7,14-22.4,2.4-6.7,1.2-6.7-4.3-6.5-9.2.3-18.5,1.5-27.4-2.3-9.1-7.5-10.3-20.5-19-28.6h0c0,0,0,0,0,0ZM665.4,134.5l-2.1-2.2v.2c-2.7-2.6-6-5.6-9.6-2.4s-.8,6.9,1.2,10,4.4,5.9,6.7,8.8h0l-2.2,2.3h.1l-12.3-4.3c1,4.4,1.9,8.9,2.7,13.3.3,1.7.5,3.3.8,5h0l-10.2-4v-5.4c-.6.2-1.4.3-1.7.7-1.5,2.3,0,3.6,1.7,4.8,0,3.2,1.5,6.3,4.1,8.2v4.2h0l-10.4-3.1c-.9,3.8,2,5.4,4.1,7.4l.3,2.1c0,.6,0,1.3,0,1.9l1.9,2c.7.2,1.3.3,2,.3,1.9,5,5.7,5.4,10.2,4.3l-1.7,3.9-1.9,2c7,3.1,8.8-.8,7.8-6.5-.8-4.6-.2-4.6,3-2,2.4,1.9,5.2,4.9,7.9,1.9,3.1-3.4.2-6.9-2-10l-.7-6c10.7.6,5.8-8.6,8.4-13.1,12.6-9.1-3.5-12.2-3.8-18.6l-4.5-5.9h0c0,.1,0,.1,0,.1h0ZM455.9,206.9h0c2.3,2.5,3.5,8.6,8.4,2.4l2.1-.7c.3,7.5,4.9,3,7.9,2.7h0c-4.7,5.2,3.2,7.8,2.5,12.2-.8,2.3-4.5,4.2-1.9,6.8,2,2,4.4-.4,6.1-1.8,2.7-2.3,5.3-4.9,8-7.4l8.5-8.2c9.3,1.3,13.2-5.2,16.2-12.1,2-4.7,3.4-10-3.1-13l-2.4-2.1c-4.4-9.4-10.6-4.8-16.6-2.2h0l-4.3-2c.7-.7,1.3-1.9,2.2-2.1,8.9-1.7,8.7-11.6,14.5-16.1-5.1-.6-8.7,4.9-14.2,3.6-1.5-.4-3.3,1.4-4.9,1.2-2.7-.3-6.1-.6-7.5-2.3-2.5-2.7,1.3-4.8,2.9-6.7,3.5-3.4,5.9-7.7,7-12.4l1.8-.9-.8-.8-1,1.8c-5,1.3-9.4,4.3-12.4,8.4l-2.3,4h.1c-8.2,7.3-19.5,12-20.8,24.9-1.2,5-2.6,9.8-4.5,14.6-3.3,7.3-9.3,13.8-5.7,22.8l-2.7.2.7,1.6,1.9-1.9,12.6-12.3,1.9-2.5h0c0,.1,0,.1,0,.1ZM642.7,221.5c-.2-2.3.3-4.8-2.4-6.1h.2l-3.8-2.3c-.7-5.3-4.9-7.8-8.5-10.9-4.4-4-3.5-15.9-14.7-9.8-6.2-6.4-7.5-16.5-15.9-21.3-3.4-6.9-6.7-8-10.4,0-1.6,2.9-3.5,5.7-5.5,8.4-3.3,3.6-6.5,7.2-9.8,10.9l-1.8,2.7c-2,2-3.9,4-5.9,5.9-2.4-3.1,2.4-7.4.5-8.2-3.3-1.6-5.8,2.7-8.3,4.6-11.3,8.8-21.8,18.5-33.6,26.6-4.6,3.2-.8,4.2-.4,6.2l-12.9,9.6c-5.1,2.4-10,5.2-14.8,8.2-5.1,3.6-13.9,7.3-12.5,13,1.3,5.1,10.7,5.5,17.1,5.9l8,6.6c-.9,5.7-5.3,4.1-8.6,3.7-6-.6-11.9-1.7-17.9,0-2.7-3.6-5.7-6.3-10.5-5.9-5.3-.4-10.5-.5-14.8,3.4-11.8,4.3-27.5,4.3-26.3,23.4v8.2c-.2,4.8-.4,9.6-.6,14.4-16.1-1-5.5,9.3-6.2,14.8,1.7,6.6,4.6,12.9,8.5,18.5.2.5.3,1.1.5,1.7l1.3,2.7c12.7,48.7,44.8,80.6,89.2,100.9,11.5,5.5,24.8,8.2,38,4.8h0c3.7-3,9.3-.2,12.6-4.3,6.9-5.9,16.7-7.2,22.6-14.5l2-.5,6-3.8c13.7-9.7,27-19.8,35.7-34.6,12.8-12,17.2-28.4,22.7-44.1l1.9-2.2h0c4.1,2.5,7.5,1.1,10.4-2.1l8.5-14.1c1.3-3.2,2.4-6.4,3.2-9.7,1.4-7.3,2.3-14.7,3.3-22.1-5.9,5.3-5.8,13.3-8.9,19.8-.6,1.2-1.1,2.5-1.6,3.8-1.9,3-2.3,7-6.3,8.4l-2.7-3c.3-3.8.5-7.5.8-11.3.7-14.7,1.8-29.4,2-44.2.2-12.5-6.7-18-19.1-16.6-22.3-2.9-40.6,9.5-60.4,16-9.6-.3-2.5-8.4-5.5-11.7,7.1.4,11.2-4.8,16-8.5,17.8-3.7,35.5-7.6,53.9-6.4l2,.5c.6.2,1.2.3,1.8.3s.7-.5.6-.7c-1.3-6.7-8.2-12.2-8.2-17.6-.2-9.2-4.5-5.7-8.5-5.2-.6-4,8-9.8-2.4-12.1h0c0-.1,0,0,0,0ZM408.5,684c.3,7.4.5,14.9.8,22.3l.8-22.2c1.1-4.5,2.7-8,8.4-8.2,5-.3,9.9-1,14.8-1.9,2.7-.5,7.9,1.3,7.6-1.8-.5-3.9-5-.3-7.7-.7-1.4,0-2.7.2-4,.5-8.1,1.9-22.6-7.3-20.7,12h0ZM775.6,356.2h0c1,4.7,2,9.4,3,14,4.2-5.5,10.7-9.9,9.3-18.3,0-.7,0-1.4,0-2,.6-1.6,1.1-3.2,1.5-4.8,1-7.5,2.2-17.1-4.3-20.3-4.7-2.2-1.7,9.2-6.7,12.1-.3,0-.5.5-.6.8-2.7.4-5.5.4-8.2,0-11.4-3.6-14.6,8.2-15.1,12.4-.8,6.5,8.2,3.5,12.9,4.4l6.2.2,2.1,1.7h0s0,0,0,0ZM308.5,352.2h0c-.1.7,0,1.4.1,2,1.8,3.9,3.7,7.8,5.5,11.7,4.3-3-1-5.9,0-8.9s3-2.2,5-1.7c2.7.7,6.3,3.2,7.5-1.6,1.2-3-.3-6.5-3.4-7.6-.7-.3-1.4-.4-2.1-.4l-2-2.1c.8-3.3,3.3-4,6.3-4.1,2.3,0,4.8-1.2,2-3.4-6.4-5-15.3-5.6-21.3-11.5-2.7,7-5.3,14-2.7,21.8.3.6.5,1.3.9,1.9,0,.5.2,1.1.4,1.5l3.9,2.3h0ZM404,221.3c8.4-6.8,11.2-20.5,25-20.8,2.4-2.3,4.6-4.8,6.7-7.5,6.2-9.3,20.2-19.1-.8-27.6,5.7-6.7,8.2-12.6-3.9-14.6-9.2-6.5-3.5-12.4.8-18.3.6-1.1,1-2.3,1.3-3.5-1.1.4-2.7.6-3.4,1.4-6.9,7.1-15.2,13.1-19.5,22.4-2.7,4.7-5.9,9.2-8.4,14-1.5,3.3-2.7,6.7-3.8,10.1,3.8-.8,4.6-4.8,7.4-6.7,1.5-.6,3.1-.8,4.7-.8-.2,3.7,1.9,7.2,5.3,8.8,3.6,1.9,6.5,5.2,3.3,9.9-6.3,10.4-12.4,20.9-14.7,33.1h0c0-.1,0,0,0,0h0ZM412.2,338.1c-1.9-2.7-1.9-8.7-6.9-6.3-4.3,2.1-1.5,6.5,0,9.9.8,1.5,1.7,2.9,2.7,4.3,3.3,4.3,6.5,8.7,10.1,12.8,1.5,1.6,3.6,5.5,6.3,1.8,1.8-2.4,4.4-5.8-.2-8.6-5.5-3.2-8.7-8.5-12-13.7h0c0-.1,0-.2,0-.2h0ZM531.6,705.8c17.9,11.5,42,13.1,61.8-13.3,2.4-3.1,4-10.7,0-13.2-5.2-3.3-11.5,0-16.9,2.9l-35.2,3.7c-4.6-3-9.6-2.1-14.6-1.6-3.9,1-4.4,4.1-4.1,7.3.5,7.6,9,14.4,9,14.4h0c0-.1,0-.2,0-.2ZM620.1,823.2h0c10.2,2.3,16.4-.7,15.1-12.3-1.2-9.8-3.4-19.6-4.2-29.5,0-5.6-3.6-10.5-8.9-12.3h0c.3-6.1-2.9-6.5-7.9-5.5-9.2,2.3-18.5,4.2-27.9,6.1-3.4.7-6,1.5-5.7,5.5l.2,33.1c.2,5.8,0,11.7-.6,17.4-1.3,8.7,4.2,11,10.6,10.9,4.8-.1,10.3,0,14.6-3.4l8.4-4.1c4.9,1.3,6-1.9,6.4-5.8h0c0-.1,0-.1,0-.1h0ZM686.7,806.9c2.9-2.6,8.2-3.2,7.9-8.7,0-6.9-.6-13.7-.1-20.5.8-12-7.2-17-16.4-18.8-7.9-1.5-16.4-.2-24.5.8-5.1.6-12.8-1.9-14.6,4.3-2.1,7-1.4,15.1,5.7,20.5l2,5.7v8c-4.3,1.6-5.5,4.8-2.1,7.6s1.8,11.4,9.9,8.7c4.5-1.5,9.1-2.7,13.7-4.1,6.1-1,13,2,18.6-3.3v-.2h0ZM495.6,646.5c-18.6-4-36.8,2.9-55.2,2.7-3.5,0-3,3.1-2.7,5.5.3,2.9,1.7,3.7,4.8,3.5,10.3-.3,20.5,0,30.7.9,8.2.4,19.9,5.1,22.6-9.4,1.4.2,2.7.3,4.1.5,5.4.7,10.8,0,15.8-1.7-4.2-3.7-9.4-.7-14-2.1-2-.3-4.1-.3-6.1,0h0ZM642.5,647.3c-20-.5-39.4,3.7-59,6.3-37.3,5-75.1,7.9-112.6,12.7-6.5.8-13,1.2-19.5,1.9-2.7.3-6.1.8-5.6,4.5s-1.5,7.8,2.1,10.7c3.5,2.9,35.2.2,39.6-3.3,20.4-2.1,40.9-3.7,61.1-6.5s41.5.7,61-8.4l2.2-1.9c11-4.3,22.8-2.9,34.3-4.4,2.2-.3,5.5.3,5.5-3.1s-2.4-2.7-4.6-2.7l-2.2-2.2c.5-1.6-.5-3.3-2.1-3.7,0,0,0,0-.1,0h0,0s0,0,0,0ZM641.1,673.8v-.3l18.6-1.2c2.9-.2,5.7-.5,5.7-4.4s-3.2-4.1-5.9-4c-12.1.5-24.1,1.1-36.2,1.7-2.5.1-5,.8-4.7,4,.1,2.5,2.2,4.3,4.7,4.2h17.8c0,0,0,0,0,0ZM552.6,649h16.4c2.3,0,5.2.4,5.5-3.1.2-3.5-2.3-4-4.8-4.2-10.6-.9-21.3-.5-31.8,1-2.3.3-4.2,1.4-4.3,3.7,0,2.9,2.5,2.7,4.5,2.7,4.8,0,9.7,0,14.5,0h0ZM681.8,665.7c2.7-1.2,7.9,2.5,8.4-2.1.3-2.7-5.1-2.1-7.9-2s-8.9-1.6-8.9,1.7c0,4.1,5.5,1.3,8.4,2.4h0ZM427.9,660.2c3.6,0,4.9-1.9,4.9-5.2s-1.5-4.1-4.3-4.1-4.5,1.5-3.8,4.4c.5,2.1-.4,5.3,3.2,5h0c0,0,0,0,0,0ZM666,647.2c-1.9-.8-3.8-1.5-5.7-2.1-.7,0-1.3.1-1.9.4.3.8.3,2,.9,2.3s1.7,0,6.7-.5h0c0,0,0-.1,0-.1h0Z"/>
  <path class="st86" d="M360.6,742.2c4.9,5.3,11.1,1.2,16.6,2.4l2.1,3.8-2.5.6c-25.5-.8-29.5,1-30.1-32.2-.2-9.6.8-19.3-2.2-28.7-4.8,8-.7,17-2.7,25.3-2.9,12.3,1.4,24.5-.1,36.9-.6,1.2-1.2,2.4-1.6,3.7-1.2,3.9-.9,8.1.8,11.8.2.4,2.3.3,2.3.3.5-3.6.8-7.3,1.2-10.9h0c.6,0,1.2-.2,1.7-.5-2.6,15.1,4.8,30.8-2.1,45.7-2.5-3.7,1.9-10.5-3-11.7-4.4-1-4.3,5.3-4.7,8.8-.6,4.8-3.7,12.1,2.4,13.4,5.5,1.2,2-7.6,5.3-10.5.7,4.1-.9,8.5,2,12.2-4.2,7.8-8.4,15.7-12.5,23.5-4.3-24.2.5-47.9,2.4-72,1.3-16.6,1.2-33.6,2.3-50.3l1.6-8.5c.1-9,.2-17.9.3-26.9l2.1-2.4h0c2.5-7.4,2.5-15.5,0-22.9h0l-2-2.5.4-10.3c2.1,1.8,0,6.4,3.4,6.3,1.5,0,2.7-4,4.3-6.2l4.3,4.6c-5.5,3.7-9.5,27.3-5.3,31.5.8.5,1.6.8,2.5,1,.5-1.2,1-2.5,1.3-3.8.6-6.2,1-12.3,1.5-18.5.6,3,2.2,6.1,1.8,8.9-1.4,8.7,4.4,17.9-4.8,26.4-3.3,3,.5,13.7,1.1,20.8,1,9.7-.7,19.8,4.2,28.8v.2l1.8,2.1h0c1.2,1.2,3.2,1.1,4.4-.1h0s0,0,0,0Z"/>
  <path class="st78" d="M756.9,619.9c-.6,6.5-1.3,12.9-1.9,19.3,0-4.5,0-8.9-.4-13.4,0-1.1,1.2-4-1.9-2.9-1,.3-1.5,2.2-2.3,3.3-10-9.8-2.9-21.8-4.2-32.9-.5-4.3,1.3-9,.3-13.1-1.5-6-2.5.8-3.9.7-.7-2.2-1.5-4.3-2.2-6.5,2.2-3.9,2.2-8.7,0-12.7h0c-6.8-10.9-14.5-21-25.1-28.6-.5-.5-1.2-.7-1.9-.6-2.7-3.2-6.6-3-10.2-4-13.1-3.6-27.4-3-39.6-10.4l2-4.2c21.8-.5,43,2.5,62,14.7-.5,3.2-2,5.7,2.2,8.7,4.9,3.5,8.3,9.2,12.4,13.9,17.3,16.4,10.7,37.8,12.3,57.5.5,3.7,1.4,7.4,2.6,11h0s0,0,0,0Z"/>
  <path class="st136" d="M599,468.1l4.4,2.2c8.6,13.6,18.7,25.6,33.1,33.3.8,7.9,12.9,6,12.8,14.7,1.1,17.6,12.2,32.2,14.5,49.5-.5,1.8.3,4.7-2.7,4.6-10-.2-17.5,6.1-25.9,10-3.8,1.8-8.2,4.5-4.5,10.2l-2.7,2.4c-3.3-3.8-6.5-7.7-9.8-11.5.2-.4,0-.9-.4-1.2.3-.5.3-1.1,0-1.6,4.3-.9,8.4-1.9,10.3-6.5h0c26.7-7.9,30.9-15.4,18.6-33.4-2.2-6.5-4-13.2-8.4-18.7h0c0-3.3-1.5-6.4-4-8.5h0l-27.3-28.6c-1-6.3-11.8-7.8-8.2-16.4v-.7c0,0,0,0,0,0h0Z"/>
  <path class="st144" d="M754.2,407.8c-1.2-2.7-2.9-4.9,2.4-6.5,26.9-7.9,46.4-24.5,56-51.4,4.4-12.2,2.5-24.5,1.9-36.9-.3-7.1-1.3-13.6,6.4-17.6,1.7-1.2,3-2.9,3.7-4.8,1.7-3.7,4.3-7.3,2.9-11.7-.5-.8-1.4-1.3-2.4-1.2-4.5,1.7-5.5,5.7-6.4,9.9-.2.8-1.3,1.5-1.9,2.2-3.7-7,1-13.8,1-20.8s4-1.9,6.1-.4c9.5,7,8.9,26-1.5,31.6-5.7,3.1-6.8,7-4.7,11.7,11.9,26.2-.6,47-15.7,66.2-11.9,15.3-28.8,25.8-47.8,29.6h0s0,0,0,0Z"/>
  <path class="st140" d="M347.8,640.4c-1.4,2.2-2.7,6.1-4.3,6.2-3.4,0-1.3-4.5-3.4-6.3,0-16.5.4-33.1-.2-49.6-.5-11.6,3-22.2,6.5-32.9l5.7-1.8c.3-.5.9-.7,1.4-.6h2.7l.2,2.2c0,.7-.1,1.4-.3,2-1.7,2.5-1.7,5.7,0,8.2.3.6.4,1.3.4,2l-2.4,2.4h0l-1.9-.3c-2.5,2.9-1.5,6.5-1.7,9.8-1.3,19.7.5,39.2-2.8,58.6h0c0,0,0,0,0,0Z"/>
  <path class="st121" d="M574.3,76.1c-20-6.9-40.7-8.8-61.8-8.6-10.2,0-17.8,7.2-27.5,6.7-.6-1.8-.3-3.8,1.5-4.4,29.4-10.9,58.7-22.5,90.3-8.5,4.7,1.6,8.7,4.6,11.5,8.5,1.3,2.1.7,3.9-2,4.5-18.8-18.7-42.1-15.3-65-13.3-1.2,0-2.2,1.3-3.3,2,1.2.5,2.5.9,3.8,1.1,12.4.7,24.8,1.7,37.1,1.8,8.9,0,15.8,4.3,22.2,9.6,3.2,2.7,7.5,7-.6,9.7,1-5.1-11.1-1.2-6.2-9l.3.3-.3-.4h0s0,0,0,0Z"/>
  <path class="st34" d="M738,256.9c-3-2.4-4.5-6.3-4.1-10.1,0-58.2-25.2-103.9-69.3-140.2-2.5-2-3.4-3-1.3-5.4,28.8,20.9,51.3,46.8,63.5,80.8,2,5.6,6.1,10.6,5.1,17.4-.6,4.1,3.8,2.7,6.2,3.5l-.5,2.7c-1.8,6.4-1.7,13.3.2,19.7,0,10.6,0,21.1.1,31.6h0Z"/>
  <path class="st78" d="M356.2,555.5h-2.7c-3.9-6.3,4.5-7.7,4.9-12.2l20.9-18.4,6-2.4c11.7-2.4,22.7-8.5,35.1-8.2,2.7,0,6.2-.7,7,2.7s-3.4,3.5-5.3,5.2c-10.5,0-19.9,4.2-29.3,8.2-15.1,1.7-23,13.5-32.5,23.1h0l-2.5,2c-.5-.2-1.1,0-1.6,0h0s0,0,0,0Z"/>
  <path class="st35" d="M452,412.2c10.6,13.3,23.4,24.8,37.8,33.9,7.2,4.4,14.6,9.5,12.1,20.2-2.5,2.4-5.5,2.1-8.5,2.1,7.1-4.1,6.3-7.5-.2-11.8-9.7-6.2-18.9-13.1-27.5-20.9-11.4-10.9-22.7-7.7-34.8-2.7,3.3-3.4,6.6-6.7,6.8-11.8,6.7.5,9.5-5.9,14.3-9h0s0,0,0,0Z"/>
  <path class="st140" d="M580.4,85c8-2.7,3.8-7.1.6-9.7-6.4-5.2-13.2-9.4-22.2-9.6-12.4,0-24.8-1.2-37.1-1.8-1.3-.2-2.6-.6-3.8-1.1,1.1-.7,2.1-1.9,3.3-2,23-2,46.4-5.5,65,13.3l.8,1.9,1.7,2.4c.6,6.6,5,6.4,9.7,5.4,8.4-1.4,17-1.6,25.5-.6,4.5.3,8.2,1.7,7.2,7.3-11.8-5-25.2-5.3-37.2-.7-6.5,2.4-9.7-1.3-13.4-4.8h0s0,0,0,0Z"/>
  <path class="st107" d="M428.8,109.1c-19.6,13.3-35.4,31.6-45.7,52.9-4,8.2-8.2,16.1-12.3,24.2-1.4-6.3,2.7-12.4.2-18.6,12.3-27.7,33.7-47.3,57.6-64.7,0,2.1.1,4.1.2,6.2h0Z"/>
  <path class="st87" d="M454.4,501.9c.5-.2,1-.4,1.5-.7,10.3,3.9,12.4-.9,10.7-9.9,8.5,3.5,8.2-7.8,14-8.5,2.7-.8,5.5-1.5,6.6,2.3h0l-2.4,3.8h0l-3.6,2.7c-16,11.7-27.6,28.3-33.2,47.3l-4.1,8.5c-.9-3-1.8-6-2.7-9.1-.5-6.9,8.2-12.7,2.5-20.2.3-4.7,4-6.3,7.5-7.5,5.4-1.7,4.9-4.9,3.4-8.8h0,0Z"/>
  <path class="st46" d="M323.1,393.6c23.8,13.6,49.1,20.6,76.1,13.3,11.5-3.1,16.7.7,21.1,9.7l-6.1,2.1c-1.3-6.8-5.5-6.9-11.5-5.9-28.2,4.6-57.1-.5-82-14.5l2.3-4.6h0Z"/>
  <path class="st128" d="M737.7,205.5l.5-2.7c4.1,10.9,2.2,22.5,1.8,33.7-.5,12.6,1.4,22.1,12.8,30.6,12.9,9.5,23.8,21.6,41.2,22.8,0,.6-.2,1.2-.2,1.7-10.3,1.4-20.8,0-30.5-4.1l-2.4-1.7h0c-4-8.4-12.8-12.1-18.6-18.7h0l-2.2-4-2-6.2c0-10.6,0-21.1-.1-31.6,0-6.6-.1-13.1-.2-19.7h0,0Z"/>
  <path class="st53" d="M321.3,290l-25.1,4.1-8.5,2.4c-5.7-1.9-6.5-7.3-8.4-12-.7-1.6-2.7-4.2-3.8-4-3.4.7-1.9,3.7-1.6,5.9.4,5.9,3.8,11.2,8.9,14.1,8.8,4.5,5.5,7.5-.9,10.6l-.3-2.7c-4-7.3-13-11.1-14.2-20.4-.8-2.9-1.1-6-1.1-9,.7-4.5,3-9.4,7.7-9.9,5.5-.7,3.5,5.5,5.2,8.4,1,1.8,1.8,3.6,2.5,5.5l4,2.5h0l2.1,2.1h0l8.5,2h18.2l6.6.5h.1s0,0,0,0Z"/>
  <path class="st9" d="M773.4,815c1.4,7.9,6.1,16-3.6,22.5-3.3,2.2-.7,7.2-.3,10.7,1.2,12.2-.2,23.5-8.5,33.1-.2-4.1,0-8.4-4.4-10.7.8-4.1,1.5-8.2,2.3-12.2l2.1-20.7h0c6.4-5.2,4.8-11.9,3.5-18.5,4.1,2.7.7,12.2,5.7,11.1,5.7-1.4,2.2-9.4,3.1-14.4,0-.3,0-.6,0-.9h0s0,0,0,0Z"/>
  <path class="st113" d="M281.6,308.6l.3,2.7c.8,2.5,2.7,5.5,2.1,7.6-6.2,18.7-1,35,9.9,50.2-.2.5-.4,1.1-.5,1.6-2.7-2.7-5.5-5.9-9.8-6-3.4-7-5.5-14.4-9.5-21.3-7.6-12.8-1.3-24.6,7.5-34.9h0s0,0,0,0Z"/>
  <path class="st140" d="M773.4,815v1c-.9,5,2.7,13-3.1,14.4-4.9,1.2-1.5-8.2-5.7-11.1-5.5-6-4.3-13.3-3.9-20.4v-14c1.5-4.6-1.7-10.1,2.7-14.2,3.5,3.9.6,9.3,3,13.5.3.6.6,1.2.9,1.8,2.5,6.2-2.9,14,3.7,19.4-1.4,3.6-3.5,7.7,2.4,9.6h0Z"/>
  <path class="st99" d="M454.4,501.9c1.5,3.9,2,7.1-3.2,8.8-3.5,1.2-7.2,2.7-7.5,7.5-7.6-1.4-14.1,3.7-21.5,3.9,1.9-1.7,6.2-1.5,5.3-5.2s-4.4-2.7-7-2.7c-12.4-.3-23.3,5.7-35.1,8.2l-.3-3.8c18.4-7,37.8-10.6,57.4-10.7,5.2.1,9.4-.9,11.8-5.9h0Z"/>
  <path class="st69" d="M758.5,698.5c-2.7,2.4-1.4,5.7-2.2,8.5l-3.9,4.1c-4.3-1.4-3-5.6-4.3-8.5v-1.3c.8-7.1,1.5-14.2,2.3-21.3,1.4-6.6,2.5-13.2,4.4-19.7.7-2.3,1-6.8,5.8-4.5,0,1.5.1,3,.2,4.5-.8,12.9-1.5,25.7-2.3,38.6v-.3c0,0,0,0,0,0h0Z"/>
  <path class="st8" d="M590.7,460.1c-.2-3.4,1.7-6.6,4.7-8.2,16.8-9.7,32.1-21.8,45.5-35.7,2.2-2.2,4.4-5.8,5.9.4-11.4,15.2-27.8,24.3-42.8,35.2-6.3,4.5-9,9.3-5.1,16.4l.3.6-8.2,3.7c0-1.4-.1-2.7-.2-4.1v-8.3c-.1,0,0,0,0,0h0Z"/>
  <path class="st113" d="M321.3,290l-6.7-.3c4.5-3.1,9.1-6,13.8-8.6,14.5-7.2,21.1-19.7,23.9-34.8l6-4.1c-5.5,5.9-1.2,14.1-4.1,20-6.8,13.8-16.5,25.1-32.9,27.8h0Z"/>
  <path class="st5" d="M333.2,836c4.2-7.8,8.4-15.6,12.5-23.5,1.4-1.3,2.7-2.6,4.2-3.9,1.3,1.3,3.4,1.3,4.6,0h0s3.7,6.1,3.7,6.1c-7.3,8.4-15.6,16.4-10.3,29.2-.8-.7-1.5-1.4-2.3-2-2.7-2-1.7-7.3-5.8-7.5-1.1,0-2.4,3.6-3.5,5.6-3,5.5,4,5,5,8.2h-1.8c-9.4-.3-5.5-7.5-6.4-12.3h0ZM349.4,815.2l-.4-.7-.4.7h.7s0,0,0,0Z"/>
  <path class="st23" d="M361.2,889.4c8.9,3.8,18.2,2.6,27.4,2.3,5.5-.2,6.7-.2,4.3,6.5-3.2,8.7-12.6,12.9-14,22.4l-3.9-2c10-16,10.5-26.5-13.3-23.8-1.5.2-3.4-2.1-5-3.3l4.5-2.1h0Z"/>
  <path class="st126" d="M358.3,242.2l-6,4.1c-2-14.3,1.3-28,4.2-41.8.8-4,5.1-4.6,6.3-7.8,2.8,6.6,2.7,14.1-.4,20.7l-3.3-10.4c0,3.7.2,7.4.2,11.1,0,8.1,2.5,16.3-1.1,24.2h0Z"/>
  <path class="st16" d="M487.1,485.1c-1.1-3.9-3.9-3.1-6.6-2.3-1.1-2.7-1.5-5.5,2.5-6.3l.5.5-.7-.4c1.5-5.2,9.4-2.5,10.5-8.3,3,0,6.1.3,8.5-2.1,2.5,4.1,3.6,9.1.4,12.5-9,9.7-8.9,21.6-9.4,33.5-2.1-7-2.6-14.4-1.5-21.6.6-4.2,1.5-6.8-4.3-5.5h0ZM497.8,472.3c-.5-.4-1-1-1.4-1s-.9.6-1.4,1l1.8,1.5,1-1.4h0Z"/>
  <path class="st123" d="M696.5,408.5l54.1-.4c-15.9,11.7-33.9,5.5-51.1,5.9-3.3.1-3.1-3.1-3-5.5h0Z"/>
  <path class="st69" d="M756.5,870.7c4.5,2.3,4.2,6.6,4.4,10.7-9.7,9.8-21.1,14.5-35,12.5-2.5-.3-6-.3-4.5,4.2l-1.5,10.1c-8.2-14.9-7.5-16.2,9.7-16.4,5.5,0,11.1.9,15.8-3-4.3-4.2-9.4.6-14-1.2,6.3-4.5,15.4-1.7,20.9-8.2l2.2-2.3-.3.3,2.2-6.5h0c0-.1,0,0,0,0h0Z"/>
  <path class="st123" d="M636.5,503.7c-14.5-7.7-24.5-19.8-33.1-33.3,4.9,1.5,9.2,4.4,12.4,8.4.3,2.7-.5,6.5,4.5,3.9,6.6,5,10.5,13.1,18.7,16.4l-.7,1.1-1.8,3.8v-.2c.1,0,.1,0,.1,0h0Z"/>
  <path class="st121" d="M485,74.2c-14.9,5.4-27.5,15.1-40.9,23.4l-5.3-3.2c14.7-8.2,27.3-21.5,46.2-20.2h0Z"/>
  <path class="st141" d="M720,908.1l1.5-10.1c5.7,8.9,12.9,16.8,16.8,26.8l-2.7,5.2-15.6-22h0Z"/>
  <path class="st35" d="M719.2,962l22.9-22.4c1.7,11.7-11.2,24.2-22.9,22.4h0Z"/>
  <path class="st126" d="M361.2,889.4l-4.5,2.1c-7.6-9-16.4-17.5-14.7-31,8.7,8.1,10,21.1,19.2,28.9h0Z"/>
  <path class="st30" d="M293.4,370.7c.1-.5.3-1.1.5-1.6,8.2,10,17.4,18.9,29.2,24.5l-2.3,4.6.2-.2c-.6-.8-1.3-1.5-1.9-2.3h0l-6.5-1.8-12.7-10.5-1.8-4.3h0l-4.1-2.1h0c-.3-2.1-.4-4.3-.6-6.4h0Z"/>
  <path class="st92" d="M649.4,518.4c0-8.7-12-6.8-12.8-14.7h0c.6-1.3,1.2-2.5,1.8-3.8l.7-1.1c2.2,8.5,8.2,11.3,16.5,11.3,3.8-.4,7.5,1,10.1,3.8l-2,4.2c-4.9-1.9-9.5-.7-14.2.3h0Z"/>
  <path class="st144" d="M742,551.4c-4-4.7-7.4-10.5-12.4-13.9-4.2-3-2.7-5.5-2.2-8.7,8.2,4.4,12.7,12.1,18.2,19,1.1,1.6,2.1,3.2,3,4.9l-6.7-1.2h0Z"/>
  <path class="st119" d="M379.4,524.8l-20.9,18.4c1-13,12-16.8,20.7-22.7,0,1.5.1,2.9.2,4.3h0Z"/>
  <path class="st23" d="M362.5,217.3c3-6.6,3.2-14,.4-20.7v-10.2c3.3,0,4.1,5,7.9,3.8-1.5,9.5-4.5,18.8-4.2,28.6-.3,1.4-1.1,2.8-2.2,3.8-2.4-1.1-1.8-3.4-1.8-5.4h0Z"/>
  <path class="st81" d="M793.8,291.6c0-.6,0-1.2.2-1.7h.1l5.8.3v4c.4,3.3,3.1,1.1,4.5,1.8-2.7,2.7-6.4,4.2-10.2,4-4.5,0-11.5,2.7-12.9-1.6-1-2.9,6.7-1.5,10.3-2.9,1.6-.4,2.6-2,2.3-3.6,0-.1,0-.3,0-.4h0Z"/>
  <path class="st104" d="M370.7,190.3c-3.9,1.2-4.7-3.8-7.9-3.8.2-7.1,3.1-13.9,8.2-18.9,2.5,6.3-1.5,12.4-.2,18.6v4.1h-.1Z"/>
  <path class="st139" d="M438.8,94.3l5.3,3.1-15.4,11.6c0-2.1-.2-4.1-.2-6.2l10.3-8.6h0s0,0,0,0Z"/>
  <path class="st144" d="M466.5,491.3c1.7,9-.4,13.8-10.7,9.9l10.7-9.9Z"/>
  <path class="st128" d="M799.9,290.1l-5.8-.3c1.3-1.2,2.6-2.2,4-3.1,2.7-1.5,6.1-6.7,8.2-3.1,2.9,4.7-4,4.5-6.4,6.6h0s0,0,0,0Z"/>
  <path class="st126" d="M293.4,370.7c.2,2.2.4,4.3.6,6.5-5.2-2.4-9-7-10.4-12.5,4.4.1,7,3.3,9.8,6h0Z"/>
  <path class="st22" d="M375.1,918.6l3.9,2c-2,2.3-5.6,4.7.3,6.5l-4.1,6.2c-2-6.3-4.2-1.9-6.3,0l-.5-2c2-3.9,7-7,3-12.3l3.8-.4h0s0,0,0,0Z"/>
  <path class="st143" d="M371.3,918.9c4,5.3-1,8.5-3,12.3-3.1-5-3.1-9.4,3-12.3Z"/>
  <path class="st100" d="M414.3,418.7l6.1-2.1c-.5,5,3.8,5.9,6.7,8-6.5,3-9.6-1.7-12.8-5.9h0Z"/>
  <path class="st131" d="M647.4,416.2c2.2,0,4.5-3.5,6.5-1,2.4,3.1-.3,6.5-.9,9.8l-5.5-8.8h0Z"/>
  <path class="st58" d="M364.7,935.5l.2,5.8-2.4-1.7-1.8-2.3c.5-2.2.9-4.4,1.4-6.6l2.5.3v4.4h0s0,0,0,0Z"/>
  <path class="st54" d="M735.6,930.1l2.7-5.2c2.7,2.7,6.3,5.3.2,8.2l-2.9-3h0s0,0,0,0Z"/>
  <path class="st71" d="M379.4,524.8c0-1.5,0-2.9-.2-4.3l5.9-1.9c0,1.3.2,2.5.3,3.8l-6,2.4h0Z"/>
  <path class="st128" d="M804.4,296c-1.5-.7-4.1,1.5-4.5-1.8,2.9-.4,5.9-1.9,8.8,0l-4.3,1.8h0Z"/>
  <path class="st100" d="M661.4,99.1c-5.2,3.2-6.8,1.2-6.1-4.2l6.1,4.2Z"/>
  <path class="st126" d="M339.6,848.3h1.8l.3,10.2-2-10.2Z"/>
  <path class="st45" d="M620.2,482.6c-4.9,2.7-4.2-1.2-4.5-3.9l4.5,3.9Z"/>
  <path class="st35" d="M723.2,969.2c-3.7-1.1-8.8-1.4-4.1-7.2l4.1,7.2Z"/>
  <path class="st113" d="M296.5,289.8l-8.5-2,8.5,2Z"/>
  <path class="st0" d="M352.2,555.9l-5.7,1.8,5.7-1.8Z"/>
  <path class="st46" d="M312.5,393.8l6.5,1.8-6.5-1.8Z"/>
  <path class="st143" d="M364.7,931.1l-2.5-.3c1-1.5,1.9-1.7,2.5.3Z"/>
  <path class="st126" d="M298.1,379.2l1.8,4.3-1.8-4.3Z"/>
  <path class="st113" d="M285.9,285.8l-4-2.5,4,2.5Z"/>
  <path class="st126" d="M294,377.1l4.1,2.1-4.1-2.1Z"/>
  <path class="st121" d="M588.7,78.4l-1.7-2.4,1.7,2.4Z"/>
  <path class="st113" d="M287.9,288l-2.1-2.1,2.1,2.1Z"/>
  <path class="st143" d="M368.5,933.1l-1.8,1.9,1.8-1.9Z"/>
  <path class="st54" d="M740.2,935.4l-1.7-2.4,1.7,2.4Z"/>
  <path class="st143" d="M360.7,937.5l1.8,2.3-1.8-2.3Z"/>
  <path class="st58" d="M364.8,941.3l1.6,2.4-1.6-2.4Z"/>
  <path class="st46" d="M319.1,395.8c.6.8,1.3,1.5,1.9,2.3-.6-.8-1.3-1.5-1.9-2.3Z"/>
  <path class="st67" d="M518.4,923.1c-1.1-5.7-5.3-6.6-10.1-6.5-9.9.4-19.8.6-29.7,1.5-10.5.9-20,1.2-28.3-7.7-6.8-7.4-16.9-3.5-25.5-4.1-5.5-.4-10.9,0-16.4,0,.8-7.3,6.2-8.2,12-8.4,7.2.3,14.4-.5,21.4-2.3l3.7,2.4c2.1,7.3,9.7,6.8,14.6,10.2l3.7,2.5c2.4,2.5,5.5,1.1,8.2,1.2l38,.3c4.8.3,10.2-.7,12.8,5.1,1,3.9-1.3,5.2-4.4,5.8h0c0,0,0,0,0,0Z"/>
  <path class="st63" d="M709,902.3l4.9,7.7c-8.6,2.9,4.7,7.7-.9,10.9l-2-.2-2-2h0l-2-2.1h0l-2.2-2c-.6,0-1.3-.1-1.8-.3-4.2-11.6-12.3-4.1-18.9-3.8l-24.5.4-3-1.2c4.7-.6,9.4-1.1,14.1-1.8,1.5-.3,2.9-.8,4.3-1.3-1.3-.3-2.6-.5-3.9-.7-12.3,0-24.5-.2-36.7-.3v-1.6l6-.4h18.6c5.8-.4,11.9,2.2,17.5-1.6-5.3-4.3-11.5-1.2-17.3-2l-18.6-2.2v-2.1l10.5-.3c15.2,2.2,30.7,2.6,45.9,1.4,4.8-.3,7.8.7,10.1,4.7.5.9.6,2.7,2.1.7h0c0,0,0,0,0,0Z"/>
  <path class="st127" d="M752.4,879.2c-5.5,6.4-14.7,3.7-20.9,8.2l-47.2.5c-14.6-1.7-29.7,1.7-43.9-4.2,28.2-.7,56.4-1.7,84.6-2.1,9.2,0,17.8-1.3,25.7-6.4l1.9-2.3.3-6.1,1.8-4.3c0-.6,0-1.2,0-1.8l4.2-2.1c-.8,4.1-1.5,8.2-2.3,12.2h0l-2.2,6.5.3-.3-2,2.3h0s0,0,0,0Z"/>
  <path class="st82" d="M572.1,962.3c-2.4,10.1-8.7,16.2-19.1,17.4-11.2,1.3-19.1-3.6-24.5-13.3,0-4.4-.7-9.1.5-13.1,1.5-5.5,2.7-1.1,3.8.8,0,.7,0,1.3,0,1.9l2.1,4.1c12.4,10.7,23.3,10,30.9-2l6.5,4.2h0Z"/>
  <path class="st36" d="M572.1,962.3l-6.3-4.2c-1.4-3.5-2.7-6.9-4.1-10.3l2.1-2.1h2.1c-1.6-3.5-2.7-7.7-8-4.5l-1.9,2.1c-10.7-2.9-18.1,1.3-23,10.7-1-1.8-2.2-6.1-3.8-.8-1.2,4.1-.3,8.7-.5,13.1-6.1-14.5-2.4-25.8,10-30.9,15.1-6.1,31.4,0,36.1,13.9,1.5,4.7,2.5,9.5-2.7,12.8h0s0,0,0,0Z"/>
  <path class="st40" d="M728,929c8.2,9.5.7,15.8-5.3,21.3-14.8,13.7-32.9,22.1-50.8,30.8l-1-1c0-2.5,1.3-4.7,3.4-6,14.5-7.7,27.7-17.4,41.7-25.7,4.1-2.3,7-6.3,7.8-10.9l1.7-2.3h0l1.7-2.2c-.4-1.4-.8-2.7-1.3-4.2h2c0,0,0,.1,0,.1h0Z"/>
  <path class="st24" d="M663.4,985c-8.4,4.1-17.1,7.8-25.1,12.5-9.1,5.5-15.2,2.4-19.8-5.7-3.6-6.4-8.9-11.8-10.5-19.3l1.7-4.2c18.8,29,19.1,29.3,41.4,17.7,4.1-2.2,7.9-4.9,11.9-7.4l.5,6.3h0s0,0,0,0Z"/>
  <path class="st64" d="M543,912.2l-16.4.5-4.2-6.4c23.6,4.5,47.2-1.4,70.9.3-.2.5-.3,1-.5,1.5l-3.8.3-46,3.8h0,0Z"/>
  <path class="st114" d="M600.6,960.6c-6-12.3-13-24.2-16-37.8-1-9.9,5.1-10.9,12.6-9.8,0,.5,0,1-.2,1.6-15.5,2.9-5.5,12.7-4.4,19,1.7,9.1,10,16.1,9.3,26.2l-1.3.9h0,0Z"/>
  <path class="st59" d="M640.4,883.6c14.2,5.9,29.3,2.5,43.9,4.2-9.3,2.9-19,1.1-28.4,2-3,.3-9.2-1-4.7,5.8l-10.5.3c-.5-.2-1.1-.2-1.7-.2l-8.7-6.1,5.1-2.3-5-2.1v-1.4l8.2-.4.9.2h1Z"/>
  <path class="st106" d="M597.2,913c-7.5-1-13.7,0-12.6,9.8-1.9-8.2-6.7-10.9-15.2-10.3-8.8.3-17.6.2-26.4-.4l45.8-3.8c13.7,5,27.8.4,41.6,2.4l-33.2,2.2h0Z"/>
  <path class="st113" d="M522.3,906.3c1.4,2.1,2.7,4.3,4.2,6.4l-3.7,4.8c-2.7-5.7-8-4.7-12.8-5.1v-1.7l-.5-.5c2.2,0,4.6,1.3,6.5-1-1.7-1-3.5-1.7-5.5-2.2-3-.3-6.1-.4-9.1-.4l-4.2-.3c-5.2-1.9-10.8-2.7-16.4-2.3l-6.8-3.4,1-1,7.7.5,39.3,6.3h0Z"/>
  <path class="st113" d="M395.8,956c8.2,5.9,16.4,11.7,24.4,17.7,2.1,1.5,1.1,3.6,0,5.5l-26.4-17.4,2-5.7h0Z"/>
  <path class="st128" d="M441.3,991.4c11.4-1.2,21,4.6,31.1,8.2-2.4,3.3-3.6,6.9-9.2,2.7-6.5-4.7-14.5-7.4-21.9-10.9h0Z"/>
  <path class="st128" d="M481.1,987.2c-7.1-10.4,4.5-12.8,8-18.8.9,2.4,1.7,4.7,2.5,7l-10.5,11.8h0Z"/>
  <path class="st67" d="M506.3,945.5c-.4-9.9,8.2-15,12.1-22.5.3,9.9-3.3,17.6-12.1,22.5Z"/>
  <path class="st19" d="M713,921c5.5-3.2-7.7-8,.9-10.9l12.1,16.5-1,1.2c-6.3,1.7-8.5-3.6-12.1-6.8h0Z"/>
  <path class="st41" d="M497.4,966.4c-1.7-7.4-1.5-13.7,8.4-14.4l-8.4,14.4Z"/>
  <path class="st114" d="M377,947.9c8-1.6,12.5.7,10.7,9.8-3.3-3.6-8.6-4.9-10.7-9.8Z"/>
  <path class="st114" d="M374.8,935c2.3,4,6.1,7.7,2.2,12.8-4.9-3.5-8-7.4-2.2-12.8Z"/>
  <path class="st114" d="M609.6,968.3l-1.7,4.3c-2.5-4-4.9-7.9-7.3-11.9l1.3-.9,7.7,8.5h0Z"/>
  <path class="st41" d="M491.6,975.3c-.8-2.3-1.7-4.7-2.5-7,0-.6,0-1.3.2-1.9l1.9-2.2,5.6,3.8-5.2,7.3h0Z"/>
  <path class="st128" d="M472.5,999.5c2.5-3.5-2-12.4,7.9-10.4l-7.9,10.4Z"/>
  <path class="st128" d="M433.4,987c3.9-.8,10.2-6,8,4.4l-8-4.4Z"/>
  <path class="st114" d="M395.8,956l-2,5.7-4.2-3.7c1.4-2.7,3.3-3.9,6.2-2h0Z"/>
  <path class="st113" d="M420.4,979.2c2.9,0,8.6-4.8,6.5,3.8l-6.5-3.8Z"/>
  <path class="st113" d="M426.9,983c3.1-.2,8.4-3.9,6.3,4l-6.3-4Z"/>
  <path class="st40" d="M663.4,985l-.5-6.3c1.9-1,4.3-.4,5.5,1.5l-1.2,1.4-3.8,3.5h0s0,0,0,0Z"/>
  <path class="st19" d="M709,902.3c-1.5,1.9-1.5.3-1.9-.7l1.9.7Z"/>
  <path class="st40" d="M671.9,981.1c-1.4,2.2-3.1,1.8-4.8.5l1.2-1.4h2.7l1,1h0,0Z"/>
  <path class="st19" d="M726,926.6l2,2.4-2-.3c-.3-.3-.7-.6-1-1l1-1.2h0Z"/>
  <path class="st141" d="M451.7,184.2c1.4-13,12.6-17.7,20.8-24.9-2.2,8-2.1,14.8,8.2,16.6-1.3,2.7-.4,3.3,2.2,2.3l2,3.7c.7.8,1.4,1.5,2.1,2.3l4.3-.3h0l1.9,2.4c-3.8,4-5.7,9.3-5.5,14.7.1,8.2-3.2,12.1-11.7,10.4-.6,0-1.2,0-1.8,0h0c-2.4-1.6-4.6-3.9-7.9-2.7l-2.1.7c-2.7-1.3-3.7-7.9-8.4-2.4h0c-.7,0-1.3.1-2,.3-2.2-3.4.3-6.8.2-10.2,1.6-1.1,2.7-2.4,1.8-4.5l-4.1-8.4h0c0,0,0,0,0,0Z"/>
  <path class="st19" d="M526.6,850.3c2.3.9,4.9.7,6.9-.8,6.3-3.5,5.8-.5,10.4.3,8.2,1.5,12.7,11.8,22.3,8.3,8.2-2.9,4.8-10.5,6.5-16,.7-2.3,1.3-4.7,1.9-7,1.9,6.6,3.6,13.3,5.8,19.8,3.7,10.7.2,14.5-10.7,11.9-9-2.5-18.5-2.9-27.6-.9-1,.3-4.4,2.5-3.5-1.9,1.7-8.2-2.3-10.9-11.4-8-11.7,3.8-20.9,12.9-33.1,15.8-17.9,4.1-35.5,9.8-54,10l-15.4-2.5c12-3.6,24.5-3.7,36.8-4.7,22.9-1.7,40.6-11.5,56.7-26.4,2.1,2.4,5.5,3.2,8.5,2.2h0s0,0,0,0Z"/>
  <path class="st134" d="M582.4,480.9l4.4,26.8c-1,4.5,1.7,9.1,6.1,10.5,1.5,12.2,6.6,24.8-4.1,35.5-3.5-3.8-7,1.3-10.5,0,1.2-1.7,2.7-3.1,4.4-4.3,10.5-5.5,11.4-12.3,4.4-21.5-5.3-7.3-8.2-16.1-8.2-25.2-.2-9.2-4.5-11.4-12.9-11.6-17.9-.3-35.8,2.2-53.6-1.6l-.6-.7c0-6.6,3.6-7.6,9.4-7.3,14.7.8,29.4.6,44,1.4,9.1.5,13.7-3,13.5-12.1h0l3.8,10.1h0Z"/>
  <path class="st50" d="M591.1,182.1c-24.5,28.8-54.8,50.8-86.1,71.3-3.7,2.4-7.4,3.6-11.5,1.3,3.8-7.2,13.2-9.1,16.4-16.8l12.9-9.6c16.4-6.2,29.4-17.3,41.8-29.1,2-2,3.9-4,5.9-5.9l1.8-2.7c3.3-3.6,6.5-7.2,9.8-10.9l6.7.4,2.4,2.3h0s0,0,0,0Z"/>
  <path class="st76" d="M435,165.6c21,8.6,7,18.3.8,27.6-2.1,2.7-4.3,5.2-6.7,7.6-4.3-3.4-11.6-4.2-10.2-12.3,3.2-4.7.3-8-3.3-9.9-3.4-1.6-5.5-5.1-5.3-8.8-1-5.7,4.3-8.2,6.3-12.4h0l2.1-2.1h0c.6,0,1.3,0,1.9,0h0l14.4,10.4h0Z"/>
  <path class="st137" d="M447.5,381.3c0,.7,0,1.3.2,2l2,2.1v2l2,2c.1,1.4.3,2.7.4,4.1l1.7,2,2.4,4.2,1.7,2h0l2,2c.2.7.3,1.4.4,2l1.7,2,.2.2,1.9,2h0c.6.7,1.3,1.3,2,2,26.2,25.8,56.9,43.6,93.5,50.1-13.3,3.4-26.5.5-38-4.8-44.4-20.4-76.5-52.2-89.2-100.9,0-.7.2-1.5.4-2.3l6.2-2,.4,10.1,1.9,6.3h0l2,2.1v2l1.9,2.2c0,1.3.2,2.7.2,4l2.2,2.4h0c0,0,0,0,0,0Z"/>
  <path class="st105" d="M487.4,680.3c3.3-8.7,11.9-7.5,17.7-7.1,26.5,1.3,51.2-10.9,77.7-8.6,8.8.8,17.8-1.8,26.7.9-19.5,9.1-40.7,5.6-61,8.4-20.3,2.7-40.9,4.3-61.1,6.5h0s0,0,0,0Z"/>
  <path class="st143" d="M638.6,829.7c-.5,5.1-2.2,9.2-8,10.5-9.5,2.1-7.7,6.3-2.2,11.7,2.7,2.7,8.8,5.3,6.4,9-2,3.1-8-.3-11.1-2.2-16.7-10.1-22.8,6.1-32.7,12.5,0-4.8.3-9.6.2-14.4,0-3.4.9-7.3,4.2-7.3,17.3-.3,27.2-16.7,43.2-19.6h0s0,0,0,0Z"/>
  <path class="st84" d="M634.7,513.9c-10.3,3.8-10.7-9.3-18.2-10.7-2.7-.6-4.5-6-8.6-3.7-3.5,2-2.4,6.2-2.5,9.5-.3,20.4-1.7,40.7-4.4,60.9-.7,4.4-1.1,8.9-4,12.7,1-15.8,1.7-31.5,3.3-47.1,1.2-14,.8-28.1-1.3-42l8.4-8.2,27.3,28.7h0Z"/>
  <path class="st65" d="M578.6,470.8c0,9.1-4.3,12.6-13.5,12.1-14.7-.8-29.4-.6-44-1.4-5.8-.3-9.5.7-9.4,7.3-.5.2-1,.3-1.5.4-.2-.6-.3-1.3-.4-2,0-18.4,0-17.8,17.5-14.6,17.1,3.1,34.5,6.1,51.3-1.7h0,0Z"/>
  <path class="st5" d="M476.2,211.4c8.5,1.7,11.8-2.3,11.7-10.4-.3-5.4,1.7-10.8,5.5-14.7h14.7l2.4,2.1c.5,10.9-10,16-13,25l-8.5,8.2-8.2-1.8c0-.7,0-1.3,0-2l-1.9-2.1-2.7-4.2h0Z"/>
  <path class="st44" d="M489.3,534.9c-.5-9.6.5-19.3-2-28.8-.7-2.7-1.5-5.5-4.9-5.8-2.7-.3-3.9,2.7-5.7,3.5-13.9,5.8-18.4,18.3-22.8,30.9l-5.9,4.1c5.5-19,17.2-35.6,33.2-47.3l3.6-2.7h0l2.4-3.8h0c5.6-1.3,4.8,1.4,4.3,5.5-1.2,7.2-.7,14.6,1.5,21.6.8,11.7,1.6,23.3,2.4,35h-3.9c0-2-.2-4-.3-6-.6-2-1.2-4.1-1.8-6.2h0c0,0,0,0,0,0Z"/>
  <path class="st72" d="M394,777.5c10.9,0,12.3,14.2,22.7,14.9-3.9,2.7-9.6,1.6-12.6,6.2l-29-10.7-14.8-6-1.7-2.5v-1.5c11.5-3.5,21.6,1.4,31.9,5.5,2.4.9,5.5,2.7,7.1-.5.5-1.1-2.3-3.7-3.5-5.5h0s0,0,0,0Z"/>
  <path class="st28" d="M673.6,158.9c-2.6,4.5,2.2,13.6-8.4,13.1.3,2,.5,4,.7,6-6.1-2.2-13.1-.5-18.8-4.3v-4l3.7-4.4h0l8.7-14h-.1c.7-.8,1.5-1.5,2.2-2.3h0c.5,0,1.1-.1,1.6-.3,8-1.1,8.9,4.9,10.5,10.2h0Z"/>
  <path class="st127" d="M588.7,873c-.3.2-.6.3-.9.6-4.9,3.5-11.6-.6-16.4,3.7,5.5,3.8,11.9,1.7,17.8,2.9,16.4,3.3,33.1-1.5,49.3,3.3l-8.2.4c-28.3-1-56.5-1.8-84.8-3.2-3.7-.2-12.2,2.5-8.2-7.3l51.3-.3h0s0,0,0,0Z"/>
  <path class="st29" d="M688,800.1c4-9.2,4.4-17.7-1.2-26.9-2.7-4.6-4.8-8.2-10.1-8.7-4.8-.6-9.6-.9-14.4-1-20.7-.2-21.1.3-17.9,21.1-7.1-5.5-7.7-13.4-5.7-20.5,1.8-6.3,9.5-3.7,14.6-4.3,8.2-.9,16.7-2.3,24.5-.8,9.3,1.8,17.3,6.8,16.4,18.8-.5,6.8,0,13.7.1,20.5l-6,2.3-.5-.5h0c0,0,0,0,0,0Z"/>
  <path class="st19" d="M441.6,895.8c-7,1.8-14.2,2.5-21.4,2.3-5.8,0-11.2,1.1-12,8.4-9.6,6.1-14.6,18.5-27.3,20.4,6.1-8.2,12-16.4,18.3-24.3,8.2-10.5,33.1-14.4,42.4-6.8h0Z"/>
  <path class="st97" d="M564.4,199c-12.5,11.8-25.5,22.9-41.8,29.1-.3-2-4.2-3,.4-6.2,11.7-8.2,22.3-17.8,33.6-26.6,2.5-2,5-6.2,8.3-4.6,1.8.9-2.9,5.2-.5,8.3h0Z"/>
  <path class="st60" d="M777.5,337.6c.2-.3.3-.6.6-.8,5-2.9,2.1-14.3,6.7-12.1,6.5,3.1,5.5,12.8,4.3,20.3-.3,1.6-.9,3.3-1.5,4.8-2.7,4.6-8.2,4.2-12.1,6.3h0l-2.2-1.9-6.2-.2c3.9-5.1.3-15.1,10.3-16.5h0Z"/>
  <path class="st74" d="M590.7,441.4c18.9-12.6,35.1-28.8,47.9-47.6,5.5,3.6-.4,7.3.2,10.9-8.7,14.9-22,25-35.7,34.6-2.6,0-4.9,1.5-6,3.8l-2,.5-4.3-2.2h0Z"/>
  <path class="st139" d="M505.6,791.8l-87.3,10.5c4.4-7.4,12.4-4.9,18.5-5.9,24.9-4.3,50-7.2,75-10.7l-6.3,6h0Z"/>
  <path class="st88" d="M425.2,768.7l-15.1-23.6c.9-2,2.1-3.8,4.6-2.7,10.3,4,23.9,36.1,19.1,45.9-3.2,6.4-9.6,3.6-14.9,4,0-.7,0-1.4,0-2h-.1c14.2-4.5,15.4-8.5,6.4-21.5h0s0,0,0,0Z"/>
  <path class="st61" d="M485,181.8l-2-3.7-.2-2.3,2.1-2.1h0l-2.1,2.1h-2.1c-10.4-1.7-10.4-8.6-8.2-16.6h-.1c2-.6,3.3-1.6,2.3-4,3-4.2,7.4-7.2,12.4-8.4h0c-1.1,4.7-3.5,9-7,12.4-1.6,1.9-5.5,3.8-2.9,6.7,1.5,1.7,4.9,2,7.5,2.3,1.6.2,3.5-1.6,4.9-1.2,5.5,1.4,9.1-4.1,14.2-3.6-5.8,4.4-5.6,14.3-14.5,16.1-.8.2-1.5,1.4-2.2,2.1v1.2l-2.2-.8h0Z"/>
  <path class="st128" d="M356.6,864.4c5.7-8.8-.5-20.1,5.8-28.8.2,3.5-.6,7.3,2.3,10.2v6.4c1.3,2.3.7,7.5,5.9,4,0,1.7-.3,3.4-.6,5.1-3.2,12,1.7,18,14.5,18.1h23.6c-16.4,2.7-32.5,4.5-48.3-1.9l.2.2-1.6-2.5c-.4-.4-.5-1-.5-1.5l-2.2-4.5h0c0-1.3.2-2.8.3-4.3l.5-.2h0,0Z"/>
  <path class="st70" d="M537.2,873.3c-3.9,9.8,4.7,7.1,8.2,7.3,28.2,1.4,56.5,2.2,84.8,3.2v1.4c-12.9,1-25.9-1.6-38.7,1.8l-3.7.9-40.3-2.5-14.7-2.4h.3l-6.6-2.1c4.7-1,5.6-7.2,10.8-7.5h0Z"/>
  <path class="st41" d="M360,877.5c15.9,6.5,32.1,4.7,48.3,1.9l16.4-.3,15.4,2.5c-23.5,5.7-47.2,4.5-70.9,3.7-4.6.4-8.7-3-9.1-7.7v-.3h0s0,0,0,0Z"/>
  <path class="st104" d="M646.5,790.2c4.6,13.4,15.5,11.9,26.2,11l15.3-1.1.6.5c-2.3,1.2-3.1,4-1.9,6.3,0,0,0,0,0,0-5.5,5.3-12.5,2.3-18.8,3.4-4.3-.9-8.7-1.7-13-2.7-4.8-1.3-11-1.5-8.4-9.4v-8h0Z"/>
  <path class="st6" d="M638.7,404.7c-.5-3.6,5.5-7.4-.2-10.9v-2.2l1.9-2h0c6.7,1.3,4.8-2.9,4.1-6.4,0-.6,0-1.2.1-1.8l2-2.2c4.9-7.8,9.8-15.5,11.7-24.8.3-3.9,2.9-7.2,6.5-8.5-.5,4.1-1.1,8.2-1.7,12.4h0l-1.9,2.2c-5.5,15.7-9.8,32.1-22.7,44.1h0s0,0,0,0Z"/>
  <path class="st58" d="M619.9,823.3c6.7-3.2,8.8-8.5,8.5-15.8-.6-13,1.4-26.4-6.5-38.2,5.3,1.7,8.9,6.7,8.9,12.3.8,9.9,3.1,19.6,4.2,29.5,1.4,11.5-4.9,14.5-15.1,12.3h0s0,0,0,0Z"/>
  <path class="st48" d="M379.3,748.3c12.9,5.1,26.2,9.5,35.5,20.9.8,4.2,7.9,6.1,4.2,11.9l-16.8-16-2-2.1h0c-7.1-5.7-15.1-1-22.6-1.8,4.3-3.3,4.4-3.5.7-5.8-3-1.9-1.2-4.3-1.2-6.5l2.4-.6h0Z"/>
  <path class="st59" d="M647.1,173.7c5.7,3.7,12.7,2.1,18.8,4.3,2.2,3.1,5.1,6.6,2,10-2.7,3-5.5,0-7.9-1.9-3.3-2.7-3.8-2.6-3,2,1,5.7-.8,9.6-7.8,6.5l1.9-2c.6-1.3,1.2-2.7,1.8-4-2.5-3.6-1.4-15.8-10.2-4.3-.7,0-1.4-.1-2-.3l-1.9-2c0-.6,0-1.3,0-1.9l1.8-2.2h0l2.1-2,2-2.2h2.4c0,0,0,0,0,0h0Z"/>
  <path class="st52" d="M665.5,279.5c-1-7.4-12.1-4.5-12.5-12.3,12.4-1.4,19.1,4.1,19.1,16.6-.3,14.7-1.3,29.4-2,44.2-2.1-16.1-2.9-32.3-2.4-48.5.6-1,1.2-2,1.7-3l-.8-.5-.9,3.6h-2.2,0,0Z"/>
  <path class="st117" d="M304.2,348.4c-.3-.6-.6-1.2-.9-1.9-2.5-7.7,0-14.7,2.7-21.8,6.1,5.9,14.9,6.5,21.3,11.5,2.9,2.2.3,3.3-2,3.4-3,0-5.5.8-6.3,4.1-7.6-7.2-12.1-4.1-14.9,4.7h0s0,0,0,0Z"/>
  <path class="st14" d="M394,777.5c1.3,1.8,4,4.5,3.5,5.5-1.6,3.2-4.7,1.3-7.1.5-10.3-4-20.4-8.9-31.9-5.5.6-2.7,14-4.2.4-9-3.2-1.2,3.7-5.3,7.8-5.9-2.5,6.1,2,6.7,6,7.9,7.1,2.1,14.2,4.4,21.3,6.5h0Z"/>
  <path class="st109" d="M416.5,644.7l4.1.3c-2.2,2.2-4.3,4.4-6.5,6.6l-5.7-11.3-4.3-12.1c-.6-4.2-1.3-8.4-1.9-12.6h0l3.2-7.4c.5.7.8,1.3,1.2,2,2.3,6.2,7.3,11.1,7.9,18,1.4,5.5-1.7,11.5,2.1,16.6h0s0,0,0,0Z"/>
  <path class="st128" d="M453.8,617.7c5.6,19.9,7,20.8,27.7,21.1,10.9.1,21.8-1.8,32.6,1.6-17.5-.5-35.1,2.5-52.6-1.4-2.3-.5-5,1.2-7.5,1.8,2.1-13.4-10.7-5.5-14.7-10.3,5.9,0,8.4-4,10.5-8.6l2.3-3.8,1.8-.3h0s0,0,0,0Z"/>
  <path class="st129" d="M491.4,547.1h3.9l2.2,10.4c.9,7.2,3,14.2,6.1,20.8h0l1.7,2.6c1.1,5.5-.9,11.7,4.1,16.2-8.8-3.1-10.4-11.7-12.5-18.7-3.1-9.9-3.8-20.7-5.5-31.2h0s0,0,0,0Z"/>
  <path class="st6" d="M665.5,279.5h2.1c-.5,16.2.3,32.4,2.4,48.5-.3,3.8-.5,7.5-.8,11.3-2.2.7-3.8,2.5-4.2,4.8-2.8-3.5-3.8-8.2-2.7-12.6,3.4-17.2,3.5-34.6,3.2-52h0Z"/>
  <path class="st19" d="M573.9,829.5c-10.4-10.9-4.4-24.5-5.9-37-.3-4.1-.5-8.1-.4-12.2l4.7-.6,1.7,49.8h0Z"/>
  <path class="st89" d="M576.4,682.3c-7.9,12.3-21.4,13.7-35.2,3.7l35.2-3.7Z"/>
  <path class="st31" d="M733.9,800.8c-7.4-2.5-15.1-2.2-22.8-2.5v-6.1c11.5-5,22.7-5.1,33.4,1.9-2.8,3.2-6.5,5.5-10.7,6.7h0ZM727.4,795.9l2-1.3c-.5-.7-1.1-1.3-1.8-1.8-.3-.2-1.1.6-1.6.9l1.4,2.2h0Z"/>
  <path class="st23" d="M572.2,779.6l-4.7.6c-21.4-.1-41.6,6.1-61.9,11.5l6.3-6c17.5-2.9,34.2-9.8,52.3-9.5,3.2,0,7.2-2.2,8,3.4h0Z"/>
  <path class="st47" d="M777.5,337.6c-10,1.5-6.4,11.4-10.3,16.6-4.8-.9-13.7,2.2-12.9-4.4.5-4.2,3.8-15.9,15.1-12.4,2.7.4,5.4.5,8.1.1h0Z"/>
  <path class="st42" d="M410.2,152.9c4.3-9.3,12.6-15.3,19.5-22.4.8-.8,2.2-1,3.4-1.4-.3,1.2-.7,2.4-1.3,3.5-4.3,5.9-10,11.8-.8,18.3-4.1-1.5-8.6.4-10.5,4.4h-1.9l-2.1,1.7h0l-6.3-4.1h0Z"/>
  <path class="st75" d="M622,769.3c-2.1-2.4-5.7-2.8-8.2-.8-10.3,6.1-21.8,7.4-33.4,7.1-.3-4.1,2.3-4.9,5.7-5.5,9.3-1.8,18.7-3.8,27.9-6.1,5-1.3,8.2-.9,8,5.2h0Z"/>
  <path class="st139" d="M493.4,281.3l-12.6-3.5c0-.6-.2-1.2-.3-1.8l.6-.6c6-1.7,11.9-.6,17.9,0,3.4.4,7.7,2,8.6-3.7,3.5,2,8.7,4.5,5.7,8.9-4.7,6.7-11.9,3.5-18.2,1.5l4.7-.8c-.5-.6-1-1.7-1.6-1.7-1.8-.2-4.7-2.6-4.8,1.9h0Z"/>
  <path class="st4" d="M451.7,184.2l4.2,8.2c-2.2.9-3.2,2.2-1.8,4.5,0,3.4-2.4,6.8-.2,10.2v2l-12.6,12.3h0c-3.5-9,2.4-15.4,5.7-22.8,1.9-4.7,3.4-9.4,4.6-14.4h0Z"/>
  <path class="st70" d="M640.5,215.5c-3.5,4.8-6.1,7.7-10.7,0-4.9-8-12.6-14.2-16.4-23.1,11.2-6.1,10.3,5.8,14.7,9.8,1.1,4.9,2.1,10,8.5,10.9l3.8,2.4h0Z"/>
  <path class="st56" d="M673.8,819c-1.8,12.3,11.7,10.3,15.9,17,1.5,2.3,7.4,2.4,5.2,5.9-1.9,3-5.3-.9-7.9-2.2-7.8-4-15.7-8.2-23.5-12.2,2.3-4.3,4.8-8.2,10.4-8.5h0Z"/>
  <path class="st77" d="M652.8,614c1.9,5.6,8.3,10.4,1.8,17.4-2.4,2.7,1.7,2.4,3.3,2.7,3.9.8,7.9,1.5,11.8,2.2l-23.1-.2c.5-5.5.9-11.1-2.2-16.2,2.1-2.9,4-6.1,8.3-6h0s0,0,0,0Z"/>
  <path class="st78" d="M692.7,622c0,2-.3,4-.4,6l-1.7,4.3c-1,6.9-4.7,13.5-2,20.7l-13,1.8c9.8-3.7,8.5-12.9,10.3-20.6.3-4.4.4-8.7.9-13.1.2-1.8.6-4.7,3.2-3.9,1.3.3,1.9,3.1,2.8,4.7h0Z"/>
  <path class="st113" d="M522.3,688.6c26.4,33.1,53.9,16.5,69.7,6-16.1,29-70.1,24.3-69.7-6h0Z"/>
  <path class="st52" d="M503.4,547.5c-5.7-14.1-6.9-27.8,4.3-40l2.4,6.6c-8.5,9.7-4.3,21.7-5.5,32.7-.5.3-.8.4-1.2.7h0s0,0,0,0Z"/>
  <path class="st79" d="M412.1,338.2c3.3,5.2,6.5,10.5,11.9,13.8,4.6,2.7,2,6.3.2,8.6-2.7,3.7-4.8-.2-6.3-1.8-3.6-4-6.7-8.5-10.1-12.8l4.3-7.9h0Z"/>
  <path class="st43" d="M528.6,566c-5.5-6.3-14.4-5.7-20.7-10.4-.6-1.5-1.3-3-1.8-4.5l8,.5,16.8,3.9c-.3,4.3,6,7.5,1.8,12.4h-1.7l-2.5-1.8h0s0,0,0,0Z"/>
  <path class="st96" d="M509.7,237.8c-3.3,7.7-12.6,9.6-16.4,16.8h0l-1.9,2.2c0,.7,0,1.3,0,2l2,2.1,6.3,4c-6.5-.5-15.8-.8-17.1-5.9-1.5-5.7,7.4-9.4,12.5-13,4.7-3,9.6-5.8,14.7-8.2h0Z"/>
  <path class="st37" d="M418.8,188.4c-1.4,8.2,6,8.9,10.2,12.3-13.8.3-16.6,14-25,20.8h0c2.4-12.1,8.5-22.6,14.8-33Z"/>
  <path class="st139" d="M685.8,634.4c-1.7,7.7-.5,16.9-10.3,20.6-.7-5.3-1.3-10.6-2-16,4-1.6,3.5-5.5,4.3-8.7,4-1.4,4.9,3.3,7.9,4h0s0,0,0,0Z"/>
  <path class="st59" d="M607.4,485.3l-8.4,8.2c-3.7-6.5-7.5-13-7.9-20.8l8.2-3.7c-3.7,8.5,7,10,8.2,16.4h0Z"/>
  <path class="st26" d="M420.6,155.3c1.8-4,6.4-5.9,10.5-4.4,12.1,2,9.6,7.9,3.9,14.6l-14.4-10.2h0Z"/>
  <path class="st101" d="M497.4,213.1c3-9.1,13.5-14.2,13-25,6.5,3,5.2,8.2,3.1,13-3,6.8-6.8,13.3-16.2,12.1h0s0,0,0,0Z"/>
  <path class="st113" d="M495.4,885.3c-5.1,7-17.3,3.8-20.2,14.1l-1,1-7.5-1c2.7-18.4,18.5-10.7,28.7-14.2h0Z"/>
  <path class="st121" d="M580.7,808.6c1.1,15.3,7.8,25.1,24.5,24.9-4.3,3.5-9.8,3.3-14.6,3.4-6.4.2-11.9-2.1-10.6-10.9.6-5.8.8-11.6.7-17.4h0Z"/>
  <path class="st21" d="M673.6,158.9c-1.6-5.3-2.5-11.3-10.4-10.2,2.4-5.4-3.6-10.9.2-16.1v-.2l2.1,2.2h-.1c.5,2.6,2.1,4.7,4.5,5.9.3,6.3,16.3,9.4,3.7,18.5h0s0,0,0,0Z"/>
  <path class="st93" d="M321.2,345.9c3.3,0,5.9,2.7,5.8,5.9,0,.7-.1,1.4-.4,2.1-1.2,4.8-4.7,2.3-7.5,1.6-2-.5-4.1-1.1-5,1.7s4.4,5.9,0,8.9c-1.9-3.9-3.8-7.8-5.5-11.7-.2-.7-.2-1.4-.1-2,4.9-.6,10.5-.2,12.6-6.4h0Z"/>
  <path class="st133" d="M682.3,342.1l-8.5,14.1c-9.4-3.6-1.7-9.3-1.7-14,3.9-1.5,4.4-5.5,6.3-8.4,2.7,1.9,4.2,5,4,8.3h0Z"/>
  <path class="st112" d="M663.4,132.5c-3.8,5.4,2.3,10.9-.2,16.1-.5.2-1.1.3-1.6.3-2.2-2.9-4.7-5.7-6.7-8.8s-4.6-6.8-1.2-10,6.8-.2,9.6,2.4h0Z"/>
  <path class="st26" d="M410.2,152.9l6.3,4.1c-2.1,4.2-7.3,6.7-6.3,12.4-1.6,0-3.2.2-4.7.8-2.7,1.8-3.5,5.9-7.4,6.7,1-3.4,2.3-6.8,3.8-10.1,2.5-4.7,5.6-9.3,8.4-13.9h0Z"/>
  <path class="st105" d="M321.2,345.9c-2.2,6.2-7.7,5.8-12.6,6.4h0l-4-2.4c-.2-.5-.4-1-.4-1.5,2.7-8.8,7.3-11.9,15-4.6.6.7,1.3,1.5,2,2.1h0Z"/>
  <path class="st33" d="M350.3,806.8l10.5-10.4c2.6,3.7,6.1,6.6,10.2,8.4-4.9,2.3-9.3,5.7-12.6,9.9-1.2-2.1-2.5-4.1-3.7-6.2l-4.3-1.8h0Z"/>
  <path class="st54" d="M611.6,663.5c7.4-12.2,20.1-3.5,29.5-7.5,1.9-.8,5.9,2.9,5.5-2.7,2.2,0,4.6.1,4.6,2.7,0,3.5-3.2,2.7-5.5,3.1-11.3,1.4-23.1,0-34.1,4.3h0s0,0,0,0Z"/>
  <path class="st90" d="M682.3,342.1c0-3.2-1.4-6.3-4-8.2.5-1.3,1-2.5,1.6-3.8,3.2-6.5,3.1-14.5,8.9-19.8-1.1,7.4-2,14.8-3.3,22.1-.8,3.3-1.9,6.5-3.2,9.6h0c0,0,0,0,0,0Z"/>
  <path class="st110" d="M775.6,356.2c4-2.1,9.4-1.7,12.1-6.3,0,.7,0,1.4,0,2,1.5,8.4-5,12.8-9.3,18.3-.9-4.7-1.9-9.4-2.9-14h0Z"/>
  <path class="st100" d="M408.5,640.3l5.7,11.3c-2.5,4.6.7,11.2-5.2,14.7l-1-.9c-3.9-8.5-2.4-16.8.5-25.1h0Z"/>
  <path class="st79" d="M429.1,325.3c.6,9,1.3,17.9,1.9,26.9-3.9-5.6-6.8-11.9-8.5-18.5,2.1-4.2,4.2-8.5,6.4-12.7l.2,4.3h0s0,0,0,0Z"/>
  <path class="st18" d="M646.5,798c-2.7,8,3.7,8.2,8.4,9.4,4.3,1.2,8.7,1.9,13,2.7-4.5,1.4-9.1,2.7-13.7,4.1-8.2,2.7-6.5-5.9-9.9-8.7-3.4-2.8-2.2-5.9,2.1-7.5h0Z"/>
  <path class="st141" d="M438.9,305.2l-3.7-.6c.6-2.4,2.9-6.7.5-6.9-4-.4-1.7,4.4-2.5,6.8-.5,0-1.1,0-1.6,0l-2.2-.2v-8.4c5.2-5.9,5.7-16.7,17-16.1-1.7,2.1-6.1,2-5.1,6.4-4.9,4.5-1.2,9.9-1.6,14.8v.8l-.7,3.5h0s0,0,0,0Z"/>
  <path class="st102" d="M503.8,578.4c-3.1-6.6-5.2-13.6-6.1-20.8l6.4,2.3,8.2,22.6c-3-1.1-4.3-5.9-8.5-4.1h0Z"/>
  <path class="st8" d="M688.6,653c-2.7-7.2,1.1-13.8,2-20.7h1.7c.8,2.7,1.5,5.6,2.3,8.4.6,5.5,4.3,1.9,6.6,2.3l-6.5,11.9-6.1-1.9h0Z"/>
  <path class="st62" d="M742.3,267.1c5.8,6.6,14.6,10.3,18.6,18.7-10.1-2.4-19.7-5.2-18.6-18.7Z"/>
  <path class="st122" d="M375.1,787.9l29,10.7c-12.2,3.4-21.8-.5-29-10.7Z"/>
  <path class="st129" d="M516.6,630.1c-3.1-7.2-6.1-14.5-9.2-21.7-1.5-2.4-.8-5.5,1.5-7,.4-.2.8-.4,1.2-.5,4,9.4,8,18.7,6.5,29.2h0Z"/>
  <path class="st52" d="M590.7,441.4l4.3,2.3c-5.9,7.4-15.8,8.7-22.6,14.5l-2.2-4,20.5-12.8h0Z"/>
  <path class="st10" d="M672,342.2c0,4.7-7.7,10.4,1.7,14-3,3.2-6.3,4.6-10.4,2.1.6-4.1,1.1-8.2,1.7-12.4.2-.6.2-1.2,0-1.8.4-2.3,2-4.1,4.2-4.8l2.8,3h0Z"/>
  <path class="st12" d="M446.2,279.8c-11.3-.5-11.7,10.3-17,16.1-1.2-19.1,14.5-19.1,26.4-23.4l.5,3.2-.2-.4-2.2,2.2h0l-6.4,2.1c-.4.2-.8.2-1.3.2h0Z"/>
  <path class="st86" d="M597.6,171.2l-2.7,4.5-6.2,4.2h0l-6.7-.4c2-2.7,3.8-5.5,5.5-8.4,3.7-7.9,6.8-6.8,10.2.1h0,0Z"/>
  <path class="st112" d="M659.5,151.2l-8.7,14c-.3-1.7-.5-3.3-.8-5-.9-4.4-1.9-8.9-2.7-13.3l12.2,4.3h0Z"/>
  <path class="st131" d="M452,412.2c-4.7,3.1-7.5,9.3-14.3,8.9,3.1-5.5.6-19.9,14.3-8.9Z"/>
  <path class="st71" d="M433.2,674c-4.9.9-9.8,1.6-14.8,1.9-5.7,0-7.3,3.7-8.4,8.2h-1.6c-2-19.3,12.5-10.1,20.7-12l4.1,1.9h0Z"/>
  <path class="st141" d="M456.2,275.8l-.5-3.2c4.3-3.9,9.5-3.8,14.8-3.4,1.3,2.2,2.7,4.3,3.9,6.5h-18.1c0,.1,0,0,0,0h0Z"/>
  <path class="st60" d="M480.7,219.5l8.2,1.8c-2.7,2.4-5.2,5.1-8,7.4-1.7,1.4-4,3.8-6.1,1.8-2.7-2.7,1.2-4.5,1.9-6.8l3.9-4.1h0Z"/>
  <path class="st11" d="M681.8,665.7c-2.9-1.1-8.5,1.7-8.5-2.4,0-3.3,5.7-1.5,8.9-1.7,3.2-.2,8.2-.8,7.9,2-.5,4.7-5.5.8-8.4,2.1h0Z"/>
  <path class="st17" d="M412.1,338.2l-4.3,7.9c-1-1.4-1.9-2.8-2.7-4.3-1.5-3.3-4.3-7.8,0-9.9,5.1-2.5,5.1,3.6,7,6.3h0Z"/>
  <path class="st44" d="M592.7,283.3c-3.3,3-7.4,5.3-10.4.6-3.7-5.6,0-9.5,5-12.3,3,3.4-4.1,11.4,5.5,11.7h0s0,0,0,0Z"/>
  <path class="st142" d="M497.4,906.3l4.2.3,7.9,3.6.5.5-27.1-.3c0-1.3,0-2.6-.1-3.9l14.7-.2h0Z"/>
  <path class="st117" d="M370.1,822.6l6.9-9.8c2.7,5.8,5.5,0,8.4,0l-10.1,16.8-1-1.2c.1-2.4.5-4.9-3.1-5l-1-.8Z"/>
  <path class="st134" d="M510,514.2l-2.4-6.6,2.5-18.2c.5-.1,1-.3,1.5-.4l.6.7c-1.1,8.2,1.3,16.6-2.2,24.6h0,0Z"/>
  <path class="st124" d="M642.7,184.4c8.8-11.6,7.7.6,10.2,4.3-4.5,1.2-8.3.7-10.2-4.3Z"/>
  <path class="st56" d="M460,908.4c-4.8-3.4-12.5-2.9-14.6-10.2,9-2.5,10.9,5.2,14.6,10.2Z"/>
  <path class="st64" d="M482.9,910.3l27.1.3v1.7l-38-.3c.3-.5.6-1,.8-1.5l10-.3h0Z"/>
  <path class="st14" d="M428.8,321c-2.1,4.2-4.3,8.5-6.4,12.7.8-5.5-9.9-15.8,6.2-14.8v2.1h.1,0Z"/>
  <path class="st66" d="M287.7,296.5l8.5-2.4c.5.8.9,2.3,1.6,2.5,4,1.1,8.2,2,12.2,2.9-6,1.5-12.2,1.4-18.1-.3-1.5-.7-2.9-1.6-4.2-2.7h0Z"/>
  <path class="st70" d="M644.8,233.8c-1.5-4.3-9.9-6.1-4.9-12.9l1.3,1.2c1.3,1.7,1.1-.3,1.5-.6h-.1c10.4,2.5,1.7,8.3,2.2,12.4h0s0,0,0,0Z"/>
  <path class="st88" d="M344.2,755.1c-.4,3.6-.7,7.3-1.2,10.9,0,0-2.1.1-2.3-.3-1.7-3.7-2-7.9-.8-11.8.4-1.3.9-2.5,1.6-3.7l2.6,4.8h0Z"/>
  <path class="st122" d="M508,186.1h-14.7l-1.9-2.4c6-2.5,12.2-7,16.6,2.4h0Z"/>
  <path class="st114" d="M495.8,649.6l-.2-3.1c2-.4,4-.5,6.1-.3,4.6,1.5,9.8-1.6,14,2.1-5.1,1.8-10.5,2.4-15.8,1.7-1.5,0-2.7-.3-4.1-.5h0s0,0,0,0Z"/>
  <path class="st12" d="M428.8,321v-2.1c.1-4.8.3-9.6.5-14.4l2.2.2c3.8,7.5,0,14-2.5,20.7-.1-1.5-.2-2.9-.2-4.3h0s0,0,0,0Z"/>
  <path class="st145" d="M578.3,553.7c3.5,1.3,7-3.8,10.5,0-1.8,1.6-3.5,3.3-2.2,6l-4.4,1.6c-1.3-3.5-4.5-4-7.5-5l-.9-1.2,4.4-1.5h0s0,0,0,0Z"/>
  <path class="st112" d="M650.8,165.3l-3.8,4.4h-2.3c-2.6-1.9-4.1-5-4.1-8.2h0l10.1,3.8h0s0,0,0,0Z"/>
  <path class="st11" d="M408.5,684h1.6l-.8,22.2c-.3-7.4-.5-14.8-.8-22.2Z"/>
  <path class="st112" d="M644.7,173.7l-2,2.2-2.1,2h-2.1c-2.2-2-5.1-3.6-4.1-7.4l10.3,3.2h0s0,0,0,0Z"/>
  <path class="st142" d="M466.6,899.6l7.5,1,6.8,3.4v2.2c-5.6-.5-11.7.3-14.3-6.6h0Z"/>
  <path class="st127" d="M526.3,881.1l6.6,2.1h-25.5c6-3.1,12.7-1.2,18.9-2.1Z"/>
  <path class="st1" d="M480.7,219.5l-3.9,4.1c.7-4.4-7.2-7-2.5-12.2.6,0,1.2,0,1.8,0l2.5,4c.6.7,1.3,1.4,1.9,2.1,0,.6.1,1.3.1,1.9h0s0,0,0,0Z"/>
  <path class="st1" d="M455.9,206.8c4.6-5.4,5.7,1.1,8.4,2.4-4.8,6.1-6.1.1-8.4-2.4Z"/>
  <path class="st137" d="M570.2,454.2l2.2,4c-3.3,4-8.9,1.3-12.6,4.3,1.7-4.9,6.2-6.4,10.3-8.2h0Z"/>
  <path class="st25" d="M592.9,518.2c-4.4-1.4-7.1-6-6.1-10.5,3.3,2.8,7.5,5,6.1,10.5Z"/>
  <path class="st12" d="M636.7,213.2c-6.4-.8-7.4-5.9-8.5-10.9,3.6,3.1,7.7,5.6,8.5,10.9Z"/>
  <path class="st123" d="M686.7,807c-1.3-2.2-.5-5.1,1.8-6.3,0,0,0,0,0,0l6-2.3c.1,5.4-5,6.1-7.9,8.7h0s0,0,0,0Z"/>
  <path class="st128" d="M349.9,850.3c4.3,3.7,4.9,9.3,6.7,14.2l-.4.3h-1.7l-4.6-14.5h0Z"/>
  <path class="st95" d="M433.2,674l-4.1-2c1.3-.3,2.6-.5,4-.5,2.7.4,7.2-3.3,7.7.7.4,3.1-4.9,1.3-7.6,1.8h0Z"/>
  <path class="st118" d="M480.8,906.2v-2.2c5.5-.5,11.1.3,16.4,2.3l-14.7.2c-.4,0-1,0-1.7-.2h0,0Z"/>
  <path class="st1" d="M466.3,208.5c3.4-1.1,5.5,1.3,7.9,2.7-3.1.4-7.6,4.7-7.9-2.7Z"/>
  <path class="st139" d="M474.4,275.7c-1.3-2.2-2.6-4.3-3.9-6.5,4.8-.4,7.9,2.4,10.5,5.9l-.6.6-5.9-.3h-.1c0,.1,0,.2,0,.2h0Z"/>
  <path class="st73" d="M613.6,829.4c1.7-2.5,2.7-5.7,6.4-6-.3,3.9-1.4,7.1-6.4,6Z"/>
  <path class="st65" d="M582.4,480.9l-3.8-10.1c8,.8,1.5,7.1,3.8,10.1Z"/>
  <path class="st59" d="M665.9,647.3c-5,.5-6.1,1-6.7.6s-.6-1.5-.9-2.3c.6-.2,1.2-.3,1.9-.4,2,.6,3.9,1.3,5.7,2.1h0s0,0,0,0Z"/>
  <path class="st52" d="M514,551.5l-8-.5c-.3-.4-.5-.9-.6-1.3l.8-1.3c3-.4,6.1-.4,7.8,3.1h0Z"/>
  <path class="st88" d="M348,746.7c-3.1,2-1.8,5.2-2.1,7.9-.5.2-1.1.4-1.7.5,1-2.9-3.7-8.4,3.8-8.4h0Z"/>
  <path class="st56" d="M663.4,827.5l-12.5-.3c4.2-1.5,8.4-3.1,12.5.3Z"/>
  <path class="st112" d="M640.7,161.3c-1.7-1.2-3.2-2.7-1.7-4.8.3-.4,1.1-.4,1.7-.7v5.6h0s0,0,0,0Z"/>
  <path class="st59" d="M590.7,460.1v8.2c-2.2-2.3-2.2-5.9,0-8.2Z"/>
  <path class="st112" d="M669.8,140.3c-2.3-1.1-4-3.3-4.5-5.9,1.5,2,3,3.9,4.5,5.9Z"/>
  <path class="st4" d="M441.4,221.4l-1.9,1.9-.7-1.6,2.7-.2h-.1c0-.1,0-.1,0-.1Z"/>
  <path class="st52" d="M597,443.1c1.1-2.3,3.5-3.8,6-3.8l-6,3.8Z"/>
  <path class="st61" d="M487.1,146.8l1-1.8.8.8-1.8.9h.1c0,.1,0,0,0,0h0Z"/>
  <path class="st142" d="M472.8,910.6c-.3.5-.5,1-.8,1.5-2.7-.2-5.8,1.3-8.2-1.2l9-.3h0Z"/>
  <path class="st70" d="M639.9,220.9c0-1.8.3-3.6.3-5.4,2.7,1.3,2.2,3.8,2.4,6.1h.1c-.5.2-1.1.4-1.5.6l-1.3-1.3h0s0,0,0,0Z"/>
  <path class="st33" d="M360.8,796.5v-6.6c1.4,2.1,2.2,4.4,0,6.6Z"/>
  <path class="st141" d="M474.7,155.3c1,2.4-.3,3.4-2.3,4l2.3-4Z"/>
  <path class="st54" d="M644.5,651.1l-2.1-3.8c1.6.4,2.6,2.1,2.2,3.7h0c0,0,0,0,0,0h0Z"/>
  <path class="st41" d="M354.5,864.7h1.7c0,1.5-.2,2.9-.3,4.4l-1.5-4.4h0Z"/>
  <path class="st41" d="M355.9,869l2.2,4.5-2.2-4.5Z"/>
  <path class="st31" d="M709.2,787.9c.6,1.5,1.2,2.9,1.8,4.3-1.7-.7-2.5-2.6-1.8-4.3Z"/>
  <path class="st93" d="M304.7,350l4,2.4-4-2.4Z"/>
  <path class="st122" d="M491.4,183.9l-4.3.3v-2.6l4.3,2.4Z"/>
  <path class="st62" d="M740.1,263.1l2.2,4-2.2-4Z"/>
  <path class="st124" d="M644.7,169.6h2.3v4h-2.3v-4Z"/>
  <path class="st52" d="M505.4,549.8l-2-2.2,1.2-.7,1.7,1.7-.8,1.3h0s0,0,0,0Z"/>
  <path class="st139" d="M671.4,636.9l2.1,1.9-2.1-1.9Z"/>
  <path class="st100" d="M406.5,668.1c0-.8-.2-1.7-.3-2.5.6,0,1.1,0,1.7-.2l1,.9-2.4,1.8h0s0,0,0,0Z"/>
  <path class="st1" d="M454,209.2v-2c.6-.2,1.3-.4,2-.3-.7.8-1.3,1.6-2,2.3Z"/>
  <path class="st117" d="M387.7,811l-2.2,2,2.2-2Z"/>
  <path class="st117" d="M389.8,809l-2.1,2,2.1-2Z"/>
  <path class="st124" d="M651.1,192.5l-1.9,2,1.9-2Z"/>
  <path class="st97" d="M572.1,190.3l-1.8,2.7,1.8-2.7Z"/>
  <path class="st124" d="M638.8,182l1.9,2-1.9-2Z"/>
  <path class="st41" d="M358.6,875.1l1.6,2.5-1.6-2.5Z"/>
  <path class="st124" d="M638.4,177.9h2.1l-1.8,2.2-.3-2.2h0Z"/>
  <path class="st62" d="M761,285.8l2.4,1.7-2.4-1.7Z"/>
  <path class="st72" d="M418.9,790.2c0,.7,0,1.4,0,2l-2.2.2,2.2-2.2Z"/>
  <path class="st79" d="M431.4,353.9c.5,0,1.1.2,1.6.5-.1.8-.3,1.5-.4,2.3-.5-.9-.8-1.8-1.3-2.7h0Z"/>
  <path class="st110" d="M773.4,354.4l2.2,1.9-2.2-1.9Z"/>
  <path class="st10" d="M661.5,360.5l1.9-2.2-1.9,2.2Z"/>
  <path class="st112" d="M661.6,148.9c-.7.8-1.5,1.5-2.2,2.3.7-.7,1.5-1.5,2.2-2.3Z"/>
  <path class="st102" d="M505.8,557.7l-1.9,2.3,1.9-2.3Z"/>
  <path class="st102" d="M505.4,581l-1.7-2.6,1.7,2.6Z"/>
  <path class="st14" d="M358.6,779.4l1.7,2.5-1.7-2.5Z"/>
  <path class="st112" d="M665.4,134.5l-2.1-2.2,2.1,2.2Z"/>
  <path class="st43" d="M507.9,555.6l-2.1,2.1,2.1-2.1Z"/>
  <path class="st64" d="M761.1,837.9c2.5-12.4-6.8-20.8-10.3-31.2,9.3-29.7,5-60.3,5.7-90.6,0-2-1.5-2.9-3.6-2.7l-.3-2.3,3.9-4.1,4.9.3c-4.5,25.8-2.4,51.7-.6,77.5v14c-.4,7.1-1.5,14.4,3.9,20.4,1.3,6.7,2.9,13.4-3.5,18.6h0Z"/>
  <path class="st20" d="M752.5,711l.3,2.3c-2.7,7.9-8.8,14.2-10.3,22.8-1.2,6.7-5.9,1.2-8.8,2h.2c5.5-19.4,11-38.8,16.6-58.2-.8,7.1-1.5,14.2-2.3,21.3l.6.6-.5.7c1.3,3,0,7.2,4.3,8.5h0ZM745.1,715.3l.8-1.3h-.8s0,.7,0,1.3h0,0Z"/>
  <path class="st61" d="M734.5,590.7l-.8,2-1.2,2.7-6.6,14.4-14.7,22.5h0l-6.3,6h0l-2,2.3v-.2c-6.1-2.7-1.7-6.4-.3-9.1,2.7-4.7,5.7-9.2,8.9-13.5,2.5-3.6,5.4-7,8.5-10.2,5.5-5,4.8-15.6,14.6-17h0Z"/>
  <path class="st2" d="M750.4,626.2c.8-1.2,1.3-2.9,2.3-3.3,3.2-1.1,1.8,1.8,1.9,2.9.3,4.5.3,8.9.4,13.4v5.2c0,6-.8,11.8-5.5,16.2-.6.7-1.6.8-2.3.3-.4-.3-.7-.8-.7-1.4-.8-6.8-4.5-14.3-.5-20.1,3.1-4.5,3.4-8.7,4.3-13.2h0Z"/>
  <path class="st91" d="M721,756.6l2.7-3.9c3.4.7,3.8-1.6,4-4.1.6-4.1,2.8-7.8,6.1-10.4h-.2c6.5,12.3-3.8,17.7-10.2,24.5.5-2.6.9-5.1-2.4-6.1h0Z"/>
  <path class="st20" d="M734.5,590.7c-9.8,1.3-9.1,11.8-14.8,16.8-3.1,3.2-6,6.5-8.5,10.2l-.3-2.4c2.2-10.3,12.7-15.9,15.1-26.2l7.5-.5,2.7.3-1.8,1.8h0s0,0,0,0Z"/>
  <path class="st85" d="M711.1,615.5l.3,2.4c-3.2,4.4-6.2,8.8-8.9,13.5-1.4,2.7-5.7,6.3.3,9.1-.5.9-1,1.7-1.5,2.7-2.3-.4-6,3.2-6.6-2.3h0l1.6-2.7c3-8.6,8.1-16.4,14.7-22.7h0Z"/>
  <path class="st64" d="M733.9,800.8c4.1-1.2,7.7-3.5,10.5-6.7,5.5,2.9,5.8,7.3,4.1,12.5l-14.6-5.8h0Z"/>
  <path class="st8" d="M711.1,632.3l14.7-22.5c-2.3,9.2-2.2,20-14.7,22.5h0Z"/>
  <path class="st49" d="M721,756.6c3.3,1,3,3.5,2.5,6.1l-3.7,2.7c-2.3-3.3-.2-6.1,1.2-8.9Z"/>
  <path class="st8" d="M704.8,638.3l6.3-6c-.2,3.3,1.2,7-2.1,9.2-.5.3-2.8-2.1-4.2-3.2h0Z"/>
  <path class="st20" d="M740.3,574.4c.8,2.2,1.5,4.3,2.2,6.5-.5,2.1-2.4,3.7-4.6,3.8l-2.2-1.5,4.5-8.7h0,0Z"/>
  <path class="st49" d="M727.8,748.6c-.2,2.5-.5,4.7-4,4.1-.2-2.1,1.4-3.9,3.5-4.1h.4Z"/>
  <path class="st130" d="M735.8,583l2.2,1.5c0,.7,0,1.3-.1,1.9l-1.5,2.5h0l-2.7-.3c0-.7,0-1.3,0-1.9.3-1.3.5-2.7.7-4,.5,0,1,0,1.5.3h0Z"/>
  <path class="st8" d="M702.9,640.6l2-2.3-2,2.3Z"/>
  <path class="st20" d="M736.3,589l1.5-2.5-1.5,2.5Z"/>
  <path class="st20" d="M732.5,595.6l1.2-2.7-1.2,2.7Z"/>
  <path class="st3" d="M343.8,800.3c-3.4,2.9.2,11.7-5.3,10.5-6.1-1.3-3-8.6-2.4-13.4.5-3.5.4-9.8,4.7-8.8,4.9,1.1.5,8,3,11.7h0Z"/>
  <path class="st38" d="M352,645v10.2c-.5,6.2-1,12.3-1.5,18.5-.3,1.3-.7,2.6-1.3,3.8-.9-.2-1.8-.5-2.5-1-4.2-4.2-.2-27.8,5.3-31.5h0Z"/>
  <path class="st27" d="M740.3,561.7c-5.7,1.9-7.2-3.3-9.6-6.1-15.1-17.7-32.7-29.2-57.3-27.3-14,1.1-15.4,3.1-11.2,16.4,3.1,9.4,10.3,18.5,5.2,29.5l-3.7-6.3c-2.3-17.3-13.4-31.9-14.5-49.5,4.7-1,9.4-2.3,14.1-.3,12.1,7.4,26.4,6.8,39.6,10.4,3.6,1,7.5.8,10.2,4,.7.2,1.3.4,1.9.6,10.7,7.5,18.3,17.7,25.1,28.5h0Z"/>
  <path class="st137" d="M733.7,586.8c0,.7,0,1.3,0,1.9l-7.5.5,14.4-27.6c2.2,3.9,2.2,8.7,0,12.7l-4.5,8.7c-.5-.1-.9-.2-1.4-.2-2.8.9-1.6,2.5-.8,4h0,0Z"/>
  <path class="st58" d="M628.3,574.4c1-5.5,5.5-7.9,9.4-10.2,9.3-5.5,10.9-12.3,5.2-21.1l4-2.1c12.3,18,8.1,25.5-18.6,33.4h0Z"/>
  <path class="st33" d="M663.9,568l3.7,6.3c-9.3,3.6-18.6,7.3-28,10.7-4,1.4-6.7,3.5-7,7.9h-1.8c-3.8-5.7.7-8.4,4.5-10.2,8.4-3.9,15.8-10.2,25.9-10,3,0,2.2-2.8,2.7-4.5h0Z"/>
  <path class="st84" d="M646.9,541l-4,2.1c-2.9-6.6-11.3-12.1-4.3-20.8,4.3,5.5,6.1,12.2,8.4,18.7h0Z"/>
  <path class="st106" d="M630.7,592.8h1.8l14.7,16.7c-8.2,2.5-9.8-8.2-16.7-8.2l-2.5-6,2.7-2.5h0,0Z"/>
  <path class="st127" d="M628.1,595.2l2.5,6h-2.4c-5.6-4.5-11.7-8.8-9.9-17.5,3.3,3.9,6.5,7.7,9.8,11.5h0Z"/>
  <path class="st58" d="M617.5,578c3.5-1.8,6.3-5.5,10.9-3.6-1.8,4.7-6,5.7-10.3,6.5l-.7-2.9h0Z"/>
  <path class="st84" d="M638.6,522.3c-2.9-1.8-4.4-5.1-4-8.5,2.5,2.1,4,5.2,4,8.5Z"/>
  <path class="st127" d="M617.5,578l.6,2.9c.3.5.3,1.1,0,1.6-1.3-1.1-1.6-3.1-.6-4.5h0Z"/>
  <path class="st0" d="M368.9,607.3l-14.8-35,2.4-2.4c5.1,1.7,2.9,7.7,6.1,10.5,3.6,6.8,7.2,13.6,10.7,20.4l-2.7,2.5-1.9,4.1.3-.2h0s0,0,0,0Z"/>
  <path class="st19" d="M362.6,580.5c-3.2-2.7-1.1-8.8-6.1-10.5,0-.7-.1-1.4-.4-2v-8.2c.2-.7.3-1.4.3-2l1.6-2.3,2.5-2c-.9,9.7,2.4,18.4,6.4,27h-4.2Z"/>
  <path class="st0" d="M356.1,559.7v8.2c-1.7-2.5-1.7-5.7,0-8.2Z"/>
  <path class="st0" d="M354.1,572.4c-.6,0-1.3,0-1.9-.3l1.9.3Z"/>
  <path class="st0" d="M357.9,555.3l-1.6,2.3-.2-2.2c.6,0,1.2,0,1.7,0h0Z"/>
  <polygon class="st130" points="574.3 76.1 574.6 76.3 574.2 76.1 574.3 76.1"/>
  <path class="st130" d="M737.7,205.5c0,6.6.1,13.1.2,19.7-2-6.4-2-13.3-.2-19.7Z"/>
  <path class="st115" d="M429.2,566c-.4-14.4,3.4-28.6,10.9-40.9.7-1.2,2.1-2.5.3-3.2-2-.6-4-.5-5.9.3-12.2,5.1-25.3,6.3-38.2,8.8l-3.3-.7c9.4-4.1,18.8-8.2,29.3-8.2,7.3-.3,13.8-5.3,21.5-3.9,5.7,7.5-2.9,13.3-2.5,20.2-3.5,9.2-7,18.4-10.5,27.5-.5,0-1.1,0-1.7,0h0,0Z"/>
  <path class="st19" d="M392.9,530.3l3.3.7c-9.5,6.7-20.3,11.7-27.3,21.5-2.5,3.5-5.3,4.2-8.5.9,9.4-9.7,17.4-21.4,32.5-23.1h0Z"/>
  <path class="st78" d="M430.8,565.9c3.5-9.1,7-18.3,10.5-27.5.9,3,1.8,6,2.7,9.1-2.9,7.1-4.9,14.2,4,18.5,10.9,5.2,21.8,9.9,32.7,14.8v3.5c-5.5.7-7.2,9.5-14.3,6.5h0c4.1-5,1-6.6-3.5-8.7-11-5.1-22.9-8-32.2-16.2h0s0,0,0,0Z"/>
  <path class="st143" d="M480.7,580.7c-10.9-4.9-22-9.7-32.7-14.8-8.9-4.3-6.9-11.4-4-18.5l4-8.5,5.9-4.1c-1.3,4.7-1.6,9.8-4,13.7-6.9,11.2,1.3,13.7,8.9,16.7,8.5,3.5,17.8,6.2,22,15.6h0Z"/>
  <path class="st16" d="M484.7,488.9l-3.6,2.7,3.6-2.7Z"/>
  <path class="st16" d="M487.2,485.1l-2.4,3.8,2.4-3.8Z"/>
  <path class="st55" d="M760.7,784.8c-1.8-25.9-4-51.8.6-77.5,4.2-1.5,4.6,1.3,4.7,4.3.5,24.8.9,49.6,1.3,74.3-.3-.6-.5-1.2-.9-1.8-2.4-4.2.5-9.5-3-13.5-4.4,4.1-1.2,9.5-2.7,14.2h0s0,0,0,0Z"/>
  <path class="st50" d="M755,835.6c1.4,1.9,3.7,2.7,6,2.2l-2.1,20.7-4.2,2.1c-1.4-5.5-2.7-11.1-4-16.7l3.7-2.2c.2-2,.4-4.1.6-6.1h0Z"/>
  <path class="st70" d="M350.3,806.8l4.3,1.8c-1.3,1.3-3.4,1.3-4.6,0h0c0-.6.2-1.3.4-1.8h0Z"/>
  <polygon class="st47" points="349.4 815.2 348.7 815.1 349 814.5 349.4 815.2"/>
  <path class="st69" d="M497.8,472.3l-1,1.4-1.8-1.5c.5-.4.9-1,1.4-1s.9.6,1.4,1h0Z"/>
  <path class="st9" d="M754.4,877.2l2.2-6.5-2.2,6.5Z"/>
  <path class="st9" d="M752.4,879.2l2.2-2.3-2.2,2.3Z"/>
  <path class="st136" d="M638.2,500c-.6,1.3-1.2,2.5-1.8,3.8.6-1.3,1.2-2.5,1.8-3.8Z"/>
  <path class="st128" d="M491.2,964.4l-1.9,2.2,1.9-2.2Z"/>
  <path class="st57" d="M630.4,910.8c-13.8-2-27.9,2.6-41.6-2.4l3.8-.3c7.1.5,14.2,1,21.2-1.4l12.2-.7h8.2c12.2,0,24.5.2,36.7.3,1.3.1,2.7.3,3.9.7-1.4.6-2.8,1-4.3,1.3-4.7.7-9.4,1.2-14.1,1.8l-26.1.7h0Z"/>
  <path class="st19" d="M630.4,910.8l26.1-.9,3,.9c-20.4,5.6-41.7,6.9-62.5,3.7,0-.5,0-1.1.2-1.6l33.3-2.1h0Z"/>
  <path class="st19" d="M702.9,914.3c-6.4-.8-13.7,2.7-18.9-3.8,6.7-.2,14.8-7.7,18.9,3.8Z"/>
  <path class="st19" d="M659,903.8c0-1.2,0-2.4.2-3.7,5.7.8,12-2.2,17.3,2-5.5,3.8-11.7,1.2-17.5,1.6h0Z"/>
  <path class="st19" d="M634.3,905.9h-8.2v-1.7h8.2v1.7Z"/>
  <path class="st83" d="M640.6,897.9h-6.2c0-.6-.2-1.3-.3-1.9l4.8-.3c.5,0,1.1,0,1.7.2v2h0Z"/>
  <path class="st19" d="M707,916.5l-2.2-2,2.2,2Z"/>
  <path class="st19" d="M709.1,918.7l-2-2.1,2,2.1Z"/>
  <path class="st19" d="M711.1,920.8l-2-2,2,2Z"/>
  <path class="st50" d="M752.8,866.7c.6-1.4,1.2-2.7,1.8-4.3l-1.8,4.3Z"/>
  <path class="st50" d="M750.6,875.1l1.9-2.3-1.9,2.3Z"/>
  <path class="st111" d="M532.8,954c4.9-9.5,12.3-13.7,23-10.7l6,2.5-.3-.2v2.2c1.4,3.5,2.7,6.9,4.1,10.3-7.6,11.9-18.5,12.6-30.9,2l-2.1-4.1c0-.7,0-1.3,0-1.9h0s0,0,0,0Z"/>
  <path class="st36" d="M532.9,956l2.1,4.1-2.1-4.1Z"/>
  <path class="st130" d="M566,945.6h-4.3l.3.2-4.1-4.6c5.3-3.1,6.5,1.1,8,4.5h0c0-.1,0-.1,0-.1h0Z"/>
  <path class="st82" d="M557.8,941.2l4.1,4.6-6-2.5,1.9-2.1Z"/>
  <path class="st82" d="M561.7,945.6h2.2l-2.1,2.1v-2.1Z"/>
  <path class="st19" d="M725.6,935.2c.6-.7,1.2-1.4,1.7-2.2-.6.7-1.2,1.4-1.7,2.2Z"/>
  <path class="st19" d="M723.9,937.5l1.7-2.3-1.7,2.3Z"/>
  <path class="st106" d="M613.9,906.7c-6.9,2.4-14,1.9-21.2,1.4.1-.5.3-1,.5-1.5l10.2-.6,10.5.7h0Z"/>
  <path class="st138" d="M591.6,887c12.8-3.4,25.8-.8,38.7-1.8l5,2.1-5.1,2.3h0c-12.7-4.1-25.8-1.1-38.7-2.7h0Z"/>
  <path class="st63" d="M639,895.7l-4.8.3-4-.3c-5.8-5.8-14.2-2.5-20.7-5.9l20.8-.2h0l8.7,6.1h0Z"/>
  <path class="st118" d="M509.6,910.1l-7.9-3.6c3,0,6.1,0,9.1.4,1.9.5,3.7,1.2,5.4,2.2-2,2.2-4.4,1-6.6,1h0Z"/>
  <path class="st94" d="M653.1,296.2c5.2,8,.6,11.7-6.2,14.7-7.6,8.2-6.8-7.3-12.5-4.4-7.3-4.1-6.1,2.3-7,6.3-1,4.5-1.7,8.6-9,9.4-5,1.1-10-2.1-11.2-7.1-.7-2,.3-6.6-4.3-2.7-1.6,8.4-4.9,9.2-10,2.2h0c-1.5-7.3-12.1,14.1-10.3-3.3,2.9-8.2,17.9-8.2,14.4-21,6,5.5,10-1.2,15-2.2,11.3-2.5,23.1-2.5,34.4,0-5.9,9.1,5.5,4.4,6.5,8h0Z"/>
  <path class="st39" d="M439.5,301.9v-.8c2.4-3,.9-7.9,5.6-9.9,9.3-3.9-1.8-3.1-1.3-5,.5-.1,1.1-.2,1.7-.3,7.8.8,15.7,3,23.3,2,16.4-2,23.8,11.7,35,18.5,4.3,2.7-.4,5.7-2.4,8.2v.2c-7.3-1.6-11-3.2-19.2,4.1-2.9,2.7-6.7,2.1-9.7,2-2.5-1.4-4.5-3.4-6-5.9-2.5-3.1-1.7-9.8-4.5-9.3-5.5,1.2-3.2,8.4-1.5,13.2.2,1.4,0,2.7-.3,4h-4.4c-.3-3.2-2.7-5.8-5.8-6.5-1.6-2.7-2-6.6-6.5-6.1h0l-2-2.1h0l-1.9-6.5h0s0,0,0,0Z"/>
  <path class="st116" d="M501.5,314.7c2-2.5,6.7-5.6,2.4-8.2-11.2-6.8-18.6-20.5-35-18.5-7.5.9-15.5-1.3-23.3-2,18.1-3.3,36.7-1.4,53.8,5.5,8.4,3.3,10.9,12.6,13,21.1-4.8,2.1-3.4,6.8-4.5,10.5-3.2-1.9-.7-8.2-6.3-8.3h0Z"/>
  <path class="st63" d="M545.3,375.4c-.2,1.9.3,3.5,2.7,3.6,3.9.2,8.9-1.5,9.5,4.8s-3.8,9.2-8.4,11.9c-4.9,2.9-11.2,2.2-15.3-1.8-3.9-3.3-3.7-8.2-1.3-12.3s5.8-8.5,8.8-12.7c.2,2.9.1,6,4,6.5h0s0,0,0,0ZM543.1,389.5c1.8.1,3.4-1.3,3.5-3.1,0-.3,0-.5,0-.8-.3-3.3-2.7-4.5-5.6-4.6-2,0-4.4.4-3.5,3.3.6,2.7,2.8,4.8,5.6,5.2h0Z"/>
  <path class="st65" d="M472.6,321c5.6.7,11.2-2,14-6.9,2.1-3.8,7.6-.8,15.1.8-2.5,1.7-4.7,3.7-6.8,5.9-13.8,18.1-30.2,18.4-45.3.6l.8-1.3,5.6,3.1h0c4.3,7.8,11.5,8.9,19.4,8.4,2.7-.2,5.5-1.2,1.5-4.2,4.4-7.5-4.7-2.7-5.2-5.8.3-.2.7-.4,1-.6h0s0,0,0,0Z"/>
  <path class="st98" d="M600.2,327c8.2-1.5,16.1,2.5,24.4.4,11.9-3,15.6-10.2,10-21,5.7-2.7,4.8,12.6,12.5,4.4-3.3,20.3-27.9,28.8-46.8,16.2h0Z"/>
  <path class="st128" d="M582.9,311.2c-1.8,17.4,8.9-4,10.3,3.3-4.5,1.8-8.2,10.5-13.4,3.9-5.1-6-5-14.8.3-20.7,3.5-4.3,8.9-4.7,13.2-7.4-3.6,6.9-9.2,12.8-10.4,20.9h0s0,0,0,0Z"/>
  <path class="st131" d="M531,412.6c7.1,0,14.2-.3,21.4,0,3.5.1,9.7-1.2,10,2,.4,3.7-6.3,1.3-9,3.7-6.3.7-12.7,1.9-18.8-.5-2.1-.8-7.8.2-3.6-5.2Z"/>
  <path class="st121" d="M582.9,311.2c1.3-8,6.8-14,10.4-20.9h4.1c3.4,12.6-11.5,12.6-14.4,20.9h0Z"/>
  <path class="st84" d="M546.2,424.9c2.7.5,6.7,0,6.7,3.1,0,4.3-4.6,2.9-7.3,3s-6.5,1-6.1-3.1c.3-3.3,4.2-2.6,6.8-3h0,0Z"/>
  <path class="st84" d="M531,412.6c-4.1,5.3,1.5,4.4,3.6,5.2,6.2,2.5,12.5,1.3,18.8.5-8.7,6.6-17.7,2.5-26.4,0-1.2-.4-3.1-2.5-2.7-3.5.8-3.6,4-2.5,6.7-2.3h0Z"/>
  <path class="st13" d="M653.1,296.2c-1-3.6-12.4,1.1-6.5-8.2,3.7-.3,7.9-.6,10,2.7,1.5,2.5-2.2,3.6-3.5,5.5h0Z"/>
  <path class="st12" d="M443.9,286.1c-.5,2,10.5,1.2,1.3,5-4.7,2-3.2,7-5.6,9.9.4-5-3.3-10.4,1.6-14.8h2.7c0-.1,0-.1,0-.1Z"/>
  <path class="st18" d="M507.8,323.1c1.2-3.6-.3-8.4,4.5-10.5,2.4,5.2,4.3,10.1-4.5,10.5h0Z"/>
  <path class="st1" d="M545.3,375.4c-3.9-.6-3.8-3.6-4.1-6.5,1.5-1.6,3.1-4.7,5.5-1.6,1.9,2.3,1.7,5.7-.7,7.7-.2.2-.4.3-.7.5h0,0Z"/>
  <path class="st12" d="M443.5,310.6c4.5-.5,4.9,3.5,6.5,6.1,0,1.2.2,2.3.2,3.5l-.8,1.3-6.4-8.5c.1-.8.3-1.5.4-2.3h0s0,0,0,0Z"/>
  <path class="st68" d="M493.4,281.3c0-4.5,2.9-2.1,4.8-1.9.6,0,1.1,1.1,1.6,1.7l-4.7.8c-.6-.1-1.1-.4-1.6-.6Z"/>
  <path class="st74" d="M644.7,383.1c.7,3.5,2.5,7.6-4.1,6.4l4.1-6.4Z"/>
  <path class="st141" d="M474.5,275.6l5.9.3c0,.6.3,1.2.3,1.8l-6.3-2.1Z"/>
  <path class="st141" d="M447.6,279.6l6.4-2.1-6.4,2.1Z"/>
  <path class="st141" d="M453.9,277.6l2.2-2.2-2.2,2.2Z"/>
  <path class="st50" d="M493.3,260.9l-2-2.1,2,2.1Z"/>
  <path class="st50" d="M491.3,256.8l1.9-2.2-1.9,2.2Z"/>
  <path class="st74" d="M646.8,379l-2,2.2,2-2.2Z"/>
  <path class="st74" d="M640.6,389.5l-1.9,2,1.9-2Z"/>
  <path class="st117" d="M364.7,845.8c-2.9-2.9-2.1-6.7-2.3-10.2,2.6-4.3,5.2-8.7,7.7-13l1,.9c-.2,2.2,1.1,4.2,3.1,5l1,1.2c-3.5,8.3-5.2,17.3-4.7,26.4-5.2,3.6-4.6-1.7-5.9-4,3.9-2.2,5.5-5.9,2.4-9.1-1.8-2-1.9,1.3-2.4,2.7h0ZM369.1,835.4c.4-.6,1-1.2.9-1.6s-.9-.7-1.4-1.1c-.3.5-1,1.1-.9,1.5s1,.8,1.5,1.2h-.1,0s0,0,0,0Z"/>
  <path class="st40" d="M526.6,850.3c-3,1-6.4.2-8.5-2.2h0l1.9-2.2c3.9-4.7,7.7-9.4,11.7-14,1.3-1.5,2.7-3.8,4.9-2.4s.6,3.7-.5,5.5c-3.1,5.1-6.3,10.3-9.5,15.4h0s0,0,0,0Z"/>
  <path class="st54" d="M406.7,815.2l-10.4,13.7c-.4-1.1-1.3-2.4-1-3.3,1.5-5.7,3.6-11,9.4-13.7,1.5-.6,2.2,1,2,3.3Z"/>
  <path class="st19" d="M520.1,845.9l-1.9,2.2,1.9-2.2Z"/>
  <path class="st112" d="M755,835.6c-.2,2-.4,4.1-.6,6.1h-3.6c-1.3-7.2-3.4-13.8-13.2-11.7l-17.6-11c-1.2-1.8-4.5-2.7-2.9-5.8,1.6-3,4.4-1.5,6.5-1,10.7,2.8,20.2,8.8,27.3,17.3l1.6,2.2c.4.4.7,1,.7,1.5l1.5,2.7.4-.3h0,0Z"/>
  <path class="st75" d="M706.9,827.4c.7-1.5,1.5-2.9,2.2-4.4,8.4,7.5,18.3,13.5,24.5,23.3-3.6,1.7-3.6,5.1-4,8.4-7.4-9.3-11.8-20.9-22.8-27.2h0,0Z"/>
  <path class="st76" d="M729.7,854.6c.4-3.3.4-6.7,4-8.4,1,1.4,1.9,2.7,2.7,4.2,2,4,9.1,8.7,5.5,11.5-5.1,3.8-8.7-3.6-12.2-7.3h0Z"/>
  <path class="st132" d="M737.5,829.9c9.8-2,11.9,4.5,13.2,11.9l-13.2-11.9Z"/>
  <path class="st132" d="M750.7,841.9h3.6c0-.1-3.7,2.1-3.7,2.1v-2.1h.1Z"/>
  <path class="st100" d="M362.6,580.5h4.3c6.9,17.1,17.5,32.2,27.1,47.7l3.9,4.3h0v14.7c-5-3.2-9.3-7.6-12.4-12.7,4.6-7.4-4.5-9.3-5.7-14.4-.4-1.7,1.7-4.9-1.6-4.7-3.7.3-2.9,3.8-2.7,6.4-.7,0-1.4-.1-2-.3-.9-2.5-1.7-5-2.6-7.5,5.2-3.5,8.9-7.4,2.5-13.1-3.6-6.8-7.2-13.6-10.7-20.5h0Z"/>
  <path class="st53" d="M466.3,590.7c7.1,3,8.9-5.8,14.3-6.5-5.1,14.2-18.4,21.8-26.8,33.4l-1.8.4c.5-3.4-1.3-6.7-4.4-8.2v-2l8.2-6.5c.4,1.5.8,2.9,1.2,4.3l1.5-.7-2.7-3.7c2.9-4.3,5.7-8.5,10.6-10.5h0s0,0,0,0ZM464.9,599.5v-.8h-1.5v.8c.5,0,1,0,1.5,0h0Z"/>
  <path class="st125" d="M414.4,628.2c-.5-6.9-5.6-11.8-7.9-18-.3-.7-.7-1.4-1.2-2l-3.2,7.4c-3.1-3.6-3.1-8.2-4.1-12.5,1.5.5,3.5,1.3,4-1,.6-3.1-2-2.7-3.8-2.7,0-3.4-1.2-7.9,2.9-8.9s4,3.9,5.2,6.5c4.6,10,9.8,19.8,10.1,31.1h-2.1,0s0,0,0,0Z"/>
  <path class="st74" d="M397.8,647v-14.7l4.4,1.3v-5.6h2l4.3,12.1c-2.9,8.2-4.5,16.7-.5,25.1-.5,0-1.1.2-1.7.2-7.5-3.2-2.2-12.8-8.4-16.6,0-.5,0-1.2,0-1.8h0Z"/>
  <path class="st53" d="M430.8,565.9c9.3,8.2,21.3,11,32,16.2,4.5,2.1,7.6,3.7,3.5,8.7-8.4-7.4-18.5-10.9-29-13.9-5.7-1.6-9-4.5-8.2-10.9.5,0,1.1,0,1.6,0h0Z"/>
  <path class="st144" d="M447.6,607.7v2c3.6,3.6-3.6,8.9,2,12.2-2.1,4.6-4.6,8.6-10.5,8.6-5.4-10.7,3.7-16,8.5-22.8h0s0,0,0,0Z"/>
  <path class="st100" d="M414.4,628.2h2.1v16.5c-3.8-5.1-.8-11.1-2.1-16.5Z"/>
  <path class="st7" d="M398.3,599.4c1.9,0,4.5-.4,3.8,2.7-.5,2.3-2.4,1.5-4,1,0-1.2.1-2.5.1-3.7h0Z"/>
  <path class="st125" d="M404.1,628.1h-2v-12.5c.7,4.1,1.3,8.3,2,12.5Z"/>
  <path class="st74" d="M397.8,632.4l-3.9-4.3,3.9,4.3Z"/>
  <path class="st73" d="M685.8,634.4c-3-.6-4-5.3-7.9-4,2.4-11.7,4.7-23.4,7.4-35.1.5-2.2,1.4-5.3,4.3-4.9,3.4.4,2,3.6,2.3,5.8,1.1,8.6,4.9,17.2.9,26-.9-1.7-1.5-4.4-2.7-4.7-2.7-.8-3,2.1-3.2,3.9-.6,4.2-.7,8.5-1,13.1h0Z"/>
  <path class="st51" d="M628.2,601.3h2.4c6.8.2,8.5,10.7,16.7,8.2l5.5,4.6c-4.3-.1-6.2,3.1-8.2,6l-3.9-2.2-10.4-12.5-1.9-2v-2.1h-.2Z"/>
  <path class="st73" d="M692.3,632.3h-1.7l1.7-4.3v4.3h0,0Z"/>
  <path class="st8" d="M696.2,638l-1.6,2.7,1.6-2.7Z"/>
  <path class="st15" d="M373.2,600.8c6.4,5.7,2.7,9.5-2.5,13.1l-1.8-6.6-.2.2c4.2.3,4-1.5,1.9-4.1l2.6-2.5h0Z"/>
  <path class="st129" d="M489.3,534.9c.6,2.1,1.2,4.2,1.8,6.3-.6-2.1-1.2-4.2-1.8-6.3Z"/>
  <path class="st127" d="M628.3,603.3l1.9,2-1.9-2Z"/>
  <path class="st114" d="M532.7,567.8c4.1-4.8-2.2-8.2-1.8-12.4,3,2.7,6.3,5.2,9.1,8.2,7.5,8,14.3,8.6,21-.9,1.6-1.8,3.4-3.4,5.3-4.8,2.9,2.7,5.5,6.5,10.3,6.2l-18.2,12.5c-.8-.9-2.1-2.7-2.4-2.7-2.5,1.1-.7,2.7-.2,4.1-10.6,3.2-16.6-4-23-10.3h0s0,0,0,0Z"/>
  <path class="st145" d="M576.5,564.1c-4.9.3-7.3-3.4-10.3-6.2h0l4-2.3,3.7-.5.9,1.2c-.4,4.5,2.7,5.5,6.1,5.9l-4.4,2h0s0,0,0,0Z"/>
  <path class="st42" d="M580.9,562.2c-3.5-.5-6.5-1.4-6.1-5.9,3,1,6.2,1.5,7.5,5-.3.4-.9.7-1.4.9h0Z"/>
  <path class="st146" d="M555.6,578.2c-.5-1.5-2.3-3.1.2-4.1.3-.2,1.6,1.7,2.4,2.7l-2.6,1.4h0s0,0,0,0Z"/>
  <path class="st114" d="M528.6,566l2.5,1.7-2.5-1.7Z"/>
  <path class="st130" d="M454.1,197c-1.4-2.3-.5-3.6,1.8-4.5,1,2.1-.2,3.4-1.8,4.5Z"/>
  <path class="st130" d="M480.8,175.8h2.1l.2,2.3c-2.6,1-3.6.4-2.2-2.3h0Z"/>
  <path class="st5" d="M487,182.7v1.5c-.7-.8-1.4-1.6-2.1-2.3l2.1.8h0Z"/>
  <path class="st132" d="M754.4,835.8l-1.5-2.7,1.5,2.7Z"/>
  <path class="st132" d="M752.2,831.6l-1.6-2.2,1.6,2.2Z"/>
  <path class="st26" d="M418.6,155.2h1.9c-.6,0-1.3,0-1.9,0Z"/>
  <path class="st26" d="M416.5,157.1l2.1-2.1-2.1,2.1Z"/>
  <path class="st83" d="M609.5,889.8c6.5,3.5,14.9.1,20.7,5.9-10.7-.7-22.1,2.9-31.1-6h10.4s0,0,0,0Z"/>
  <path class="st59" d="M609.5,889.8h-10.4l-11.2-2,3.7-.9c12.8,1.5,26-1.5,38.7,2.7h-20.8q0,0,0,0Z"/>
  <path class="st127" d="M532.7,883.1l14.7,2.2c-5.1.2-10.2,1-14.7-2.2Z"/>
  <path class="st50" d="M592.9,179.9h-4.2l6.2-4.2-2,4.2h0Z"/>
  <path class="st137" d="M418.8,781.1c3.7-5.8-3.4-7.7-4.2-11.9,3.6.2,7.4,6.1,10.6-.5,9,12.9,7.8,17-6.5,21.6v-9.2c.1,0,0,0,0,0h0Z"/>
  <path class="st60" d="M480.6,217.5c-.6-.7-1.3-1.4-1.9-2.1.5.7,1.3,1.4,1.9,2.1Z"/>
  <path class="st130" d="M482.9,175.9l2.1-2.1h0l-2.1,2.1h0s0,0,0,0Z"/>
  <path class="st80" d="M364.7,845.8c.5-1.4.5-4.7,2.4-2.7,2.9,3.2,1.5,6.8-2.4,9.1v-6.4h0Z"/>
  <path class="st12" d="M433.1,304.5c.8-2.5-1.5-7.2,2.5-6.8,2.4.2.1,4.5-.5,6.9h-2c0-.1,0-.1,0-.1h0Z"/>
  <path class="st12" d="M439.5,301.9l2,6.7-2.7-3.3.8-3.4h0Z"/>
  <path class="st12" d="M441.5,308.5l2,2.1-2-2.1Z"/>
  <path class="st124" d="M640.6,177.8l2.1-2-2.1,2Z"/>
  <path class="st130" d="M667.7,279.5l.9-3.6.8.5c-.5,1-1.1,2-1.7,3h0c0,0,0,0,0,0Z"/>
  <path class="st68" d="M449.6,621.9c-5.6-3.3,1.7-8.6-2-12.2,3.1,1.5,4.9,4.8,4.4,8.2l-2.4,4Z"/>
  <path class="st135" d="M727.4,795.9l-1.4-2.2c.5-.3,1.3-1.1,1.6-.9.7.5,1.3,1.1,1.8,1.8l-2,1.3h0Z"/>
  <path class="st32" d="M374.3,828.6c-2-.8-3.3-2.9-3.1-5,3.6,0,3.3,2.6,3.1,5Z"/>
  <path class="st130" d="M641.2,222c.5-.2,1-.4,1.5-.6-.5.4-.3,2.4-1.5.6Z"/>
  <path class="st20" d="M733.7,586.8c-.7-1.5-1.9-3.1.7-4-.3,1.3-.5,2.7-.7,4Z"/>
  <path class="st114" d="M460.3,323.2c.4-1.3.5-2.7.3-4-1.7-4.8-4.5-10.9,1.5-13.2,3.8-1.4.5,9.3,10.5,15.1-.4.2-.7.4-1,.6-2.9-.5-5.7.9-7.2,3.4l-4.1-1.9h0s0,0,0,0Z"/>
  <path class="st131" d="M460.3,323.2l4.1,1.9h0l2,1.7,3.8.9c2,1.4,4.7,1.3,6.6-.3h0c3.9,2.9,1.2,4-1.5,4.2-7.8.5-15.1-.5-19.4-8.4h4.5,0,0Z"/>
  <path class="st131" d="M450.3,320.2c0-1.2,0-2.3-.2-3.5,3.1.7,5.5,3.3,5.8,6.5l-5.6-3.1h0Z"/>
  <path class="st61" d="M543.1,389.5c-2.7-.4-4.9-2.5-5.5-5.2-1-2.9,1.4-3.4,3.5-3.3,2.7,0,5.3,1.3,5.6,4.6.3,1.8-.8,3.5-2.6,3.9-.3,0-.7,0-.9,0h0Z"/>
  <path class="st120" d="M369.1,835.4c-.5-.4-1.3-.7-1.4-1.2s.6-1,.9-1.5c.5.4,1.3.7,1.4,1.1s-.5,1-.9,1.6h0s0,0,0,0Z"/>
  <path class="st131" d="M383.3,632.3c-2.7-3.5-5.3-7-8-10.6,0-2.7-.9-6.2,2.7-6.4,3.3-.2,1.2,3,1.6,4.7,1.2,5.1,10.3,7,5.7,14.4h0l-2-2h0s0,0,0,0Z"/>
  <path class="st103" d="M455.9,601.1l2.7,3.7-1.5.7c-.4-1.5-.8-2.9-1.2-4.3h0s0,0,0,0Z"/>
  <path class="st79" d="M464.9,599.6c-.5,0-1,0-1.5,0v-.8h1.5v.8h0Z"/>
  <path class="st100" d="M383.3,632.3l2.1,2-2.1-2Z"/>
  <path class="st114" d="M566.2,558l4-2.3-4,2.3Z"/>
  <path class="st65" d="M470.2,327.8l6.6-.3c-1.9,1.6-4.6,1.7-6.6.3Z"/>
  <path class="st114" d="M464.4,325.1l2,1.7-2-1.7Z"/>
</svg>