<svg id="Capa_1" data-name="Capa 1" xmlns="http://www.w3.org/2000/svg" viewBox="0 0 329.12 288.23"><defs><style>.cls-1,.cls-2{fill:#ababab;}.cls-1{stroke:#fff;stroke-linejoin:round;stroke-width:9px;}.cls-3{fill:#090909;}.cls-4{fill:#e9e9e9;}.cls-5{fill:#eaeaea;}.cls-6{fill:#ededed;}.cls-7{fill:#0e0e0e;}.cls-8{fill:#2c2c2c;}.cls-9{fill:#b1b1b1;}.cls-10{fill:#d3d3d3;}.cls-11{fill:#393939;}.cls-12{fill:#474747;}.cls-13{fill:#6a6a6a;}.cls-14{fill:#d0d0d0;}.cls-15{fill:#fff;}.cls-16{fill:#ebebeb;}.cls-17{fill:#fefefe;}.cls-18{fill:#fafafa;}.cls-19{fill:#f4f4f4;}.cls-20{fill:#565656;}.cls-21{fill:#e0e0e0;}.cls-22{fill:#e7e7e7;}.cls-23{fill:#f3f3f3;}.cls-24{fill:#7e7e7e;}.cls-25{fill:#3b3b3b;}.cls-26{fill:#909090;}.cls-27{fill:#6c6c6c;}.cls-28{fill:#d1d1d1;}.cls-29{fill:#898989;}.cls-30{fill:#c3c3c3;}.cls-31{fill:#a0a0a0;}.cls-32{fill:#b8b8b8;}.cls-33{fill:#b3b3b3;}.cls-34{fill:#6d6d6d;}.cls-35{fill:#b7b7b7;}.cls-36{fill:silver;}.cls-37{fill:#f2f2f2;}.cls-38{fill:#8f8f8f;}.cls-39{fill:#828282;}.cls-40{fill:#949494;}.cls-41{fill:#595959;}.cls-42{fill:#7c7c7c;}.cls-43{fill:#5f5f5f;}.cls-44{fill:#848484;}.cls-45{fill:#797979;}.cls-46{fill:#757575;}.cls-47{fill:#6e6e6e;}.cls-48{fill:#bababa;}.cls-49{fill:#888;}.cls-50{fill:#d4d4d4;}.cls-51{fill:#636363;}.cls-52{fill:#aaa;}.cls-53{fill:#818181;}.cls-54{fill:#696969;}.cls-55{fill:#b4b4b4;}.cls-56{fill:#b2b2b2;}.cls-57{fill:#5c5c5c;}.cls-58{fill:#444;}.cls-59{fill:#969696;}.cls-60{fill:#4c4c4c;}.cls-61{fill:#656565;}.cls-62{fill:#939393;}.cls-63{fill:#686868;}.cls-64{fill:#4b4b4b;}.cls-65{fill:#b6b6b6;}.cls-66{fill:#0a0a0a;}.cls-67{fill:#e2e2e2;}.cls-68{fill:#e5e5e5;}.cls-69{fill:#1a1a1a;}.cls-70{fill:#121212;}.cls-71{fill:#c5c5c5;}.cls-72{fill:#d9d9d9;}.cls-73{fill:#1f1f1f;}.cls-74{fill:#292929;}.cls-75{fill:#1d1d1d;}.cls-76{fill:#181818;}.cls-77{fill:#515151;}.cls-78{fill:#cecece;}.cls-79{fill:#a7a7a7;}.cls-80{fill:#858585;}.cls-81{fill:#535353;}.cls-82{fill:#f6f6f6;}.cls-83{fill:#7f7f7f;}.cls-84{fill:#fcfcfc;}.cls-85{fill:#f8f8f8;}.cls-86{fill:#eee;}.cls-87{fill:#727272;}.cls-88{fill:#191919;}.cls-89{fill:#575757;}.cls-90{fill:#323232;}</style></defs><path class="cls-1" d="M142.56,79.15c.61,2.32,2.17,2.58,4.56,1.95-2.31-6.1-4.52-11.95-6.73-17.81l-1,.07c-.14.69-.54,1.44-.39,2.06C140.15,70,141.36,74.58,142.56,79.15Z" transform="translate(-44.29 -48.59)"/><path class="cls-1" d="M120.7,90.68c-2-3.54-3.91-7-5.84-10.5C114.16,85.74,117.57,91.54,120.7,90.68Z" transform="translate(-44.29 -48.59)"/><path class="cls-1" d="M362.76,257.35h0l6.15-8.1c0-2.05-1.11-2.24-2.46-1.32-1.56,1.06-2.8,2.61-4.38,3.64-5.64,3.63-11.79,4.34-16.07.61-.31-.8-1.07-1.76-.86-2.37,1.87-5.36,4-10.64,5.9-16,1.86-5.11,3.79-10.2,5.37-15.39,1.65-5.42,3-10.93,4.33-16.44.8-3.32,1.29-6.72,1.92-10.09l-.83-.18c-2.21,5.64-4.32,11.32-6.65,16.91-3.65,8.76-7.45,17.46-11.19,26.18-1.65,3.84-3.32,7.67-5,11.5-4.43-6-5.33-13.17-6.44-20.51l1.66-.4c.44-1.13.91-2.12,1.22-3.16,1.18-3.86,2.31-7.74,3.45-11.6h0c1.06-3.93,2.63-7.77,2-12a5.71,5.71,0,0,1,.38-1.85c.49-1,1.39-2,1.41-2.94.12-7.09.06-14.18.06-21.42,4.64-1.88,10.14-2.92,14.7-6.11-6.16-1-11.5,1.07-16.66,3.8l-1.89-2.72c-.06-1.29.19-2.7-.23-3.86-2.33-6.5-4.83-12.93-7.27-19.39,2.14,1.25,4,.78,5.8-.79,3.08-2.65,6.27-5.18,9.41-7.76l5.41-4.79-.78-.91L346,133.66c-4.53,3-9.05,5.91-13.61,8.82-.37.23-1,.11-1.47.15-.57-.88-1.15-1.76-1.71-2.65q-5-8-9.94-16c-1.41-2.57-.4-4.38,1.81-5.86a8,8,0,0,0,1.7-1.48c3.14-3.68,6.24-7.39,9.36-11.09l-.82-.72c-5.14,4.49-11.24,8-14.86,14.16L314,117.39,296.5,101c-1.69-1.53-.71-2.73.26-4.21,3.8-5.74,7.45-11.59,11.16-17.39l-1-.76c-4.76,5.57-9.47,11.17-14.33,16.64-.53.59-1.88.45-2.85.65-1.74-.89-3.45-1.84-5.23-2.65-5-2.25-9.82-4.87-15-6.55a54,54,0,0,0-15.3-3.06c0-.13.09-.25.13-.37A21.24,21.24,0,0,0,255,79l-1.55-.56q-1.26,2.64-2.51,5.28c-5.64.21-11.28,1.11-16.92,1.63.8-2.15.93-2.6-.15-2.62.77-3.67,1.64-7.32,2.36-11a11.75,11.75,0,0,0-.2-3l-1.09-.08c-.36,1.84-.59,3.72-1.12,5.51-.73,2.44-1.5,4.85-2.27,7.28l-4.12-4.23c-.44-.46-.88-.92-1.31-1.39q.63-10.89,1.27-21.79l-1.19-.07q-1,7.89-2,15.77c-.2,1.58-.45,3.15-.67,4.72-1.28-.44-2.55-.93-3.82-1.38.18-.94.38-1.88.53-2.82.3-2,.53-4,.78-6l-1.17-.19c-.77,2.75-1.57,5.49-2.35,8.23-.5-.16-1-.31-1.52-.44a102,102,0,0,0-13.28-3,58.8,58.8,0,0,0-16.71.86c.37-6.65-.17-15.22-1.37-16.66V70c-3.77.66-7.52,1.41-11.3,2a7.09,7.09,0,0,0-1.22.43c-3,1.07-6.12,2.07-9.13,3.21l-1.88.69c.32-3-3.11-4.68-3-7.4-.66,2.87-1.2,5.69,1.15,8.05-5.7,2-11.48,3.87-16.72,6.72-7,3.8-13.22,9-19.78,13.58-4.75-1-6.32-5.52-9.25-8.53q-3.42-4.67-6.83-9.32l-1.19.86,7.35,11.08c1.29,2.11,2.35,4.43,4,6.26,1.3,1.5,1.37,2.49.06,3.77a9.42,9.42,0,0,1-1,1.6c-5.56,6.13-11.14,12.22-16.71,18.33l-16.45-16c-.29.27-.58.54-.86.82a22.2,22.2,0,0,0,1.54,2.28c2.14,2.44,4.4,4.76,6.49,7.24,2.33,2.77,4.52,5.67,6.78,8.51a20.45,20.45,0,0,1-1.23,2.74c-1.54,2.44-3.34,4.75-4.76,7.27-2.06,3.67-3.87,7.48-5.8,11.23-1.58-1-3.18-2-4.75-3-3.8-2.47-7.56-5-11.37-7.41-1.23-.79-2.58-1.39-3.87-2.07-.19.31-.37.63-.56.95,6,3.61,8.79,11.25,17.76,12.09-5.06,1.72-8.72-.07-12.47-1.13l-9.85-5.4c3.27,11.75,10.5,19.31,22,23.14-.08.92-.17,2-.26,3-.94.52-2,1.58-2.82,1.47-3.18-.42-6.3-1.32-9.47-1.86-2.49-.42-5-.56-7.53-.83l-.21,1.19c4.76,1.75,9.42,3.84,14.29,5.11,2.77.72,3.7,1.74,3.84,4.48.18,3.57.91,7.11,1.41,10.66,2.65,4.63,2.77,9.78,3.42,14.74.82.66,1.86,1.52,1.79,2.27-.38,3.8-.57,7.75-1.87,11.26-.47,1.26.35,4.24-2.57,4.34-.9,1.37-1.81,2.73-3.17,4.8-2.12-3.86-3.83-7.06-5.62-10.21-3.19-5.62-6.44-11.21-9.67-16.8L59,189l-1,.49c1.49,3.27,1,7.2,4,9.94a58.55,58.55,0,0,0,1.33,6.21c2.22,7,4.67,13.85,6.82,20.83.39,1.28-.2,2.86-.33,4.3A14.07,14.07,0,0,1,67,232.09c-5.21,1-9.24-1.39-12.87-4.74-1.54-1.42-3-2.93-4.47-4.4l-.83.49c.64,3.15,1.2,6.32,1.94,9.45a40.8,40.8,0,0,0,1.92,6c1.33,3.23,2.83,6.4,4.29,9.58a16.35,16.35,0,0,0,1.15,1.86c.62,2.37.73,5,2,7,4.49,7.27,9.07,14.52,14.14,21.4,12,16.29,24.39,32.33,36.5,48.56a7,7,0,0,0,6.29,3.09c13.44-.12,26.87-.09,40.31-.11l7.64,1.37c1.57-2.5,3,.29,4.54.1h0l25.34.53a40.06,40.06,0,0,0,5-1.36c4-1.65,8-3.47,12-5.22,4.67-2.08,9.16-4.85,14-6.09,6.85-1.74,12.35-5.53,17.94-9.4,6.26-4.13,12.55-8.23,18.75-12.45.71-.49.93-1.69,1.38-2.57h0q1.67-1.79,3.31-3.58h0l2-2.41,0-.22-.76-2.32h0c.26.77.51,1.55.76,2.32a1.15,1.15,0,0,0,.37-.25l1,.13.48-1.45a4.49,4.49,0,0,0,.1-.64l.57-.6a22.72,22.72,0,0,0,2.79-2.15c1.38-1.4,2.79-2.28,4.29-.4,2.06,2.58,3.87,5.35,5.92,7.93,2.35,3,4.86,5.79,7.29,8.67a8.55,8.55,0,0,0,.71,2.76c5.75,8.41,11.49,16.82,17.43,25.09,2.79,3.88,6.31,3.54,9-.44,10.52-15.36,21.16-30.65,31.58-46.07,3.87-5.72,7.28-11.74,10.89-17.62l2.64-5.18q2.31-4.77,4.61-9.54Z" transform="translate(-44.29 -48.59)"/><path class="cls-2" d="M142.56,79.15c.61,2.32,2.17,2.58,4.56,1.95-2.31-6.1-4.52-11.95-6.73-17.81l-1,.07c-.14.69-.54,1.44-.39,2.06C140.15,70,141.36,74.58,142.56,79.15Z" transform="translate(-44.29 -48.59)"/><path class="cls-2" d="M120.7,90.68c-2-3.54-3.91-7-5.84-10.5C114.16,85.74,117.57,91.54,120.7,90.68Z" transform="translate(-44.29 -48.59)"/><path class="cls-2" d="M362.76,257.35h0l6.15-8.1c0-2.05-1.11-2.24-2.46-1.32-1.56,1.06-2.8,2.61-4.38,3.64-5.64,3.63-11.79,4.34-16.07.61-.31-.8-1.07-1.76-.86-2.37,1.87-5.36,4-10.64,5.9-16,1.86-5.11,3.79-10.2,5.37-15.39,1.65-5.42,3-10.93,4.33-16.44.8-3.32,1.29-6.72,1.92-10.09l-.83-.18c-2.21,5.64-4.32,11.32-6.65,16.91-3.65,8.76-7.45,17.46-11.19,26.18-1.65,3.84-3.32,7.67-5,11.5-4.43-6-5.33-13.17-6.44-20.51l1.66-.4c.44-1.13.91-2.12,1.22-3.16,1.18-3.86,2.31-7.74,3.45-11.6h0c1.06-3.93,2.63-7.77,2-12a5.71,5.71,0,0,1,.38-1.85c.49-1,1.39-2,1.41-2.94.12-7.09.06-14.18.06-21.42,4.64-1.88,10.14-2.92,14.7-6.11-6.16-1-11.5,1.07-16.66,3.8l-1.89-2.72c-.06-1.29.19-2.7-.23-3.86-2.33-6.5-4.83-12.93-7.27-19.39,2.14,1.25,4,.78,5.8-.79,3.08-2.65,6.27-5.18,9.41-7.76l5.41-4.79-.78-.91L346,133.66c-4.53,3-9.05,5.91-13.61,8.82-.37.23-1,.11-1.47.15-.57-.88-1.15-1.76-1.71-2.65q-5-8-9.94-16c-1.41-2.57-.4-4.38,1.81-5.86a8,8,0,0,0,1.7-1.48c3.14-3.68,6.24-7.39,9.36-11.09l-.82-.72c-5.14,4.49-11.24,8-14.86,14.16L314,117.39,296.5,101c-1.69-1.53-.71-2.73.26-4.21,3.8-5.74,7.45-11.59,11.16-17.39l-1-.76c-4.76,5.57-9.47,11.17-14.33,16.64-.53.59-1.88.45-2.85.65-1.74-.89-3.45-1.84-5.23-2.65-5-2.25-9.82-4.87-15-6.55a54,54,0,0,0-15.3-3.06c0-.13.09-.25.13-.37A21.24,21.24,0,0,0,255,79l-1.55-.56q-1.26,2.64-2.51,5.28c-5.64.21-11.28,1.11-16.92,1.63.8-2.15.93-2.6-.15-2.62.77-3.67,1.64-7.32,2.36-11a11.75,11.75,0,0,0-.2-3l-1.09-.08c-.36,1.84-.59,3.72-1.12,5.51-.73,2.44-1.5,4.85-2.27,7.28l-4.12-4.23c-.44-.46-.88-.92-1.31-1.39q.63-10.89,1.27-21.79l-1.19-.07q-1,7.89-2,15.77c-.2,1.58-.45,3.15-.67,4.72-1.28-.44-2.55-.93-3.82-1.38.18-.94.38-1.88.53-2.82.3-2,.53-4,.78-6l-1.17-.19c-.77,2.75-1.57,5.49-2.35,8.23-.5-.16-1-.31-1.52-.44a102,102,0,0,0-13.28-3,58.8,58.8,0,0,0-16.71.86c.37-6.65-.17-15.22-1.37-16.66V70c-3.77.66-7.52,1.41-11.3,2a7.09,7.09,0,0,0-1.22.43c-3,1.07-6.12,2.07-9.13,3.21l-1.88.69c.32-3-3.11-4.68-3-7.4-.66,2.87-1.2,5.69,1.15,8.05-5.7,2-11.48,3.87-16.72,6.72-7,3.8-13.22,9-19.78,13.58-4.75-1-6.32-5.52-9.25-8.53q-3.42-4.67-6.83-9.32l-1.19.86,7.35,11.08c1.29,2.11,2.35,4.43,4,6.26,1.3,1.5,1.37,2.49.06,3.77a9.42,9.42,0,0,1-1,1.6c-5.56,6.13-11.14,12.22-16.71,18.33l-16.45-16c-.29.27-.58.54-.86.82a22.2,22.2,0,0,0,1.54,2.28c2.14,2.44,4.4,4.76,6.49,7.24,2.33,2.77,4.52,5.67,6.78,8.51a20.45,20.45,0,0,1-1.23,2.74c-1.54,2.44-3.34,4.75-4.76,7.27-2.06,3.67-3.87,7.48-5.8,11.23-1.58-1-3.18-2-4.75-3-3.8-2.47-7.56-5-11.37-7.41-1.23-.79-2.58-1.39-3.87-2.07-.19.31-.37.63-.56.95,6,3.61,8.79,11.25,17.76,12.09-5.06,1.72-8.72-.07-12.47-1.13l-9.85-5.4c3.27,11.75,10.5,19.31,22,23.14-.08.92-.17,2-.26,3-.94.52-2,1.58-2.82,1.47-3.18-.42-6.3-1.32-9.47-1.86-2.49-.42-5-.56-7.53-.83l-.21,1.19c4.76,1.75,9.42,3.84,14.29,5.11,2.77.72,3.7,1.74,3.84,4.48.18,3.57.91,7.11,1.41,10.66,2.65,4.63,2.77,9.78,3.42,14.74.82.66,1.86,1.52,1.79,2.27-.38,3.8-.57,7.75-1.87,11.26-.47,1.26.35,4.24-2.57,4.34-.9,1.37-1.81,2.73-3.17,4.8-2.12-3.86-3.83-7.06-5.62-10.21-3.19-5.62-6.44-11.21-9.67-16.8L59,189l-1,.49c1.49,3.27,1,7.2,4,9.94a58.55,58.55,0,0,0,1.33,6.21c2.22,7,4.67,13.85,6.82,20.83.39,1.28-.2,2.86-.33,4.3A14.07,14.07,0,0,1,67,232.09c-5.21,1-9.24-1.39-12.87-4.74-1.54-1.42-3-2.93-4.47-4.4l-.83.49c.64,3.15,1.2,6.32,1.94,9.45a40.8,40.8,0,0,0,1.92,6c1.33,3.23,2.83,6.4,4.29,9.58a16.35,16.35,0,0,0,1.15,1.86c.62,2.37.73,5,2,7,4.49,7.27,9.07,14.52,14.14,21.4,12,16.29,24.39,32.33,36.5,48.56a7,7,0,0,0,6.29,3.09c13.44-.12,26.87-.09,40.31-.11l7.64,1.37c1.57-2.5,3,.29,4.54.1h0l25.34.53a40.06,40.06,0,0,0,5-1.36c4-1.65,8-3.47,12-5.22,4.67-2.08,9.16-4.85,14-6.09,6.85-1.74,12.35-5.53,17.94-9.4,6.26-4.13,12.55-8.23,18.75-12.45.71-.49.93-1.69,1.38-2.57h0q1.67-1.79,3.31-3.58h0l2-2.41,0-.22-.76-2.32h0c.26.77.51,1.55.76,2.32a1.15,1.15,0,0,0,.37-.25l1,.13.48-1.45a4.49,4.49,0,0,0,.1-.64l.57-.6a22.72,22.72,0,0,0,2.79-2.15c1.38-1.4,2.79-2.28,4.29-.4,2.06,2.58,3.87,5.35,5.92,7.93,2.35,3,4.86,5.79,7.29,8.67a8.55,8.55,0,0,0,.71,2.76c5.75,8.41,11.49,16.82,17.43,25.09,2.79,3.88,6.31,3.54,9-.44,10.52-15.36,21.16-30.65,31.58-46.07,3.87-5.72,7.28-11.74,10.89-17.62l2.64-5.18q2.31-4.77,4.61-9.54Z" transform="translate(-44.29 -48.59)"/><path class="cls-3" d="M291.82,299.18a17.18,17.18,0,0,1-5-5.32c-2.18-3.59-5.53-6.26-7.49-10-1-1.85-2.58-1.19-3.81-.15a16,16,0,0,0-2,2.49l-.62-.67a6.09,6.09,0,0,1,.84-3,19.92,19.92,0,0,0,3.07-6.7c1.52-2.07,1.7-4.91,3.71-6.78,1.17.79.72,2.17,1.49,2.94,3,5.4,7.62,7.28,12.13,5a16,16,0,0,0,3.18-2.08c2.31-2,5.69-3.21,6.33-6.81,3.3-2.54,5.16-6.24,7.54-9.51,4.29-5.87,7-12.62,10.06-19.13.7-1,1.09-2.2,1.93-3.23,1.81-2.2.56-6.08-1.9-6.7a21.15,21.15,0,0,0-3-11.23,14.06,14.06,0,0,0-16.19-6.53c-6.86,2.19-12,6.92-15.53,13.29-1.07-1.53-1.84-7.5-.85-7.86,3.09-1.14,2.73-3.76,2.75-6s.8-4.9-1-7.63c-1.85,3.53-1.41,7-1.71,11.15-.81-3.6.26-6.53-1.16-9.15-.06-1-.12-1.94-.18-2.95-.87-.31-2.35.19-2.1-1.57.71-4.93-1.82-9.49-1.63-14.37a42.48,42.48,0,0,0-1.24-15.06c-3.36-1.07-6.9-1.75-10-3.28-6.83-3.31-13.67-6.66-19.92-11h0l-4.65-3.82C232.08,142,222.06,129.06,221.76,111a1.44,1.44,0,0,0-1.81,1.27c-.72,3.09-2.91,3.07-5.48,3.09-2.29,0-4-1.32-6.05-1.74-5.8-2.52-12-2.51-18.11-2.58a4.42,4.42,0,0,0-3.53,1.24c-4.83-.61-9.28,1-13.83,2.18a51.13,51.13,0,0,0-13.49,5.87c-9.38,5.55-16.75,13.35-24,21.28-7.08,7.71-15.07,14.15-25.07,17.91-1.45.54-3.37.46-4.7,2.22a51.94,51.94,0,0,0-8.49,17.09c-3.27,11.62-2.87,23.51-1.64,35.41.59,5.75,1,11.52,1.52,17.28l-1.24-.65-1.43-9.63a4.77,4.77,0,0,0-2.14-4.6c-2.69,3.06-1.49,6.54-1.54,9.79-.42,2.37.45,3.56,3,3.27.43,2.68-1.43,4.08-3.16,5.49-.59.47-1.48.65-.68,1.63-2.51-.21-4,1.93-6.12,2.64a1.14,1.14,0,0,0-.54,1.65c.45.9,1.16.71,1.91.35,2.22-1.06,4.51-2,6.17-3.94,2.48-1.17,3.7-3.72,5.82-5.28l1.25,3.93c-2.52,3.8-6.44,5.78-10.28,7.85a23.41,23.41,0,0,1-14.73,4.34c5.69,1.08,11.15,1.14,16-2.35,3-1,5.1-3.27,7.43-5.23.64-.54.82-2,2.18-1.32A65.27,65.27,0,0,0,100.2,246,160.1,160.1,0,0,0,107,268.65a106.21,106.21,0,0,0,16.15,29.13c10.49,13.45,21.94,25.7,39.06,30.74.5,1.67,3.26,1.09,3.25,3.27-3.7.77-6.81-1.41-10.24-2-2.31-1.14-4.65-2.2-6.92-3.42-10.6-5.72-18.43-14.45-25.81-23.69-5.07-6.35-9.09-13.35-13-20.43,0-.7-.17-1.36-1-1.38-6.35-.16-12.71-.22-19-1.28-5-2.44-9.93-5-14.06-8.82-7.38-6.84-13-15-18.07-23.66-3.61-7.5-7.11-15-8-24.61,6.59,6,12,13.24,21.62,8.4,5.19-1.43,8.48-4.91,10.5-9.77.5-1.91,2.78-3,2.54-5.22,2.87-1.71,2.75-4.46,2.52-7.24.09-1.84.12-3.68.28-5.51s-.55-2.57-2.34-2.14c.09-5.09-.43-9.8-2.62-14.22a5.54,5.54,0,0,1-.08-2.24v-22c-11.22-3.87-18.55-11.47-21.64-23.66,4.42,3.23,8.56,6.21,13.35,8a13.73,13.73,0,0,0,11-.38c2.21-1.17,3.36-4.7,4.56-7.36,5-11.09,12.12-20.66,20.36-29.43,9.39-10,20.4-18,32.22-24.87,6.91-4,14.27-6.79,21.84-9.32,5.42-1.81,11-2.49,16.35-4.12a56.51,56.51,0,0,1,23.28-2.24c11.31,1.35,22.62,3.71,30.62,13.18-.59,2-1.82,2.2-3.44,1.21-1.27-.79-2.51-1.62-3.76-2.43-1.61-1.69-3.4-3.06-6.07-3l4.75,4.23c1.35,1.12,3.08,1.88,3.76,3.73-1.93,2.07-4.07.26-6,.38-.59,2,1.66,2.27,1.74,3.66a1.31,1.31,0,0,0-.2.56c-.93,2.74-3.47,5.11-2,8.42-.49,2,1,1.4,1.91,1.41,1.26,0,2-.52,2-1.94,0-3,.08-6.06.12-9.09l7.85-3.93,6.68-1.18c3.64.09,7.14-1,10.84-.88,6.53.22,12.66,1.84,18.82,3.73A84.35,84.35,0,0,1,294.6,99.49a109,109,0,0,1,29.07,30,107.61,107.61,0,0,1,10.79,21.4c2,5.5,4.31,10.86,5.12,16.71.09.68.72,1.28,1.1,1.92,0,7.89-.08,15.78,0,23.67,0,5.9,0,11.79-1.24,17.6-1.33,5.56-2.49,11.19-6.24,15.87,1,6.61,1.91,13.79,6.33,19.77,1.84,2.23,3.52,4.63,6.34,5.76,7.21,5.33,16.13,1.4,21.34-4.54,1.28.46,1.44,1.52,1.43,2.67-1.82,3.33-4.6,5.89-7.11,8.65-6.39,7-12.39,14.47-21.7,18.08-1,.38-2.73.56-3.32,2.49a44.74,44.74,0,0,1-7.3,14.32c-4.86,6.29-11.36,10.31-19.18,10.83A27.91,27.91,0,0,1,291.82,299.18ZM310,149.56c.85,1.26,1.62,2.63,3.56,3.05a15.25,15.25,0,0,0-2.14-5.14c-1-1-1.25-2.62-2.72-3.21-.86-2.62-2.68-4.61-4.42-6.66a40.19,40.19,0,0,0-11.68-11l-10-6.36-7-4.63c-3.61-2.32-7.17-4.75-11.21-6.16l-.5,1,9.74,7.15c3.23,1.64,5.36,4.71,8.48,6.49l5.73,5.41c4.14,4.58,9.08,8.27,13.79,12.21l5.14,4.63Zm-7.71,3.74-3.33-4.45c-1.13-1.28-1.7-3-3.24-3.94-3.52-5.15-8.36-8.74-13.67-11.81-2.45-2.51-5.85-3.59-8.57-5.7a66.85,66.85,0,0,0-16.46-9l14.73,10.73c4,2.65,7.19,6.33,10.84,9.43l8.37,7.78q2.78,2.52,5.56,5c1.34,1,2,2.78,3.75,3.36,2,2.29,3.79,4.8,6.42,6.37l.73-.66Zm-11.17,3.36a27,27,0,0,0,7.45,5.86c-1.37-2.56-2.53-5.27-5.46-6.55-.89-2.44-2.87-4-4.54-5.87a39.45,39.45,0,0,0-10.39-8.5l-3.79-2.74a67.91,67.91,0,0,0-9.21-5.81c-3.31-2.28-6.54-4.67-10.44-5.9a52.75,52.75,0,0,0,9.61,6.74l8.58,7.09,3.77,2.76,8.53,7.72Zm20.84-19.55c2.93,2.39,5.37,5.4,9.11,7q-3.23-4.83-6.43-9.66l-3.35-4.38c-.54-.31-1.34-.5-1.58-1-2.75-5.51-7.57-8.36-13.08-10.35-.25-.72.15-1.55-1.17-1.93-1.57-.46-2.95-1.61-4.41-2.45-3.24-1.88-6.32-4.17-10.38-4.16,3.34,2.66,6.07,6,9.75,8.11l1.94,2a139.66,139.66,0,0,0,17.1,14.75Zm-106.19-41c-3.12-2.12-6.36-3.82-10.44-2.74L203.25,98c5.14,2.69,9.51,6.43,14,11C216.79,104.54,211.6,99.07,205.75,96.1Zm79.48,64.48a10.85,10.85,0,0,0,5.28,4.15c-1.14-2-2.23-4-4.47-5a2.23,2.23,0,0,0-.71-1.39,75,75,0,0,0-15.56-12.32c-2.08-2.38-4.86-3.6-7.76-4.68a24.34,24.34,0,0,0,6.84,5.62A186.64,186.64,0,0,0,285.23,160.58Zm-131-48.35a17.17,17.17,0,0,1,10-2.84c-4.73-1.35-9.27-.39-13.79.83-5.87,2.26-11,5.53-14.88,10.61-2.32.77-3.17,2.72-3.64,5.09l4.94-3.73A61.87,61.87,0,0,1,154.24,112.23Zm-25.88-5.68-2.93,3.9a5.09,5.09,0,0,0,5.07-1.9c4.55-2.69,9.5-4.79,13.29-8.67-.69-1.48-1.67-1.53-3-1.26C135.6,99.66,131.82,102.83,128.36,106.55Zm60.55-7.25A65.32,65.32,0,0,1,208,108.68c1.79,1.26,3.35,3.11,5.93,3A51.51,51.51,0,0,0,191.62,97.9c-3.9-1.81-8.06-1.15-12.14-1.34-2-.09-4.15.23-5.86-1.27-2.39-2.1-8-2.51-11.06-.71,1,1,2.22.69,3.35.73,1.62,0,3.25,0,4.87.09a1.63,1.63,0,0,1,1.7,1.61c.08.93-.1,2-1.15,2-3.19-.14-6.6,1.43-9.5-1.42-1.48-1.45-3.33-1-5.34-.22,1.57,2.11,3.68.83,5.07,2.22,2.83,2.81,10.09,2.27,12.72-.76A3.11,3.11,0,0,1,177,98c2.71,0,5.42,0,8.13,0C186.51,98,187.91,98,188.91,99.3Zm-39.55,4.15c-8,1.59-15.59,6.86-17.63,12.51,5.78-3.1,11.26-6.1,16.81-9C150.42,106,150.13,104.87,149.36,103.45ZM283.68,194.8c8,2.86,13.15,9,17.88,16.45C302,204,290.78,193.84,283.68,194.8Zm-1.39-21.43c6.43,4.92,12.9,9.77,19.48,14.46C297,180.61,290.15,176.32,282.29,173.37ZM300.42,193c-3.57-6.19-13.93-13.24-17.82-12.15,3.08,2,6,3.71,8.81,5.62S297,190.5,300.42,193ZM78,243l0-.68H67.21V243Z" transform="translate(-44.29 -48.59)"/><path class="cls-4" d="M57.36,247.1c5,8.65,10.69,16.82,18.07,23.66,4.13,3.83,9.06,6.38,14.06,8.82-.56.22-1.71.35-1.23,1.06,2.63,3.86,3.43,8.71,6.7,12.19.9.95,2.15,2.13,3.39,1.24,4.45-3.21,8.88-6.52,11.13-11.83,3.91,7.08,7.93,14.08,13,20.43,7.38,9.24,15.21,18,25.81,23.69,2.27,1.22,4.61,2.28,6.92,3.42-5.58.9-11.2.71-16.82.72-7,0-14.08-.05-21.12,0a7.15,7.15,0,0,1-6.32-3.17C98.94,311.21,86.7,295.23,74.8,279c-6.27-8.53-12.28-17.28-16.8-26.94C57.23,250.42,56.73,248.87,57.36,247.1Z" transform="translate(-44.29 -48.59)"/><path class="cls-5" d="M291.82,299.18A27.91,27.91,0,0,0,310,304.73c7.82-.52,14.32-4.54,19.18-10.83a44.74,44.74,0,0,0,7.3-14.32c.59-1.93,2.34-2.11,3.32-2.49,9.31-3.61,15.31-11.06,21.7-18.08,2.51-2.76,5.29-5.32,7.11-8.65l.54-.2c-2.41,7.49-6.38,14.26-10.63,20.72-10.65,16.19-21.78,32.07-32.75,48-2.21,3.22-4.44,6.43-6.89,9.46-3,3.78-5.38,3.81-8.21-.15-5.91-8.28-11.62-16.71-17.32-25.14A18.07,18.07,0,0,1,291.82,299.18Z" transform="translate(-44.29 -48.59)"/><path class="cls-6" d="M345.84,252.23c-2.82-1.13-4.5-3.53-6.34-5.76,2.12-3.38,2.79-7.38,4.72-10.9a111.16,111.16,0,0,0,7.62-17.16q2.15-6.27,4.67-12.41c1.66-4,3.54-8,5.61-12.57,1.34,3.65-.66,6.25-1.05,9A84.31,84.31,0,0,1,357.14,217c-1.88,5.66-3,11.52-5.39,17.1-2.2,5.2-3,11-6.34,15.8C344.79,250.76,345.36,251.5,345.84,252.23Z" transform="translate(-44.29 -48.59)"/><path class="cls-7" d="M165.45,331.79c0-2.18-2.75-1.6-3.25-3.27a100.56,100.56,0,0,0,31-.18c10.38-1.53,20-5.86,29.57-10.22,14.29-5.22,27.74-12,39.69-21.5.68-.2,1.36-.48,2,.06-7,6.78-15.74,11-23.85,16.17-10.79,6.84-22.83,10.89-34.78,15.12-3,1-6.2,1.52-8.94,2.75-8.78,3.95-17.74.71-26.56,1.44a2.91,2.91,0,0,1-2-.87C167,330,166.28,331,165.45,331.79Z" transform="translate(-44.29 -48.59)"/><path class="cls-6" d="M81.52,221.12c-2,4.86-5.31,8.34-10.5,9.77.63-5-2-9.23-3.26-13.78-1.48-5.49-3.87-10.71-5.51-16.19-1-3.22-1.88-6.47-3.1-9.54,1-.54,1.36-.13,1.66.32,5,7.62,9.55,15.5,13.77,23.57.9,1.72,2,3.34,2.83,5.1C78.49,222.71,79.76,223,81.52,221.12Z" transform="translate(-44.29 -48.59)"/><path class="cls-8" d="M339.41,210.83c1.26-5.81,1.28-11.7,1.24-17.6,0-7.89,0-15.78,0-23.67C344.81,183.46,342.81,197.16,339.41,210.83Z" transform="translate(-44.29 -48.59)"/><path class="cls-9" d="M226.61,81.17c1.25.81,2.49,1.64,3.76,2.43,1.62,1,2.85.78,3.44-1.21l2.13,1.22c-.1,1-2.64.13-1.46,2l-7.85,3.93c-.55.44-1,1.11-1.87.64-.08-1.39-2.33-1.71-1.74-3.66,2-.12,4.1,1.69,6-.38-.68-1.85-2.41-2.61-3.76-3.73C225.49,81.73,225.82,81.2,226.61,81.17Z" transform="translate(-44.29 -48.59)"/><path class="cls-10" d="M82.16,198a10.82,10.82,0,0,1-9.09-.06A11.75,11.75,0,0,1,82.16,198Z" transform="translate(-44.29 -48.59)"/><path class="cls-11" d="M264.46,296.68c-.66-.54-1.34-.26-2-.06,2.32-2.68,5.44-4.62,7.2-7.81l3.21-3.31.62.67C270.68,289.86,268.05,293.68,264.46,296.68Z" transform="translate(-44.29 -48.59)"/><path class="cls-12" d="M369.15,250.16l-.54.2c0-1.15-.15-2.21-1.43-2.67,1.68-1.35,2.5-3.61,5-4.75C371.17,245.64,370.52,248,369.15,250.16Z" transform="translate(-44.29 -48.59)"/><path class="cls-13" d="M86.58,208.66c.23,2.78.35,5.53-2.52,7.24a22.63,22.63,0,0,0,.55-4.06A3,3,0,0,1,86.58,208.66Z" transform="translate(-44.29 -48.59)"/><path class="cls-14" d="M234.48,85.61c-1.18-1.87,1.36-1,1.46-2l5.22.82Z" transform="translate(-44.29 -48.59)"/><path class="cls-15" d="M286.55,225c3.52-6.37,8.67-11.1,15.53-13.29a14.06,14.06,0,0,1,16.19,6.53,21.15,21.15,0,0,1,3,11.23c1.1,3.31.1,6.62,0,9.93-3.1,6.51-5.77,13.26-10.06,19.13-2.38,3.27-4.24,7-7.54,9.51-2.07,1.69-4.07,3.47-6.22,5-5.58,4.1-9.12,3.84-14.2-.83-.27-.25-.81-.21-1.22-.3-.77-.77-.32-2.15-1.49-2.94-2,1.87-2.19,4.71-3.71,6.78-2.91,3.47-4.41,7.94-7.79,11.07-2.85,2.64-5.65,5.34-8.56,7.91a103.18,103.18,0,0,1-20.64,13.84c-5.67,3-11.35,6-17.66,7.59-7.23,3-14.83,4.86-22.38,6.76-5.4,1.36-10.87,2.66-16.56,2.39-4.44-.2-8.9-.08-13.35,0a31.36,31.36,0,0,1-11.93-2.69c-11.56-4.56-19.43-13.61-27-22.87-9.44-11.61-16.09-24.8-21.11-38.91-3.84-10.77-7.79-21.55-9-32.91-.83-7.47-3.9-14.81-.3-22.8,3.23-7.16,7.08-13.4,13.5-17.77,4.21-2.87,9.12-5.25,14.25-4.48a35.69,35.69,0,0,1,15.65,5.9A41.14,41.14,0,0,1,155,200.91l.63.68a12.71,12.71,0,0,0,2.65,6.49,2.37,2.37,0,0,1-1.5,1.4,50.63,50.63,0,0,0-9.94-5.52c-4.27-1.66-8.08-4.82-12.93-4.64-3.28.12-6.44-.49-9.75,1.84-2.73,1.93-6.86,1.94-10.21,3.32-4.2,1.73-8.5,3.26-12.26,5.77.34,1.17,1.17.76,1.71,1,2.79,4.25,7.57,5.31,11.71,7.47,4.61,2.41,9.69,3.47,14.53,5.08a22.19,22.19,0,0,0,14-.11c4.83-1.71,9.8-2.65,14.87-4.6-.24,3.09.35,6.1-.8,8.11-2.23,3.87-.82,8.53-3.38,12.15-2.32,4.07-3,8.65-4.09,13.1-.71,2.86,1.31,7.39,4,7.93,3.19.63,4.14,2.17,3.38,5.18a17.11,17.11,0,0,0-.06,2.59c-.19,2.53.88,4,3.47,4s2.11-2.09,2.42-3.74-1.32-5.05,1.55-5c2.41,0,1.43,3.31,1.64,5.23.12,1.16-.89,2.82,1.16,3.15s3.82.14,4.59-2a13.66,13.66,0,0,0,1.17-5c-.17-3.27,1.14-5.09,4.23-5.82l8.9.15c.32,1.5.75,2.9,2.75,1.92s2.74-4.68,1.25-6.25c-5.5-5.82-14.48-4.22-17.8,1.46-2.4,1.34-4.84.41-7.13-.19-5.47-1.45-7-3.62-6.91-9.24,0-1.18,0-2.37,0-3.55,0-6.26,2.2-12.13,3.24-18.21,1.39-6.55.69-13.16.51-19.76,0-.33-.49-.66-.75-1-.79-3.06-.7-6.37-2.42-9.19-.79-3.36-2.66-6.21-4.45-9.07a57.77,57.77,0,0,0-9.93-11.38c-3.63-3.38-8.41-4.75-12.24-8-2.5-2.08-8-1.71-11.22.1-4.63,2.6-9.48,5.12-13.51,8.76-1.32-.65-.9-1.34-.24-2.3a26.36,26.36,0,0,1,8.67-7.71c12.37-7.27,24.3-15.12,34.09-25.78a98.22,98.22,0,0,1,11.58-10.86A70.46,70.46,0,0,1,189.15,116c3.85-1,7.79-.25,11.49-1.64l7.78-.74c2.06.42,3.76,1.77,6.05,1.74,2.57,0,4.76,0,5.48-3.09a1.44,1.44,0,0,1,1.81-1.27c.3,18.11,10.32,31.05,23.13,42.44,0,3.16,1.77,4.16,4.65,3.82h0c-1,2.55,3.61,2.17,2.3,5.19-8.47-.4-14.59-6.45-21.86-9.84a32.77,32.77,0,0,0,8.56,7.8c12.28,8.46,25.28,15.38,40.26,17.76.22,2.92-.67,6.1,1.94,8.47-.19,4.88,2.34,9.44,1.63,14.37-.25,1.76,1.23,1.26,2.1,1.57.06,1,.12,2,.18,2.95.06,8.19.23,16.37-.56,25.31C286.16,228.64,285.37,226.46,286.55,225Zm7.21,16.29c2.93,5.05-.94,9.37-1.77,14.09,3-1.58,5.11-3.66,5.66-6.92,1.49-4.28,2-8.65-.37-12.7-1.81-3.12-1.19-5.2,1.76-6.88a9.75,9.75,0,0,1,6.44,9.24c-.07,2.89-.45,5.76-.69,8.65-1.39.23-1.31,1.63-1.8,2.48-2.42,4.27-5.73,7.9-8.35,12a24,24,0,0,0,10.76-13.55c3.12-4,3.43-8.77,3.32-13.6.29-5-.92-6.86-5.19-7.8-.92-3.14-.36-3.93,2.67-3.93a7.57,7.57,0,0,1,3.9,1.25c1.63.45,2.56,1.93,4.23,3.24-.17-2.8-2.16-4-2.94-5.84a7.74,7.74,0,0,0-9-2.18,16.84,16.84,0,0,0-6.61,4.25,18.24,18.24,0,0,0-6,8.38c-1.14,1.83.19,2.74,1.48,3.6l-2,1.13c-.4,1.13.11,1.79,1.11,2.24A11.44,11.44,0,0,1,293.76,241.28Zm-136.95,45c1.55,1.28,2.8,2.95,4.72,3.78,0,2.5-1.9,3.72-3.41,5.24a2.48,2.48,0,0,0-.8,2.92c.67,1.35,1.79.67,2.83.46,3.26-.67,6.69-2.2,9.76-1.68,5.1.87,10.57.82,15.21,3.78.76.48,1.78,1.21,2.59.12s.26-2.09-.52-2.91c-1.85-1.95-3.76-3.85-5.65-5.77-1.25-.12-1.85-.74-1.69-1.85.93-1.18,2.51-.32,3.2-1.5,1-.61,2-1.25,3-1.83,1.26-.71,2.8-1.55,2.31-3.11-.55-1.79-2.4-1-3.69-.85-9.48.87-19,2-28.34-.77-1.09,0-2-1.51-3.39-.35A7.85,7.85,0,0,0,156.81,286.25ZM153.08,277c-.65,1.2-1.29,2.4-1.86,3.47,13.09-1.35,26,.64,39.78.26l-2.79-2.26a12.08,12.08,0,0,0-1.8-1.84c-4.18-2.71-8.12-6.18-13.77-3.45a11.45,11.45,0,0,1-7.65.44C160.22,272.45,156.6,274.35,153.08,277Zm49.44-58.48c2,1.2,3.93,2.74,6.34,3.14a51.9,51.9,0,0,1,10.46,3.17c6.81,2.67,13.66,1.54,20.38,1,5.78-.47,11.39-2.72,16.83-4.89,1.78-.71,4.33-1,4.66-3.77a44.68,44.68,0,0,0-15.75-10.38c-6.8-2.81-13.19-7.12-21.19-6.07-1.63.21-2.94,1-4.43,1.3a66.24,66.24,0,0,0-24.62,10.25c-.66.42-2.68,1.41-.64,2.83C197.71,215.12,200.15,216.76,202.52,218.56Zm-8.46-26.12c-2,1.23-2.41,3.64-4,5.2-4.44,7.45-4.16,9.33,2.14,14a4.61,4.61,0,0,0,1-.75,24.57,24.57,0,0,0,1.49-2.13c4.06-6.35,8.82-12.1,15-16.46,8.4-5.92,17.63-9.15,28.05-7.61,6.94,1,12.89,4.28,18.29,8.69,1.16.95,2.22,2.29,4.16,2.36.13-1.66-.76-2.6-1.57-3.6-2.43-3-2.26-3.76,1.18-5.56,1.73.36,2.37,2.83,5,2.5-1.57-3.6-4.19-6-6.63-8.37-3.48-3.39-7-6.64-11.78-8.61-2.61-1.08-5.72-3.56-7.92-3.45-5.62.3-11.62-2.85-17.07,2.42-2.95,2.85-7.89,3.67-11.61,6.14A57,57,0,0,0,194.06,192.44Z" transform="translate(-44.29 -48.59)"/><path class="cls-4" d="M155,200.91a41.14,41.14,0,0,0-11.16-12.12,35.69,35.69,0,0,0-15.65-5.9c-5.13-.77-10,1.61-14.25,4.48-6.42,4.37-10.27,10.61-13.5,17.77-3.6,8-.53,15.33.3,22.8,1.25,11.36,5.2,22.14,9,32.91,5,14.11,11.67,27.3,21.11,38.91,7.54,9.26,15.41,18.31,27,22.87a31.36,31.36,0,0,0,11.93,2.69c4.45-.06,8.91-.18,13.35,0,5.69.27,11.16-1,16.56-2.39,7.55-1.9,15.15-3.75,22.38-6.76.22.64.43,1.28.64,1.93-9.53,4.36-19.19,8.69-29.57,10.22a100.56,100.56,0,0,1-31,.18c-17.12-5-28.57-17.29-39.06-30.74A106.21,106.21,0,0,1,107,268.65,160.1,160.1,0,0,1,100.2,246a65.27,65.27,0,0,1-1.26-6.55,4.34,4.34,0,0,0-.64-3.29l-1.25-3.93v-.72c-.5-5.76-.93-11.53-1.52-17.28-1.23-11.9-1.63-23.79,1.64-35.41a51.94,51.94,0,0,1,8.49-17.09c1.33-1.76,3.25-1.68,4.7-2.22,10-3.76,18-10.2,25.07-17.91,7.29-7.93,14.66-15.73,24-21.28A51.13,51.13,0,0,1,173,114.41c4.55-1.16,9-2.79,13.83-2.18,4.6.82,9.13,2.07,13.86,2.08-3.7,1.39-7.64.68-11.49,1.64a70.46,70.46,0,0,0-26.9,12.92,98.22,98.22,0,0,0-11.58,10.86c-9.79,10.66-21.72,18.51-34.09,25.78a26.36,26.36,0,0,0-8.67,7.71c-.66,1-1.08,1.65.24,2.3-2.3,2.88-5.68,5-6.91,9.64a41.56,41.56,0,0,1,10.85-7.27c2.83-1.34,5.68-3.06,9.09-2.35,5.19-.3,10.37-.11,15.56.1.41,1.72,2.14,1.08,3.19,1.67a41.41,41.41,0,0,1,15.73,15.84c-.06.94-.53,2.38-.1,2.74C158.05,198,156,199.34,155,200.91Z" transform="translate(-44.29 -48.59)"/><path class="cls-16" d="M278.77,178.11c-15-2.38-28-9.3-40.26-17.76a32.77,32.77,0,0,1-8.56-7.8c7.27,3.39,13.39,9.44,21.86,9.84,1.31-3-3.34-2.64-2.3-5.19,6.25,4.38,13.09,7.73,19.92,11,3.14,1.53,6.68,2.21,10,3.28C279.22,173.72,279.81,176,278.77,178.11Z" transform="translate(-44.29 -48.59)"/><path class="cls-17" d="M109.48,282.24c-2.25,5.31-6.68,8.62-11.13,11.83-1.24.89-2.49-.29-3.39-1.24-3.27-3.48-4.07-8.33-6.7-12.19-.48-.71.67-.84,1.23-1.06,6.29,1.06,12.65,1.12,19,1.28C109.31,280.88,109.47,281.54,109.48,282.24Z" transform="translate(-44.29 -48.59)"/><path class="cls-18" d="M296.61,118.74c5.51,2,10.33,4.84,13.08,10.35.24.46,1,.65,1.58,1a6,6,0,0,0-.25,3.06c.42,1.37-.33,1.9-1.58,2a139.66,139.66,0,0,1-17.1-14.75c.27-.89-.07-2,1-2.68C294.55,117.5,295.43,118.6,296.61,118.74Z" transform="translate(-44.29 -48.59)"/><path class="cls-19" d="M292.58,126.56a40.19,40.19,0,0,1,11.68,11c-.4,1.68-.93,3.27-2.69,4-4.71-3.94-9.65-7.63-13.79-12.21,1.23-3.3,3.4-.68,5.43-.57C292.74,127.94,292.13,127.33,292.58,126.56Z" transform="translate(-44.29 -48.59)"/><path class="cls-20" d="M188.91,99.3c-1-1.26-2.4-1.31-3.83-1.31-2.71,0-5.42,0-8.13,0a3.11,3.11,0,0,0-2.67.81c-2.63,3-9.89,3.57-12.72.76-1.39-1.39-3.5-.11-5.07-2.22,2-.77,3.86-1.23,5.34.22,2.9,2.85,6.31,1.28,9.5,1.42,1,.05,1.23-1,1.15-2a1.63,1.63,0,0,0-1.7-1.61c-1.62-.08-3.25,0-4.87-.09-1.13,0-2.37.32-3.35-.73,3.11-1.8,8.67-1.39,11.06.71,1.71,1.5,3.85,1.18,5.86,1.27,4.08.19,8.24-.47,12.14,1.34C190.55,98,189.38,98,188.91,99.3Z" transform="translate(-44.29 -48.59)"/><path class="cls-21" d="M149.36,103.45c.77,1.42,1.06,2.57-.82,3.55-5.55,2.86-11,5.86-16.81,9C133.77,110.31,141.36,105,149.36,103.45Z" transform="translate(-44.29 -48.59)"/><path class="cls-22" d="M290.94,146.32l-8.37-7.78c-.22-1.81-.93-3.57-.54-5.44,5.31,3.07,10.15,6.66,13.67,11.81-1.33,1-2-1-3.24-.71C292.6,145.37,292.39,146.32,290.94,146.32Z" transform="translate(-44.29 -48.59)"/><path class="cls-23" d="M128.36,106.55c3.46-3.72,7.24-6.89,12.43-7.93,1.33-.27,2.31-.22,3,1.26-3.79,3.88-8.74,6-13.29,8.67l-1.8.32Z" transform="translate(-44.29 -48.59)"/><path class="cls-6" d="M135.53,120.83c3.86-5.08,9-8.35,14.88-10.61,1.53.19,3.12.27,3.83,2a61.87,61.87,0,0,0-17.41,10A1.31,1.31,0,0,1,135.53,120.83Z" transform="translate(-44.29 -48.59)"/><path class="cls-24" d="M188.91,99.3c.47-1.32,1.64-1.27,2.71-1.4A51.51,51.51,0,0,1,214,111.64c-2.58.15-4.14-1.7-5.93-3A65.32,65.32,0,0,0,188.91,99.3Z" transform="translate(-44.29 -48.59)"/><path class="cls-25" d="M286.55,225c-1.18,1.47-.39,3.65-2.49,5.79.79-8.94.62-17.12.56-25.31,1.42,2.62.35,5.55,1.16,9.15.3-4.16-.14-7.62,1.71-11.15,1.76,2.73,1,5.27,1,7.63s.34,4.89-2.75,6C284.71,217.49,285.48,223.46,286.55,225Z" transform="translate(-44.29 -48.59)"/><path class="cls-26" d="M283.68,194.8c7.1-1,18.3,9.18,17.88,16.45C296.83,203.77,291.71,197.66,283.68,194.8Z" transform="translate(-44.29 -48.59)"/><path class="cls-27" d="M282.29,173.37c7.86,2.95,14.75,7.24,19.48,14.46C295.19,183.14,288.72,178.29,282.29,173.37Z" transform="translate(-44.29 -48.59)"/><path class="cls-28" d="M200.64,114.31c-4.73,0-9.26-1.26-13.86-2.08a4.42,4.42,0,0,1,3.53-1.24c6.15.07,12.31.06,18.11,2.58Z" transform="translate(-44.29 -48.59)"/><path class="cls-29" d="M269.77,146.06a75,75,0,0,1,15.56,12.32,2.23,2.23,0,0,1,.71,1.39l-.81.81A186.64,186.64,0,0,1,268.85,147Z" transform="translate(-44.29 -48.59)"/><path class="cls-30" d="M292.58,126.56c-.45.77.16,1.38.63,2.3-2-.11-4.2-2.73-5.43.57L282.05,124c0-1.09.63-2.48-1.32-2.54a2.11,2.11,0,0,1,1.86-1.28Z" transform="translate(-44.29 -48.59)"/><path class="cls-31" d="M205.75,96.1c5.85,3,11,8.44,11.5,12.89-4.49-4.58-8.86-8.32-14-11A2.68,2.68,0,0,1,205.75,96.1Z" transform="translate(-44.29 -48.59)"/><path class="cls-32" d="M278.16,141.6a39.45,39.45,0,0,1,10.39,8.5,7.27,7.27,0,0,1-3.34,1.36l-8.53-7.72C277.17,143,277.67,142.32,278.16,141.6Z" transform="translate(-44.29 -48.59)"/><path class="cls-33" d="M282,133.1c-.39,1.87.32,3.63.54,5.44-3.65-3.1-6.8-6.78-10.84-9.43,0-1.14.66-1.64,1.73-1.71C276.18,129.51,279.58,130.59,282,133.1Z" transform="translate(-44.29 -48.59)"/><path class="cls-34" d="M300.42,193c-3.42-2.49-6.16-4.59-9-6.53s-5.73-3.66-8.81-5.62C286.49,179.75,296.85,186.8,300.42,193Z" transform="translate(-44.29 -48.59)"/><path class="cls-35" d="M282,271.94c.41.09,1,.05,1.22.3,5.08,4.67,8.62,4.93,14.2.83,2.15-1.57,4.15-3.35,6.22-5-.64,3.6-4,4.78-6.33,6.81a16,16,0,0,1-3.18,2.08C289.58,279.22,285,277.34,282,271.94Z" transform="translate(-44.29 -48.59)"/><path class="cls-34" d="M273.46,127.4c-1.07.07-1.71.57-1.73,1.71L257,118.38A66.85,66.85,0,0,1,273.46,127.4Z" transform="translate(-44.29 -48.59)"/><path class="cls-36" d="M290.94,146.32c1.45,0,1.66-.95,1.52-2.12,1.25-.31,1.91,1.73,3.24.71,1.54.93,2.11,2.66,3.24,3.94-.05,1.58-1,2.25-2.44,2.5Z" transform="translate(-44.29 -48.59)"/><path class="cls-35" d="M301.57,141.64c1.76-.77,2.29-2.36,2.69-4,1.74,2.05,3.56,4,4.42,6.66l-2,2Z" transform="translate(-44.29 -48.59)"/><path class="cls-37" d="M93.65,229.65c-2.51.29-3.38-.9-3-3.27,1.19-1.76,3.57-2.66,3.68-5.19q.72,4.81,1.43,9.63C93.89,232.64,94.87,229.11,93.65,229.65Z" transform="translate(-44.29 -48.59)"/><path class="cls-38" d="M282.59,120.2a2.11,2.11,0,0,0-1.86,1.28c1.95.06,1.3,1.45,1.32,2.54-3.12-1.78-5.25-4.85-8.48-6.49a1.83,1.83,0,0,1,2-2Z" transform="translate(-44.29 -48.59)"/><path class="cls-39" d="M290.4,118.31c-3.68-2.16-6.41-5.45-9.75-8.11,4.06,0,7.14,2.28,10.38,4.16-1.12-.15-2.12,0-2.62,1.34A3.3,3.3,0,0,1,290.4,118.31Z" transform="translate(-44.29 -48.59)"/><path class="cls-40" d="M98.3,236.12a4.34,4.34,0,0,1,.64,3.29c-1.36-.64-1.54.78-2.18,1.32-2.33,2-4.4,4.27-7.43,5.23A1.71,1.71,0,0,1,88,244C91.86,241.9,95.78,239.92,98.3,236.12Z" transform="translate(-44.29 -48.59)"/><path class="cls-41" d="M88,244a1.71,1.71,0,0,0,1.31,2c-4.89,3.49-10.35,3.43-16,2.35A23.41,23.41,0,0,0,88,244Z" transform="translate(-44.29 -48.59)"/><path class="cls-42" d="M94.37,221.19c-.11,2.53-2.49,3.43-3.68,5.19,0-3.25-1.15-6.73,1.54-9.79A4.77,4.77,0,0,1,94.37,221.19Z" transform="translate(-44.29 -48.59)"/><path class="cls-43" d="M275.54,115.57a1.83,1.83,0,0,0-2,2l-9.74-7.15.5-1C268.37,110.82,271.93,113.25,275.54,115.57Z" transform="translate(-44.29 -48.59)"/><path class="cls-44" d="M314.62,134.43q3.21,4.83,6.43,9.66c-3.74-1.58-6.18-4.59-9.11-7C313.68,137.07,314.34,135.94,314.62,134.43Z" transform="translate(-44.29 -48.59)"/><path class="cls-45" d="M224.76,90.18c.85.47,1.32-.2,1.87-.64,0,3-.12,6.06-.12,9.09,0,1.42-.74,2-2,1.94-.94,0-2.4.57-1.91-1.41,1.57,0,2.08-.88,2.07-2.26,0-2.06-.08-4.11-.11-6.16A1.31,1.31,0,0,1,224.76,90.18Z" transform="translate(-44.29 -48.59)"/><path class="cls-46" d="M205.75,96.1a2.68,2.68,0,0,0-2.5,1.88l-7.94-4.62C199.39,92.28,202.63,94,205.75,96.1Z" transform="translate(-44.29 -48.59)"/><path class="cls-47" d="M265.16,133.05a67.91,67.91,0,0,1,9.21,5.81,2.79,2.79,0,0,0-1.46,2.12l-8.58-7.09Z" transform="translate(-44.29 -48.59)"/><path class="cls-48" d="M278.77,178.11c1-2.11.45-4.39.7-6.59a42.48,42.48,0,0,1,1.24,15.06C278.1,184.21,279,181,278.77,178.11Z" transform="translate(-44.29 -48.59)"/><path class="cls-49" d="M285.21,151.46a7.27,7.27,0,0,0,3.34-1.36c1.67,1.84,3.65,3.43,4.54,5.87l-2,.69Z" transform="translate(-44.29 -48.59)"/><path class="cls-50" d="M290.4,118.31a3.3,3.3,0,0,0-2-2.61c.5-1.38,1.5-1.49,2.62-1.34,1.46.84,2.84,2,4.41,2.45,1.32.38.92,1.21,1.17,1.93-1.18-.14-2.06-1.24-3.32-1.08-1,.68-.68,1.79-1,2.68Z" transform="translate(-44.29 -48.59)"/><path class="cls-51" d="M154.24,112.23c-.71-1.74-2.3-1.82-3.83-2,4.52-1.22,9.06-2.18,13.79-.83A17.17,17.17,0,0,0,154.24,112.23Z" transform="translate(-44.29 -48.59)"/><path class="cls-52" d="M93.65,229.65c1.22-.54.24,3,2.15,1.17l1.24.65v.72c-2.12,1.56-3.34,4.11-5.82,5.28l-1.42-.7c-.8-1,.09-1.16.68-1.63C92.22,233.73,94.08,232.33,93.65,229.65Z" transform="translate(-44.29 -48.59)"/><path class="cls-53" d="M89.81,236.77l1.42.7c-1.66,1.94-4,2.88-6.17,3.94-.75.36-1.46.55-1.91-.35a1.14,1.14,0,0,1,.54-1.65C85.81,238.7,87.3,236.56,89.81,236.77Z" transform="translate(-44.29 -48.59)"/><path class="cls-54" d="M302.27,153.3l5.13,7.12-.73.66c-2.63-1.57-4.43-4.08-6.42-6.37C301,154.37,302,154.33,302.27,153.3Z" transform="translate(-44.29 -48.59)"/><path class="cls-41" d="M291.1,156.66l2-.69c2.93,1.28,4.09,4,5.46,6.55A27,27,0,0,1,291.1,156.66Z" transform="translate(-44.29 -48.59)"/><path class="cls-55" d="M269,286.85c3.38-3.13,4.88-7.6,7.79-11.07a19.92,19.92,0,0,1-3.07,6.7,6.09,6.09,0,0,0-.84,3l-3.21,3.31C269.42,288.16,269.19,287.51,269,286.85Z" transform="translate(-44.29 -48.59)"/><path class="cls-56" d="M314.62,134.43c-.28,1.51-.94,2.64-2.68,2.68l-2.5-2c1.25-.08,2-.61,1.58-2a6,6,0,0,1,.25-3.06Z" transform="translate(-44.29 -48.59)"/><path class="cls-57" d="M78,243H67.21v-.68H78Z" transform="translate(-44.29 -48.59)"/><path class="cls-58" d="M265.16,133.05l-.83.84a52.75,52.75,0,0,1-9.61-6.74C258.62,128.38,261.85,130.77,265.16,133.05Z" transform="translate(-44.29 -48.59)"/><path class="cls-42" d="M321.2,239.39c.13-3.31,1.13-6.62,0-9.93,2.46.62,3.71,4.5,1.9,6.7C322.29,237.19,321.9,238.36,321.2,239.39Z" transform="translate(-44.29 -48.59)"/><path class="cls-59" d="M302.27,153.3c-.28,1-1.26,1.07-2,1.41-1.74-.58-2.41-2.34-3.75-3.36,1.41-.25,2.39-.92,2.44-2.5Z" transform="translate(-44.29 -48.59)"/><path class="cls-60" d="M224.56,90.74c0,2.05.08,4.1.11,6.16,0,1.38-.5,2.31-2.07,2.26C221.09,95.85,223.63,93.48,224.56,90.74Z" transform="translate(-44.29 -48.59)"/><path class="cls-44" d="M306.71,146.27l2-2c1.47.59,1.7,2.24,2.72,3.21a3.4,3.4,0,0,1-1.42,2.09Z" transform="translate(-44.29 -48.59)"/><path class="cls-61" d="M269.77,146.06l-.92.94a24.34,24.34,0,0,1-6.84-5.62C264.91,142.46,267.69,143.68,269.77,146.06Z" transform="translate(-44.29 -48.59)"/><path class="cls-62" d="M272.91,141a2.79,2.79,0,0,1,1.46-2.12l3.79,2.74c-.49.72-1,1.43-1.48,2.14Z" transform="translate(-44.29 -48.59)"/><path class="cls-51" d="M135.53,120.83a1.31,1.31,0,0,0,1.3,1.36l-4.94,3.73C132.36,123.55,133.21,121.6,135.53,120.83Z" transform="translate(-44.29 -48.59)"/><path class="cls-63" d="M285.23,160.58l.81-.81c2.24.93,3.33,2.94,4.47,5A10.85,10.85,0,0,1,285.23,160.58Z" transform="translate(-44.29 -48.59)"/><path class="cls-64" d="M226.61,81.17c-.79,0-1.12.56-1.32,1.24l-4.75-4.23C223.21,78.11,225,79.48,226.61,81.17Z" transform="translate(-44.29 -48.59)"/><path class="cls-64" d="M310,149.56a3.4,3.4,0,0,0,1.42-2.09,15.25,15.25,0,0,1,2.14,5.14C311.6,152.19,310.83,150.82,310,149.56Z" transform="translate(-44.29 -48.59)"/><path class="cls-16" d="M249.54,157.21c-2.88.34-4.66-.66-4.65-3.82Z" transform="translate(-44.29 -48.59)"/><path class="cls-65" d="M128.36,106.55l.34,2.32,1.8-.32a5.09,5.09,0,0,1-5.07,1.9Z" transform="translate(-44.29 -48.59)"/><path class="cls-50" d="M269,286.85c.22.66.45,1.31.67,2-1.76,3.19-4.88,5.13-7.2,7.81-11.95,9.53-25.4,16.28-39.69,21.5-.21-.65-.42-1.29-.64-1.93,6.31-1.54,12-4.63,17.66-7.59a103.18,103.18,0,0,0,20.64-13.84C263.32,292.19,266.12,289.49,269,286.85Z" transform="translate(-44.29 -48.59)"/><path class="cls-4" d="M259.81,186.6c-3.44,1.8-3.61,2.56-1.18,5.56.81,1,1.7,1.94,1.57,3.6-1.94-.07-3-1.41-4.16-2.36-5.4-4.41-11.35-7.66-18.29-8.69-10.42-1.54-19.65,1.69-28.05,7.61-6.2,4.36-11,10.11-15,16.46a24.57,24.57,0,0,1-1.49,2.13,4.61,4.61,0,0,1-1,.75c-6.3-4.69-6.58-6.57-2.14-14,.19.94.68,1,1.25.34,1.36-1.63,2.68-3.29,4-4.94a58.75,58.75,0,0,1,30.27-15.35C238.59,175.19,249.69,178.75,259.81,186.6Z" transform="translate(-44.29 -48.59)"/><path class="cls-66" d="M194.56,215.12c-2-1.42,0-2.41.64-2.83A66.24,66.24,0,0,1,219.82,202c1.49-.26,2.8-1.09,4.43-1.3,8-1.05,14.39,3.26,21.19,6.07a44.68,44.68,0,0,1,15.75,10.38c-1.16,1-2.58.22-3.83.53A15.29,15.29,0,0,0,252,215.3l-9.92-4.14c-.89,2.58-1.48,5.2-4.24,6.17-.84,2.31-2.63,2.54-4.81,2.48-4.73-.13-9.47,0-14.2,0-1-.66-2.15-.53-3.24-.7-.16-.42-.75-.84,0-1.26l1.18.11c2.12,1.65,4.12.77,6.47-.41-3.22-.53-2.89-3.31-3.78-5.23-.69-1.51-1.29-2.74-3.24-2.24-4.32,1-8.85,1.26-12.92,3.27-1.35,0-2.76-.29-4,.61Zm43.33-3.69c-1.23-1.55-3-1.93-4.83-2.19a2,2,0,0,0-2.3.77c-.53.94.1,1.62.65,2.3C233.71,215.13,235.92,214.86,237.89,211.43Z" transform="translate(-44.29 -48.59)"/><path class="cls-66" d="M103.43,211.24c-.54-.23-1.37.18-1.71-1,3.76-2.51,8.06-4,12.26-5.77,3.35-1.38,7.48-1.39,10.21-3.32,3.31-2.33,6.47-1.72,9.75-1.84,4.85-.18,8.66,3,12.93,4.64a50.63,50.63,0,0,1,9.94,5.52l3.49,3.67c-1,1.65-2.72-.49-3.77.77a19,19,0,0,0-7.68-4.4c-1,2-2,3.85-3,5.7-1.71.14-2.12,2.94-4.32,2.09l-6.09,0c-2.22-.27-4.46-.51-5.65-2.83a7.2,7.2,0,0,1-2.95-4.41c-.48-2.14-1.71-2.78-3.72-2A38.25,38.25,0,0,0,110.74,210C108.55,211.83,105.74,210.07,103.43,211.24Zm40.75-2.72c-3-2.2-5.56-2.33-7-.44-1.18,1.62,0,2.3,1.18,3C141.07,212.58,142.38,212,144.18,208.52Z" transform="translate(-44.29 -48.59)"/><path class="cls-66" d="M259.81,186.6c-10.12-7.85-21.22-11.41-34.19-8.91A58.75,58.75,0,0,0,195.35,193l-1.29-.6a57,57,0,0,1,15.74-15.21c3.72-2.47,8.66-3.29,11.61-6.14,5.45-5.27,11.45-2.12,17.07-2.42,2.2-.11,5.31,2.37,7.92,3.45,4.78,2,8.3,5.22,11.78,8.61,2.44,2.38,5.06,4.77,6.63,8.37C262.18,189.43,261.54,187,259.81,186.6Z" transform="translate(-44.29 -48.59)"/><path class="cls-66" d="M155.66,193.15a41.41,41.41,0,0,0-15.73-15.84c-1.05-.59-2.78.05-3.19-1.67-4.08-2.6-8.58-2.24-13.08-1.82a2.48,2.48,0,0,0-2.48,1.72c-3.41-.71-6.26,1-9.09,2.35a41.56,41.56,0,0,0-10.85,7.27c1.23-4.64,4.61-6.76,6.91-9.64,4-3.64,8.88-6.16,13.51-8.76,3.23-1.81,8.72-2.18,11.22-.1,3.83,3.2,8.61,4.57,12.24,8A57.77,57.77,0,0,1,155.05,186c1.79,2.86,3.66,5.71,4.45,9.07-.69,1-.31,1.92.19,2.92.42.83,1.21,2-.69,2.27C158,197.85,157.26,195.28,155.66,193.15Z" transform="translate(-44.29 -48.59)"/><path class="cls-67" d="M158.92,243.21c0,1.18,0,2.37,0,3.55,0,5.62,1.44,7.79,6.91,9.24,2.29.6,4.73,1.53,7.13.19l.36.13c-.22.43-1,.82-.57,1.31,1.05,1.32,2-.38,3.08-.21a2.19,2.19,0,0,0,2,1.49c-3.09.73-4.4,2.55-4.23,5.82a13.66,13.66,0,0,1-1.17,5c-.77,2.17-2.69,2.35-4.59,2s-1-2-1.16-3.15c-.21-1.92.77-5.19-1.64-5.23-2.87-.05-1.21,3.22-1.55,5s.23,3.75-2.42,3.74-3.66-1.46-3.47-4a17.11,17.11,0,0,1,.06-2.59c.76-3-.19-4.55-3.38-5.18-2.7-.54-4.72-5.07-4-7.93,1.1-4.45,1.77-9,4.09-13.1.89,1.34.47,2.72.07,4.09-1.2,6.57-.4,12.45,5.62,16.6,1.78,1.23,3.51,2.46,6.67,1.44-2.72-2-4.75-3.37-6.69-4.88C155.55,253.05,155.07,247.24,158.92,243.21Z" transform="translate(-44.29 -48.59)"/><path class="cls-68" d="M257.36,217.72c1.25-.31,2.67.51,3.83-.53-.33,2.74-2.88,3.06-4.66,3.77-5.44,2.17-11,4.42-16.83,4.89-6.72.56-13.57,1.69-20.38-1a51.9,51.9,0,0,0-10.46-3.17c-2.41-.4-4.3-1.94-6.34-3.14a4.46,4.46,0,0,0,3.38-1.65c3.35.24,6.33,2.11,9.71,2.19,1.09.17,2.25,0,3.24.7a50.17,50.17,0,0,0,13.72.95C240.92,220.44,249.34,220.73,257.36,217.72Z" transform="translate(-44.29 -48.59)"/><path class="cls-10" d="M154.47,243.43c.4-1.37.82-2.75-.07-4.09,2.56-3.62,1.15-8.28,3.38-12.15,1.15-2,.56-5,.8-8.11-5.07,1.95-10,2.89-14.87,4.6a22.19,22.19,0,0,1-14,.11c-4.84-1.61-9.92-2.67-14.53-5.08-4.14-2.16-8.92-3.22-11.71-7.47,2.31-1.17,5.12.59,7.31-1.27L110,211.5c.81,1.77,4.69,3.88,6.27,3.35.93-.31.61-.93.24-1.51,1.37.27,2.8.37,3.9,1.39-.81-.09-1.73-.51-2.24.87a8.14,8.14,0,0,0,4.26,1l2,1.86c-1.88,1.43-1,2.4.72,2.25,5.5-.46,10.92.87,16.41.4,1.61-.14,3.24-.06,4.3-1.72-.86-.69-1.94.36-2.72-.42l-1.61-1.68c2.2.85,2.61-1.95,4.32-2.09,1.72.92,3.63.52,5.45.78-.66,1-2.16.07-2.89,1.45,4.2,1.1,7.6-2.42,11.5-2.09,0,9.08-2.69,17.37-3.72,25.9A2.64,2.64,0,0,1,154.47,243.43Z" transform="translate(-44.29 -48.59)"/><path class="cls-69" d="M154.47,243.43a2.64,2.64,0,0,0,1.72-2.17c1-8.53,3.73-16.82,3.72-25.9-3.9-.33-7.3,3.19-11.5,2.09.73-1.38,2.23-.49,2.89-1.45,1.67-.86,4-.16,5.23-2.08,1.05-1.26,2.8.88,3.77-.77,2.44-1.16,1.34-3.22.75-4.59a35.57,35.57,0,0,1-2.05-8.31c1.9-.24,1.11-1.44.69-2.27-.5-1-.88-1.89-.19-2.92,1.72,2.82,1.63,6.13,2.42,9.19.1,1.4.26,2.8.27,4.2,0,5.52,0,11,0,16.55-1,6.08-3.26,11.95-3.24,18.21-3.85,4-3.37,9.84,1.15,13.38,1.94,1.51,4,2.9,6.69,4.88-3.16,1-4.89-.21-6.67-1.44C154.07,255.88,153.27,250,154.47,243.43Z" transform="translate(-44.29 -48.59)"/><path class="cls-21" d="M181.54,292.19c1.89,1.92,3.8,3.82,5.65,5.77.78.82,1.31,1.87.52,2.91s-1.83.36-2.59-.12c-4.64-3-10.11-2.91-15.21-3.78-3.07-.52-6.5,1-9.76,1.68-1,.21-2.16.89-2.83-.46a2.48,2.48,0,0,1,.8-2.92c1.51-1.52,3.43-2.74,3.41-5.24,1.55,2,3.65,2.27,6,2.25,4.29,0,8.61-.27,12.86.68C181.1,293.11,181.41,292.8,181.54,292.19Z" transform="translate(-44.29 -48.59)"/><path class="cls-70" d="M188.21,278.51l2.79,2.26c-13.79.38-26.69-1.61-39.78-.26.57-1.07,1.21-2.27,1.86-3.47a4.87,4.87,0,0,0,1.59-.13c4.08-1.89,8.09-2.86,12.19,0a3.47,3.47,0,0,0,2.52.19C175.82,275.46,182.12,275.47,188.21,278.51Z" transform="translate(-44.29 -48.59)"/><path class="cls-71" d="M156.37,282.28c9.38,2.76,18.86,1.64,28.34.77,1.29-.12,3.14-.94,3.69.85.49,1.56-1.05,2.4-2.31,3.11-1,.58-2,1.22-3,1.83-.53-2.13-2.25-1.21-3.47-1.23-6.94-.14-14,.93-20.68-2C158,284.54,156.31,284.08,156.37,282.28Z" transform="translate(-44.29 -48.59)"/><path class="cls-72" d="M299,228.87c-3,1.68-3.57,3.76-1.76,6.88,2.36,4.05,1.86,8.42.37,12.7-.71-.65.09-1.31,0-2-.06-7.47-2.32-10.24-8.37-10.26l2-1.13c-1.29-.86-2.62-1.77-1.48-3.6a1.18,1.18,0,0,0,1.38-.59c2.64-3.85,6.48-6.26,10.37-8.59a7.8,7.8,0,0,1,4.32-1c1.49,0,3.59-.66,4.25,1.73a2.29,2.29,0,0,0,0,.64,7.57,7.57,0,0,0-3.9-1.25c-3,0-3.59.79-2.67,3.93l-3.27,1.28C299.59,227.77,299,228,299,228.87Z" transform="translate(-44.29 -48.59)"/><path class="cls-73" d="M158.9,285.65c6.68,2.89,13.74,1.82,20.68,2,1.22,0,2.94-.9,3.47,1.23-.69,1.18-2.27.32-3.2,1.5-.16,1.11.44,1.73,1.69,1.85-.13.61-.44.92-1.12.77-4.25-.95-8.57-.71-12.86-.68-2.38,0-4.48-.27-6-2.25-1.92-.83-3.17-2.5-4.72-3.78Z" transform="translate(-44.29 -48.59)"/><path class="cls-67" d="M188.21,278.51c-6.09-3-12.39-3.05-18.83-1.36a3.47,3.47,0,0,1-2.52-.19c-4.1-2.91-8.11-1.94-12.19,0a4.87,4.87,0,0,1-1.59.13c3.52-2.69,7.14-4.59,11.91-3.38a11.45,11.45,0,0,0,7.65-.44c5.65-2.73,9.59.74,13.77,3.45A12.08,12.08,0,0,1,188.21,278.51Z" transform="translate(-44.29 -48.59)"/><path class="cls-74" d="M299,228.87c0-.86.55-1.1,1.22-1.26,4.4.21,5.6,1.17,6.76,5.33.22.83-.15,2.64,1.7,1.19.11,4.83-.2,9.56-3.32,13.6-.2-.33-.41-.65-.61-1,.24-2.89.62-5.76.69-8.65A9.75,9.75,0,0,0,299,228.87Z" transform="translate(-44.29 -48.59)"/><path class="cls-28" d="M173,256.19c3.32-5.68,12.3-7.28,17.8-1.46,1.49,1.57.69,5.29-1.25,6.25s-2.43-.42-2.75-1.92l.34-.34c.48.17.69.89,1.55.6.54-2.13-.34-3.57-2.24-4.66-4.8-2.78-9-.72-13.09,1.66Z" transform="translate(-44.29 -48.59)"/><path class="cls-75" d="M310.07,223c-.66-2.39-2.76-1.7-4.25-1.73a7.8,7.8,0,0,0-4.32,1,5.18,5.18,0,0,0-3.54,1.1c-.62.45-1.69,1.37-2.2-.3a16.84,16.84,0,0,1,6.61-4.25,7.74,7.74,0,0,1,9,2.18C311.41,222,311.23,222.84,310.07,223Z" transform="translate(-44.29 -48.59)"/><path class="cls-10" d="M159,200.25a35.57,35.57,0,0,0,2.05,8.31c.59,1.37,1.69,3.43-.75,4.59l-3.49-3.67a2.37,2.37,0,0,0,1.5-1.4c2-2.63-1.86-4.92.32-8.13l-3,1.64-.63-.68c1-1.57,3-2.95.53-5-.43-.36,0-1.8.1-2.74C157.26,195.28,158,197.85,159,200.25Z" transform="translate(-44.29 -48.59)"/><path class="cls-76" d="M289.27,236.23c6.05,0,8.31,2.79,8.37,10.26-2.12-1.12-1.92-4-3.88-5.21a11.44,11.44,0,0,0-3.38-2.81C289.38,238,288.87,237.36,289.27,236.23Z" transform="translate(-44.29 -48.59)"/><path class="cls-77" d="M304.79,246.76c.2.32.41.64.61,1a24,24,0,0,1-10.76,13.55c2.62-4.14,5.93-7.77,8.35-12C303.48,248.39,303.4,247,304.79,246.76Z" transform="translate(-44.29 -48.59)"/><path class="cls-13" d="M293.76,241.28c2,1.24,1.76,4.09,3.88,5.21.1.65-.7,1.31,0,2-.55,3.26-2.62,5.34-5.66,6.92C292.82,250.65,296.69,246.33,293.76,241.28Z" transform="translate(-44.29 -48.59)"/><path class="cls-28" d="M177.87,258.91a2.19,2.19,0,0,1-2-1.49c4.71-2.27,8.9-1.79,11.27,1.3l-.34.34Z" transform="translate(-44.29 -48.59)"/><path class="cls-78" d="M205.9,216.91a4.46,4.46,0,0,1-3.38,1.65c-2.37-1.8-4.81-3.44-8-3.44l4.76-1.17C201.92,214,203.72,215.9,205.9,216.91Z" transform="translate(-44.29 -48.59)"/><path class="cls-79" d="M308.72,234.13c-1.85,1.45-1.48-.36-1.7-1.19-1.16-4.16-2.36-5.12-6.76-5.33l3.27-1.28C307.8,227.27,309,229.09,308.72,234.13Z" transform="translate(-44.29 -48.59)"/><path class="cls-53" d="M295.76,223.12c.51,1.67,1.58.75,2.2.3a5.18,5.18,0,0,1,3.54-1.1c-3.89,2.33-7.73,4.74-10.37,8.59a1.18,1.18,0,0,1-1.38.59A18.24,18.24,0,0,1,295.76,223.12Z" transform="translate(-44.29 -48.59)"/><path class="cls-4" d="M155.66,201.59l3-1.64c-2.18,3.21,1.7,5.5-.32,8.13A12.71,12.71,0,0,1,155.66,201.59Z" transform="translate(-44.29 -48.59)"/><path class="cls-10" d="M162.16,225c0-5.51,0-11,0-16.55,0-1.4-.17-2.8-.27-4.2.26.33.74.66.75,1C162.85,211.84,163.55,218.45,162.16,225Z" transform="translate(-44.29 -48.59)"/><path class="cls-80" d="M158.9,285.65l-2.09.6a7.85,7.85,0,0,1-3.83-4.32c1.42-1.16,2.3.33,3.39.35C156.31,284.08,158,284.54,158.9,285.65Z" transform="translate(-44.29 -48.59)"/><path class="cls-81" d="M194.06,192.44l1.29.6c-1.33,1.65-2.65,3.31-4,4.94-.57.67-1.06.6-1.25-.34C191.65,196.08,192.08,193.67,194.06,192.44Z" transform="translate(-44.29 -48.59)"/><path class="cls-29" d="M310.07,223c1.16-.17,1.34-1,1.32-2,.78,1.82,2.77,3,2.94,5.84-1.67-1.31-2.6-2.79-4.23-3.24A2.29,2.29,0,0,1,310.07,223Z" transform="translate(-44.29 -48.59)"/><path class="cls-12" d="M121.18,175.54a2.48,2.48,0,0,1,2.48-1.72c4.5-.42,9-.78,13.08,1.82C131.55,175.43,126.37,175.24,121.18,175.54Z" transform="translate(-44.29 -48.59)"/><path class="cls-82" d="M237.86,217.33c2.76-1,3.35-3.59,4.24-6.17L252,215.3c.64,1.59-.68,1.88-1.63,2.2-3.87,1.33-7.92.91-11.91,1.1C237.73,218.63,237.92,217.83,237.86,217.33Z" transform="translate(-44.29 -48.59)"/><path class="cls-18" d="M216.78,218l-1.18-.11a15.06,15.06,0,0,0-3.84-1.43c-2.84-.92-6-1-8.45-3.07,4.07-2,8.6-2.23,12.92-3.27-.73,1.69-.31,3.23.34,4.87C216.92,215.82,218.35,216.86,216.78,218Z" transform="translate(-44.29 -48.59)"/><path class="cls-83" d="M237.86,217.33c.06.5-.13,1.3.62,1.27,4-.19,8,.23,11.91-1.1,1-.32,2.27-.61,1.63-2.2a15.29,15.29,0,0,1,5.34,2.42c-8,3-16.44,2.72-24.79,3a50.17,50.17,0,0,1-13.72-.95c4.73,0,9.47-.12,14.2,0C235.23,219.87,237,219.64,237.86,217.33Z" transform="translate(-44.29 -48.59)"/><path class="cls-2" d="M216.78,218c1.57-1.09.14-2.13-.21-3-.65-1.64-1.07-3.18-.34-4.87,2-.5,2.55.73,3.24,2.24.89,1.92.56,4.7,3.78,5.23C220.9,218.72,218.9,219.6,216.78,218Z" transform="translate(-44.29 -48.59)"/><path class="cls-6" d="M237.89,211.43c-2,3.43-4.18,3.7-6.48.88-.55-.68-1.18-1.36-.65-2.3a2,2,0,0,1,2.3-.77C234.88,209.5,236.66,209.88,237.89,211.43Z" transform="translate(-44.29 -48.59)"/><path class="cls-20" d="M203.31,213.34c2.44,2.06,5.61,2.15,8.45,3.07a15.06,15.06,0,0,1,3.84,1.43c-.74.42-.15.84,0,1.26-3.38-.08-6.36-1.95-9.71-2.19-2.18-1-4-2.87-6.58-3C200.55,213.05,202,213.38,203.31,213.34Z" transform="translate(-44.29 -48.59)"/><path class="cls-84" d="M110,211.5l.72-1.53a38.25,38.25,0,0,1,12.38-1.89c.86,2.18,1.72,4.37,2.63,6.71l-2.09.54c-1-.32-2.27.22-3.23-.6-1.1-1-2.53-1.12-3.9-1.39A19.2,19.2,0,0,1,110,211.5Z" transform="translate(-44.29 -48.59)"/><path class="cls-85" d="M156.53,213.92c-1.26,1.92-3.56,1.22-5.23,2.08-1.82-.26-3.73.14-5.45-.78,1-1.85,2-3.7,3-5.7A19,19,0,0,1,156.53,213.92Z" transform="translate(-44.29 -48.59)"/><path class="cls-9" d="M123.66,215.33l2.09-.54c-.91-2.34-1.77-4.53-2.63-6.71,2-.82,3.24-.18,3.72,2a7.2,7.2,0,0,0,2.95,4.41c-.44,1.43-1.21,2.48-2.84,2.59-.86.06-1.45.35-1.17,1.38l-1.35.06-2-1.86A1.93,1.93,0,0,0,123.66,215.33Z" transform="translate(-44.29 -48.59)"/><path class="cls-86" d="M144.18,208.52c-1.8,3.52-3.11,4.06-5.77,2.53-1.15-.67-2.36-1.35-1.18-3C138.62,206.19,141.23,206.32,144.18,208.52Z" transform="translate(-44.29 -48.59)"/><path class="cls-87" d="M125.78,218.42c-.28-1,.31-1.32,1.17-1.38,1.63-.11,2.4-1.16,2.84-2.59,1.19,2.32,3.43,2.56,5.65,2.83.25.59.49,1.17.73,1.76C132.72,218.58,129.15,220.19,125.78,218.42Z" transform="translate(-44.29 -48.59)"/><path class="cls-64" d="M136.17,219c-.24-.59-.48-1.17-.73-1.76l6.09,0,1.61,1.68Z" transform="translate(-44.29 -48.59)"/><path class="cls-88" d="M187.11,258.72c-2.37-3.09-6.56-3.57-11.27-1.3-1.06-.17-2,1.53-3.08.21-.39-.49.35-.88.57-1.31,4.13-2.38,8.29-4.44,13.09-1.66,1.9,1.09,2.78,2.53,2.24,4.66C187.8,259.61,187.59,258.89,187.11,258.72Z" transform="translate(-44.29 -48.59)"/><path class="cls-85" d="M136.17,219l7,0c.78.78,1.86-.27,2.72.42-1.06,1.66-2.69,1.58-4.3,1.72-5.49.47-10.91-.86-16.41-.4-1.71.15-2.6-.82-.72-2.25l1.35-.06C129.15,220.19,132.72,218.58,136.17,219Z" transform="translate(-44.29 -48.59)"/><path class="cls-89" d="M110,211.5a19.2,19.2,0,0,0,6.51,1.84c.37.58.69,1.2-.24,1.51C114.71,215.38,110.83,213.27,110,211.5Z" transform="translate(-44.29 -48.59)"/><path class="cls-90" d="M123.66,215.33a1.93,1.93,0,0,1-1.21,1.29,8.14,8.14,0,0,1-4.26-1c.51-1.38,1.43-1,2.24-.87C121.39,215.55,122.61,215,123.66,215.33Z" transform="translate(-44.29 -48.59)"/></svg>