<svg id="Capa_1" data-name="Capa 1" xmlns="http://www.w3.org/2000/svg" viewBox="0 0 359.07 358.64"><defs><style>.cls-1,.cls-4{fill:#fff;}.cls-1{stroke:#fff;stroke-linejoin:round;stroke-width:12px;}.cls-2{fill:#111;}.cls-3{fill:#0f0f0f;}.cls-5{fill:#dadada;}.cls-6{fill:#dcdcdc;}.cls-7{fill:#0e0e0e;}.cls-8{fill:#dedede;}.cls-9{fill:#dbdbdb;}.cls-10{fill:#d8d8d8;}.cls-11{fill:#121212;}.cls-12{fill:#e3e3e3;}.cls-13{fill:#f6f6f6;}</style></defs><path class="cls-1" d="M382,132.26a89.1,89.1,0,0,0-8.32-24.38C367,94.55,356.7,84.2,345.47,74.63,329,60.57,310.46,50.53,289.16,46c-8.18-1.75-16.35-3.67-24.62-4.83-5.8-.81-11.75-.56-17.64-.62-15.77-.17-31.45.67-46.9,4.16-10.95,2.47-22.1,4.31-32.8,7.6a214,214,0,0,0-43.28,18.45c-21.42,12.21-40.63,27.11-56.5,46.06-3.88,4.63-8,7.53-14.41,7.34-4.53-.14-9.1,1.16-14.45,1.93,1.3.89,1.81,1.31,2.39,1.62,6.56,3.54,13.17,7,19.66,10.66a11.23,11.23,0,0,1,3.26,3.54c4.39,6.36,1,13,.46,19.49-.44,5-2.45,9.89-2.19,14.75.26,4.63-.89,8-4,11-.17.16-.44.25-.54.44-2.09,3.73-4.2,7.46-1.46,11.78,2.18,3.43,4.58,6.72,6.51,10.29,1.4,2.58,2.9,5.45,3.09,8.27.55,8.19.68,16.42.57,24.62a149.62,149.62,0,0,0,3.94,35.68c2.09,9.08,4,18.22,6.5,27.18,5.18,18.56,13.53,35.74,23.1,52.42,10.32,18,25.21,28.69,46.16,29.33,14.76.45,29.27-2.45,43.09-7.51A316.12,316.12,0,0,0,225.48,364c18-9.31,36-19.85,52-32.82,8.64-7,16.2-13.77,22.39-22.49.52-.73,1.33-1.49,1.45-2.32.65-4.6,1-9.25,1.68-13.85.77-5.5,1.69-11,2.59-16.78,10.87,2.17,20.69-.21,28.86-7a176.7,176.7,0,0,0,21-20.26c10.92-12.69,17.83-27.74,22.7-43.67A185,185,0,0,0,385.41,166C386.36,154.57,384,143.44,382,132.26Z" transform="translate(-32.56 -34.48)"/><path class="cls-2" d="M205.19,373.93c-4.27,1.53-8.51,3.16-12.84,4.55-6.33,2-12.6,4.48-19.1,5.68-10.82,2-21.64,4-32.88,2.57-18.69-2.33-31.23-12.86-40.43-28.45-9.84-16.66-18.11-34-23.34-52.71-2.51-9-4.42-18.12-6.51-27.21a150.93,150.93,0,0,1-4-36.07c.11-8,0-16-.57-23.92-.21-3-1.61-6-3-8.65-1.9-3.58-4.37-6.84-6.53-10.29-2.77-4.43-.77-8.28,1.6-12a6.07,6.07,0,0,1,1.18-1.3c3.07-2.66,3.16-6,3.17-9.86,0-4.93,1.74-9.82,2.19-14.78.6-6.49,4-13.12-.38-19.5a11.13,11.13,0,0,0-3.24-3.56c-6.48-3.68-13.1-7.13-19.66-10.68-.59-.32-1.12-.72-2.53-1.63,5.16-.8,9.48-2.14,13.74-2,7.08.3,11.41-3,15.79-8.14,15.71-18.4,34.51-33.13,55.54-45.1A214.59,214.59,0,0,1,167,52.23c10.71-3.27,21.85-5.16,32.81-7.63,15.44-3.49,31.13-4.34,46.9-4.19,5.53.06,11.07.13,16.59.51,2,.13,4,1.15,6,1.77L251,43.21l0,1.26,12.37,1.14c-74.85-3-139,21-191.06,75.78,7.69,0,14.86-.2,22,0,8.65.31,17.3,1,25.95,1.55,3.83.25,7.67.57,11.5.86-1.32.34-2.62.8-4,1-3.17.49-6.36.86-10.45,1.4l7.32,2.19-16.5-2h5.87l1.29-3.47c-4.76-.6-9.17-.33-12.62,3.42-8.12,0-16.24-.16-24.36,0a4.08,4.08,0,0,0-2.88,2.27,46.84,46.84,0,0,0-2.64,9.44c-1.32,9.22-2.3,18.48-3.49,27.72-.32,2.42-.92,4.81-1.39,7.21l-1.78,6.15c2.12-.71,3.89-1.17,5.56-1.88,7.74-3.31,15.68-3.37,23.73-1.55,7.84,1.77,14.45,6.18,21.26,10.12-.9.43-1.81,1.26-2.71,1.24-6.57-.15-13.14-.52-19.72-.7a16.21,16.21,0,0,0-3.68.77,53.49,53.49,0,0,0-21.16,3.55c-2.23,1-4.48,1.9-6.69,2.93-2,.93-2.42,1.83-.71,3.88,4.6,5.51,9.25,11.1,10.15,18.67-.18,4-.53,8-.5,12,0,5,.36,10,.57,15,.83,8.08,1.34,16.21,2.56,24.24,1.42,9.41,3.46,18.73,5.23,28.09,1.12,3.65,2.19,7.33,3.36,11A223,223,0,0,0,108,359.06c3.91,6.05,8,12.07,14.61,15.7,7.92,5.44,16.85,6.7,26.18,6.34,11.37,1.24,22-2,32.64-5.29a282.1,282.1,0,0,0,52-22.17c19.33-10.57,37.95-22.2,54-37.46,1.4-1.33,3.21-2.89,3.53-4.59,1.05-5.6,1.48-11.32,2.19-17,1.06-8.43,2.14-16.84,3.22-25.29a7.82,7.82,0,0,1,2.16-.33c2.11.48,4.17,1.28,6.3,1.58,8.72,1.26,16.23-2.08,22.95-7,24.46-18.08,38.57-42.65,44.58-72.18.62-3.07,1.38-6.12,1.9-9.21.9-5.44,2.25-10.9,2.34-16.37.11-6.29.62-12.19-.71-18.89-1-5-2.16-11.34-3.6-18.45-1.95-9.63-6.48-18-12-26.06-8.19-12-18.91-20.67-32.92-24.83A63.11,63.11,0,0,0,314,75.11c-6.93-.51-13.92-.42-20.88-.59l-9.82-3.7,1.73,3.11a30.12,30.12,0,0,1-4.63-.05c-2-.33-4-1-5.93-1.46,3.28-.68,6.55-1.48,9.85-2,3.93-.63,7.89-1,11.83-1.52a99.94,99.94,0,0,1,28.64-.14,58.68,58.68,0,0,0,6.37.28l3,1c-1.13-2.36-2-4.13-2.81-5.9,17.15,11.76,32.74,25.1,42.46,44,3.89,7.56,7.44,15.71,9,24.2,2.2,11.88,4.05,23.66,2.43,35.7A285.5,285.5,0,0,1,378,204.67a118.87,118.87,0,0,1-22.42,43.82c-7.5,9.29-15.88,17.61-26.27,23.71-7.31,4.29-15.18,5-23.66,3.75-.9,5.22-1.9,10.31-2.62,15.43s-1.08,10.19-1.76,15.27a4.76,4.76,0,0,1-1.56,2.27c-7,8.44-14.59,15.28-23,22.75-8.25,8.83-19.17,13.65-28.83,20.34l-15.7,9.11v0ZM86,122.23v.35H104v-.35Z" transform="translate(-32.56 -34.48)"/><path class="cls-3" d="M263.42,45.61l-12.37-1.14,0-1.26,18.26-.52c6.31,1,12.7,1.66,18.92,3.07,15.47,3.5,30.28,8.73,43.16,18.38.84,1.77,1.68,3.54,2.81,5.9l-3-1c-.48-.26-1-.48-1.44-.77-4.87-3.17-9.51-6.8-14.67-9.41a93,93,0,0,0-15.88-6c-6.77-2-13.66-3.59-20.57-5C273.61,46.84,268.49,46.35,263.42,45.61Z" transform="translate(-32.56 -34.48)"/><path class="cls-4" d="M116.78,185.82c-6.81-3.94-13.42-8.35-21.26-10.12-8-1.82-16-1.76-23.73,1.55-1.67.71-3.44,1.17-5.56,1.88L68,173a39.47,39.47,0,0,0,3.56-2.24c7.58-5.92,15-12.1,22.72-17.78a280.36,280.36,0,0,1,38.22-23.79,17.47,17.47,0,0,1,2.34-1.54c14.33-6.51,28.5-13.4,43.06-19.36,14-5.73,28.31-10.72,42.63-15.6,11.11-3.79,22.45-6.9,33.68-10.32l6.7-1.12c-5.68,15.89-11.09,31-16.56,46.37,3.75,2.91,7.23,5.41,10.47,8.18a90.52,90.52,0,0,1,21,26.76c11.47,20.58,15.09,42.79,12.73,65.93,7,.83,7.5.63,9.08-4.14a118,118,0,0,1,29.82-48c3.05-3,6-6.09,9-9.13-19.7.61-31.79,13.23-43.1,27.64-1.4-5.75-2.45-11.1-4-16.29-2.65-8.74-6.24-17.1-11.78-24.48-7.24-10.3-15.31-19.74-26.22-26.41a2.92,2.92,0,0,1-1-2.54c1.65-5.7,3.35-11.39,5.31-17,2.62-7.46,5.33-14.9,8.33-22.21,1-2.52,2.67-6.11,4.71-6.65,8-2.15,16.3-3.27,24.48-4.77,7,.17,13.95.08,20.88.59a63.11,63.11,0,0,1,13.36,2.43c14,4.16,24.73,12.87,32.92,24.83,5.5,8,10.34,16.76,12.16,26.42,1.14,6,2.88,12.6,3.75,19.47s.49,11.22.38,17.51c-.09,5.47-1.44,10.93-2.34,16.37-.52,3.09-1.28,6.14-1.9,9.21-6,29.53-20.12,54.1-44.58,72.18-6.72,5-14.23,8.3-22.95,7-2.13-.3-4.19-1.1-6.3-1.58a7.82,7.82,0,0,0-2.16.33c-1.08,8.45-2.16,16.86-3.22,25.29-.71,5.66-1.14,11.38-2.19,17-.32,1.7-2.13,3.26-3.53,4.59-16.08,15.26-34.7,26.89-54,37.46a282.1,282.1,0,0,1-52,22.17c-10.61,3.28-21.27,6.53-32.64,5.29a31.57,31.57,0,0,1-4.69-1.33c-8.36-3.79-15.74-9-21.14-16.48-3.42-4.75-6.38-9.83-9.54-14.76a16.84,16.84,0,0,1-1.09-1.82q-9.12-20-18.21-40l-2.5-5.52a21.2,21.2,0,0,1,2.4-.66c5.59-.76,11.41-.75,16.72-2.4,7.46-2.32,14.55-5.87,21.79-8.89l6.26-2.52a7.19,7.19,0,0,0-5.95-4.25c-4.07-.41-8.19-.56-12.21-1.27-4.41-.77-8.53-2.44-11.54-6-1.85-2.2-2.37-4.27-1.06-7.34,5.25-12.26,10.51-24.56,14.85-37.16,3.4-9.91,6.59-20,6.81-30.73Zm63.85,26.84.67.49a1,1,0,0,1-.3.14l-4.45.42.06.71,1.26.38c4.65,2.08,9.13,5.26,14,6a83.87,83.87,0,0,0,34-1.86,51.1,51.1,0,0,0,6.38-2.55l-.19-.91-6.64-.31v-7.69h19.43l.07-1c-1.63-.43-3.25-.93-4.91-1.26-8.65-1.76-17.26-3.91-26-5.07-7.73-1-15.28,1.2-22.7,3.36-5.07-.26-7-4.07-8.17-8-1.65-5.48-2.67-11.15-3.95-16.74,19.14-7,38.74-10.39,59.34-7.64a108.77,108.77,0,0,0-8.82-7.14c-8.44-6.19-17.61-9.9-28.2-6.9a139.48,139.48,0,0,0-18.18,6.3c-12.13,5.31-22.08,13.74-31.25,23.13-.86.88-2.11,2,.19,2.82,5.08,5.12,10.12,10.27,15.26,15.32C171.3,208.32,173.58,214.41,180.63,212.66ZM357,217.25l.8.59c.59-1.1,1.52-2.15,1.72-3.31,1-5.9.59-11.65-2.35-17.05-3.63-6.69-13-10.76-19.78-8.57-10.18,3.3-17.28,10.48-23.62,18.64-1.17,1.5-.94,2.6.5,3.89a75.28,75.28,0,0,1,6.36,6.52c6.09,7,9.78,14.74,7.18,24.37a45,45,0,0,0-.78,6.5c.54-.21.85-.24.92-.38,3.09-6.27,6.43-12.44,9.15-18.87,2.28-5.41.64-10.43-2.93-15a71.69,71.69,0,0,1-4.62-7c-3.21-5.23-2.83-7,2.48-10.17,5.49-3.28,12.29-4.93,16.92-.22a26.92,26.92,0,0,1,5.77,8.91C356.07,209.58,356.28,213.51,357,217.25ZM184.72,323.69l0-1c-4-.31-8.06-.86-12.1-.9-8.54-.09-17.08,0-25.62.18-3,.07-6.05,1-9,.82-9.81-.54-19.6-1.41-29.4-2.11a21.9,21.9,0,0,0-3.23.21C131.51,333.83,158.05,331.32,184.72,323.69Zm-43.9-35.4-1.34-.11a19.38,19.38,0,0,0-.71,3.38c-.09,4.23-.06,8.48-.07,12.72,0,5.61,0,5.61-5.42,6.12-.17,0-.31.3-1.06,1.05q4.8,3.49,9.3,6.76c4.66-3.65,5.16-5,4-9.28-1.08-3.93-2.06-7.89-3-11.87C141.89,294.16,141.39,291.21,140.82,288.29Z" transform="translate(-32.56 -34.48)"/><path class="cls-4" d="M263.42,45.61c5.07.74,10.19,1.23,15.2,2.27,6.91,1.44,13.8,3,20.57,5a93,93,0,0,1,15.88,6c5.16,2.61,9.8,6.24,14.67,9.41.46.29,1,.51,1.44.77a58.68,58.68,0,0,1-6.37-.28,99.94,99.94,0,0,0-28.64.14c-3.94.55-7.9.89-11.83,1.52-3.3.52-6.57,1.32-9.85,2l-11.07,3-6.5,2-7,2.76c-1.75.07-3.62-.25-5.23.26-13.8,4.38-27.82,8.23-41.27,13.54-24.06,9.48-47.75,19.87-71.6,29.88-3.83-.29-7.67-.61-11.5-.86-8.65-.55-17.3-1.24-25.95-1.55-7.15-.25-14.32,0-22,0C124.47,66.61,188.57,42.66,263.42,45.61Z" transform="translate(-32.56 -34.48)"/><path class="cls-4" d="M80.12,295.47c-1.77-9.36-3.81-18.68-5.23-28.09-1.22-8-1.73-16.16-2.56-24.24v-15.9l5.7,2.39c9.13,3.3,18.36.79,27.56.45.22,0,.43-.19.66-.25l12.42-3.07c-1.19,3.69-1.92,6.87-3.21,9.8-4.65,10.56-9.53,21-14.19,31.57a30.11,30.11,0,0,0-1.35,5.58c-1.1.66-2.53,1.07-3.24,2C92.37,281.45,88.3,287.35,84,293,83.1,294.17,81.42,294.68,80.12,295.47Z" transform="translate(-32.56 -34.48)"/><path class="cls-5" d="M80.12,295.47c1.3-.79,3-1.3,3.84-2.43,4.34-5.69,8.41-11.59,12.72-17.31.71-1,2.14-1.36,3.24-2,4.57,7.76,11.61,11.75,20.24,13.31,4.12.75,8.24,1.45,12.36,2.17-7.24,3-14.33,6.57-21.79,8.89-5.31,1.65-11.13,1.64-16.72,2.4a21.2,21.2,0,0,0-2.4.66l2.5,5.52q9.11,20,18.21,40a16.84,16.84,0,0,0,1.09,1.82c-.85,2.74-.42,5,2.43,6.43l-1.48,2.7c1.39,2.67,2.46,5,3.76,7.17,1.87,3.15,1.62,7.24,4.48,9.93-6.6-3.63-10.7-9.65-14.61-15.7a223,223,0,0,1-24.51-52.63C82.31,302.8,81.24,299.12,80.12,295.47Z" transform="translate(-32.56 -34.48)"/><path class="cls-6" d="M132.51,129.17A280.36,280.36,0,0,0,94.29,153c-7.76,5.68-15.14,11.86-22.72,17.78A39.47,39.47,0,0,1,68,173c.47-2.4,1.07-4.79,1.39-7.21,1.19-9.24,2.17-18.5,3.49-27.72a46.84,46.84,0,0,1,2.64-9.44,4.08,4.08,0,0,1,2.88-2.27c8.12-.15,16.24,0,24.36,0l5.46.05,16.5,2Z" transform="translate(-32.56 -34.48)"/><path class="cls-4" d="M69.51,190.68a53.49,53.49,0,0,1,21.16-3.55c6.77-.75,13.09.4,18.33,5,4,3.49,8.87,6.29,9.41,12.46a65,65,0,0,0,1.29,6.68c-2.42-.3-4.83-.75-7.26-.85a53.86,53.86,0,0,0-25.8,5.12c-.87-.31-2-.39-2.59-1C77,208,71.17,200.59,69.51,190.68Z" transform="translate(-32.56 -34.48)"/><path class="cls-7" d="M132.51,129.17l-7.78-.72-7.32-2.19c4.09-.54,7.28-.91,10.45-1.4,1.34-.21,2.64-.67,4-1,23.85-10,47.54-20.4,71.6-29.88,13.45-5.31,27.47-9.16,41.27-13.54,1.61-.51,3.48-.19,5.23-.26l4.3,2.18c-11.23,3.42-22.57,6.53-33.68,10.32-14.32,4.88-28.64,9.87-42.63,15.6-14.56,6-28.73,12.85-43.06,19.36A17.47,17.47,0,0,0,132.51,129.17Z" transform="translate(-32.56 -34.48)"/><path class="cls-7" d="M254.22,82.35c-3.2.57-7.7-1.25-9.14-2,2.34-.92,9.51-2,11.84-3,2-.64,5-1.6,6.5-2l11.07-3c2,.5,3.93,1.13,5.93,1.46a30.12,30.12,0,0,0,4.63.05l-1.73-3.11,9.82,3.7c-8.18,1.5-16.47,2.62-24.48,4.77-2,.54-3.67,4.13-4.71,6.65-3,7.31-5.71,14.75-8.33,22.21-2,5.6-3.66,11.29-5.31,17a2.92,2.92,0,0,0,1,2.54c10.91,6.67,19,16.11,26.22,26.41-1.78,1.29-2.32,2.72-1.28,4.91.44.91-.24,2.34-.42,3.54a90.52,90.52,0,0,0-21-26.76c-3.24-2.77-6.72-5.27-10.47-8.18,5.47-15.33,10.88-30.48,16.56-46.37Z" transform="translate(-32.56 -34.48)"/><path class="cls-5" d="M119.7,211.28a65,65,0,0,1-1.29-6.68c-.54-6.17-5.46-9-9.41-12.46-5.24-4.61-11.56-5.76-18.33-5a16.21,16.21,0,0,1,3.68-.77c6.58.18,13.15.55,19.72.7.9,0,1.81-.81,2.71-1.24l12.9,14.07c-3.77,1.88-4.16,5.8-5.22,9.17C123.56,211.89,122.34,212.78,119.7,211.28Z" transform="translate(-32.56 -34.48)"/><path class="cls-8" d="M122.6,374.76c-2.86-2.69-2.61-6.78-4.48-9.93-1.3-2.18-2.37-4.5-3.76-7.17l1.48-2.7c-2.85-1.39-3.28-3.69-2.43-6.43,3.16,4.93,6.12,10,9.54,14.76,5.4,7.52,12.78,12.69,21.14,16.48a31.57,31.57,0,0,0,4.69,1.33C139.45,381.46,130.52,380.2,122.6,374.76Z" transform="translate(-32.56 -34.48)"/><path class="cls-9" d="M69.51,190.68c1.66,9.91,7.5,17.28,14.54,23.9.62.58,1.72.66,2.59,1l-6.48,4.19.81-5.18-8.71,1.6c-.9-7.57-5.55-13.16-10.15-18.67-1.71-2.05-1.29-3,.71-3.88C65,192.58,67.28,191.65,69.51,190.68Z" transform="translate(-32.56 -34.48)"/><path class="cls-10" d="M72.26,216.16l8.71-1.6c-.37,2.35-.59,3.76-.81,5.18l-1.29,1-2.44-1.62L73,222.62l1.39,2L73.48,227c4.12-1,7.49-1.82,10.82-2.75,2.58-.72,4.07-.13,4.1,2.93-1.32.22-2.6.34-3.83.64-2.2.54-4.36,1.2-6.54,1.8l-5.7-2.39v15.9c-.21-5-.54-10-.57-15C71.73,224.14,72.08,220.15,72.26,216.16Z" transform="translate(-32.56 -34.48)"/><path class="cls-7" d="M108.23,126.4l-5.46-.05c3.45-3.75,7.86-4,12.62-3.42l-1.29,3.47Z" transform="translate(-32.56 -34.48)"/><ellipse class="cls-7" cx="62.44" cy="87.93" rx="12.78" ry="0.25"/><path class="cls-2" d="M78,229.63c2.18-.6,4.34-1.26,6.54-1.8,1.23-.3,2.51-.42,3.83-.64,0-3.06-1.52-3.65-4.1-2.93C81,225.19,77.6,226,73.48,227l.94-2.34,4.45-4,1.29-1,6.48-4.19a53.86,53.86,0,0,1,25.8-5.12c2.43.1,4.84.55,7.26.85,2.64,1.5,3.86.61,4.76-2.22,1.06-3.37,1.45-7.29,5.22-9.17-.22,10.69-3.41,20.82-6.81,30.73-4.34,12.6-9.6,24.9-14.85,37.16-1.31,3.07-.79,5.14,1.06,7.34,3,3.59,7.13,5.26,11.54,6,4,.71,8.14.86,12.21,1.27a7.19,7.19,0,0,1,5.95,4.25l-6.26,2.52c-4.12-.72-8.24-1.42-12.36-2.17-8.63-1.56-15.67-5.55-20.24-13.31a30.11,30.11,0,0,1,1.35-5.58c4.66-10.55,9.54-21,14.19-31.57,1.29-2.93,2-6.11,3.21-9.8l-12.42,3.07c-.23.06-.44.24-.66.25C96.39,230.42,87.16,232.93,78,229.63Zm41.28-4.81c2.66-6.86,2.63-6.91-4.35-7.5V224Z" transform="translate(-32.56 -34.48)"/><path class="cls-2" d="M275.87,162.54c.18-1.2.86-2.63.42-3.54-1-2.19-.5-3.62,1.28-4.91,5.54,7.38,9.13,15.74,11.78,24.48,1.57,5.19,2.62,10.54,4,16.29,11.31-14.41,23.4-27,43.1-27.64-3,3-5.92,6.14-9,9.13a118,118,0,0,0-29.82,48c-1.58,4.77-2.08,5-9.08,4.14C291,205.33,287.34,183.12,275.87,162.54Z" transform="translate(-32.56 -34.48)"/><path class="cls-2" d="M152.32,189.34c-2.3-.78-1-1.94-.19-2.82,9.17-9.39,19.12-17.82,31.25-23.13a139.48,139.48,0,0,1,18.18-6.3c10.59-3,19.76.71,28.2,6.9a108.77,108.77,0,0,1,8.82,7.14c-20.6-2.75-40.2.64-59.34,7.64Z" transform="translate(-32.56 -34.48)"/><path class="cls-2" d="M191.36,203.52c7.42-2.16,15-4.38,22.7-3.36,8.73,1.16,17.34,3.31,26,5.07,1.66.33,3.28.83,4.91,1.26l-.07,1H225.46v7.69l6.64.31.19.91a51.1,51.1,0,0,1-6.38,2.55,83.87,83.87,0,0,1-34,1.86c-4.86-.77-9.34-4-14-6l14.9.67c-.38-2.11-.64-3.51-.88-4.85l-11.27,1.25H177l-.35-1Z" transform="translate(-32.56 -34.48)"/><path class="cls-2" d="M357,217.25c-.71-3.74-.92-7.67-2.28-11.16a26.92,26.92,0,0,0-5.77-8.91c-4.63-4.71-11.43-3.06-16.92.22-5.31,3.18-5.69,4.94-2.48,10.17a71.69,71.69,0,0,0,4.62,7c3.57,4.54,5.21,9.56,2.93,15-2.72,6.43-6.06,12.6-9.15,18.87-.07.14-.38.17-.92.38a45,45,0,0,1,.78-6.5c2.6-9.63-1.09-17.36-7.18-24.37a75.28,75.28,0,0,0-6.36-6.52c-1.44-1.29-1.67-2.39-.5-3.89,6.34-8.16,13.44-15.34,23.62-18.64,6.75-2.19,16.15,1.88,19.78,8.57,2.94,5.4,3.31,11.15,2.35,17.05-.2,1.16-1.13,2.21-1.72,3.31Z" transform="translate(-32.56 -34.48)"/><path class="cls-5" d="M191.36,203.52l-14.67,7.36.35,1h3.58v.79c-7,1.75-9.33-4.34-13-8-5.14-5-10.18-10.2-15.26-15.32l26.92-10.57c1.28,5.59,2.3,11.26,3.95,16.74C184.37,199.45,186.29,203.26,191.36,203.52Z" transform="translate(-32.56 -34.48)"/><path class="cls-2" d="M184.72,323.69c-26.67,7.63-53.21,10.14-79.42-2.83a21.9,21.9,0,0,1,3.23-.21c9.8.7,19.59,1.57,29.4,2.11,3,.16,6-.75,9-.82,8.54-.17,17.08-.27,25.62-.18,4,0,8.07.59,12.1.9Z" transform="translate(-32.56 -34.48)"/><path class="cls-11" d="M140.82,288.29c.57,2.92,1.07,5.87,1.74,8.77.91,4,1.89,7.94,3,11.87,1.15,4.23.65,5.63-4,9.28q-4.5-3.25-9.3-6.76c.75-.75.89-1,1.06-1.05,5.4-.51,5.4-.51,5.42-6.12,0-4.24,0-8.49.07-12.72a19.38,19.38,0,0,1,.71-3.38Z" transform="translate(-32.56 -34.48)"/><path class="cls-12" d="M180.63,212.66v-.79l11.27-1.25c.24,1.34.5,2.74.88,4.85l-14.9-.67-1.26-.38-.06-.71,4.45-.42a1,1,0,0,0,.3-.14Z" transform="translate(-32.56 -34.48)"/><path class="cls-9" d="M78.87,220.71l-4.45,4-1.39-2,3.4-3.53Z" transform="translate(-32.56 -34.48)"/><path class="cls-13" d="M119.31,224.82,115,224v-6.63C121.94,217.91,122,218,119.31,224.82Z" transform="translate(-32.56 -34.48)"/></svg>